<?xml version="1.0" standalone="no"?>
<!DOCTYPE svg PUBLIC "-//W3C//DTD SVG 1.1//EN" "http://www.w3.org/Graphics/SVG/1.1/DTD/svg11.dtd" >
<svg>
<metadata>
Created by FontForge 20120731 at Fri Jul 10 13:22:10 2015
 By ,,,
Copyright (c) 2013 by Nico Inosanto. All rights reserved.
</metadata>
<defs>
<font id="Revisal" horiz-adv-x="595" >
  <font-face 
    font-family="Revisal"
    font-weight="400"
    font-stretch="normal"
    units-per-em="1000"
    panose-1="0 0 5 0 0 0 0 0 0 0"
    ascent="747"
    descent="-253"
    x-height="510"
    cap-height="748"
    bbox="-209 -306 1185 1063"
    underline-thickness="50"
    underline-position="-50"
    unicode-range="U+000D-FB02"
  />
<missing-glyph horiz-adv-x="703" 
d="M622 748v-748h-541v748h541zM509 686h-312l156 -256zM147 638v-530l166 265zM556 634l-162 -261l162 -260v521zM353 317l-155 -255h311z" />
    <glyph glyph-name="fi" unicode="fi" horiz-adv-x="573" 
d="M305 786q92 0 156 -47l-26 -75q-50 44 -126 44q-106 0 -106 -118v-80h283v-510h-86v436h-197v-436h-86v436h-100v74h100v84q0 192 188 192z" />
    <glyph glyph-name="f_j" unicode="fj" horiz-adv-x="573" 
d="M305 786q92 0 156 -47l-26 -75q-50 44 -126 44q-106 0 -106 -118v-80h284v-598q0 -87 -42.5 -132t-118.5 -45q-56 0 -92 18l16 77q29 -17 71 -17q80 0 80 96v527h-198v-436h-86v436h-100v74h100v84q0 192 188 192z" />
    <glyph glyph-name=".notdef" horiz-adv-x="703" 
d="M622 748v-748h-541v748h541zM509 686h-312l156 -256zM147 638v-530l166 265zM556 634l-162 -261l162 -260v521zM353 317l-155 -255h311z" />
    <glyph glyph-name=".null" horiz-adv-x="0" 
 />
    <glyph glyph-name="nonmarkingreturn" horiz-adv-x="333" 
 />
    <glyph glyph-name="CR" unicode="&#xd;" horiz-adv-x="600" 
 />
    <glyph glyph-name="space" unicode=" " horiz-adv-x="235" 
 />
    <glyph glyph-name="exclam" unicode="!" horiz-adv-x="279" 
d="M189 748l-5 -545h-91l-4 545h100zM138 109q25 0 43 -17.5t18 -42.5q0 -24 -18 -41.5t-43 -17.5q-23 0 -40.5 17.5t-17.5 41.5q0 25 17.5 42.5t40.5 17.5z" />
    <glyph glyph-name="quotedbl" unicode="&#x22;" horiz-adv-x="332" 
d="M135 742l-10 -230h-70l-10 230h90zM286 742l-10 -230h-70l-10 230h90z" />
    <glyph glyph-name="numbersign" unicode="#" horiz-adv-x="635" 
d="M554 748l-49 -207h123l-17 -69h-123l-47 -198h128l-16 -69h-128l-49 -205h-72l50 205h-153l-49 -205h-72l49 205h-121l16 69h122l47 198h-127l17 69h126l50 207h71l-49 -207h152l50 207h71zM417 472h-153l-47 -198h153z" />
    <glyph glyph-name="dollar" unicode="$" horiz-adv-x="655" 
d="M592 212q0 -93 -59 -151t-163 -69v-110h-73v107q-135 4 -230 55l10 91q99 -63 239 -63q86 0 135 33.5t49 97.5q0 48 -33 78q-13 13 -42 24q-25 11 -52 19q-22 7 -68 18q-64 17 -97.5 30t-64.5 35q-62 44 -62 138q0 91 56 146t160 65v109h73v-108q98 -5 181 -41l-12 -88
q-92 47 -197 47q-167 0 -167 -123q0 -55 40 -80q30 -16 46 -21l27 -9q8 -1 34 -9l35 -9q125 -33 180 -78q55 -43 55 -134z" />
    <glyph glyph-name="percent" unicode="%" horiz-adv-x="840" 
d="M202 757q72 0 116.5 -48.5t44.5 -129.5t-44.5 -129.5t-116.5 -48.5q-73 0 -117.5 48.5t-44.5 129.5t44.5 129.5t117.5 48.5zM726 748l-528 -748h-85l529 748h84zM272 665q-25 31 -70 31t-70 -31q-26 -32 -26 -86t26 -86q25 -31 70 -31t70 31q26 32 26 86t-26 86zM638 347
q72 0 116.5 -48.5t44.5 -130.5q0 -81 -44.5 -129t-116.5 -48t-117 48t-45 129q0 82 44.5 130.5t117.5 48.5zM637 286q-45 0 -70.5 -31t-25.5 -87q0 -53 26.5 -84.5t69.5 -31.5q45 0 71 31t26 85q0 56 -26 87t-71 31z" />
    <glyph glyph-name="ampersand" unicode="&#x26;" horiz-adv-x="681" 
d="M666 94v-105l-143 122q-96 -119 -238 -119q-115 0 -179.5 57t-64.5 152q0 129 130 216q-64 70 -64 152q0 90 57.5 139.5t154.5 49.5q75 0 144 -23l-5 -84q-72 25 -131 25q-128 0 -128 -111q0 -15 10 -53q5 -13 30 -45q3 -5 21 -23l22 -20l26 -23l26 -22l171 -147
q43 79 71 188l69 -49q-35 -121 -77 -193zM286 75q100 0 174 90l-184 156l-53 45q-89 -62 -89 -157q0 -62 40.5 -98t111.5 -36z" />
    <glyph glyph-name="quotesingle" unicode="'" horiz-adv-x="181" 
d="M135 742l-10 -230h-70l-10 230h90z" />
    <glyph glyph-name="parenleft" unicode="(" horiz-adv-x="255" 
d="M161 728l75 -27q-110 -175 -110 -381q0 -205 110 -380l-75 -27q-121 181 -121 407q0 227 121 408z" />
    <glyph glyph-name="parenright" unicode=")" horiz-adv-x="255" 
d="M20 701l75 27q121 -179 121 -408q0 -228 -121 -407l-75 27q110 175 110 380q0 206 -110 381z" />
    <glyph glyph-name="asterisk" unicode="*" horiz-adv-x="333" 
d="M191 757l-1 -124l117 40l16 -47l-118 -38l74 -98l-41 -30l-71 100l-72 -101l-40 31l74 98l-119 38l16 47l118 -40l-2 124h49z" />
    <glyph glyph-name="plus" unicode="+" horiz-adv-x="546" 
d="M315 607v-198h199v-79h-199v-203h-84v203h-198v79h198v198h84z" />
    <glyph glyph-name="comma" unicode="," horiz-adv-x="212" 
d="M107 108q26 0 40.5 -18.5t14.5 -48.5q0 -126 -112 -190v39q51 38 58 102q-24 1 -40.5 17t-16.5 40t16 41.5t40 17.5z" />
    <glyph glyph-name="hyphen" unicode="-" horiz-adv-x="403" 
d="M358 302v-81h-313v81h313z" />
    <glyph glyph-name="period" unicode="." horiz-adv-x="217" 
d="M107 109q25 0 42.5 -17.5t17.5 -42.5q0 -24 -17.5 -41.5t-42.5 -17.5q-24 0 -41 17.5t-17 41.5q0 25 17 42.5t41 17.5z" />
    <glyph glyph-name="slash" unicode="/" horiz-adv-x="366" 
d="M355 748l-254 -815h-91l256 815h89z" />
    <glyph glyph-name="zero" unicode="0" horiz-adv-x="644" 
d="M322 758q124 0 196 -101q73 -100 73 -283q0 -182 -72 -283t-197 -101t-196.5 101t-71.5 283t72 283q74 101 196 101zM146 374q0 -144 47 -222.5t129 -78.5t129 78.5t47 222.5t-46.5 222.5t-129.5 78.5t-129.5 -78.5t-46.5 -222.5z" />
    <glyph glyph-name="one" unicode="1" horiz-adv-x="378" 
d="M287 748v-748h-91v644l-167 -94v91l185 107h73z" />
    <glyph glyph-name="two" unicode="2" horiz-adv-x="540" 
d="M251 758q110 0 172 -58t62 -161q0 -41 -10 -77q-18 -78 -61 -134l-45 -58q-15 -19 -60 -61q-11 -10 -25 -22.5t-22.5 -20.5t-14.5 -13l-71 -59l-13 -11h330v-83h-451v76q170 143 225 202q126 134 126 252q0 67 -39 106t-108 39q-100 0 -182 -54l-6 87q89 50 193 50z" />
    <glyph glyph-name="three" unicode="3" horiz-adv-x="517" 
d="M211 758q107 0 170.5 -55.5t63.5 -150.5q0 -57 -29 -98.5t-80 -62.5q63 -22 98 -68t35 -112q0 -102 -69 -162q-68 -59 -184 -59q-94 0 -183 39l3 88q80 -44 178 -44q75 0 119.5 37.5t44.5 102.5q0 63 -46 100t-121 37h-60v79h56q64 0 105.5 33.5t41.5 87.5q0 57 -40.5 91
t-106.5 34q-86 0 -160 -46l-3 89q81 40 167 40z" />
    <glyph glyph-name="four" unicode="4" horiz-adv-x="600" 
d="M313 748l-193 -479h228v209h91v-209h139v-82h-139v-187h-91v187h-320v70l190 491h95z" />
    <glyph glyph-name="five" unicode="5" horiz-adv-x="559" 
d="M268 460q106 0 175 -60q70 -60 70 -169q0 -110 -72 -176q-71 -65 -192 -65q-93 0 -171 30l3 90q67 -37 164 -37q81 0 128.5 42t47.5 114q0 69 -46.5 109.5t-122.5 40.5q-51 0 -84 -10q-36 -10 -78 -31v410h389v-82h-298v-220q40 14 87 14z" />
    <glyph glyph-name="six" unicode="6" horiz-adv-x="588" 
d="M304 464q109 0 173.5 -62.5t64.5 -173.5q0 -109 -64 -173.5t-173 -64.5q-127 0 -190 85q-35 47 -48 104q-13 56 -13 165q0 199 72.5 306.5t209.5 107.5q88 0 165 -36l-6 -84q-70 37 -155 37q-188 0 -193 -276q62 65 157 65zM300 73q71 0 110.5 42t39.5 115
q0 71 -41.5 112.5t-109.5 41.5q-73 0 -118 -51q-44 -52 -31 -127q6 -48 33 -82q41 -51 117 -51z" />
    <glyph glyph-name="seven" unicode="7" horiz-adv-x="535" 
d="M516 748v-61l-371 -687h-100l360 666h-378v82h489z" />
    <glyph glyph-name="eight" unicode="8" horiz-adv-x="599" 
d="M299 758q103 0 164 -57q61 -55 61 -143q0 -124 -102 -161q122 -47 122 -185q0 -101 -65 -161.5t-180 -60.5q-116 0 -181 62q-64 61 -64 160q0 138 122 185q-101 39 -101 161q0 88 61 143q61 57 163 57zM299 675q-60 0 -96.5 -33.5t-36.5 -86.5q0 -55 34 -88t99 -33
q63 0 98 33q35 35 35 88q0 54 -37 87t-96 33zM299 353q-71 0 -112.5 -37t-41.5 -101q0 -66 41 -104t113 -38t113 38.5t41 103.5t-42 101.5t-112 36.5z" />
    <glyph glyph-name="nine" unicode="9" horiz-adv-x="588" 
d="M480 673q33 -45 47 -105q14 -61 14 -164q0 -199 -72.5 -306.5t-209.5 -107.5q-89 0 -165 36l7 84q70 -37 154 -37q93 0 142 70t51 205q-61 -64 -157 -64q-109 0 -173.5 62.5t-64.5 173.5q0 109 64 173.5t173 64.5q127 0 190 -85zM297 364q72 0 115 49q46 50 35 124l-1 5
q-8 49 -34 82q-40 51 -117 51q-71 0 -110 -42t-39 -115q0 -72 41 -113t110 -41z" />
    <glyph glyph-name="colon" unicode=":" horiz-adv-x="217" 
d="M107 519q25 0 42.5 -17.5t17.5 -42.5q0 -24 -17.5 -41t-42.5 -17q-24 0 -41 17t-17 41q0 25 17 42.5t41 17.5zM107 109q25 0 42.5 -17.5t17.5 -42.5q0 -24 -17.5 -41.5t-42.5 -17.5q-24 0 -41 17.5t-17 41.5q0 25 17 42.5t41 17.5z" />
    <glyph glyph-name="semicolon" unicode=";" horiz-adv-x="217" 
d="M107 401q-24 0 -41 17t-17 41q0 25 17 42.5t41 17.5q25 0 42.5 -17.5t17.5 -42.5q0 -24 -17.5 -41t-42.5 -17zM107 108q26 0 41 -18.5t15 -48.5q0 -125 -113 -190v39q48 37 59 102q-24 0 -41 16.5t-17 40.5t16 41.5t40 17.5z" />
    <glyph glyph-name="less" unicode="&#x3c;" horiz-adv-x="518" 
d="M485 601v-97l-287 -135l287 -135v-97l-458 232z" />
    <glyph glyph-name="equal" unicode="=" horiz-adv-x="546" 
d="M514 529v-82h-481v82h481zM514 289v-81h-481v81h481z" />
    <glyph glyph-name="greater" unicode="&#x3e;" horiz-adv-x="518" 
d="M33 601l458 -232l-458 -232v97l287 135l-287 135v97z" />
    <glyph glyph-name="question" unicode="?" horiz-adv-x="475" 
d="M214 758q108 0 175 -57t67 -148q0 -61 -25.5 -103.5t-80.5 -83.5l-40 -32q-9 -8 -24 -26q-21 -26 -21 -73q0 -2 2 -32h-91q-2 32 -2 35q2 57 22 88q22 32 76 75q48 35 69.5 68t21.5 77q0 60 -42 95.5t-115 35.5q-91 0 -171 -56l-6 88q82 49 185 49zM219 109
q25 0 42.5 -17.5t17.5 -42.5q0 -24 -17.5 -41.5t-42.5 -17.5q-24 0 -41 17.5t-17 41.5q0 25 17 42.5t41 17.5z" />
    <glyph glyph-name="at" unicode="@" horiz-adv-x="802" 
d="M401 596q152 0 252 -100q100 -99 100 -250q0 -97 -39.5 -149.5t-107.5 -52.5q-65 0 -89 50q-56 -55 -133 -55t-128 53q-51 52 -51 154q0 100 50 154t132 54q69 0 116 -48v40h69v-294q0 -51 48 -51q35 0 56 38t21 107q0 128 -85 213q-84 85 -211 85q-129 0 -213 -85
t-84 -213q0 -130 84 -214q86 -83 209 -83q108 0 189 45l14 -52q-86 -46 -203 -46q-149 0 -249 99q-99 97 -99 251q0 152 99 251q100 99 253 99zM397 396q-55 0 -88 -39.5t-33 -110.5q0 -72 33 -111t89 -39q62 0 104 49v202q-43 49 -105 49z" />
    <glyph glyph-name="A" unicode="A" horiz-adv-x="744" 
d="M419 748l305 -748h-99l-85 212h-335l-86 -212h-99l305 748h94zM372 627l-135 -335h271z" />
    <glyph glyph-name="B" unicode="B" horiz-adv-x="677" 
d="M90 0v748h260q109 0 171 -52t62 -148q0 -123 -101 -159q64 -15 99 -60t35 -119q0 -104 -64.5 -157t-184.5 -53h-277zM339 666h-158v-241h164q145 0 145 119q0 60 -39 91t-112 31zM357 342h-176v-259h175q81 0 124 33t43 96q0 130 -166 130z" />
    <glyph glyph-name="C" unicode="C" horiz-adv-x="659" 
d="M407 758q118 0 207 -55l-7 -88q-81 60 -194 60q-119 0 -194 -82q-75 -83 -75 -219q0 -137 76 -219t196 -82q117 0 197 59l7 -87q-89 -55 -210 -55q-151 0 -255 104q-103 103 -103 280q0 176 101 280q102 104 254 104z" />
    <glyph glyph-name="D" unicode="D" horiz-adv-x="761" 
d="M90 0v748h250q167 0 267 -95q100 -94 100 -280q0 -185 -100 -279t-267 -94h-250zM339 666h-158v-583h158q129 0 202 73.5t73 216.5q0 145 -73 219t-202 74z" />
    <glyph glyph-name="E" unicode="E" horiz-adv-x="599" 
d="M559 748v-82h-377v-239h333v-81h-333v-263h377v-83h-469v748h469z" />
    <glyph glyph-name="F" unicode="F" horiz-adv-x="589" 
d="M559 748v-82h-377v-244h315v-82h-315v-340h-92v748h469z" />
    <glyph glyph-name="G" unicode="G" horiz-adv-x="721" 
d="M411 758q118 0 213 -56l-7 -87q-86 60 -200 60q-120 0 -197 -83q-76 -82 -76 -218t74 -219q73 -82 190 -82q82 0 153 38v174h-182v81h269v-309q-57 -34 -115 -51q-54 -16 -131 -16q-150 0 -250 103t-100 281q0 177 103 280q104 104 256 104z" />
    <glyph glyph-name="H" unicode="H" horiz-adv-x="753" 
d="M663 748v-748h-91v346h-390v-346h-92v748h92v-319h390v319h91z" />
    <glyph glyph-name="I" unicode="I" horiz-adv-x="271" 
d="M182 748v-748h-92v748h92z" />
    <glyph glyph-name="J" unicode="J" horiz-adv-x="467" 
d="M291 748h91v-535q0 -107 -58.5 -165t-159.5 -58q-76 0 -139 31l6 86q58 -34 130 -34q58 0 94 38.5t36 103.5v533z" />
    <glyph glyph-name="K" unicode="K" horiz-adv-x="675" 
d="M625 748l-327 -369l360 -379h-118l-306 313l-52 -55v-258h-92v748h92v-368l324 368h119z" />
    <glyph glyph-name="L" unicode="L" horiz-adv-x="591" 
d="M182 748v-665h375v-83h-467v748h92z" />
    <glyph glyph-name="M" unicode="M" horiz-adv-x="990" 
d="M900 748v-748h-91v552l-281 -552h-65l-281 552v-552h-92v748h92l314 -612l312 612h92z" />
    <glyph glyph-name="N" unicode="N" horiz-adv-x="745" 
d="M655 748v-748h-86l-387 575v-575h-92v748h86l388 -577v577h91z" />
    <glyph glyph-name="O" unicode="O" horiz-adv-x="815" 
d="M407 758q160 0 258 -104t98 -279q0 -177 -99 -281t-257 -104t-257 104q-98 104 -98 281q0 175 98 279t257 104zM144 375q0 -143 72 -222q74 -80 191 -80t191 80q73 80 73 222q0 140 -73 219q-74 81 -191 81t-191 -81q-72 -80 -72 -219z" />
    <glyph glyph-name="P" unicode="P" horiz-adv-x="649" 
d="M90 0v748h274q113 0 178.5 -59t65.5 -166q0 -108 -65.5 -166t-178.5 -58h-182v-299h-92zM359 666h-178v-284h178q70 0 112.5 37t42.5 104q0 70 -41.5 106.5t-113.5 36.5z" />
    <glyph glyph-name="Q" unicode="Q" horiz-adv-x="815" 
d="M812 -121h-116l-117 150q-78 -39 -172 -39q-158 0 -257 104q-98 104 -98 281q0 175 98 279t257 104q160 0 258 -104t98 -279q0 -186 -110 -293zM407 73q64 0 118 25l-123 158l72 55l123 -158q73 82 73 222t-73 219q-72 81 -190 81q-117 0 -191 -81q-72 -80 -72 -219
q0 -143 72 -222q74 -80 191 -80z" />
    <glyph glyph-name="R" unicode="R" horiz-adv-x="679" 
d="M637 0h-104l-170 305h-14h-167v-305h-92v748h259q113 0 178.5 -58t65.5 -164q0 -156 -135 -204zM181 666v-279h163q71 0 113.5 36.5t42.5 102.5q0 68 -41.5 104t-114.5 36h-163z" />
    <glyph glyph-name="S" unicode="S" horiz-adv-x="655" 
d="M340 758q115 0 211 -42l-12 -88q-92 47 -197 47q-167 0 -167 -123q0 -55 40 -80q30 -16 46 -21l27 -9q8 -1 34 -9l35 -9q125 -33 180 -78q55 -43 55 -134q0 -105 -74 -164t-199 -59q-149 0 -252 55l10 91q99 -63 239 -63q86 0 135 33.5t49 97.5q0 48 -33 78
q-13 13 -42 24q-25 11 -52 19q-22 7 -68 18q-64 17 -97.5 30t-64.5 35q-62 44 -62 138q0 100 67 156.5t192 56.5z" />
    <glyph glyph-name="T" unicode="T" horiz-adv-x="682" 
d="M665 748v-82h-278v-666h-92v666h-278v82h648z" />
    <glyph glyph-name="U" unicode="U" horiz-adv-x="767" 
d="M590 748h91v-467q0 -139 -79.5 -215t-218.5 -76q-140 0 -219 76t-79 215v467h92v-466q0 -102 53.5 -155.5t152.5 -53.5t153 54t54 155v466z" />
    <glyph glyph-name="V" unicode="V" horiz-adv-x="734" 
d="M714 748l-301 -748h-92l-301 748h98l249 -619l249 619h98z" />
    <glyph glyph-name="W" unicode="W" horiz-adv-x="1151" 
d="M1123 748l-265 -748h-92l-190 560l-191 -560h-93l-264 748h98l213 -605l200 605h74l199 -605l214 605h97z" />
    <glyph glyph-name="X" unicode="X" horiz-adv-x="691" 
d="M655 748l-242 -368l253 -380h-106l-214 319l-215 -319h-106l253 380l-241 368h105l204 -306l203 306h106z" />
    <glyph glyph-name="Y" unicode="Y" horiz-adv-x="692" 
d="M675 748l-283 -448v-300h-91v300l-284 448h108l222 -349l220 349h108z" />
    <glyph glyph-name="Z" unicode="Z" horiz-adv-x="626" 
d="M583 748v-73l-433 -592h444v-83h-556v73l432 593h-419v82h532z" />
    <glyph glyph-name="bracketleft" unicode="[" horiz-adv-x="264" 
d="M242 718v-73h-98v-649h98v-73h-184v795h184z" />
    <glyph glyph-name="backslash" unicode="\" horiz-adv-x="366" 
d="M100 748l255 -815h-90l-255 815h90z" />
    <glyph glyph-name="bracketright" unicode="]" horiz-adv-x="264" 
d="M207 718v-795h-184v73h98v649h-98v73h184z" />
    <glyph glyph-name="asciicircum" unicode="^" horiz-adv-x="555" 
d="M278 762l246 -388h-97l-149 252l-150 -252h-98z" />
    <glyph glyph-name="underscore" unicode="_" horiz-adv-x="685" 
d="M640 0v-81h-595v81h595z" />
    <glyph glyph-name="grave" unicode="`" horiz-adv-x="236" 
d="M116 786l103 -191h-68l-133 191h98z" />
    <glyph glyph-name="a" unicode="a" horiz-adv-x="518" 
d="M270 519q81 0 123 -43t42 -127v-349h-81v48q-61 -58 -151 -58q-66 0 -106 37t-40 100q0 87 66 121q66 35 226 55v41q0 101 -95 101q-78 0 -159 -51l-5 80q76 45 180 45zM350 118v122q-123 -20 -164 -38q-43 -19 -43 -70q0 -73 85 -73q66 0 122 59z" />
    <glyph glyph-name="b" unicode="b" horiz-adv-x="605" 
d="M87 777h86v-315q58 57 152 57q97 0 162 -68t65 -196q0 -130 -65 -198q-64 -67 -166 -67q-93 0 -152 63l-1 -53h-81v777zM307 446q-79 0 -134 -60v-262q59 -60 136 -60q70 0 113 50.5t43 140.5q0 91 -43 141t-115 50z" />
    <glyph glyph-name="c" unicode="c" horiz-adv-x="473" 
d="M296 519q74 0 138 -35l-4 -78q-61 40 -126 40q-77 0 -123 -52q-47 -53 -47 -138q0 -88 48 -140t123 -52q76 0 129 40l5 -78q-65 -36 -141 -36q-107 0 -179 72t-72 194q0 121 71 192t178 71z" />
    <glyph glyph-name="d" unicode="d" horiz-adv-x="602" 
d="M514 777v-777h-76l-3 52q-60 -62 -160 -62q-96 0 -161 68q-64 67 -64 197t64 197t166 67q90 0 148 -55v313h86zM293 446q-70 0 -113 -51t-43 -140q0 -92 42.5 -141.5t114.5 -49.5q80 0 135 60v262q-59 60 -136 60z" />
    <glyph glyph-name="e" unicode="e" horiz-adv-x="535" 
d="M279 519q114 0 165 -74.5t35 -217.5h-342q2 -75 45 -119.5t118 -44.5q90 0 166 55l5 -77q-73 -51 -181 -51q-110 0 -175 69t-65 191q0 125 63 197q64 72 166 72zM276 446q-59 0 -96.5 -41t-42.5 -110h260q5 71 -26.5 111t-94.5 40z" />
    <glyph glyph-name="f" unicode="f" horiz-adv-x="344" 
d="M290 783q39 0 61 -8l-6 -78q-24 8 -49 8q-44 0 -68.5 -28.5t-24.5 -83.5v-83h136v-74h-136v-436h-86v436h-100v74h100v84q0 93 44.5 141t128.5 48z" />
    <glyph glyph-name="g" unicode="g" horiz-adv-x="605" 
d="M284 519q94 0 152 -63l1 54h81v-542q0 -108 -64 -169q-64 -63 -170 -63q-113 0 -198 52l19 82q73 -60 179 -60q72 0 109.5 38t37.5 112v87q-59 -57 -151 -57q-98 0 -163 68q-64 67 -64 197q0 129 65 197q66 67 166 67zM295 446q-70 0 -113 -51t-43 -140q0 -92 43 -141.5
t115 -49.5q79 0 134 60v262q-59 60 -136 60z" />
    <glyph glyph-name="h" unicode="h" 
d="M87 777h86v-328q61 70 152 70q81 0 134 -54q53 -55 53 -142v-323h-86v305q0 58 -32 94.5t-86 36.5q-73 0 -135 -71v-365h-86v777z" />
    <glyph glyph-name="i" unicode="i" horiz-adv-x="261" 
d="M130 631q-24 0 -40.5 17t-16.5 41t17 41t40 17t40.5 -17t17.5 -41t-17.5 -41t-40.5 -17zM173 510v-510h-86v510h86z" />
    <glyph glyph-name="j" unicode="j" horiz-adv-x="261" 
d="M130 747q23 0 40.5 -17t17.5 -41t-17.5 -41t-40.5 -17q-24 0 -40.5 17t-16.5 41t16.5 41t40.5 17zM89 510h86v-592q0 -90 -44 -136.5t-123 -46.5q-61 0 -98 22l16 77q32 -21 78 -21q85 0 85 103v594z" />
    <glyph glyph-name="k" unicode="k" horiz-adv-x="545" 
d="M173 777v-483l216 216h106l-217 -221l248 -289h-104l-205 226l-44 -44v-182h-86v777h86z" />
    <glyph glyph-name="l" unicode="l" horiz-adv-x="261" 
d="M173 777v-777h-86v777h86z" />
    <glyph glyph-name="m" unicode="m" horiz-adv-x="924" 
d="M656 519q80 0 133 -54q53 -55 53 -142v-323h-86v305q0 58 -32 94.5t-85 36.5q-74 0 -134 -74q3 -18 3 -39v-323h-86v305q0 58 -32 94.5t-85 36.5q-41 0 -70.5 -17t-61.5 -54v-365h-86v510h83v-65q56 74 151 74q107 0 159 -87q68 87 176 87z" />
    <glyph glyph-name="n" unicode="n" 
d="M324 519q82 0 135 -54q53 -55 53 -142v-323h-86v305q0 58 -32 94.5t-86 36.5q-73 0 -135 -71v-365h-86v510h83v-65q56 74 154 74z" />
    <glyph glyph-name="o" unicode="o" 
d="M297 519q111 0 179 -72q69 -71 69 -192q0 -124 -68 -195q-67 -70 -180 -70q-112 0 -179 70q-68 71 -68 195q0 122 68 193q69 71 179 71zM297 64q74 0 117.5 51.5t43.5 139.5t-43.5 139.5t-117.5 51.5t-117 -51.5t-43 -139.5t43.5 -139.5t116.5 -51.5z" />
    <glyph glyph-name="p" unicode="p" horiz-adv-x="602" 
d="M327 519q96 0 161 -68q64 -67 64 -196q0 -130 -65 -198q-64 -67 -166 -67q-89 0 -148 56v-302h-86v766h78l3 -52q58 61 159 61zM307 446q-79 0 -134 -60v-262q59 -60 136 -60q70 0 113 50.5t43 140.5q0 91 -43 141t-115 50z" />
    <glyph glyph-name="q" unicode="q" horiz-adv-x="602" 
d="M281 519q95 0 151 -63l2 54h80v-765h-86v302q-62 -57 -151 -57q-98 0 -163 68q-64 67 -64 197q0 129 65 197q66 67 166 67zM293 446q-70 0 -113 -51t-43 -140q0 -92 42.5 -141.5t114.5 -49.5q80 0 135 60v262q-59 60 -136 60z" />
    <glyph glyph-name="r" unicode="r" horiz-adv-x="348" 
d="M329 513v-89q-87 0 -156 -69v-355h-86v510h86v-72q66 75 156 75z" />
    <glyph glyph-name="s" unicode="s" horiz-adv-x="460" 
d="M236 519q78 0 146 -27l-6 -79q-64 33 -132 33q-106 0 -106 -75q0 -35 24 -47q22 -10 28 -12l17 -5q3 0 19.5 -4t20.5 -5q89 -23 127.5 -56t38.5 -94q0 -74 -52.5 -116t-141.5 -42q-100 0 -172 36l6 82q71 -44 162 -44q52 0 82 19.5t30 56.5q0 29 -21 48q-7 7 -26 15
q-29 11 -71 21q-85 21 -121 51.5t-36 90.5q0 71 49 112t135 41z" />
    <glyph glyph-name="t" unicode="t" horiz-adv-x="375" 
d="M346 436h-135l-2 -266q0 -95 95 -95q22 0 42 4v-79q-18 -3 -53 -3q-81 0 -126 39t-44 117l1 283h-106v74h106l1 167h87l-1 -167h135v-74z" />
    <glyph glyph-name="u" unicode="u" horiz-adv-x="583" 
d="M501 510v-510h-83v65q-51 -75 -157 -75q-79 0 -129 54t-48 143v323h86v-306q0 -58 30.5 -94t83.5 -36q81 0 130 70v366h87z" />
    <glyph glyph-name="v" unicode="v" horiz-adv-x="525" 
d="M507 510l-197 -510h-95l-198 510h93l153 -403l152 403h92z" />
    <glyph glyph-name="w" unicode="w" horiz-adv-x="815" 
d="M799 510l-177 -510h-82l-132 372l-132 -372h-82l-177 510h93l129 -399l136 399h66l135 -399l130 399h93z" />
    <glyph glyph-name="x" unicode="x" horiz-adv-x="515" 
d="M483 510l-164 -249l174 -261h-98l-137 203l-138 -203h-97l173 260l-164 250h97l129 -192l128 192h97z" />
    <glyph glyph-name="y" unicode="y" horiz-adv-x="525" 
d="M507 510l-301 -765h-91l103 261l-201 504h93l153 -399l152 399h92z" />
    <glyph glyph-name="z" unicode="z" horiz-adv-x="453" 
d="M410 510v-58l-269 -380h282v-72h-391v57l267 380h-262v73h373z" />
    <glyph glyph-name="braceleft" unicode="{" horiz-adv-x="251" 
d="M228 718v-73h-6q-50 0 -66 -38.5t0 -122.5q12 -67 7 -106q-6 -50 -54 -57q48 -11 54 -58q5 -39 -7 -106q-16 -85 0 -123t66 -38h6v-73h-6q-91 0 -132.5 59.5t-18.5 166.5q21 63 12 99t-55 36h-8v72h8q46 0 55 36.5t-12 98.5q-23 107 18.5 167t132.5 60h6z" />
    <glyph glyph-name="bar" unicode="|" horiz-adv-x="254" 
d="M169 748v-815h-86v815h86z" />
    <glyph glyph-name="braceright" unicode="}" horiz-adv-x="251" 
d="M23 645v73h6q92 0 133 -60t18 -167q-13 -56 -13 -83t12.5 -39.5t43.5 -12.5h8v-72h-8q-37 0 -51 -23q-6 -9 -6 -29q1 -25 14 -83q23 -107 -18 -166.5t-133 -59.5h-6v73h6q50 0 66 38t0 123q-12 67 -7 106q6 47 54 58q-48 7 -54 57q-5 39 7 106q16 84 0 122.5t-66 38.5h-6
z" />
    <glyph glyph-name="asciitilde" unicode="~" horiz-adv-x="535" 
d="M475 440l40 -57q-34 -43 -69 -63.5t-82 -20.5q-50 0 -103 31q-52 31 -86 31q-37 0 -62.5 -13.5t-51.5 -45.5l-40 58q34 43 67.5 62.5t78.5 19.5q38 0 93 -32q53 -31 96 -31q39 0 65 14t54 47z" />
    <glyph glyph-name="exclamdown" unicode="&#xa1;" horiz-adv-x="279" 
d="M141 391q-25 0 -42.5 17.5t-17.5 42.5q0 24 17.5 41.5t42.5 17.5q24 0 41 -17.5t17 -41.5q0 -25 -17 -42.5t-41 -17.5zM90 -248l5 545h91l5 -545h-101z" />
    <glyph glyph-name="cent" unicode="&#xa2;" horiz-adv-x="512" 
d="M434 104l5 -78q-53 -30 -119 -35v-109h-73v113q-89 17 -144 85q-56 70 -56 176q0 107 55 174q55 68 145 85v112h73v-109q60 -5 115 -34l-5 -78q-58 40 -126 40q-76 0 -122 -52q-47 -53 -47 -138q0 -87 47 -140q48 -52 123 -52q76 0 129 40z" />
    <glyph glyph-name="sterling" unicode="&#xa3;" horiz-adv-x="536" 
d="M147 81h367v-81h-479v75q37 17 61 40q56 56 43 188l-3 25h-108v72h101l-10 95q-13 121 44 192q59 71 168 71q87 0 153 -26l-7 -86q-61 31 -140 31q-71 0 -105.5 -47t-26.5 -129l11 -101h170v-72h-162l1 -13q9 -84 -10.5 -138.5t-67.5 -95.5z" />
    <glyph glyph-name="currency" unicode="&#xa4;" horiz-adv-x="588" 
d="M473 252q0 -67 -29 -114l118 -118l-55 -54l-117 117q-40 -27 -96 -27q-54 0 -98 26l-116 -116l-55 54l118 118q-28 47 -28 114q0 65 29 115l-119 119l55 54l118 -118q44 27 96 27q55 0 96 -26l117 117l55 -54l-118 -118q29 -47 29 -116zM294 119q50 0 79 35.5t29 97.5
q0 64 -28 99.5t-80 35.5q-50 0 -79 -36.5t-29 -98.5t28.5 -97.5t79.5 -35.5z" />
    <glyph glyph-name="yen" unicode="&#xa5;" horiz-adv-x="692" 
d="M675 748l-252 -399h110v-55h-141v-91h141v-55h-141v-148h-91v148h-141v55h141v91h-141v55h110l-253 399h108l221 -349l221 349h108z" />
    <glyph glyph-name="brokenbar" unicode="&#xa6;" horiz-adv-x="254" 
d="M169 748v-319h-86v319h86zM169 252v-319h-86v319h86z" />
    <glyph glyph-name="section" unicode="&#xa7;" horiz-adv-x="516" 
d="M392 255q73 -36 73 -122q0 -75 -66 -118q-64 -43 -165 -43q-85 0 -159 25l4 79q76 -32 154 -32q65 0 105.5 23t40.5 63q0 38 -30 57t-106 36q-96 21 -144 50q-45 30 -45 95q0 77 74 124q-57 36 -57 110q0 71 56 113.5t147 42.5q64 0 127 -20l-5 -78q-54 26 -122 26
q-52 0 -84.5 -22.5t-32.5 -61.5q0 -35 26 -52.5t88 -30.5q95 -19 143 -50q46 -30 46 -97q0 -73 -68 -117zM134 379q0 -38 31.5 -56.5t110.5 -34.5q14 -3 27.5 -6t18.5 -4l6 -1q28 18 40.5 36.5t12.5 47.5q0 38 -32.5 58t-109.5 35q-25 5 -51 13q-54 -37 -54 -88z" />
    <glyph glyph-name="dieresis" unicode="&#xa8;" horiz-adv-x="294" 
d="M73 732q21 0 36.5 -15t15.5 -36t-15.5 -36t-36.5 -15q-22 0 -37 14.5t-15 36.5q0 21 15 36t37 15zM273 681q0 -22 -14.5 -36.5t-36.5 -14.5t-37.5 14.5t-15.5 36.5q0 21 15.5 36t37.5 15t36.5 -15t14.5 -36z" />
    <glyph glyph-name="copyright" unicode="&#xa9;" horiz-adv-x="583" 
d="M30 506q0 108 75 180q74 73 186 73t185 -73q75 -74 75 -180t-75 -180q-74 -72 -185 -72t-186 72q-75 74 -75 180zM452 664q-64 63 -161 63t-161 -63t-64 -158t64 -158q65 -62 161 -62t161 62q64 63 64 158t-64 158zM298 663q46 0 84 -24l-3 -45q-40 26 -77 26
q-44 0 -72 -32t-28 -82q0 -49 29.5 -80.5t73.5 -31.5q42 0 77 23l3 -45q-37 -22 -86 -22q-61 0 -104 43t-43 113t42 114q42 43 104 43z" />
    <glyph glyph-name="ordfeminine" unicode="&#xaa;" horiz-adv-x="417" 
d="M210 756q66 0 104.5 -38.5t38.5 -105.5v-272h-70v43q-47 -50 -121 -50q-52 0 -83.5 29t-31.5 79q0 134 232 140v26q0 39 -22 63t-61 24q-56 0 -117 -39l-4 64q56 37 135 37zM280 444v81q-84 -3 -122 -20t-38 -55q0 -54 66 -54q52 0 94 48z" />
    <glyph glyph-name="guillemotleft" unicode="&#xab;" horiz-adv-x="531" 
d="M194 473l68 -43l-149 -176l149 -176l-68 -44l-179 220zM443 473l67 -43l-149 -176l149 -176l-67 -44l-180 220z" />
    <glyph glyph-name="logicalnot" unicode="&#xac;" horiz-adv-x="556" 
d="M510 414v-249h-68v181h-404v68h472z" />
    <glyph glyph-name="registered" unicode="&#xae;" horiz-adv-x="583" 
d="M30 506q0 108 75 180q74 73 186 73t185 -73q75 -74 75 -180t-75 -180q-74 -72 -185 -72t-186 72q-75 74 -75 180zM130 348q65 -62 161 -62t161 62q64 63 64 158t-64 158t-161 63t-161 -63t-64 -158t64 -158zM406 566q0 -60 -50 -83l64 -130h-53l-58 119h-10h-66v-119h-48
v306h114q51 0 79 -24t28 -69zM234 619v-107h62q60 0 60 54q0 53 -60 53h-62z" />
    <glyph glyph-name="overscore" unicode="&#xaf;" horiz-adv-x="294" 
d="M278 702v-67h-263v67h263z" />
    <glyph glyph-name="degree" unicode="&#xb0;" horiz-adv-x="347" 
d="M70 716q39 41 104 41t104 -41q39 -40 39 -110t-39 -110t-104 -40t-104 40t-39 110t39 110zM90 606q0 -45 22.5 -70.5t61.5 -25.5t61.5 25.5t22.5 70.5q0 46 -22.5 71.5t-61.5 25.5t-61.5 -25t-22.5 -72z" />
    <glyph glyph-name="plusminus" unicode="&#xb1;" horiz-adv-x="546" 
d="M315 707v-198h199v-79h-199v-203h-84v203h-198v79h198v198h84zM514 164v-80h-481v80h481z" />
    <glyph glyph-name="acute" unicode="&#xb4;" horiz-adv-x="236" 
d="M219 786l-133 -191h-68l102 191h99z" />
    <glyph glyph-name="paragraph" unicode="&#xb6;" horiz-adv-x="666" 
d="M646 748v-65h-69v-750h-68v750h-130v-750h-67v446h-52q-101 0 -158.5 48t-57.5 136q0 89 57.5 137t158.5 48h386z" />
    <glyph glyph-name="middot" unicode="&#xb7;" horiz-adv-x="217" 
d="M107 355q25 0 42.5 -17.5t17.5 -42.5q0 -24 -17.5 -41.5t-42.5 -17.5q-24 0 -41 17.5t-17 41.5q0 25 17 42.5t41 17.5z" />
    <glyph glyph-name="cedilla" unicode="&#xb8;" horiz-adv-x="274" 
d="M91 8h44l-15 -62q55 -2 90.5 -27.5t35.5 -69.5q0 -42 -35.5 -68t-85.5 -26q-60 0 -101 23l14 46q32 -20 73 -20q31 0 50.5 12.5t19.5 35.5q0 25 -24.5 40t-61.5 15q-19 0 -32 -3z" />
    <glyph glyph-name="ordmasculine" unicode="&#xba;" horiz-adv-x="477" 
d="M238 756q90 0 144.5 -57.5t54.5 -154.5q0 -98 -54.5 -154.5t-144.5 -56.5t-144.5 56.5t-54.5 154.5q0 99 55 155q56 57 144 57zM239 394q56 0 90 40.5t34 109.5t-33.5 109.5t-90.5 40.5t-91 -40.5t-34 -109.5t34 -109.5t91 -40.5z" />
    <glyph glyph-name="guillemotright" unicode="&#xbb;" horiz-adv-x="531" 
d="M88 473l180 -219l-180 -220l-68 44l150 176l-150 176zM336 473l179 -219l-179 -220l-68 44l149 176l-149 176z" />
    <glyph glyph-name="onequarter" unicode="&#xbc;" horiz-adv-x="750" 
d="M590 426l-109 -274h121v122h67v-122h68v-55h-68v-97h-67v97h-187v54l106 275h69zM187 748v-426h-67v351l-97 -55v68l107 62h57zM643 748l-527 -748h-89l527 748h89z" />
    <glyph glyph-name="onehalf" unicode="&#xbd;" horiz-adv-x="744" 
d="M187 748v-426h-67v351l-97 -55v68l107 62h57zM643 748l-527 -748h-89l527 748h89zM574 432q66 0 103.5 -32.5t37.5 -91.5q0 -55 -31 -109q-11 -21 -38 -49q-23 -26 -42 -43l-51 -47h166v-60h-264v42q4 2 9 6.5t8 7.5q91 81 133 131q44 53 44 110q0 36 -20.5 55.5
t-56.5 19.5q-55 0 -105 -32l-3 64q50 28 110 28z" />
    <glyph glyph-name="threequarters" unicode="&#xbe;" horiz-adv-x="828" 
d="M135 753q64 0 102.5 -31.5t38.5 -85.5q0 -66 -65 -93q76 -26 76 -102q0 -58 -40.5 -92t-109.5 -34q-59 0 -104 22l2 63q47 -26 96 -26q42 0 65 18.5t23 51.5t-23 51.5t-62 18.5h-34v56h33q34 0 55 16t21 45q0 30 -20.5 46.5t-57.5 16.5q-43 0 -90 -27l-2 63q44 23 96 23z
M668 426l-109 -274h121v122h67v-122h68v-55h-68v-97h-67v97h-187v54l106 275h69zM721 748l-527 -748h-89l527 748h89z" />
    <glyph glyph-name="questiondown" unicode="&#xbf;" horiz-adv-x="475" 
d="M256 401q-25 0 -42.5 17.5t-17.5 42.5q0 24 17.5 41t42.5 17q24 0 41 -17t17 -41q0 -25 -17 -42.5t-41 -17.5zM262 -248q-108 0 -176 57q-66 55 -66 148q0 61 25 103t81 84q27 22 50 42q35 33 35 88q0 3 -2 33h90q2 -32 2 -35q-2 -58 -22 -90q-22 -33 -75 -74
q-48 -34 -69.5 -67.5t-21.5 -77.5q0 -60 41.5 -95t115.5 -35q90 0 170 56l6 -88q-82 -49 -184 -49z" />
    <glyph glyph-name="Agrave" unicode="&#xc0;" horiz-adv-x="744" 
d="M419 748l305 -748h-99l-85 212h-335l-86 -212h-99l305 748h94zM372 627l-135 -335h271zM262 936l148 -141h-82l-187 141h121z" />
    <glyph glyph-name="Aacute" unicode="&#xc1;" horiz-adv-x="744" 
d="M419 748l305 -748h-99l-85 212h-335l-86 -212h-99l305 748h94zM372 627l-135 -335h271zM599 936l-187 -141h-81l148 141h120z" />
    <glyph glyph-name="Acircumflex" unicode="&#xc2;" horiz-adv-x="744" 
d="M419 748l305 -748h-99l-85 212h-335l-86 -212h-99l305 748h94zM372 627l-135 -335h271zM413 938l119 -143h-75l-85 90l-86 -90h-74l119 143h82z" />
    <glyph glyph-name="Atilde" unicode="&#xc3;" horiz-adv-x="744" 
d="M419 748l305 -748h-99l-85 212h-335l-86 -212h-99l305 748h94zM372 627l-135 -335h271zM299 936q33 0 73 -31t63 -31q48 0 49 55h50q3 -51 -22.5 -85.5t-67.5 -34.5q-34 0 -74 30q-40 31 -62 31q-48 0 -49 -54h-50q-3 51 22.5 85.5t67.5 34.5z" />
    <glyph glyph-name="Adieresis" unicode="&#xc4;" horiz-adv-x="744" 
d="M419 748l305 -748h-99l-85 212h-335l-86 -212h-99l305 748h94zM372 627l-135 -335h271zM300 920q21 0 36.5 -15t15.5 -37q0 -21 -15.5 -36t-36.5 -15q-22 0 -37 14.5t-15 36.5t15 37t37 15zM411 905q16 15 38 15t36 -15q15 -15 15 -37t-15 -37q-14 -14 -36 -14t-38 14
q-15 15 -15 37t15 37z" />
    <glyph glyph-name="Aring" unicode="&#xc5;" horiz-adv-x="744" 
d="M419 748l305 -748h-99l-85 212h-335l-86 -212h-99l305 748h94zM372 627l-135 -335h271zM299 960q30 27 73 27t73 -27t30 -69q0 -41 -30 -70q-30 -28 -73 -28t-73 28q-30 29 -30 70q0 42 30 69zM373 941q-23 0 -37.5 -13.5t-14.5 -36.5t14.5 -37t37.5 -14q22 0 35.5 14
t13.5 37t-13.5 36.5t-35.5 13.5z" />
    <glyph glyph-name="AE" unicode="&#xc6;" horiz-adv-x="1056" 
d="M1012 666h-378v-239h334v-81h-334v-263h378v-83h-469v212h-277l-140 -212h-111l506 748h491v-82zM322 292h221v334z" />
    <glyph glyph-name="Ccedilla" unicode="&#xc7;" horiz-adv-x="659" 
d="M410 -10h-16l-12 -49q55 -2 90.5 -27.5t35.5 -69.5q0 -42 -35.5 -68t-85.5 -26q-60 0 -101 23l14 46q32 -20 73 -20q31 0 50.5 12.5t19.5 35.5q0 25 -24.5 40t-61.5 15q-19 0 -32 -3l26 95q-130 19 -215 121q-84 101 -84 259q0 176 102 280t254 104q118 0 206 -55l-7 -88
q-81 60 -194 60q-119 0 -194 -82q-74 -83 -74 -219q0 -137 76 -219t195 -82q116 0 198 59l6 -87q-88 -55 -210 -55z" />
    <glyph glyph-name="Egrave" unicode="&#xc8;" horiz-adv-x="599" 
d="M223 936l148 -141h-82l-187 141h121zM559 748v-82h-378v-239h334v-81h-334v-263h378v-83h-469v748h469z" />
    <glyph glyph-name="Eacute" unicode="&#xc9;" horiz-adv-x="599" 
d="M560 936l-187 -141h-81l148 141h120zM559 748v-82h-378v-239h334v-81h-334v-263h378v-83h-469v748h469z" />
    <glyph glyph-name="Ecircumflex" unicode="&#xca;" horiz-adv-x="599" 
d="M374 938l119 -143h-75l-85 90l-86 -90h-74l119 143h82zM559 748v-82h-378v-239h334v-81h-334v-263h378v-83h-469v748h469z" />
    <glyph glyph-name="Edieresis" unicode="&#xcb;" horiz-adv-x="599" 
d="M261 920q21 0 36.5 -15t15.5 -37q0 -21 -15.5 -36t-36.5 -15q-22 0 -37 14.5t-15 36.5t15 37t37 15zM372 905q16 15 38 15t36 -15q15 -15 15 -37t-15 -37q-14 -14 -36 -14t-38 14q-15 15 -15 37t15 37zM559 748v-82h-378v-239h334v-81h-334v-263h378v-83h-469v748h469z
" />
    <glyph glyph-name="Igrave" unicode="&#xcc;" horiz-adv-x="271" 
d="M28 936l148 -141h-82l-187 141h121zM181 748v-748h-91v748h91z" />
    <glyph glyph-name="Iacute" unicode="&#xcd;" horiz-adv-x="271" 
d="M366 936l-187 -141h-81l148 141h120zM181 748v-748h-91v748h91z" />
    <glyph glyph-name="Icircumflex" unicode="&#xce;" horiz-adv-x="271" 
d="M180 938l119 -143h-75l-85 90l-86 -90h-74l119 143h82zM181 748v-748h-91v748h91z" />
    <glyph glyph-name="Idieresis" unicode="&#xcf;" horiz-adv-x="271" 
d="M66 920q21 0 36.5 -15t15.5 -37q0 -21 -15.5 -36t-36.5 -15q-22 0 -37 14.5t-15 36.5t15 37t37 15zM177 905q16 15 38 15t36 -15q15 -15 15 -37t-15 -37q-14 -14 -36 -14t-38 14q-15 15 -15 37t15 37zM181 748v-748h-91v748h91z" />
    <glyph glyph-name="Eth" unicode="&#xd0;" horiz-adv-x="771" 
d="M100 409v339h250q167 0 267 -95q100 -94 100 -280q0 -185 -100 -279t-267 -94h-250v338h-100v71h100zM191 338v-255h158q129 0 202 73.5t73 216.5q0 145 -73 219t-202 74h-158v-257h157v-71h-157z" />
    <glyph glyph-name="Ntilde" unicode="&#xd1;" horiz-adv-x="745" 
d="M300 936q33 0 73 -31t63 -31q48 0 49 55h50q3 -51 -22.5 -85.5t-67.5 -34.5q-33 0 -74 30q-40 31 -62 31q-47 0 -49 -54h-50q-3 51 22.5 85.5t67.5 34.5zM654 748v-748h-86l-387 575v-575h-91v748h86l388 -577v577h90z" />
    <glyph glyph-name="Ograve" unicode="&#xd2;" horiz-adv-x="815" 
d="M296 936l148 -141h-82l-187 141h121zM407 758q160 0 258 -104t98 -279q0 -177 -99 -281q-98 -104 -257 -104q-158 0 -257 104q-98 104 -98 281q0 175 98 279t257 104zM144 375q0 -143 72 -222q74 -80 191 -80q118 0 190 80q73 80 73 222q0 140 -73 219q-72 81 -190 81
q-117 0 -191 -81q-72 -80 -72 -219z" />
    <glyph glyph-name="Oacute" unicode="&#xd3;" horiz-adv-x="815" 
d="M634 936l-187 -141h-81l148 141h120zM407 758q160 0 258 -104t98 -279q0 -177 -99 -281q-98 -104 -257 -104q-158 0 -257 104q-98 104 -98 281q0 175 98 279t257 104zM144 375q0 -143 72 -222q74 -80 191 -80q118 0 190 80q73 80 73 222q0 140 -73 219q-72 81 -190 81
q-117 0 -191 -81q-72 -80 -72 -219z" />
    <glyph glyph-name="Ocircumflex" unicode="&#xd4;" horiz-adv-x="815" 
d="M448 938l119 -143h-75l-85 90l-86 -90h-74l119 143h82zM407 758q160 0 258 -104t98 -279q0 -177 -99 -281q-98 -104 -257 -104q-158 0 -257 104q-98 104 -98 281q0 175 98 279t257 104zM144 375q0 -143 72 -222q74 -80 191 -80q118 0 190 80q73 80 73 222q0 140 -73 219
q-72 81 -190 81q-117 0 -191 -81q-72 -80 -72 -219z" />
    <glyph glyph-name="Otilde" unicode="&#xd5;" horiz-adv-x="815" 
d="M334 936q33 0 73 -31t63 -31q48 0 49 55h50q3 -51 -22.5 -85.5t-67.5 -34.5q-33 0 -74 30q-40 31 -62 31q-47 0 -49 -54h-50q-3 51 22.5 85.5t67.5 34.5zM407 758q160 0 258 -104t98 -279q0 -177 -99 -281q-98 -104 -257 -104q-158 0 -257 104q-98 104 -98 281
q0 175 98 279t257 104zM144 375q0 -143 72 -222q74 -80 191 -80q118 0 190 80q73 80 73 222q0 140 -73 219q-72 81 -190 81q-117 0 -191 -81q-72 -80 -72 -219z" />
    <glyph glyph-name="Odieresis" unicode="&#xd6;" horiz-adv-x="815" 
d="M334 920q21 0 36.5 -15t15.5 -37q0 -21 -15.5 -36t-36.5 -15q-22 0 -37 14.5t-15 36.5t15 37t37 15zM445 905q16 15 38 15t36 -15q15 -15 15 -37t-15 -37q-14 -14 -36 -14t-38 14q-15 15 -15 37t15 37zM407 758q160 0 258 -104t98 -279q0 -177 -99 -281
q-98 -104 -257 -104q-158 0 -257 104q-98 104 -98 281q0 175 98 279t257 104zM144 375q0 -143 72 -222q74 -80 191 -80q118 0 190 80q73 80 73 222q0 140 -73 219q-72 81 -190 81q-117 0 -191 -81q-72 -80 -72 -219z" />
    <glyph glyph-name="multiply" unicode="&#xd7;" horiz-adv-x="524" 
d="M414 578l57 -58l-151 -150l153 -154l-57 -58l-154 154l-155 -155l-57 58l155 155l-153 153l56 57l154 -154z" />
    <glyph glyph-name="Oslash" unicode="&#xd8;" horiz-adv-x="789" 
d="M666 785l56 -43l-63 -82q104 -104 104 -285q0 -177 -99 -281q-98 -104 -257 -104q-121 0 -212 64l-68 -89l-56 43l72 94q-91 103 -91 273q0 175 98 279t257 104q111 0 197 -53zM144 375q0 -121 55 -200l352 460q-62 40 -144 40q-117 0 -191 -81q-72 -80 -72 -219zM407 73
q118 0 190 80q73 80 73 222q0 133 -66 212l-356 -464q65 -50 159 -50z" />
    <glyph glyph-name="Ugrave" unicode="&#xd9;" horiz-adv-x="767" 
d="M272 936l148 -141h-82l-187 141h121zM590 748h91v-467q0 -139 -79.5 -215t-219.5 -76q-139 0 -218 76t-79 215v467h91v-466q0 -102 53.5 -155.5t152.5 -53.5t153.5 53.5t54.5 155.5v466z" />
    <glyph glyph-name="Uacute" unicode="&#xda;" horiz-adv-x="767" 
d="M609 936l-187 -141h-81l148 141h120zM590 748h91v-467q0 -139 -79.5 -215t-219.5 -76q-139 0 -218 76t-79 215v467h91v-466q0 -102 53.5 -155.5t152.5 -53.5t153.5 53.5t54.5 155.5v466z" />
    <glyph glyph-name="Ucircumflex" unicode="&#xdb;" horiz-adv-x="767" 
d="M423 938l119 -143h-75l-85 90l-86 -90h-74l119 143h82zM590 748h91v-467q0 -139 -79.5 -215t-219.5 -76q-139 0 -218 76t-79 215v467h91v-466q0 -102 53.5 -155.5t152.5 -53.5t153.5 53.5t54.5 155.5v466z" />
    <glyph glyph-name="Udieresis" unicode="&#xdc;" horiz-adv-x="767" 
d="M309 920q21 0 36.5 -15t15.5 -37q0 -21 -15.5 -36t-36.5 -15q-22 0 -37 14.5t-15 36.5t15 37t37 15zM420 905q16 15 38 15t36 -15q15 -15 15 -37t-15 -37q-14 -14 -36 -14t-38 14q-15 15 -15 37t15 37zM590 748h91v-467q0 -139 -79.5 -215t-219.5 -76q-139 0 -218 76
t-79 215v467h91v-466q0 -102 53.5 -155.5t152.5 -53.5t153.5 53.5t54.5 155.5v466z" />
    <glyph glyph-name="Yacute" unicode="&#xdd;" horiz-adv-x="692" 
d="M573 936l-187 -141h-81l148 141h120zM675 748l-283 -448v-300h-91v300l-284 448h108l221 -349l221 349h108z" />
    <glyph glyph-name="Thorn" unicode="&#xde;" horiz-adv-x="606" 
d="M182 748v-99h144q111 0 175 -56t64 -157t-64 -156t-175 -55h-144v-225h-92v748h92zM320 565h-139v-257h139q71 0 111.5 33.5t40.5 94.5q0 64 -39.5 96.5t-112.5 32.5z" />
    <glyph glyph-name="germandbls" unicode="&#xdf;" horiz-adv-x="630" 
d="M300 786q93 0 147 -42.5t54 -114.5q0 -60 -45 -101q-45 -39 -45 -84q0 -22 17.5 -43t42.5 -40t50 -41.5t42.5 -59t17.5 -81.5q0 -86 -59 -137q-58 -51 -151 -51q-57 0 -102 13l9 75q48 -14 85 -14q60 0 95 31.5t35 86.5q0 34 -17.5 62.5t-42.5 49l-50 41t-42.5 47.5
t-17.5 59q0 58 45 91q46 36 46 79q0 45 -31.5 72.5t-85.5 27.5q-57 0 -91.5 -33t-34.5 -86v-593h-86v595q0 85 60 138q61 53 155 53z" />
    <glyph glyph-name="agrave" unicode="&#xe0;" horiz-adv-x="518" 
d="M188 786l103 -191h-68l-133 191h98zM270 519q81 0 123.5 -43t42.5 -127v-349h-82v48q-61 -58 -150 -58q-66 0 -106.5 37t-40.5 100q0 87 67 121q66 35 226 55v41q0 101 -95 101q-78 0 -159 -51l-6 80q78 45 180 45zM350 118v122q-123 -20 -164 -38q-43 -19 -43 -70
q0 -73 85 -73q66 0 122 59z" />
    <glyph glyph-name="aacute" unicode="&#xe1;" horiz-adv-x="518" 
d="M424 786l-133 -191h-68l102 191h99zM270 519q81 0 123.5 -43t42.5 -127v-349h-82v48q-61 -58 -150 -58q-66 0 -106.5 37t-40.5 100q0 87 67 121q66 35 226 55v41q0 101 -95 101q-78 0 -159 -51l-6 80q78 45 180 45zM350 118v122q-123 -20 -164 -38q-43 -19 -43 -70
q0 -73 85 -73q66 0 122 59z" />
    <glyph glyph-name="acircumflex" unicode="&#xe2;" horiz-adv-x="518" 
d="M300 765l120 -169h-74l-87 110l-87 -110h-74l120 169h82zM270 519q81 0 123.5 -43t42.5 -127v-349h-82v48q-61 -58 -150 -58q-66 0 -106.5 37t-40.5 100q0 87 67 121q66 35 226 55v41q0 101 -95 101q-78 0 -159 -51l-6 80q78 45 180 45zM350 118v122q-123 -20 -164 -38
q-43 -19 -43 -70q0 -73 85 -73q66 0 122 59z" />
    <glyph glyph-name="atilde" unicode="&#xe3;" horiz-adv-x="518" 
d="M184 736q33 0 73 -31q41 -30 63 -30q48 0 49 54h50q3 -50 -22.5 -85t-67.5 -35q-33 0 -74 30q-40 31 -62 31q-47 0 -49 -54h-50q-3 51 22.5 85.5t67.5 34.5zM270 519q81 0 123.5 -43t42.5 -127v-349h-82v48q-61 -58 -150 -58q-66 0 -106.5 37t-40.5 100q0 87 67 121
q66 35 226 55v41q0 101 -95 101q-78 0 -159 -51l-6 80q78 45 180 45zM350 118v122q-123 -20 -164 -38q-43 -19 -43 -70q0 -73 85 -73q66 0 122 59z" />
    <glyph glyph-name="adieresis" unicode="&#xe4;" horiz-adv-x="518" 
d="M182 732q21 0 36.5 -15t15.5 -36t-15.5 -36t-36.5 -15q-22 0 -37 14.5t-15 36.5q0 21 15 36t37 15zM382 681q0 -22 -14.5 -36.5t-36.5 -14.5t-37.5 14.5t-15.5 36.5q0 21 15.5 36t37.5 15t36.5 -15t14.5 -36zM270 519q81 0 123.5 -43t42.5 -127v-349h-82v48
q-61 -58 -150 -58q-66 0 -106.5 37t-40.5 100q0 87 67 121q66 35 226 55v41q0 101 -95 101q-78 0 -159 -51l-6 80q78 45 180 45zM350 118v122q-123 -20 -164 -38q-43 -19 -43 -70q0 -73 85 -73q66 0 122 59z" />
    <glyph glyph-name="aring" unicode="&#xe5;" horiz-adv-x="518" 
d="M177 768q33 30 81 30t81 -30t33 -76t-33 -76t-81 -30t-81 30t-33 76t33 76zM258 748q-26 0 -42.5 -16t-16.5 -40q0 -25 16.5 -40.5t42.5 -15.5t42 15.5t16 40.5q0 24 -16.5 40t-41.5 16zM270 519q81 0 123.5 -43t42.5 -127v-349h-82v48q-61 -58 -150 -58q-66 0 -106.5 37
t-40.5 100q0 87 67 121q66 35 226 55v41q0 101 -95 101q-78 0 -159 -51l-6 80q78 45 180 45zM350 118v122q-123 -20 -164 -38q-43 -19 -43 -70q0 -73 85 -73q66 0 122 59z" />
    <glyph glyph-name="ae" unicode="&#xe6;" horiz-adv-x="834" 
d="M580 519q114 0 165 -74.5t35 -217.5h-342q2 -75 45 -119.5t118 -44.5q90 0 166 55l5 -77q-74 -51 -181 -51q-134 0 -198 97l-8 -11q-66 -86 -177 -86q-68 0 -109.5 37.5t-41.5 100.5q0 85 71 123.5t222 42.5v44q0 107 -93 107q-80 0 -161 -51l-6 80q78 45 177 45
q101 0 145 -75q63 75 168 75zM577 446q-59 0 -96.5 -41t-42.5 -110h260q5 71 -26.5 111t-94.5 40zM350 170v58q-110 -3 -158.5 -24t-48.5 -73q0 -72 88 -72q51 0 85 29.5t34 81.5z" />
    <glyph glyph-name="ccedilla" unicode="&#xe7;" horiz-adv-x="473" 
d="M298 -10h-5l-12 -48q55 -2 90.5 -27.5t35.5 -69.5q0 -42 -35.5 -68t-85.5 -26q-60 0 -101 23l14 46q32 -20 73 -20q31 0 50.5 12.5t19.5 35.5q0 25 -24.5 40t-61.5 15q-18 0 -32 -3l25 94q-90 17 -146 85q-56 71 -56 177q0 121 71 192q73 71 179 71q74 0 138 -35l-5 -78
q-58 40 -126 40q-76 0 -122 -52q-47 -53 -47 -138q0 -87 47 -140q48 -52 123 -52q76 0 129 40l5 -78q-65 -36 -141 -36z" />
    <glyph glyph-name="egrave" unicode="&#xe8;" horiz-adv-x="535" 
d="M310 595h-68l-133 191h98zM279 519q114 0 165 -74.5t35 -217.5h-341q2 -75 45 -119.5t118 -44.5q90 0 166 55l5 -77q-75 -51 -181 -51q-111 0 -176 68.5t-65 191.5q0 125 64 196q64 73 165 73zM276 446q-59 0 -96.5 -41.5t-41.5 -109.5h259q5 71 -26.5 111t-94.5 40z" />
    <glyph glyph-name="eacute" unicode="&#xe9;" horiz-adv-x="535" 
d="M443 786l-133 -191h-68l102 191h99zM279 519q114 0 165 -74.5t35 -217.5h-341q2 -75 45 -119.5t118 -44.5q90 0 166 55l5 -77q-75 -51 -181 -51q-111 0 -176 68.5t-65 191.5q0 125 64 196q64 73 165 73zM276 446q-59 0 -96.5 -41.5t-41.5 -109.5h259q5 71 -26.5 111
t-94.5 40z" />
    <glyph glyph-name="ecircumflex" unicode="&#xea;" horiz-adv-x="535" 
d="M278 706l-87 -110h-74l120 169h82l120 -169h-74zM279 519q114 0 165 -74.5t35 -217.5h-341q2 -75 45 -119.5t118 -44.5q90 0 166 55l5 -77q-75 -51 -181 -51q-111 0 -176 68.5t-65 191.5q0 125 64 196q64 73 165 73zM276 446q-59 0 -96.5 -41.5t-41.5 -109.5h259
q5 71 -26.5 111t-94.5 40z" />
    <glyph glyph-name="edieresis" unicode="&#xeb;" horiz-adv-x="535" 
d="M201 630q-22 0 -37 14.5t-15 36.5q0 21 15 36t37 15q21 0 36.5 -15t15.5 -36t-15.5 -36t-36.5 -15zM297 681q0 21 15.5 36t37.5 15t36.5 -15t14.5 -36q0 -22 -14.5 -36.5t-36.5 -14.5t-37.5 14.5t-15.5 36.5zM279 519q114 0 165 -74.5t35 -217.5h-341q2 -75 45 -119.5
t118 -44.5q90 0 166 55l5 -77q-75 -51 -181 -51q-111 0 -176 68.5t-65 191.5q0 125 64 196q64 73 165 73zM276 446q-59 0 -96.5 -41.5t-41.5 -109.5h259q5 71 -26.5 111t-94.5 40z" />
    <glyph glyph-name="igrave" unicode="&#xec;" horiz-adv-x="261" 
d="M173 510v-510h-86v510h86zM59 786l103 -191h-68l-133 191h98z" />
    <glyph glyph-name="iacute" unicode="&#xed;" horiz-adv-x="261" 
d="M173 510v-510h-86v510h86zM296 786l-133 -191h-68l102 191h99z" />
    <glyph glyph-name="icircumflex" unicode="&#xee;" horiz-adv-x="261" 
d="M171 765l120 -169h-74l-87 110l-87 -110h-74l120 169h82zM173 510v-510h-86v510h86z" />
    <glyph glyph-name="idieresis" unicode="&#xef;" horiz-adv-x="261" 
d="M53 732q21 0 36.5 -15t15.5 -36t-15.5 -36t-36.5 -15q-22 0 -37 14.5t-15 36.5q0 21 15 36t37 15zM253 681q0 -22 -14.5 -36.5t-36.5 -14.5t-37.5 14.5t-15.5 36.5q0 21 15.5 36t37.5 15t36.5 -15t14.5 -36zM173 510v-510h-86v510h86z" />
    <glyph glyph-name="eth" unicode="&#xf0;" horiz-adv-x="600" 
d="M447 798l36 -43l-86 -68q139 -126 139 -415q0 -137 -63.5 -209.5t-178.5 -72.5q-106 0 -174 66q-67 66 -67 178t66 179t167 67q97 0 155 -61q-22 146 -105 220l-100 -79l-35 44l88 69q-67 39 -165 39v65q134 0 226 -56zM294 63q73 0 114 48t41 134q0 70 -44 116
q-43 46 -111 46q-69 0 -111.5 -46.5t-42.5 -124.5q0 -81 42 -127t112 -46z" />
    <glyph glyph-name="ntilde" unicode="&#xf1;" 
d="M223 736q33 0 73 -31q40 -30 63 -30q47 0 49 54h50q3 -50 -22.5 -85t-67.5 -35q-34 0 -74 30q-40 31 -62 31q-48 0 -49 -54h-50q-3 51 22.5 85.5t67.5 34.5zM324 519q82 0 135 -54q53 -55 53 -142v-323h-86v305q0 58 -32.5 94.5t-86.5 36.5q-74 0 -134 -71v-365h-86v510
h83v-65q56 74 154 74z" />
    <glyph glyph-name="ograve" unicode="&#xf2;" 
d="M227 786l103 -191h-68l-133 191h98zM545 255q0 -124 -68 -195q-67 -70 -179 -70q-113 0 -180 70q-68 71 -68 195q0 122 68 193q69 71 180 71q112 0 179 -72q68 -73 68 -192zM297 64q74 0 117.5 51.5t43.5 139.5t-43.5 139.5t-117.5 51.5t-117 -51.5t-43 -139.5
t43.5 -139.5t116.5 -51.5z" />
    <glyph glyph-name="oacute" unicode="&#xf3;" 
d="M463 786l-133 -191h-68l102 191h99zM545 255q0 -124 -68 -195q-67 -70 -179 -70q-113 0 -180 70q-68 71 -68 195q0 122 68 193q69 71 180 71q112 0 179 -72q68 -73 68 -192zM297 64q74 0 117.5 51.5t43.5 139.5t-43.5 139.5t-117.5 51.5t-117 -51.5t-43 -139.5
t43.5 -139.5t116.5 -51.5z" />
    <glyph glyph-name="ocircumflex" unicode="&#xf4;" 
d="M339 765l120 -169h-74l-87 110l-87 -110h-74l120 169h82zM545 255q0 -124 -68 -195q-67 -70 -179 -70q-113 0 -180 70q-68 71 -68 195q0 122 68 193q69 71 180 71q112 0 179 -72q68 -73 68 -192zM297 64q74 0 117.5 51.5t43.5 139.5t-43.5 139.5t-117.5 51.5t-117 -51.5
t-43 -139.5t43.5 -139.5t116.5 -51.5z" />
    <glyph glyph-name="otilde" unicode="&#xf5;" 
d="M223 736q33 0 73 -31q40 -30 63 -30q47 0 49 54h50q3 -50 -22.5 -85t-67.5 -35q-34 0 -74 30q-40 31 -62 31q-48 0 -49 -54h-50q-3 51 22.5 85.5t67.5 34.5zM545 255q0 -124 -68 -195q-67 -70 -179 -70q-113 0 -180 70q-68 71 -68 195q0 122 68 193q69 71 180 71
q112 0 179 -72q68 -73 68 -192zM297 64q74 0 117.5 51.5t43.5 139.5t-43.5 139.5t-117.5 51.5t-117 -51.5t-43 -139.5t43.5 -139.5t116.5 -51.5z" />
    <glyph glyph-name="odieresis" unicode="&#xf6;" 
d="M221 732q21 0 36.5 -15t15.5 -36t-15.5 -36t-36.5 -15q-22 0 -37 14.5t-15 36.5q0 21 15 36t37 15zM421 681q0 -22 -14.5 -36.5t-36.5 -14.5t-37.5 14.5t-15.5 36.5q0 21 15.5 36t37.5 15t36.5 -15t14.5 -36zM545 255q0 -124 -68 -195q-67 -70 -179 -70q-113 0 -180 70
q-68 71 -68 195q0 122 68 193q69 71 180 71q112 0 179 -72q68 -73 68 -192zM297 64q74 0 117.5 51.5t43.5 139.5t-43.5 139.5t-117.5 51.5t-117 -51.5t-43 -139.5t43.5 -139.5t116.5 -51.5z" />
    <glyph glyph-name="divide" unicode="&#xf7;" horiz-adv-x="546" 
d="M273 642q25 0 42.5 -17t17.5 -42t-17.5 -41.5t-42.5 -16.5q-24 0 -41 16.5t-17 41.5t17 42t41 17zM514 411v-81h-481v81h481zM273 217q25 0 42.5 -17.5t17.5 -42.5q0 -24 -17.5 -41.5t-42.5 -17.5q-24 0 -41 17.5t-17 41.5q0 25 17 42.5t41 17.5z" />
    <glyph glyph-name="oslash" unicode="&#xf8;" 
d="M474 539l47 -36l-43 -57q67 -73 67 -191q0 -124 -68 -195q-67 -70 -179 -70q-76 0 -138 36l-43 -57l-48 36l45 60q-64 71 -64 190q0 122 68 193q69 71 180 71q75 0 134 -35zM137 255q0 -70 30 -121l218 287q-38 25 -88 25q-74 0 -117 -51.5t-43 -139.5zM297 64
q74 0 117.5 51.5t43.5 139.5q0 74 -31 123l-218 -288q38 -26 88 -26z" />
    <glyph glyph-name="ugrave" unicode="&#xf9;" horiz-adv-x="583" 
d="M223 786l103 -191h-68l-133 191h98zM500 510v-510h-83v65q-22 -33 -62.5 -54t-93.5 -21q-79 0 -129 54t-48 143v323h86v-306q0 -58 30.5 -94t83.5 -36q81 0 130 70v366h86z" />
    <glyph glyph-name="uacute" unicode="&#xfa;" horiz-adv-x="583" 
d="M460 786l-133 -191h-68l102 191h99zM500 510v-510h-83v65q-22 -33 -62.5 -54t-93.5 -21q-79 0 -129 54t-48 143v323h86v-306q0 -58 30.5 -94t83.5 -36q81 0 130 70v366h86z" />
    <glyph glyph-name="ucircumflex" unicode="&#xfb;" horiz-adv-x="583" 
d="M335 765l120 -169h-74l-87 110l-87 -110h-74l120 169h82zM500 510v-510h-83v65q-22 -33 -62.5 -54t-93.5 -21q-79 0 -129 54t-48 143v323h86v-306q0 -58 30.5 -94t83.5 -36q81 0 130 70v366h86z" />
    <glyph glyph-name="udieresis" unicode="&#xfc;" horiz-adv-x="583" 
d="M217 732q21 0 36.5 -15t15.5 -36t-15.5 -36t-36.5 -15q-22 0 -37 14.5t-15 36.5q0 21 15 36t37 15zM417 681q0 -22 -14.5 -36.5t-36.5 -14.5t-37.5 14.5t-15.5 36.5q0 21 15.5 36t37.5 15t36.5 -15t14.5 -36zM500 510v-510h-83v65q-22 -33 -62.5 -54t-93.5 -21
q-79 0 -129 54t-48 143v323h86v-306q0 -58 30.5 -94t83.5 -36q81 0 130 70v366h86z" />
    <glyph glyph-name="yacute" unicode="&#xfd;" horiz-adv-x="525" 
d="M429 786l-133 -191h-68l102 191h99zM507 510l-302 -765h-90l103 261l-201 504h93l153 -399l152 399h92z" />
    <glyph glyph-name="thorn" unicode="&#xfe;" horiz-adv-x="602" 
d="M87 777h86v-314q59 56 154 56q96 0 161 -68q64 -67 64 -196q0 -130 -65 -198q-64 -67 -166 -67q-89 0 -148 57v-303h-86v1033zM307 446q-79 0 -134 -60v-262q59 -60 136 -60q70 0 113 50.5t43 140.5q0 91 -43 141t-115 50z" />
    <glyph glyph-name="ydieresis" unicode="&#xff;" horiz-adv-x="525" 
d="M186 732q21 0 36.5 -15t15.5 -36t-15.5 -36t-36.5 -15q-22 0 -37 14.5t-15 36.5q0 21 15 36t37 15zM386 681q0 -22 -14.5 -36.5t-36.5 -14.5t-37.5 14.5t-15.5 36.5q0 21 15.5 36t37.5 15t36.5 -15t14.5 -36zM507 510l-302 -765h-90l103 261l-201 504h93l153 -399
l152 399h92z" />
    <glyph glyph-name="Amacron" unicode="&#x100;" horiz-adv-x="744" 
d="M419 748l305 -748h-99l-85 212h-335l-86 -212h-99l305 748h94zM372 627l-135 -335h271zM503 901v-66h-263v66h263z" />
    <glyph glyph-name="amacron" unicode="&#x101;" horiz-adv-x="518" 
d="M389 702v-67h-263v67h263zM270 519q81 0 123.5 -43t42.5 -127v-349h-82v48q-61 -58 -150 -58q-66 0 -106.5 37t-40.5 100q0 87 67 121q66 35 226 55v41q0 101 -95 101q-78 0 -159 -51l-6 80q78 45 180 45zM350 118v122q-123 -20 -164 -38q-43 -19 -43 -70q0 -73 85 -73
q66 0 122 59z" />
    <glyph glyph-name="Abreve" unicode="&#x102;" horiz-adv-x="744" 
d="M419 748l305 -748h-99l-85 212h-335l-86 -212h-99l305 748h94zM372 627l-135 -335h271zM458 938h71q0 -63 -42 -98t-115 -35q-72 0 -114 35t-42 98h71q0 -34 23 -53.5t62 -19.5t62.5 19.5t23.5 53.5z" />
    <glyph glyph-name="abreve" unicode="&#x103;" horiz-adv-x="518" 
d="M344 732h71q0 -63 -42 -98t-115 -35q-72 0 -114 35t-42 98h71q0 -34 23 -53.5t62 -19.5t62.5 19.5t23.5 53.5zM270 519q81 0 123.5 -43t42.5 -127v-349h-82v48q-61 -58 -150 -58q-66 0 -106.5 37t-40.5 100q0 87 67 121q66 35 226 55v41q0 101 -95 101q-78 0 -159 -51
l-6 80q78 45 180 45zM350 118v122q-123 -20 -164 -38q-43 -19 -43 -70q0 -73 85 -73q66 0 122 59z" />
    <glyph glyph-name="Aogonek" unicode="&#x104;" horiz-adv-x="744" 
d="M599 -139q31 0 57 12l9 -45q-36 -16 -79 -16q-49 0 -78.5 22t-29.5 62q0 80 138 126l-76 190h-335l-86 -212h-99l305 748h94l305 -748h-87l1 -1q-51 -25 -72.5 -45.5t-21.5 -47.5q0 -45 55 -45zM237 292h271l-136 335z" />
    <glyph glyph-name="aogonek" unicode="&#x105;" horiz-adv-x="518" 
d="M438 -126l9 -45q-36 -16 -79 -16q-49 0 -78.5 22t-29.5 62q0 67 94 109v42q-61 -58 -150 -58q-66 0 -106.5 37t-40.5 100q0 87 67 121q66 35 226 55v41q0 101 -95 101q-78 0 -159 -51l-6 80q78 45 180 45q81 0 123.5 -43t42.5 -127v-349h-16q-51 -25 -72.5 -45.5
t-21.5 -47.5q0 -45 55 -45q31 0 57 12zM350 118v122q-123 -20 -164 -38q-43 -19 -43 -70q0 -73 85 -73q66 0 122 59z" />
    <glyph glyph-name="Cacute" unicode="&#x106;" horiz-adv-x="659" 
d="M627 936l-187 -141h-81l148 141h120zM408 758q118 0 206 -55l-7 -88q-81 60 -194 60q-119 0 -194 -82q-74 -83 -74 -219q0 -137 76 -219t195 -82q116 0 198 59l6 -87q-88 -55 -210 -55q-151 0 -255 104q-103 103 -103 280q0 176 102 280t254 104z" />
    <glyph glyph-name="cacute" unicode="&#x107;" horiz-adv-x="473" 
d="M446 786l-133 -191h-68l102 191h99zM297 519q74 0 138 -35l-5 -78q-58 40 -126 40q-76 0 -122 -52q-47 -53 -47 -138q0 -87 47 -140q48 -52 123 -52q76 0 129 40l5 -78q-65 -36 -141 -36q-107 0 -179 72t-72 194q0 121 71 192q73 71 179 71z" />
    <glyph glyph-name="Ccircumflex" unicode="&#x108;" horiz-adv-x="659" 
d="M441 938l119 -143h-75l-85 90l-86 -90h-74l119 143h82zM408 758q118 0 206 -55l-7 -88q-81 60 -194 60q-119 0 -194 -82q-74 -83 -74 -219q0 -137 76 -219t195 -82q116 0 198 59l6 -87q-88 -55 -210 -55q-151 0 -255 104q-103 103 -103 280q0 176 102 280t254 104z" />
    <glyph glyph-name="ccircumflex" unicode="&#x109;" horiz-adv-x="473" 
d="M321 765l120 -169h-74l-87 110l-87 -110h-74l120 169h82zM297 519q74 0 138 -35l-5 -78q-58 40 -126 40q-76 0 -122 -52q-47 -53 -47 -138q0 -87 47 -140q48 -52 123 -52q76 0 129 40l5 -78q-65 -36 -141 -36q-107 0 -179 72t-72 194q0 121 71 192q73 71 179 71z" />
    <glyph glyph-name="Cdotaccent" unicode="&#x10a;" horiz-adv-x="659" 
d="M399 925q24 0 41 -17t17 -41q0 -39 -36 -53.5t-63 12.5q-28 25 -11.5 63t52.5 36zM408 758q118 0 206 -55l-7 -88q-81 60 -194 60q-119 0 -194 -82q-74 -83 -74 -219q0 -137 76 -219t195 -82q116 0 198 59l6 -87q-88 -55 -210 -55q-151 0 -255 104q-103 103 -103 280
q0 176 102 280t254 104z" />
    <glyph glyph-name="cdotaccent" unicode="&#x10b;" horiz-adv-x="473" 
d="M280 738q24 0 41 -17t17 -40q0 -24 -17 -41t-41 -17q-23 0 -40.5 17t-17.5 41q0 23 17.5 40t40.5 17zM297 519q74 0 138 -35l-5 -78q-58 40 -126 40q-76 0 -122 -52q-47 -53 -47 -138q0 -87 47 -140q48 -52 123 -52q76 0 129 40l5 -78q-65 -36 -141 -36q-107 0 -179 72
t-72 194q0 121 71 192q73 71 179 71z" />
    <glyph glyph-name="Ccaron" unicode="&#x10c;" horiz-adv-x="659" 
d="M560 938l-119 -143h-82l-119 143h74l86 -90l85 90h75zM408 758q118 0 206 -55l-7 -88q-81 60 -194 60q-119 0 -194 -82q-74 -83 -74 -219q0 -137 76 -219t195 -82q116 0 198 59l6 -87q-88 -55 -210 -55q-151 0 -255 104q-103 103 -103 280q0 176 102 280t254 104z" />
    <glyph glyph-name="ccaron" unicode="&#x10d;" horiz-adv-x="473" 
d="M441 762l-120 -168h-82l-120 168h74l87 -110l87 110h74zM297 519q74 0 138 -35l-5 -78q-58 40 -126 40q-76 0 -122 -52q-47 -53 -47 -138q0 -87 47 -140q48 -52 123 -52q76 0 129 40l5 -78q-65 -36 -141 -36q-107 0 -179 72t-72 194q0 121 71 192q73 71 179 71z" />
    <glyph glyph-name="Dcaron" unicode="&#x10e;" horiz-adv-x="761" 
d="M507 938l-119 -143h-82l-119 143h74l86 -90l85 90h75zM90 0v748h249q167 0 267 -95q100 -94 100 -280q0 -185 -100 -279t-267 -94h-249zM339 666h-158v-583h158q129 0 202 73.5t73 216.5q0 145 -73 219t-202 74z" />
    <glyph glyph-name="dcaron" unicode="&#x10f;" horiz-adv-x="740" 
d="M428 464v313h87v-777h-77l-3 52q-60 -62 -159 -62q-97 0 -162 68q-64 67 -64 197q0 129 65 197q64 67 165 67q92 0 148 -55zM665 750q26 0 40.5 -18.5t14.5 -48.5q0 -126 -112 -190v39q51 38 58 102q-24 1 -40.5 17t-16.5 40t16 41.5t40 17.5zM428 124v262
q-58 60 -136 60q-70 0 -112.5 -51t-42.5 -140q0 -92 42.5 -141.5t114.5 -49.5q82 0 134 60z" />
    <glyph glyph-name="Dcroat" unicode="&#x110;" horiz-adv-x="771" 
d="M100 409v339h250q167 0 267 -95q100 -94 100 -280q0 -185 -100 -279t-267 -94h-250v338h-100v71h100zM191 338v-255h158q129 0 202 73.5t73 216.5q0 145 -73 219t-202 74h-158v-257h157v-71h-157z" />
    <glyph glyph-name="dslash" unicode="&#x111;" horiz-adv-x="610" 
d="M595 679v-67h-80v-612h-77l-3 52q-60 -62 -159 -62q-97 0 -162 68q-64 67 -64 197q0 129 65 197q64 67 165 67q92 0 148 -55v148h-95v67h95v98h87v-98h80zM428 124v262q-58 60 -136 60q-70 0 -112.5 -51t-42.5 -140q0 -92 42.5 -141.5t114.5 -49.5q82 0 134 60z" />
    <glyph glyph-name="Emacron" unicode="&#x112;" horiz-adv-x="599" 
d="M464 901v-66h-263v66h263zM559 748v-82h-378v-239h334v-81h-334v-263h378v-83h-469v748h469z" />
    <glyph glyph-name="emacron" unicode="&#x113;" horiz-adv-x="535" 
d="M408 702v-67h-263v67h263zM279 519q114 0 165 -74.5t35 -217.5h-341q2 -75 45 -119.5t118 -44.5q90 0 166 55l5 -77q-75 -51 -181 -51q-111 0 -176 68.5t-65 191.5q0 125 64 196q64 73 165 73zM276 446q-59 0 -96.5 -41.5t-41.5 -109.5h259q5 71 -26.5 111t-94.5 40z" />
    <glyph glyph-name="Ebreve" unicode="&#x114;" horiz-adv-x="599" 
d="M419 938h71q0 -63 -42 -98t-115 -35q-72 0 -114 35t-42 98h71q0 -34 23 -53.5t62 -19.5t62.5 19.5t23.5 53.5zM559 748v-82h-378v-239h334v-81h-334v-263h378v-83h-469v748h469z" />
    <glyph glyph-name="ebreve" unicode="&#x115;" horiz-adv-x="535" 
d="M277 599q-72 0 -114 35t-42 98h71q0 -34 23 -53.5t62 -19.5t62.5 19.5t23.5 53.5h71q0 -63 -42 -98t-115 -35zM279 519q114 0 165 -74.5t35 -217.5h-341q2 -75 45 -119.5t118 -44.5q90 0 166 55l5 -77q-75 -51 -181 -51q-111 0 -176 68.5t-65 191.5q0 125 64 196
q64 73 165 73zM276 446q-59 0 -96.5 -41.5t-41.5 -109.5h259q5 71 -26.5 111t-94.5 40z" />
    <glyph glyph-name="Edotaccent" unicode="&#x116;" horiz-adv-x="599" 
d="M333 925q24 0 41 -17t17 -41q0 -39 -36 -53.5t-63 12.5q-28 25 -11.5 63t52.5 36zM559 748v-82h-378v-239h334v-81h-334v-263h378v-83h-469v748h469z" />
    <glyph glyph-name="edotaccent" unicode="&#x117;" horiz-adv-x="535" 
d="M277 623q-23 0 -40.5 17t-17.5 41q0 23 17.5 40t40.5 17q24 0 41 -17t17 -40q0 -24 -17 -41t-41 -17zM279 519q114 0 165 -74.5t35 -217.5h-341q2 -75 45 -119.5t118 -44.5q90 0 166 55l5 -77q-75 -51 -181 -51q-111 0 -176 68.5t-65 191.5q0 125 64 196q64 73 165 73z
M276 446q-59 0 -96.5 -41.5t-41.5 -109.5h259q5 71 -26.5 111t-94.5 40z" />
    <glyph glyph-name="Eogonek" unicode="&#x118;" horiz-adv-x="599" 
d="M567 -127l9 -45q-36 -16 -79 -16q-49 0 -78.5 22t-29.5 62q0 62 84 104h-383v748h469v-82h-378v-239h334v-81h-334v-263h378v-83h-11l1 -1q-51 -25 -72.5 -45.5t-21.5 -47.5q0 -45 55 -45q32 0 57 12z" />
    <glyph glyph-name="eogonek" unicode="&#x119;" horiz-adv-x="535" 
d="M279 519q114 0 165 -74.5t35 -217.5h-341q2 -75 45 -119.5t118 -44.5q90 0 166 55l5 -77q-61 -42 -148 -50q-46 -22 -66.5 -42.5t-20.5 -46.5q0 -45 55 -45q32 0 57 12l9 -45q-36 -16 -79 -16q-49 0 -78.5 22t-29.5 62q0 60 78 101q-93 12 -146 79t-53 178q0 125 64 196
q64 73 165 73zM276 446q-59 0 -96.5 -41.5t-41.5 -109.5h259q5 71 -26.5 111t-94.5 40z" />
    <glyph glyph-name="Ecaron" unicode="&#x11a;" horiz-adv-x="599" 
d="M493 938l-119 -143h-82l-119 143h74l86 -90l85 90h75zM559 748v-82h-378v-239h334v-81h-334v-263h378v-83h-469v748h469z" />
    <glyph glyph-name="ecaron" unicode="&#x11b;" horiz-adv-x="535" 
d="M319 594h-82l-120 168h74l87 -110l87 110h74zM279 519q114 0 165 -74.5t35 -217.5h-341q2 -75 45 -119.5t118 -44.5q90 0 166 55l5 -77q-75 -51 -181 -51q-111 0 -176 68.5t-65 191.5q0 125 64 196q64 73 165 73zM276 446q-59 0 -96.5 -41.5t-41.5 -109.5h259
q5 71 -26.5 111t-94.5 40z" />
    <glyph glyph-name="Gcircumflex" unicode="&#x11c;" horiz-adv-x="721" 
d="M435 938l119 -143h-75l-85 90l-86 -90h-74l119 143h82zM412 758q120 0 212 -56l-7 -87q-83 60 -199 60q-120 0 -197 -83q-76 -82 -76 -218q0 -137 73 -219t190 -82q85 0 153 38v174h-182v81h269v-309q-57 -34 -115 -51q-54 -16 -131 -16q-150 0 -250 103t-100 281
q0 177 103 280q104 104 257 104z" />
    <glyph glyph-name="gcircumflex" unicode="&#x11d;" horiz-adv-x="605" 
d="M334 765l120 -169h-74l-87 110l-87 -110h-74l120 169h82zM284 519q94 0 152 -63l1 54h81v-542q0 -108 -64 -169q-64 -63 -170 -63q-113 0 -198 52l19 82q76 -60 179 -60q72 0 109.5 38t37.5 112v87q-59 -57 -151 -57q-97 0 -162 68t-65 197t65 197q66 67 166 67zM294 446
q-70 0 -112.5 -51t-42.5 -140q0 -92 42.5 -141.5t114.5 -49.5q82 0 134 60v262q-59 60 -136 60z" />
    <glyph glyph-name="Gbreve" unicode="&#x11e;" horiz-adv-x="721" 
d="M479 938h71q0 -63 -42 -98t-115 -35q-72 0 -114 35t-42 98h71q0 -34 23 -53.5t62 -19.5t62.5 19.5t23.5 53.5zM412 758q120 0 212 -56l-7 -87q-83 60 -199 60q-120 0 -197 -83q-76 -82 -76 -218q0 -137 73 -219t190 -82q85 0 153 38v174h-182v81h269v-309
q-57 -34 -115 -51q-54 -16 -131 -16q-150 0 -250 103t-100 281q0 177 103 280q104 104 257 104z" />
    <glyph glyph-name="gbreve" unicode="&#x11f;" horiz-adv-x="605" 
d="M378 732h71q0 -63 -42 -98t-115 -35q-72 0 -114 35t-42 98h71q0 -34 23 -53.5t62 -19.5t62.5 19.5t23.5 53.5zM284 519q94 0 152 -63l1 54h81v-542q0 -108 -64 -169q-64 -63 -170 -63q-113 0 -198 52l19 82q76 -60 179 -60q72 0 109.5 38t37.5 112v87q-59 -57 -151 -57
q-97 0 -162 68t-65 197t65 197q66 67 166 67zM294 446q-70 0 -112.5 -51t-42.5 -140q0 -92 42.5 -141.5t114.5 -49.5q82 0 134 60v262q-59 60 -136 60z" />
    <glyph glyph-name="Gdotaccent" unicode="&#x120;" horiz-adv-x="721" 
d="M393 925q24 0 41 -17t17 -41q0 -39 -36 -53.5t-63 12.5q-28 25 -11.5 63t52.5 36zM412 758q120 0 212 -56l-7 -87q-83 60 -199 60q-120 0 -197 -83q-76 -82 -76 -218q0 -137 73 -219t190 -82q85 0 153 38v174h-182v81h269v-309q-57 -34 -115 -51q-54 -16 -131 -16
q-150 0 -250 103t-100 281q0 177 103 280q104 104 257 104z" />
    <glyph glyph-name="gdotaccent" unicode="&#x121;" horiz-adv-x="605" 
d="M292 738q24 0 41 -17t17 -40q0 -24 -17 -41t-41 -17q-23 0 -40.5 17t-17.5 41q0 23 17.5 40t40.5 17zM284 519q94 0 152 -63l1 54h81v-542q0 -108 -64 -169q-64 -63 -170 -63q-113 0 -198 52l19 82q76 -60 179 -60q72 0 109.5 38t37.5 112v87q-59 -57 -151 -57
q-97 0 -162 68t-65 197t65 197q66 67 166 67zM294 446q-70 0 -112.5 -51t-42.5 -140q0 -92 42.5 -141.5t114.5 -49.5q82 0 134 60v262q-59 60 -136 60z" />
    <glyph glyph-name="Gcommaaccent" unicode="&#x122;" horiz-adv-x="721" 
d="M379 366h269v-309q-57 -34 -115 -51q-54 -16 -131 -16q-150 0 -250 103t-100 281q0 177 103 280q104 104 257 104q120 0 212 -56l-7 -87q-83 60 -199 60q-120 0 -197 -83q-76 -82 -76 -218q0 -137 73 -219t190 -82q85 0 153 38v174h-182v81zM393 -44q26 0 40.5 -18.5
t14.5 -48.5q0 -126 -112 -190v39q51 38 58 102q-24 1 -40.5 17t-16.5 40t16 41.5t40 17.5z" />
    <glyph glyph-name="gcommaaccent" unicode="&#x123;" horiz-adv-x="605" 
d="M363 771q0 -126 -112 -190v39q51 38 58 102q-24 1 -40.5 17t-16.5 40t16 41.5t40 17.5q26 0 40.5 -18.5t14.5 -48.5zM437 510h81v-542q0 -108 -64 -169q-64 -63 -170 -63q-113 0 -198 52l19 82q76 -60 179 -60q72 0 109.5 38t37.5 112v87q-59 -57 -151 -57q-97 0 -162 68
t-65 197t65 197q66 67 166 67q94 0 152 -63zM430 124v262q-59 60 -136 60q-70 0 -112.5 -51t-42.5 -140q0 -92 42.5 -141.5t114.5 -49.5q82 0 134 60z" />
    <glyph glyph-name="Hcircumflex" unicode="&#x124;" horiz-adv-x="753" 
d="M418 938l119 -143h-75l-85 90l-86 -90h-74l119 143h82zM663 748v-748h-92v346h-390v-346h-91v748h91v-319h390v319h92z" />
    <glyph glyph-name="hcircumflex" unicode="&#x125;" 
d="M176 940l119 -142h-75l-85 90l-86 -90h-74l119 142h82zM87 777h86v-328q61 70 151 70q82 0 135 -54q53 -55 53 -142v-323h-86v305q0 58 -32.5 94.5t-86.5 36.5q-74 0 -134 -71v-365h-86v777z" />
    <glyph glyph-name="Hbar" unicode="&#x126;" horiz-adv-x="753" 
d="M751 620v-70h-88v-550h-92v346h-390v-346h-91v550h-87v70h87v128h91v-128h390v128h92v-128h88zM571 429v121h-390v-121h390z" />
    <glyph glyph-name="hbar" unicode="&#x127;" 
d="M324 519q82 0 135 -54q53 -55 53 -142v-323h-86v305q0 58 -32.5 94.5t-86.5 36.5q-74 0 -134 -71v-365h-86v612h-80v67h80v98h86v-98h97v-67h-97v-163q61 70 151 70z" />
    <glyph glyph-name="Itilde" unicode="&#x128;" horiz-adv-x="271" 
d="M69 936q33 0 73 -31t63 -31q48 0 49 55h50q3 -51 -22.5 -85.5t-67.5 -34.5q-34 0 -74 30q-40 31 -62 31q-48 0 -49 -54h-50q-3 51 22.5 85.5t67.5 34.5zM184 748v-748h-91v748h91z" />
    <glyph glyph-name="itilde" unicode="&#x129;" horiz-adv-x="261" 
d="M59 736q33 0 73 -31q40 -30 63 -30q47 0 49 54h50q3 -50 -22.5 -85t-67.5 -35q-34 0 -74 30q-40 31 -62 31q-48 0 -49 -54h-50q-3 51 22.5 85.5t67.5 34.5zM176 510v-510h-86v510h86z" />
    <glyph glyph-name="Imacron" unicode="&#x12a;" horiz-adv-x="271" 
d="M269 901v-66h-263v66h263zM181 748v-748h-91v748h91z" />
    <glyph glyph-name="imacron" unicode="&#x12b;" horiz-adv-x="261" 
d="M261 702v-67h-263v67h263zM173 510v-510h-86v510h86z" />
    <glyph glyph-name="Ibreve" unicode="&#x12c;" horiz-adv-x="271" 
d="M224 938h71q0 -63 -42 -98t-115 -35q-72 0 -114 35t-42 98h71q0 -34 23 -53.5t62 -19.5t62.5 19.5t23.5 53.5zM181 748v-748h-91v748h91z" />
    <glyph glyph-name="ibreve" unicode="&#x12d;" horiz-adv-x="261" 
d="M215 732h71q0 -63 -42 -98t-115 -35q-72 0 -114 35t-42 98h71q0 -34 23 -53.5t62 -19.5t62.5 19.5t23.5 53.5zM173 510v-510h-86v510h86z" />
    <glyph glyph-name="Iogonek" unicode="&#x12e;" horiz-adv-x="271" 
d="M181 748v-748h-34q-51 -25 -72.5 -45.5t-21.5 -47.5q0 -45 55 -45q32 0 57 12l9 -45q-36 -16 -79 -16q-49 0 -78.5 22t-29.5 62q0 70 103 113v738h91z" />
    <glyph glyph-name="iogonek" unicode="&#x12f;" horiz-adv-x="261" 
d="M129 623q-23 0 -40.5 17t-17.5 41q0 23 17.5 40t40.5 17q24 0 41 -17t17 -40q0 -24 -17 -41t-41 -17zM87 19v491h86v-510h-52q-51 -25 -72.5 -45.5t-21.5 -47.5q0 -45 55 -45q32 0 57 12l9 -45q-36 -16 -79 -16q-49 0 -78.5 22t-29.5 62q0 75 126 122z" />
    <glyph glyph-name="Idot" unicode="&#x130;" horiz-adv-x="271" 
d="M138 925q24 0 41 -17t17 -41q0 -39 -36 -53.5t-63 12.5q-28 25 -11.5 63t52.5 36zM181 748v-748h-91v748h91z" />
    <glyph glyph-name="dotlessi" unicode="&#x131;" horiz-adv-x="261" 
d="M173 510v-510h-86v510h86z" />
    <glyph glyph-name="Jcircumflex" unicode="&#x134;" horiz-adv-x="467" 
d="M291 748h91v-535q0 -107 -58.5 -165t-159.5 -58q-76 0 -139 31l6 86q58 -34 130 -34q58 0 94 38.5t36 103.5v533zM382 938l119 -143h-75l-85 90l-86 -90h-74l119 143h82z" />
    <glyph glyph-name="jcircumflex" unicode="&#x135;" horiz-adv-x="261" 
d="M88 510h86v-591q0 -92 -42 -138t-119 -46q-43 0 -78 13l15 77q22 -13 55 -13q83 0 83 102v596zM171 765l120 -169h-74l-87 110l-87 -110h-74l120 169h82z" />
    <glyph glyph-name="Kcommaaccent" unicode="&#x136;" horiz-adv-x="675" 
d="M297 379l360 -379h-117l-307 313l-52 -55v-258h-91v748h91v-368l325 368h119zM348 -41q26 0 40.5 -18.5t14.5 -48.5q0 -126 -112 -190v39q51 38 58 102q-24 1 -40.5 17t-16.5 40t16 41.5t40 17.5z" />
    <glyph glyph-name="kcommaaccent" unicode="&#x137;" horiz-adv-x="545" 
d="M278 289l248 -289h-105l-204 226l-44 -44v-182h-86v777h86v-483l216 216h105zM287 -41q26 0 40.5 -18.5t14.5 -48.5q0 -126 -112 -190v39q51 38 58 102q-24 1 -40.5 17t-16.5 40t16 41.5t40 17.5z" />
    <glyph glyph-name="Lacute" unicode="&#x139;" horiz-adv-x="591" 
d="M367 936l-187 -141h-81l148 141h120zM181 748v-665h376v-83h-467v748h91z" />
    <glyph glyph-name="lacute" unicode="&#x13a;" horiz-adv-x="261" 
d="M173 777v-777h-86v777h86zM361 950l-187 -141h-81l148 141h120z" />
    <glyph glyph-name="Lcommaaccent" unicode="&#x13b;" horiz-adv-x="591" 
d="M181 83h376v-83h-467v748h91v-665zM331 -41q26 0 40.5 -18.5t14.5 -48.5q0 -126 -112 -190v39q51 38 58 102q-24 1 -40.5 17t-16.5 40t16 41.5t40 17.5z" />
    <glyph glyph-name="lcommaaccent" unicode="&#x13c;" horiz-adv-x="261" 
d="M130 -41q26 0 40.5 -18.5t14.5 -48.5q0 -126 -112 -190v39q51 38 58 102q-24 1 -40.5 17t-16.5 40t16 41.5t40 17.5zM173 777v-777h-86v777h86z" />
    <glyph glyph-name="Lcaron" unicode="&#x13d;" horiz-adv-x="591" 
d="M584 683q0 -126 -112 -190v39q51 38 58 102q-24 1 -40.5 17t-16.5 40t16 41.5t40 17.5q26 0 40.5 -18.5t14.5 -48.5zM181 748v-665h376v-83h-467v748h91z" />
    <glyph glyph-name="lcaron" unicode="&#x13e;" horiz-adv-x="378" 
d="M87 0v777h86v-777h-86zM303 750q26 0 40.5 -18.5t14.5 -48.5q0 -126 -112 -190v39q51 38 58 102q-24 1 -40.5 17t-16.5 40t16 41.5t40 17.5z" />
    <glyph glyph-name="Ldot" unicode="&#x13f;" horiz-adv-x="591" 
d="M181 748v-665h376v-83h-467v748h91zM444 445q25 0 42.5 -17.5t17.5 -42.5q0 -24 -17.5 -41.5t-42.5 -17.5q-24 0 -41 17.5t-17 41.5q0 25 17 42.5t41 17.5z" />
    <glyph glyph-name="ldot" unicode="&#x140;" horiz-adv-x="390" 
d="M310 355q25 0 42.5 -17.5t17.5 -42.5q0 -24 -17.5 -41.5t-42.5 -17.5q-24 0 -41 17.5t-17 41.5q0 25 17 42.5t41 17.5zM173 777v-777h-86v777h86z" />
    <glyph glyph-name="Lslash" unicode="&#x141;" horiz-adv-x="599" 
d="M192 83h376v-83h-467v264l-93 -33l-16 69l109 39v409h91v-377l106 38l17 -68l-123 -44v-214z" />
    <glyph glyph-name="lslash" unicode="&#x142;" horiz-adv-x="281" 
d="M298 317l-112 -40v-277h-86v246l-99 -35l-16 68l115 42v456h86v-425l95 34z" />
    <glyph glyph-name="Nacute" unicode="&#x143;" horiz-adv-x="745" 
d="M600 936l-187 -141h-81l148 141h120zM654 748v-748h-86l-387 575v-575h-91v748h86l388 -577v577h90z" />
    <glyph glyph-name="nacute" unicode="&#x144;" 
d="M463 786l-133 -191h-68l102 191h99zM324 519q82 0 135 -54q53 -55 53 -142v-323h-86v305q0 58 -32.5 94.5t-86.5 36.5q-74 0 -134 -71v-365h-86v510h83v-65q56 74 154 74z" />
    <glyph glyph-name="Ncommaaccent" unicode="&#x145;" horiz-adv-x="745" 
d="M564 748h90v-748h-86l-387 575v-575h-91v748h86l388 -577v577zM377 -41q26 0 40.5 -18.5t14.5 -48.5q0 -126 -112 -190v39q51 38 58 102q-24 1 -40.5 17t-16.5 40t16 41.5t40 17.5z" />
    <glyph glyph-name="ncommaaccent" unicode="&#x146;" 
d="M324 519q82 0 135 -54q53 -55 53 -142v-323h-86v305q0 58 -32.5 94.5t-86.5 36.5q-74 0 -134 -71v-365h-86v510h83v-65q56 74 154 74zM303 -41q26 0 40.5 -18.5t14.5 -48.5q0 -126 -112 -190v39q51 38 58 102q-24 1 -40.5 17t-16.5 40t16 41.5t40 17.5z" />
    <glyph glyph-name="Ncaron" unicode="&#x147;" horiz-adv-x="745" 
d="M533 938l-119 -143h-82l-119 143h74l86 -90l85 90h75zM654 748v-748h-86l-387 575v-575h-91v748h86l388 -577v577h90z" />
    <glyph glyph-name="ncaron" unicode="&#x148;" 
d="M459 762l-120 -168h-82l-120 168h74l87 -110l87 110h74zM324 519q82 0 135 -54q53 -55 53 -142v-323h-86v305q0 58 -32.5 94.5t-86.5 36.5q-74 0 -134 -71v-365h-86v510h83v-65q56 74 154 74z" />
    <glyph glyph-name="Eng" unicode="&#x14a;" horiz-adv-x="745" 
d="M654 503h1v-511q0 -116 -62.5 -181.5t-171.5 -65.5v81q68 0 105.5 42t37.5 121v17l-383 569v-575h-91v748h86l388 -577v577h90v-245z" />
    <glyph glyph-name="eng" unicode="&#x14b;" 
d="M512 194h1v-269q0 -95 -46 -142.5t-130 -47.5v77q90 0 90 109v79h-1v305q0 58 -32.5 94.5t-86.5 36.5q-74 0 -134 -71v-365h-86v510h83v-65q56 74 154 74q82 0 135 -54q53 -55 53 -142v-129z" />
    <glyph glyph-name="Omacron" unicode="&#x14c;" horiz-adv-x="815" 
d="M538 901v-66h-263v66h263zM407 758q160 0 258 -104t98 -279q0 -177 -99 -281q-98 -104 -257 -104q-158 0 -257 104q-98 104 -98 281q0 175 98 279t257 104zM144 375q0 -143 72 -222q74 -80 191 -80q118 0 190 80q73 80 73 222q0 140 -73 219q-72 81 -190 81
q-117 0 -191 -81q-72 -80 -72 -219z" />
    <glyph glyph-name="omacron" unicode="&#x14d;" 
d="M428 702v-67h-263v67h263zM545 255q0 -124 -68 -195q-67 -70 -179 -70q-113 0 -180 70q-68 71 -68 195q0 122 68 193q69 71 180 71q112 0 179 -72q68 -73 68 -192zM297 64q74 0 117.5 51.5t43.5 139.5t-43.5 139.5t-117.5 51.5t-117 -51.5t-43 -139.5t43.5 -139.5
t116.5 -51.5z" />
    <glyph glyph-name="Obreve" unicode="&#x14e;" horiz-adv-x="815" 
d="M492 938h71q0 -63 -42 -98t-115 -35q-72 0 -114 35t-42 98h71q0 -34 23 -53.5t62 -19.5t62.5 19.5t23.5 53.5zM407 758q160 0 258 -104t98 -279q0 -177 -99 -281q-98 -104 -257 -104q-158 0 -257 104q-98 104 -98 281q0 175 98 279t257 104zM144 375q0 -143 72 -222
q74 -80 191 -80q118 0 190 80q73 80 73 222q0 140 -73 219q-72 81 -190 81q-117 0 -191 -81q-72 -80 -72 -219z" />
    <glyph glyph-name="obreve" unicode="&#x14f;" 
d="M383 732h71q0 -63 -42 -98t-115 -35q-72 0 -114 35t-42 98h71q0 -34 23 -53.5t62 -19.5t62.5 19.5t23.5 53.5zM545 255q0 -124 -68 -195q-67 -70 -179 -70q-113 0 -180 70q-68 71 -68 195q0 122 68 193q69 71 180 71q112 0 179 -72q68 -73 68 -192zM297 64
q74 0 117.5 51.5t43.5 139.5t-43.5 139.5t-117.5 51.5t-117 -51.5t-43 -139.5t43.5 -139.5t116.5 -51.5z" />
    <glyph glyph-name="Ohungarumlaut" unicode="&#x150;" horiz-adv-x="815" 
d="M424 946l-74 -148h-68l60 148h82zM594 946l-74 -148h-68l60 148h82zM407 758q160 0 258 -104t98 -279q0 -177 -99 -281q-98 -104 -257 -104q-158 0 -257 104q-98 104 -98 281q0 175 98 279t257 104zM144 375q0 -143 72 -222q74 -80 191 -80q118 0 190 80q73 80 73 222
q0 140 -73 219q-72 81 -190 81q-117 0 -191 -81q-72 -80 -72 -219z" />
    <glyph glyph-name="ohungarumlaut" unicode="&#x151;" 
d="M318 763l-76 -158h-68l62 158h82zM488 763l-76 -158h-68l62 158h82zM545 255q0 -124 -68 -195q-67 -70 -179 -70q-113 0 -180 70q-68 71 -68 195q0 122 68 193q69 71 180 71q112 0 179 -72q68 -73 68 -192zM297 64q74 0 117.5 51.5t43.5 139.5t-43.5 139.5t-117.5 51.5
t-117 -51.5t-43 -139.5t43.5 -139.5t116.5 -51.5z" />
    <glyph glyph-name="OE" unicode="&#x152;" horiz-adv-x="1180" 
d="M1140 666h-377v-239h333v-81h-333v-263h377v-83h-468v102q-97 -112 -265 -112q-158 0 -257 104q-98 104 -98 281q0 175 98 279t257 104q167 0 265 -111v101h468v-82zM670 375q0 141 -73 220q-72 80 -190 80q-117 0 -191 -80q-72 -79 -72 -220q0 -143 72 -222
q74 -80 191 -80q118 0 190 80q73 80 73 222z" />
    <glyph glyph-name="oe" unicode="&#x153;" horiz-adv-x="940" 
d="M688 519q113 0 164.5 -74.5t35.5 -217.5h-342q2 -75 45 -119.5t118 -44.5q90 0 166 55l5 -77q-75 -51 -181 -51q-135 0 -199 99q-67 -99 -202 -99q-113 0 -180 70q-68 71 -68 195q0 122 68 193q69 71 180 71q134 0 202 -102q63 102 188 102zM297 64q74 0 117.5 51.5
t43.5 139.5t-43.5 139.5t-117.5 51.5t-117 -51.5t-43 -139.5t43.5 -139.5t116.5 -51.5zM685 446q-60 0 -97.5 -41.5t-41.5 -109.5h260q5 71 -26.5 111t-94.5 40z" />
    <glyph glyph-name="Racute" unicode="&#x154;" horiz-adv-x="679" 
d="M538 936l-187 -141h-81l148 141h120zM637 0h-103l-171 305h-14h-168v-305h-91v748h259q113 0 178 -58t65 -164q0 -154 -134 -204zM181 666v-279h163q71 0 113.5 36.5t42.5 102.5q0 68 -41.5 104t-114.5 36h-163z" />
    <glyph glyph-name="racute" unicode="&#x155;" horiz-adv-x="348" 
d="M360 786l-133 -191h-68l102 191h99zM328 513v-89q-86 0 -155 -69v-355h-86v510h86v-72q65 75 155 75z" />
    <glyph glyph-name="Rcommaaccent" unicode="&#x156;" horiz-adv-x="679" 
d="M458 322l179 -322h-103l-171 305h-14h-168v-305h-91v748h259q113 0 178 -58t65 -164q0 -154 -134 -204zM181 666v-279h163q71 0 113.5 36.5t42.5 102.5q0 68 -41.5 104t-114.5 36h-163zM348 -41q26 0 40.5 -18.5t14.5 -48.5q0 -126 -112 -190v39q51 38 58 102
q-24 1 -40.5 17t-16.5 40t16 41.5t40 17.5z" />
    <glyph glyph-name="rcommaaccent" unicode="&#x157;" horiz-adv-x="348" 
d="M87 510h86v-72q65 75 155 75v-89q-86 0 -155 -69v-355h-86v510zM132 -41q26 0 40.5 -18.5t14.5 -48.5q0 -126 -112 -190v39q51 38 58 102q-24 1 -40.5 17t-16.5 40t16 41.5t40 17.5z" />
    <glyph glyph-name="Rcaron" unicode="&#x158;" horiz-adv-x="679" 
d="M352 795h-82l-119 143h74l86 -90l85 90h75zM637 0h-103l-171 305h-14h-168v-305h-91v748h259q113 0 178 -58t65 -164q0 -154 -134 -204zM181 666v-279h163q71 0 113.5 36.5t42.5 102.5q0 68 -41.5 104t-114.5 36h-163z" />
    <glyph glyph-name="rcaron" unicode="&#x159;" horiz-adv-x="348" 
d="M356 762l-120 -168h-82l-120 168h74l87 -110l87 110h74zM328 513v-89q-86 0 -155 -69v-355h-86v510h86v-72q65 75 155 75z" />
    <glyph glyph-name="Sacute" unicode="&#x15a;" horiz-adv-x="655" 
d="M340 758q115 0 211 -42l-12 -88q-92 47 -197 47q-167 0 -167 -123q0 -55 40 -80q30 -16 46 -21l27 -9q8 -1 34 -9l35 -9q125 -33 180 -78q55 -43 55 -134q0 -105 -74 -164t-199 -59q-149 0 -252 55l10 91q99 -63 239 -63q86 0 135 33.5t49 97.5q0 48 -33 78
q-13 13 -42 24q-25 11 -52 19q-22 7 -68 18q-64 17 -97.5 30t-64.5 35q-62 44 -62 138q0 100 67 156.5t192 56.5zM571 936l-187 -141h-81l148 141h120z" />
    <glyph glyph-name="sacute" unicode="&#x15b;" horiz-adv-x="460" 
d="M389 786l-133 -191h-68l102 191h99zM236 519q78 0 146 -27l-6 -79q-64 33 -132 33q-106 0 -106 -75q0 -35 25 -47q25 -11 27 -12l17 -5q25 -3 41 -9q88 -23 126.5 -55.5t38.5 -94.5q0 -74 -52 -116t-142 -42q-100 0 -172 36l6 82q73 -44 162 -44q52 0 82 19.5t30 56.5
q0 29 -21 48q-7 7 -26 15q-29 11 -71 21q-85 21 -121 51.5t-36 90.5q0 71 49 112t135 41z" />
    <glyph glyph-name="Scircumflex" unicode="&#x15c;" horiz-adv-x="655" 
d="M340 758q115 0 211 -42l-12 -88q-92 47 -197 47q-167 0 -167 -123q0 -55 40 -80q30 -16 46 -21l27 -9q8 -1 34 -9l35 -9q125 -33 180 -78q55 -43 55 -134q0 -105 -74 -164t-199 -59q-149 0 -252 55l10 91q99 -63 239 -63q86 0 135 33.5t49 97.5q0 48 -33 78
q-13 13 -42 24q-25 11 -52 19q-22 7 -68 18q-64 17 -97.5 30t-64.5 35q-62 44 -62 138q0 100 67 156.5t192 56.5zM385 938l119 -143h-75l-85 90l-86 -90h-74l119 143h82z" />
    <glyph glyph-name="scircumflex" unicode="&#x15d;" horiz-adv-x="460" 
d="M264 765l120 -169h-74l-87 110l-87 -110h-74l120 169h82zM236 519q78 0 146 -27l-6 -79q-64 33 -132 33q-106 0 -106 -75q0 -35 25 -47q25 -11 27 -12l17 -5q25 -3 41 -9q88 -23 126.5 -55.5t38.5 -94.5q0 -74 -52 -116t-142 -42q-100 0 -172 36l6 82q73 -44 162 -44
q52 0 82 19.5t30 56.5q0 29 -21 48q-7 7 -26 15q-29 11 -71 21q-85 21 -121 51.5t-36 90.5q0 71 49 112t135 41z" />
    <glyph glyph-name="Scedilla" unicode="&#x15e;" horiz-adv-x="655" 
d="M592 212q0 -98 -66 -157t-180 -65l-12 -49q55 -2 90.5 -27.5t35.5 -69.5q0 -42 -35.5 -68t-85.5 -26q-60 0 -101 23l14 46q32 -20 73 -20q31 0 50.5 12.5t19.5 35.5q0 25 -24.5 40t-61.5 15q-19 0 -32 -3l24 90q-139 3 -234 55l10 91q99 -63 239 -63q86 0 135 33.5
t49 97.5q0 48 -33 78q-13 13 -42 24q-25 11 -52 19q-22 7 -68 18q-64 17 -97.5 30t-64.5 35q-62 44 -62 138q0 100 67 156.5t192 56.5q115 0 211 -42l-12 -88q-92 47 -197 47q-167 0 -167 -123q0 -55 40 -80q30 -16 46 -21l27 -9q8 -1 34 -9l35 -9q125 -33 180 -78
q55 -43 55 -134z" />
    <glyph glyph-name="scedilla" unicode="&#x15f;" horiz-adv-x="460" 
d="M413 148q0 -70 -46.5 -111t-127.5 -46l-12 -50q55 -2 90.5 -27.5t35.5 -69.5q0 -42 -35.5 -68t-85.5 -26q-60 0 -101 23l14 46q32 -20 73 -20q31 0 50.5 12.5t19.5 35.5q0 25 -24.5 40t-61.5 15q-18 0 -32 -3l25 92q-82 3 -148 35l6 82q73 -44 162 -44q52 0 82 19.5
t30 56.5q0 29 -21 48q-7 7 -26 15q-29 11 -71 21q-85 21 -121 51.5t-36 90.5q0 71 49 112t135 41q78 0 146 -27l-6 -79q-64 33 -132 33q-106 0 -106 -75q0 -35 25 -47q25 -11 27 -12l17 -5q25 -3 41 -9q88 -23 126.5 -55.5t38.5 -94.5z" />
    <glyph glyph-name="Scaron" unicode="&#x160;" horiz-adv-x="655" 
d="M340 758q115 0 211 -42l-12 -88q-92 47 -197 47q-167 0 -167 -123q0 -55 40 -80q30 -16 46 -21l27 -9q8 -1 34 -9l35 -9q125 -33 180 -78q55 -43 55 -134q0 -105 -74 -164t-199 -59q-149 0 -252 55l10 91q99 -63 239 -63q86 0 135 33.5t49 97.5q0 48 -33 78
q-13 13 -42 24q-25 11 -52 19q-22 7 -68 18q-64 17 -97.5 30t-64.5 35q-62 44 -62 138q0 100 67 156.5t192 56.5zM504 938l-119 -143h-82l-119 143h74l86 -90l85 90h75z" />
    <glyph glyph-name="scaron" unicode="&#x161;" horiz-adv-x="460" 
d="M384 762l-120 -168h-82l-120 168h74l87 -110l87 110h74zM236 519q78 0 146 -27l-6 -79q-64 33 -132 33q-106 0 -106 -75q0 -35 25 -47q25 -11 27 -12l17 -5q25 -3 41 -9q88 -23 126.5 -55.5t38.5 -94.5q0 -74 -52 -116t-142 -42q-100 0 -172 36l6 82q73 -44 162 -44
q52 0 82 19.5t30 56.5q0 29 -21 48q-7 7 -26 15q-29 11 -71 21q-85 21 -121 51.5t-36 90.5q0 71 49 112t135 41z" />
    <glyph glyph-name="Tcaron" unicode="&#x164;" horiz-adv-x="682" 
d="M665 748v-82h-278v-666h-92v666h-278v82h648zM503 938l-119 -143h-82l-119 143h74l86 -90l85 90h75z" />
    <glyph glyph-name="tcaron" unicode="&#x165;" horiz-adv-x="517" 
d="M442 750q26 0 40.5 -18.5t14.5 -48.5q0 -126 -112 -190v39q51 38 58 102q-24 1 -40.5 17t-16.5 40t16 41.5t40 17.5zM212 677l-1 -167h135v-74h-135l-2 -266q0 -95 95 -95q24 0 41 4v-79q-17 -3 -52 -3q-81 0 -126 39t-44 117l1 283h-106v74h106l1 167h87z" />
    <glyph glyph-name="Tbar" unicode="&#x166;" horiz-adv-x="682" 
d="M665 666h-278v-255h141v-71h-141v-340h-92v340h-140v71h140v255h-278v82h648v-82z" />
    <glyph glyph-name="tbar" unicode="&#x167;" horiz-adv-x="362" 
d="M346 436h-135l-1 -135h136v-63h-137v-68q0 -95 95 -95q24 0 41 4v-79q-17 -3 -52 -3q-81 0 -126 39t-44 117v85h-105v63h106v135h-106v74h106l1 167h87l-1 -167h135v-74z" />
    <glyph glyph-name="Utilde" unicode="&#x168;" horiz-adv-x="767" 
d="M309 936q33 0 73 -31t63 -31q48 0 49 55h50q3 -51 -22.5 -85.5t-67.5 -34.5q-34 0 -74 30q-40 31 -62 31q-48 0 -49 -54h-50q-3 51 22.5 85.5t67.5 34.5zM590 748h91v-467q0 -139 -79.5 -215t-219.5 -76q-139 0 -218 76t-79 215v467h91v-466q0 -102 53.5 -155.5
t152.5 -53.5t153.5 53.5t54.5 155.5v466z" />
    <glyph glyph-name="utilde" unicode="&#x169;" horiz-adv-x="583" 
d="M219 736q33 0 73 -31q40 -30 63 -30q47 0 49 54h50q3 -50 -22.5 -85t-67.5 -35q-34 0 -74 30q-40 31 -62 31q-48 0 -49 -54h-50q-3 51 22.5 85.5t67.5 34.5zM500 510v-510h-83v65q-22 -33 -62.5 -54t-93.5 -21q-79 0 -129 54t-48 143v323h86v-306q0 -58 30.5 -94
t83.5 -36q81 0 130 70v366h86z" />
    <glyph glyph-name="Umacron" unicode="&#x16a;" horiz-adv-x="767" 
d="M513 901v-66h-263v66h263zM590 748h91v-467q0 -139 -79.5 -215t-219.5 -76q-139 0 -218 76t-79 215v467h91v-466q0 -102 53.5 -155.5t152.5 -53.5t153.5 53.5t54.5 155.5v466z" />
    <glyph glyph-name="umacron" unicode="&#x16b;" horiz-adv-x="583" 
d="M424 702v-67h-263v67h263zM500 510v-510h-83v65q-22 -33 -62.5 -54t-93.5 -21q-79 0 -129 54t-48 143v323h86v-306q0 -58 30.5 -94t83.5 -36q81 0 130 70v366h86z" />
    <glyph glyph-name="Ubreve" unicode="&#x16c;" horiz-adv-x="767" 
d="M468 938h71q0 -63 -42 -98t-115 -35q-72 0 -114 35t-42 98h71q0 -34 23 -53.5t62 -19.5t62.5 19.5t23.5 53.5zM590 748h91v-467q0 -139 -79.5 -215t-219.5 -76q-139 0 -218 76t-79 215v467h91v-466q0 -102 53.5 -155.5t152.5 -53.5t153.5 53.5t54.5 155.5v466z" />
    <glyph glyph-name="ubreve" unicode="&#x16d;" horiz-adv-x="583" 
d="M379 732h71q0 -63 -42 -98t-115 -35q-72 0 -114 35t-42 98h71q0 -34 23 -53.5t62 -19.5t62.5 19.5t23.5 53.5zM500 510v-510h-83v65q-22 -33 -62.5 -54t-93.5 -21q-79 0 -129 54t-48 143v323h86v-306q0 -58 30.5 -94t83.5 -36q81 0 130 70v366h86z" />
    <glyph glyph-name="Uring" unicode="&#x16e;" horiz-adv-x="767" 
d="M309 960q30 27 73 27t73 -27t30 -69q0 -41 -30 -70q-30 -28 -73 -28t-73 28q-30 29 -30 70q0 42 30 69zM383 941q-23 0 -37.5 -13.5t-14.5 -36.5t14.5 -37t37.5 -14q22 0 35.5 14t13.5 37t-13.5 36.5t-35.5 13.5zM590 748h91v-467q0 -139 -79.5 -215t-219.5 -76
q-139 0 -218 76t-79 215v467h91v-466q0 -102 53.5 -155.5t152.5 -53.5t153.5 53.5t54.5 155.5v466z" />
    <glyph glyph-name="uring" unicode="&#x16f;" horiz-adv-x="583" 
d="M212 768q33 30 81 30t81 -30t33 -76t-33 -76t-81 -30t-81 30t-33 76t33 76zM293 748q-26 0 -42.5 -16t-16.5 -40q0 -25 16.5 -40.5t42.5 -15.5t42 15.5t16 40.5q0 24 -16.5 40t-41.5 16zM500 510v-510h-83v65q-22 -33 -62.5 -54t-93.5 -21q-79 0 -129 54t-48 143v323h86
v-306q0 -58 30.5 -94t83.5 -36q81 0 130 70v366h86z" />
    <glyph glyph-name="Uhungarumlaut" unicode="&#x170;" horiz-adv-x="767" 
d="M399 946l-74 -148h-68l60 148h82zM569 946l-74 -148h-68l60 148h82zM590 748h91v-467q0 -139 -79.5 -215t-219.5 -76q-139 0 -218 76t-79 215v467h91v-466q0 -102 53.5 -155.5t152.5 -53.5t153.5 53.5t54.5 155.5v466z" />
    <glyph glyph-name="uhungarumlaut" unicode="&#x171;" horiz-adv-x="583" 
d="M314 763l-76 -158h-68l62 158h82zM484 763l-76 -158h-68l62 158h82zM500 510v-510h-83v65q-22 -33 -62.5 -54t-93.5 -21q-79 0 -129 54t-48 143v323h86v-306q0 -58 30.5 -94t83.5 -36q81 0 130 70v366h86z" />
    <glyph glyph-name="Uogonek" unicode="&#x172;" horiz-adv-x="767" 
d="M590 748h91v-467q0 -113 -53.5 -185t-151.5 -96q-51 -25 -72.5 -45.5t-21.5 -47.5q0 -45 55 -45q31 0 57 12l9 -45q-36 -16 -79 -16q-49 0 -78.5 22t-29.5 62q0 56 64 93q-138 1 -216.5 77t-78.5 214v467h91v-466q0 -102 53.5 -155.5t152.5 -53.5t153.5 53.5t54.5 155.5
v466z" />
    <glyph glyph-name="uogonek" unicode="&#x173;" horiz-adv-x="583" 
d="M506 -122l9 -45q-36 -16 -79 -16q-49 0 -78.5 22t-29.5 62q0 65 89 107v57q-22 -33 -62.5 -54t-93.5 -21q-79 0 -129 54t-48 143v323h86v-306q0 -58 30.5 -94t83.5 -36q81 0 130 70v366h86v-510h-20q-46 -22 -66 -42.5t-20 -46.5q0 -45 55 -45q31 0 57 12z" />
    <glyph glyph-name="Wcircumflex" unicode="&#x174;" horiz-adv-x="1151" 
d="M617 938l119 -143h-75l-85 90l-86 -90h-74l119 143h82zM1123 748l-265 -748h-92l-190 560l-191 -560h-92l-265 748h98l213 -605l200 605h74l200 -605l213 605h97z" />
    <glyph glyph-name="wcircumflex" unicode="&#x175;" horiz-adv-x="815" 
d="M449 765l120 -169h-74l-87 110l-87 -110h-74l120 169h82zM799 510l-177 -510h-82l-132 372l-132 -372h-82l-177 510h93l129 -399l136 399h65l136 -399l130 399h93z" />
    <glyph glyph-name="Ycircumflex" unicode="&#x176;" horiz-adv-x="692" 
d="M387 938l119 -143h-75l-85 90l-86 -90h-74l119 143h82zM675 748l-283 -448v-300h-91v300l-284 448h108l221 -349l221 349h108z" />
    <glyph glyph-name="ycircumflex" unicode="&#x177;" horiz-adv-x="525" 
d="M304 765l120 -169h-74l-87 110l-87 -110h-74l120 169h82zM507 510l-302 -765h-90l103 261l-201 504h93l153 -399l152 399h92z" />
    <glyph glyph-name="Ydieresis" unicode="&#x178;" horiz-adv-x="692" 
d="M274 920q21 0 36.5 -15t15.5 -37q0 -21 -15.5 -36t-36.5 -15q-22 0 -37 14.5t-15 36.5t15 37t37 15zM385 905q16 15 38 15t36 -15q15 -15 15 -37t-15 -37q-14 -14 -36 -14t-38 14q-15 15 -15 37t15 37zM675 748l-283 -448v-300h-91v300l-284 448h108l221 -349l221 349
h108z" />
    <glyph glyph-name="Zacute" unicode="&#x179;" horiz-adv-x="626" 
d="M539 936l-187 -141h-81l148 141h120zM583 748v-73l-432 -592h443v-83h-556v73l433 593h-420v82h532z" />
    <glyph glyph-name="zacute" unicode="&#x17a;" horiz-adv-x="453" 
d="M410 510v-58l-269 -380h282v-72h-391v57l267 380h-262v73h373zM395 786l-133 -191h-68l102 191h99z" />
    <glyph glyph-name="Zdotaccent" unicode="&#x17b;" horiz-adv-x="626" 
d="M312 925q24 0 41 -17t17 -41q0 -39 -36 -53.5t-63 12.5q-28 25 -11.5 63t52.5 36zM583 748v-73l-432 -592h443v-83h-556v73l433 593h-420v82h532z" />
    <glyph glyph-name="zdotaccent" unicode="&#x17c;" horiz-adv-x="453" 
d="M410 510v-58l-269 -380h282v-72h-391v57l267 380h-262v73h373zM228 738q24 0 41 -17t17 -40q0 -24 -17 -41t-41 -17q-23 0 -40.5 17t-17.5 41q0 23 17.5 40t40.5 17z" />
    <glyph glyph-name="Zcaron" unicode="&#x17d;" horiz-adv-x="626" 
d="M472 938l-119 -143h-82l-119 143h74l86 -90l85 90h75zM583 748v-73l-432 -592h443v-83h-556v73l433 593h-420v82h532z" />
    <glyph glyph-name="zcaron" unicode="&#x17e;" horiz-adv-x="453" 
d="M390 762l-120 -168h-82l-120 168h74l87 -110l87 110h74zM410 510v-58l-269 -380h282v-72h-391v57l267 380h-262v73h373z" />
    <glyph glyph-name="florin" unicode="&#x192;" horiz-adv-x="432" 
d="M338 786q78 0 134 -44l-36 -71q-36 38 -89 38q-39 0 -60.5 -21.5t-29.5 -69.5l-19 -108h150v-73h-163l-103 -579h-88l102 579h-109v73h122l22 123q27 153 167 153z" />
    <glyph glyph-name="Aringacute" unicode="&#x1fa;" horiz-adv-x="744" 
d="M373 772q-44 0 -74 28t-30 70q0 48 39 77l140 116h110l-152 -102q31 -9 50 -33.5t19 -57.5q0 -42 -29.5 -70t-72.5 -28zM409 833q14 14 14 37t-14 36q-13 14 -36 14t-37 -14q-14 -13 -14 -36t14 -37t37 -14t36 14zM419 748l305 -748h-99l-85 212h-335l-86 -212h-99
l305 748h94zM237 292h271l-136 335z" />
    <glyph glyph-name="aringacute" unicode="&#x1fb;" horiz-adv-x="520" 
d="M172 680q0 48 37 75l142 118h110l-152 -101q31 -9 50 -34t19 -58q0 -42 -30 -69.5t-73 -27.5t-73 27.5t-30 69.5zM325 680q0 23 -13.5 36.5t-35.5 13.5q-23 0 -37.5 -13.5t-14.5 -36.5q0 -22 14.5 -36t37.5 -14q22 0 35.5 14t13.5 36zM270 519q81 0 123.5 -43t42.5 -127
v-349h-82v48q-61 -58 -150 -58q-66 0 -106.5 37t-40.5 100q0 87 67 121q66 35 226 55v41q0 101 -95 101q-78 0 -159 -51l-6 80q78 45 180 45zM350 118v122q-123 -20 -164 -38q-43 -19 -43 -70q0 -73 85 -73q66 0 122 59z" />
    <glyph glyph-name="AEacute" unicode="&#x1fc;" horiz-adv-x="1056" 
d="M1012 666h-378v-239h334v-81h-334v-263h378v-83h-469v212h-277l-140 -212h-111l506 748h491v-82zM322 292h221v334zM914 936l-187 -141h-81l148 141h120z" />
    <glyph glyph-name="aeacute" unicode="&#x1fd;" horiz-adv-x="834" 
d="M580 519q114 0 165 -74.5t35 -217.5h-342q2 -75 45 -119.5t118 -44.5q90 0 166 55l5 -77q-74 -51 -181 -51q-134 0 -198 97l-8 -11q-66 -86 -177 -86q-68 0 -109.5 37.5t-41.5 100.5q0 85 71 123.5t222 42.5v44q0 107 -93 107q-80 0 -161 -51l-6 80q78 45 177 45
q101 0 145 -75q63 75 168 75zM577 446q-59 0 -96.5 -41t-42.5 -110h260q5 71 -26.5 111t-94.5 40zM350 170v58q-110 -3 -158.5 -24t-48.5 -73q0 -72 88 -72q51 0 85 29.5t34 81.5zM574 786l-133 -191h-68l102 191h99z" />
    <glyph glyph-name="Oslashacute" unicode="&#x1fe;" horiz-adv-x="789" 
d="M666 785l56 -43l-63 -82q104 -104 104 -285q0 -177 -99 -281q-98 -104 -257 -104q-121 0 -212 64l-68 -89l-56 43l72 94q-91 103 -91 273q0 175 98 279t257 104q111 0 197 -53zM144 375q0 -121 55 -200l352 460q-62 40 -144 40q-117 0 -191 -81q-72 -80 -72 -219zM407 73
q118 0 190 80q73 80 73 222q0 133 -66 212l-356 -464q65 -50 159 -50zM634 936l-187 -141h-81l148 141h120z" />
    <glyph glyph-name="oslashacute" unicode="&#x1ff;" 
d="M474 539l47 -36l-43 -57q67 -73 67 -191q0 -124 -68 -195q-67 -70 -179 -70q-76 0 -138 36l-43 -57l-48 36l45 60q-64 71 -64 190q0 122 68 193q69 71 180 71q75 0 134 -35zM137 255q0 -70 30 -121l218 287q-38 25 -88 25q-74 0 -117 -51.5t-43 -139.5zM297 64
q74 0 117.5 51.5t43.5 139.5q0 74 -31 123l-218 -288q38 -26 88 -26zM463 786l-133 -191h-68l102 191h99z" />
    <glyph glyph-name="Scommaaccent" unicode="&#x218;" horiz-adv-x="655" 
d="M322 433l35 -9q125 -33 180 -78q55 -43 55 -134q0 -105 -74 -164t-199 -59q-149 0 -252 55l10 91q99 -63 239 -63q86 0 135 33.5t49 97.5q0 48 -33 78q-13 13 -42 24q-25 11 -52 19q-22 7 -68 18q-64 17 -97.5 30t-64.5 35q-62 44 -62 138q0 100 67 156.5t192 56.5
q115 0 211 -42l-12 -88q-92 47 -197 47q-167 0 -167 -123q0 -55 40 -80q30 -16 46 -21l27 -9q8 -1 34 -9zM337 -46q26 0 40.5 -18.5t14.5 -48.5q0 -126 -112 -190v39q51 38 58 102q-24 1 -40.5 17t-16.5 40t16 41.5t40 17.5z" />
    <glyph glyph-name="scommaaccent" unicode="&#x219;" horiz-adv-x="460" 
d="M248 298q88 -23 126.5 -55.5t38.5 -94.5q0 -74 -52 -116t-142 -42q-100 0 -172 36l6 82q73 -44 162 -44q52 0 82 19.5t30 56.5q0 29 -21 48q-7 7 -26 15q-29 11 -71 21q-85 21 -121 51.5t-36 90.5q0 71 49 112t135 41q78 0 146 -27l-6 -79q-64 33 -132 33
q-106 0 -106 -75q0 -35 25 -47q25 -11 27 -12l17 -5q25 -3 41 -9zM231 -46q26 0 40.5 -18.5t14.5 -48.5q0 -126 -112 -190v39q51 38 58 102q-24 1 -40.5 17t-16.5 40t16 41.5t40 17.5z" />
    <glyph glyph-name="uni021A" unicode="&#x21a;" horiz-adv-x="682" 
d="M17 748h648v-82h-278v-666h-92v666h-278v82zM342 -41q26 0 40.5 -18.5t14.5 -48.5q0 -126 -112 -190v39q51 38 58 102q-24 1 -40.5 17t-16.5 40t16 41.5t40 17.5z" />
    <glyph glyph-name="uni021B" unicode="&#x21b;" horiz-adv-x="375" 
d="M346 436h-135l-2 -266q0 -95 95 -95q24 0 41 4v-79q-17 -3 -52 -3q-81 0 -126 39t-44 117l1 283h-106v74h106l1 167h87l-1 -167h135v-74zM226 -49q26 0 40.5 -18.5t14.5 -48.5q0 -126 -112 -190v39q51 38 58 102q-24 1 -40.5 17t-16.5 40t16 41.5t40 17.5z" />
    <glyph glyph-name="dotlessj" unicode="&#x237;" horiz-adv-x="261" 
d="M88 510h86v-591q0 -92 -42 -138t-119 -46q-43 0 -78 13l15 77q22 -13 55 -13q83 0 83 102v596z" />
    <glyph glyph-name="circumflex" unicode="&#x2c6;" horiz-adv-x="354" 
d="M218 765l120 -169h-74l-87 110l-87 -110h-74l120 169h82z" />
    <glyph glyph-name="caron" unicode="&#x2c7;" horiz-adv-x="354" 
d="M338 762l-120 -168h-82l-120 168h74l87 -110l87 110h74z" />
    <glyph glyph-name="breve" unicode="&#x2d8;" horiz-adv-x="353" 
d="M262 732h71q0 -63 -42 -98t-115 -35q-72 0 -114 35t-42 98h71q0 -34 23 -53.5t62 -19.5t62.5 19.5t23.5 53.5z" />
    <glyph glyph-name="dotaccent" unicode="&#x2d9;" horiz-adv-x="155" 
d="M77 738q24 0 41 -17t17 -40q0 -24 -17 -41t-41 -17q-23 0 -40.5 17t-17.5 41q0 23 17.5 40t40.5 17z" />
    <glyph glyph-name="ring" unicode="&#x2da;" horiz-adv-x="265" 
d="M52 768q33 30 81 30t81 -30t33 -76t-33 -76t-81 -30t-81 30t-33 76t33 76zM133 748q-26 0 -42.5 -16t-16.5 -40q0 -25 16.5 -40.5t42.5 -15.5t42 15.5t16 40.5q0 24 -16.5 40t-41.5 16z" />
    <glyph glyph-name="ogonek" unicode="&#x2db;" horiz-adv-x="232" 
d="M173 28l14 -26q-51 -25 -72.5 -45.5t-21.5 -47.5q0 -45 55 -45q32 0 57 12l9 -45q-36 -16 -79 -16q-49 0 -78.5 22t-29.5 62q0 43 36.5 74t109.5 55z" />
    <glyph glyph-name="tilde" unicode="&#x2dc;" horiz-adv-x="361" 
d="M111 736q33 0 73 -31q40 -30 63 -30q47 0 49 54h50q3 -50 -22.5 -85t-67.5 -35q-34 0 -74 30q-40 31 -62 31q-48 0 -49 -54h-50q-3 51 22.5 85.5t67.5 34.5z" />
    <glyph glyph-name="hungarumlaut" unicode="&#x2dd;" horiz-adv-x="349" 
d="M162 763l-76 -158h-68l62 158h82zM332 763l-76 -158h-68l62 158h82z" />
    <glyph glyph-name="commaaccentcomb" unicode="&#x326;" horiz-adv-x="0" 
d="M107 -41q26 0 40.5 -18.5t14.5 -48.5q0 -126 -112 -190v39q51 38 58 102q-24 1 -40.5 17t-16.5 40t16 41.5t40 17.5z" />
    <glyph glyph-name="Omega" unicode="&#x3a9;" horiz-adv-x="784" 
d="M716 374q0 -94 -43 -176q-45 -83 -97 -131h185v-67h-280v61q62 44 112 130t50 180q0 126 -67 202q-67 78 -184 78q-118 0 -185 -78q-66 -77 -66 -202q0 -95 49 -180q50 -86 112 -130v-61h-279v67h184q-52 48 -97 131q-42 82 -42 176q0 149 86 247q87 98 238 98
q152 0 237 -97q87 -98 87 -248z" />
    <glyph glyph-name="mu" unicode="&#x3bc;" horiz-adv-x="587" 
d="M418 510h86v-510h-83v65q-22 -33 -62.5 -54t-93.5 -21t-92 24v-269h-86v756h1v9h85v-306q0 -59 31 -94.5t84 -35.5q79 0 130 70v366z" />
    <glyph glyph-name="pi" unicode="&#x3c0;" horiz-adv-x="660" 
d="M564 524l67 -38q-43 -105 -141 -105h-20l-33 -261q-6 -55 38 -55q26 0 54 22l38 -51q-44 -44 -104 -44q-54 0 -78 32.5t-17 91.5l32 265h-125l-27 -219q-10 -87 -47 -162h-81q46 93 56 177l26 204h-37q-52 0 -95 -43l-40 59q33 32 67 46.5t85 14.5h266q46 0 71.5 15.5
t44.5 50.5z" />
    <glyph glyph-name="Wgrave" unicode="&#x1e80;" horiz-adv-x="1151" 
d="M466 936l148 -141h-82l-187 141h121zM1123 748l-265 -748h-92l-190 560l-191 -560h-92l-265 748h98l213 -605l200 605h74l200 -605l213 605h97z" />
    <glyph glyph-name="wgrave" unicode="&#x1e81;" horiz-adv-x="815" 
d="M337 786l103 -191h-68l-133 191h98zM799 510l-177 -510h-82l-132 372l-132 -372h-82l-177 510h93l129 -399l136 399h65l136 -399l130 399h93z" />
    <glyph glyph-name="Wacute" unicode="&#x1e82;" horiz-adv-x="1151" 
d="M803 936l-187 -141h-81l148 141h120zM1123 748l-265 -748h-92l-190 560l-191 -560h-92l-265 748h98l213 -605l200 605h74l200 -605l213 605h97z" />
    <glyph glyph-name="wacute" unicode="&#x1e83;" horiz-adv-x="815" 
d="M573 786l-133 -191h-68l102 191h99zM799 510l-177 -510h-82l-132 372l-132 -372h-82l-177 510h93l129 -399l136 399h65l136 -399l130 399h93z" />
    <glyph glyph-name="Wdieresis" unicode="&#x1e84;" horiz-adv-x="1151" 
d="M503 920q21 0 36.5 -15t15.5 -37q0 -21 -15.5 -36t-36.5 -15q-22 0 -37 14.5t-15 36.5t15 37t37 15zM614 905q16 15 38 15t36 -15q15 -15 15 -37t-15 -37q-14 -14 -36 -14t-38 14q-15 15 -15 37t15 37zM1123 748l-265 -748h-92l-190 560l-191 -560h-92l-265 748h98
l213 -605l200 605h74l200 -605l213 605h97z" />
    <glyph glyph-name="wdieresis" unicode="&#x1e85;" horiz-adv-x="815" 
d="M331 732q21 0 36.5 -15t15.5 -36t-15.5 -36t-36.5 -15q-22 0 -37 14.5t-15 36.5q0 21 15 36t37 15zM531 681q0 -22 -14.5 -36.5t-36.5 -14.5t-37.5 14.5t-15.5 36.5q0 21 15.5 36t37.5 15t36.5 -15t14.5 -36zM799 510l-177 -510h-82l-132 372l-132 -372h-82l-177 510h93
l129 -399l136 399h65l136 -399l130 399h93z" />
    <glyph glyph-name="Ygrave" unicode="&#x1ef2;" horiz-adv-x="692" 
d="M236 936l148 -141h-82l-187 141h121zM675 748l-283 -448v-300h-91v300l-284 448h108l221 -349l221 349h108z" />
    <glyph glyph-name="ygrave" unicode="&#x1ef3;" horiz-adv-x="525" 
d="M192 786l103 -191h-68l-133 191h98zM507 510l-302 -765h-90l103 261l-201 504h93l153 -399l152 399h92z" />
    <glyph glyph-name="endash" unicode="&#x2013;" horiz-adv-x="563" 
d="M518 302v-81h-473v81h473z" />
    <glyph glyph-name="emdash" unicode="&#x2014;" horiz-adv-x="795" 
d="M750 302v-81h-705v81h705z" />
    <glyph glyph-name="quoteleft" unicode="&#x2018;" horiz-adv-x="192" 
d="M152 750v-39q-48 -37 -59 -102q24 0 41 -16.5t17 -40.5t-16 -41.5t-40 -17.5q-26 0 -41 18.5t-15 48.5q0 125 113 190z" />
    <glyph glyph-name="quoteright" unicode="&#x2019;" horiz-adv-x="192" 
d="M97 750q26 0 40.5 -18.5t14.5 -48.5q0 -126 -112 -190v39q51 38 58 102q-24 1 -40.5 17t-16.5 40t16 41.5t40 17.5z" />
    <glyph glyph-name="quotesinglbase" unicode="&#x201a;" horiz-adv-x="192" 
d="M97 108q26 0 40.5 -18.5t14.5 -48.5q0 -126 -112 -190v39q51 38 58 102q-24 1 -40.5 17t-16.5 40t16 41.5t40 17.5z" />
    <glyph glyph-name="quotedblleft" unicode="&#x201c;" horiz-adv-x="359" 
d="M34 560q0 125 113 190v-39q-48 -37 -59 -102q24 0 41 -16.5t17 -40.5t-16 -41.5t-40 -17.5q-26 0 -41 18.5t-15 48.5zM314 750v-39q-48 -37 -59 -102q24 0 41 -16.5t17 -40.5t-16 -41.5t-40 -17.5q-26 0 -41 18.5t-15 48.5q0 125 113 190z" />
    <glyph glyph-name="quotedblright" unicode="&#x201d;" horiz-adv-x="359" 
d="M92 750q26 0 40.5 -18.5t14.5 -48.5q0 -126 -112 -190v39q51 38 58 102q-24 1 -40.5 17t-16.5 40t16 41.5t40 17.5zM259 750q26 0 40.5 -18.5t14.5 -48.5q0 -125 -113 -190v39q52 38 59 102q-24 1 -40.5 17t-16.5 40t16 41.5t40 17.5z" />
    <glyph glyph-name="quotedblbase" unicode="&#x201e;" horiz-adv-x="359" 
d="M97 108q26 0 40.5 -18.5t14.5 -48.5q0 -126 -112 -190v39q51 38 58 102q-24 1 -40.5 17t-16.5 40t16 41.5t40 17.5zM263 108q26 0 41 -18.5t15 -48.5q0 -125 -113 -190v39q48 37 59 102q-24 0 -41 16.5t-17 40.5t16 41.5t40 17.5z" />
    <glyph glyph-name="dagger" unicode="&#x2020;" horiz-adv-x="493" 
d="M290 748v-206h183v-78h-183v-531h-86v531h-184v78h184v206h86z" />
    <glyph glyph-name="daggerdbl" unicode="&#x2021;" horiz-adv-x="493" 
d="M290 748v-206h183v-78h-183v-246h183v-79h-183v-206h-86v206h-184v79h184v246h-184v78h184v206h86z" />
    <glyph glyph-name="bullet" unicode="&#x2022;" horiz-adv-x="349" 
d="M295 255q0 -51 -35 -86t-85 -35q-49 0 -86 35q-35 35 -35 86q0 50 35 85q37 35 86 35q50 0 85 -35t35 -85z" />
    <glyph glyph-name="ellipsis" unicode="&#x2026;" horiz-adv-x="624" 
d="M107 109q25 0 42.5 -17.5t17.5 -42.5q0 -24 -17.5 -41.5t-42.5 -17.5q-24 0 -41 17.5t-17 41.5q0 25 17 42.5t41 17.5zM311 109q25 0 42.5 -17.5t17.5 -42.5q0 -24 -17.5 -41.5t-42.5 -17.5q-24 0 -41 17.5t-17 41.5q0 25 17 42.5t41 17.5zM516 109q25 0 42.5 -17.5
t17.5 -42.5q0 -24 -17.5 -41.5t-42.5 -17.5q-24 0 -41.5 17.5t-17.5 41.5q0 25 17.5 42.5t41.5 17.5z" />
    <glyph glyph-name="perthousand" unicode="&#x2030;" horiz-adv-x="1226" 
d="M202 757q72 0 116.5 -48.5t44.5 -129.5t-44.5 -129.5t-116.5 -48.5q-73 0 -117.5 48.5t-44.5 129.5t44.5 129.5t117.5 48.5zM726 748l-528 -748h-85l529 748h84zM272 665q-25 31 -70 31t-70 -31q-26 -32 -26 -86t26 -86q25 -31 70 -31t70 31q26 32 26 86t-26 86zM638 347
q72 0 116.5 -48.5t44.5 -130.5q0 -81 -44.5 -129t-116.5 -48t-117 48t-45 129q0 82 44.5 130.5t117.5 48.5zM1024 347q72 0 116.5 -48.5t44.5 -130.5q0 -81 -44.5 -129t-116.5 -48t-116.5 48t-44.5 129q0 82 44 130.5t117 48.5zM637 286q-45 0 -70.5 -31t-25.5 -87
q0 -53 26.5 -84.5t69.5 -31.5q45 0 71 31t26 85q0 56 -26 87t-71 31zM1024 286q-45 0 -70.5 -31t-25.5 -87q0 -54 26 -85t70 -31q45 0 71 31t26 85q0 56 -26 87t-71 31z" />
    <glyph glyph-name="guilsinglleft" unicode="&#x2039;" horiz-adv-x="306" 
d="M225 472l62 -55l-167 -163l167 -163l-62 -55l-210 218z" />
    <glyph glyph-name="guilsinglright" unicode="&#x203a;" horiz-adv-x="306" 
d="M82 472l210 -218l-210 -218l-62 55l167 163l-167 163z" />
    <glyph glyph-name="fraction" unicode="&#x2044;" horiz-adv-x="197" 
d="M407 748l-527 -748h-89l527 748h89z" />
    <glyph glyph-name="Euro" unicode="&#x20ac;" horiz-adv-x="686" 
d="M600 134l39 -76q-89 -68 -219 -68q-120 0 -199 70.5t-105 199.5h-108l20 54h81q-3 28 -3 60q0 30 3 58h-101l20 54h88q25 129 106 200q80 72 200 72q119 0 205 -65l-28 -76q-71 59 -173 59q-83 0 -139 -49.5t-76 -140.5h332l-20 -54h-321q-3 -27 -3 -58q0 -32 3 -60h272
l-20 -54h-243q22 -90 77.5 -139t137.5 -49q101 0 174 62z" />
    <glyph glyph-name="trademark" unicode="&#x2122;" horiz-adv-x="886" 
d="M358 748v-70h-132v-289h-64v289h-130v70h326zM824 748v-359h-65v251l-125 -251h-33l-125 251v-251h-64v359h70l136 -263l136 263h70z" />
    <glyph glyph-name="estimated" unicode="&#x212e;" horiz-adv-x="614" 
d="M321 538q107 0 178 -69q71 -68 71 -187h-412v-174q0 -39 26 -53q54 -45 137 -45q70 0 129 34.5t97 93.5l18 -11q-91 -138 -244 -138q-118 0 -197 76t-79 196q0 123 79 199q79 78 197 78zM321 516q-81 0 -137 -44q-26 -14 -26 -50v-119h307v122q0 25 -5.5 36.5t-23.5 21.5
q-45 33 -115 33z" />
    <glyph glyph-name="partialdiff" unicode="&#x2202;" horiz-adv-x="613" 
d="M289 758q272 0 272 -476q0 -138 -73 -215q-72 -78 -189 -78q-111 0 -182 68q-70 69 -70 183q0 109 70 175q70 67 180 67q105 0 172 -72q-17 266 -178 266q-101 0 -190 -72l-14 86q94 68 202 68zM305 71q73 0 119 46.5t46 121.5v4q-2 73 -48 120q-47 47 -117 47
q-71 0 -118 -47t-47 -122q0 -77 46 -123.5t119 -46.5z" />
    <glyph glyph-name="product" unicode="&#x220f;" horiz-adv-x="643" 
d="M617 748v-81h-102v-831h-78v831h-231v-831h-78v831h-103v81h592z" />
    <glyph glyph-name="summation" unicode="&#x2211;" horiz-adv-x="600" 
d="M554 748v-81h-399l220 -293l-220 -293h399v-81h-505v67l231 307l-231 307v67h505z" />
    <glyph glyph-name="minus" unicode="&#x2212;" horiz-adv-x="546" 
d="M514 411v-81h-481v81h481z" />
    <glyph glyph-name="radical" unicode="&#x221a;" horiz-adv-x="633" 
d="M532 694l71 -29l-274 -742l-144 341l-113 -73l-43 68l188 120l110 -275z" />
    <glyph glyph-name="infinity" unicode="&#x221e;" horiz-adv-x="788" 
d="M577 495q79 0 128 -55q51 -55 51 -134q0 -80 -51 -136q-49 -55 -128 -55q-98 0 -181 104l-22 27l-21 -27q-81 -88 -161 -88q-72 0 -117 50q-44 50 -44 124q0 73 44 123q45 51 117 51q86 0 160 -90l21 -27l18 22q48 58 89.5 84.5t96.5 26.5zM577 422q-39 0 -69.5 -22
t-70.5 -71l-19 -25l21 -28q72 -87 138 -87q47 0 76.5 33.5t29.5 83.5q0 49 -29.5 82.5t-76.5 33.5zM194 408q-42 0 -68 -29t-26 -74t26 -74.5t68 -29.5q62 0 118 74l23 29l-22 27q-62 77 -119 77z" />
    <glyph glyph-name="integral" unicode="&#x222b;" horiz-adv-x="339" 
d="M256 758q41 0 86 -14l-15 -66q-31 9 -53 9q-36 0 -50 -20t-14 -68v-610q0 -84 -29.5 -122t-95.5 -38q-44 0 -86 13l15 67q27 -10 51 -10q38 0 54 21t16 71v611q0 80 29 118t92 38z" />
    <glyph glyph-name="approxequal" unicode="&#x2248;" horiz-adv-x="535" 
d="M475 557l40 -57q-35 -44 -70 -64t-81 -20q-50 0 -103 31q-52 31 -86 31q-37 0 -62.5 -13t-51.5 -45l-40 57q34 43 67.5 62.5t78.5 19.5q40 0 93 -31t96 -31q39 0 65 13.5t54 46.5zM475 323l40 -58q-34 -43 -69 -63t-82 -20q-50 0 -103 31q-52 31 -86 31q-37 0 -62.5 -13
t-51.5 -45l-40 56q34 43 67.5 63t78.5 20q38 0 93 -32q53 -31 96 -31q39 0 65 14t54 47z" />
    <glyph glyph-name="notequal" unicode="&#x2260;" horiz-adv-x="546" 
d="M514 447h-179l-54 -158h233v-81h-261l-45 -131l-74 18l39 113h-140v81h168l54 158h-222v82h250l44 129l75 -18l-38 -111h150v-82z" />
    <glyph glyph-name="lessequal" unicode="&#x2264;" horiz-adv-x="518" 
d="M486 664v-88l-284 -125l284 -125v-88l-459 213zM486 180v-81h-459v81h459z" />
    <glyph glyph-name="greaterequal" unicode="&#x2265;" horiz-adv-x="518" 
d="M33 664l458 -213l-459 -213l1 88l284 125l-284 125v88zM491 180v-81h-458v81h458z" />
    <glyph glyph-name="lozenge" unicode="&#x25ca;" horiz-adv-x="536" 
d="M296 748l204 -402l-204 -401h-55l-206 401l206 402h55zM269 623l-143 -277l143 -276l142 276z" />
    <glyph glyph-name="fl" unicode="&#xfb02;" horiz-adv-x="605" 
d="M290 783q37 0 61 -8l-6 -78q-24 8 -49 8q-93 0 -93 -112v-83h136v-74h-136v-436h-86v436h-100v74h100v84q0 93 44.5 141t128.5 48zM517 777v-777h-86v777h86z" />
    <glyph glyph-name="NULL" horiz-adv-x="0" 
 />
    <glyph glyph-name="CR.001" horiz-adv-x="333" 
 />
    <glyph glyph-name="a.alt" horiz-adv-x="602" 
d="M280 519q92 0 148 -56v47h86v-510h-76l-3 53q-59 -63 -160 -63q-96 0 -161 68q-64 67 -64 197t64 197t166 67zM293 446q-70 0 -113 -51t-43 -140q0 -92 42.5 -141.5t114.5 -49.5q80 0 135 60v262q-59 60 -136 60z" />
    <glyph glyph-name="aacute.alt" horiz-adv-x="602" 
d="M459 786l-133 -191h-68l102 191h99zM280 519q94 0 148 -56v47h87v-510h-77l-3 53q-59 -63 -159 -63q-97 0 -162 68q-64 67 -64 197q0 129 65 197q64 67 165 67zM292 446q-70 0 -112.5 -51t-42.5 -140q0 -92 42.5 -141.5t114.5 -49.5q82 0 134 60v262q-58 60 -136 60z" />
    <glyph glyph-name="abreve.alt" horiz-adv-x="602" 
d="M378 732h71q0 -63 -42 -98t-115 -35q-72 0 -114 35t-42 98h71q0 -34 23 -53.5t62 -19.5t62.5 19.5t23.5 53.5zM280 519q94 0 148 -56v47h87v-510h-77l-3 53q-59 -63 -159 -63q-97 0 -162 68q-64 67 -64 197q0 129 65 197q64 67 165 67zM292 446q-70 0 -112.5 -51
t-42.5 -140q0 -92 42.5 -141.5t114.5 -49.5q82 0 134 60v262q-58 60 -136 60z" />
    <glyph glyph-name="acircumflex.alt" horiz-adv-x="602" 
d="M334 765l120 -169h-74l-87 110l-87 -110h-74l120 169h82zM280 519q94 0 148 -56v47h87v-510h-77l-3 53q-59 -63 -159 -63q-97 0 -162 68q-64 67 -64 197q0 129 65 197q64 67 165 67zM292 446q-70 0 -112.5 -51t-42.5 -140q0 -92 42.5 -141.5t114.5 -49.5q82 0 134 60v262
q-58 60 -136 60z" />
    <glyph glyph-name="adieresis.alt" horiz-adv-x="602" 
d="M216 732q21 0 36.5 -15t15.5 -36t-15.5 -36t-36.5 -15q-22 0 -37 14.5t-15 36.5q0 21 15 36t37 15zM416 681q0 -22 -14.5 -36.5t-36.5 -14.5t-37.5 14.5t-15.5 36.5q0 21 15.5 36t37.5 15t36.5 -15t14.5 -36zM280 519q94 0 148 -56v47h87v-510h-77l-3 53
q-59 -63 -159 -63q-97 0 -162 68q-64 67 -64 197q0 129 65 197q64 67 165 67zM292 446q-70 0 -112.5 -51t-42.5 -140q0 -92 42.5 -141.5t114.5 -49.5q82 0 134 60v262q-58 60 -136 60z" />
    <glyph glyph-name="agrave.alt" horiz-adv-x="602" 
d="M222 786l103 -191h-68l-133 191h98zM280 519q94 0 148 -56v47h87v-510h-77l-3 53q-59 -63 -159 -63q-97 0 -162 68q-64 67 -64 197q0 129 65 197q64 67 165 67zM292 446q-70 0 -112.5 -51t-42.5 -140q0 -92 42.5 -141.5t114.5 -49.5q82 0 134 60v262q-58 60 -136 60z" />
    <glyph glyph-name="amacron.alt" horiz-adv-x="602" 
d="M424 702v-67h-263v67h263zM280 519q94 0 148 -56v47h87v-510h-77l-3 53q-59 -63 -159 -63q-97 0 -162 68q-64 67 -64 197q0 129 65 197q64 67 165 67zM292 446q-70 0 -112.5 -51t-42.5 -140q0 -92 42.5 -141.5t114.5 -49.5q82 0 134 60v262q-58 60 -136 60z" />
    <glyph glyph-name="aogonek.alt" horiz-adv-x="602" 
d="M539 -127l9 -45q-36 -16 -79 -16q-49 0 -78.5 22t-29.5 62q0 62 84 104h-7l-3 53q-59 -63 -159 -63q-97 0 -162 68q-64 67 -64 197q0 129 65 197q64 67 165 67q94 0 148 -56v47h87v-500l6 -11q-51 -25 -72.5 -45.5t-21.5 -47.5q0 -45 55 -45q32 0 57 12zM428 124v262
q-58 60 -136 60q-70 0 -112.5 -51t-42.5 -140q0 -92 42.5 -141.5t114.5 -49.5q82 0 134 60z" />
    <glyph glyph-name="aring.alt" horiz-adv-x="602" 
d="M211 768q33 30 81 30t81 -30t33 -76t-33 -76t-81 -30t-81 30t-33 76t33 76zM292 748q-26 0 -42.5 -16t-16.5 -40q0 -25 16.5 -40.5t42.5 -15.5t42 15.5t16 40.5q0 24 -16.5 40t-41.5 16zM280 519q94 0 148 -56v47h87v-510h-77l-3 53q-59 -63 -159 -63q-97 0 -162 68
q-64 67 -64 197q0 129 65 197q64 67 165 67zM292 446q-70 0 -112.5 -51t-42.5 -140q0 -92 42.5 -141.5t114.5 -49.5q82 0 134 60v262q-58 60 -136 60z" />
    <glyph glyph-name="aringacute.alt" horiz-adv-x="602" 
d="M300 583q-44 0 -73.5 27.5t-29.5 69.5q0 46 34 74l144 119h110l-152 -101q31 -9 50.5 -34t19.5 -58q0 -42 -30 -69.5t-73 -27.5zM350 680q0 23 -13.5 36.5t-35.5 13.5q-23 0 -37.5 -13.5t-14.5 -36.5q0 -22 14.5 -36t37.5 -14q22 0 35.5 14t13.5 36zM428 510h87v-510h-77
l-3 53q-59 -63 -159 -63q-97 0 -162 68q-64 67 -64 197q0 129 65 197q64 67 165 67q94 0 148 -56v47zM428 124v262q-58 60 -136 60q-70 0 -112.5 -51t-42.5 -140q0 -92 42.5 -141.5t114.5 -49.5q82 0 134 60z" />
    <glyph glyph-name="atilde.alt" horiz-adv-x="602" 
d="M219 736q33 0 73 -31q40 -30 63 -30q47 0 49 54h50q3 -50 -22.5 -85t-67.5 -35q-34 0 -74 30q-40 31 -62 31q-48 0 -49 -54h-50q-3 51 22.5 85.5t67.5 34.5zM280 519q94 0 148 -56v47h87v-510h-77l-3 53q-59 -63 -159 -63q-97 0 -162 68q-64 67 -64 197q0 129 65 197
q64 67 165 67zM292 446q-70 0 -112.5 -51t-42.5 -140q0 -92 42.5 -141.5t114.5 -49.5q82 0 134 60v262q-58 60 -136 60z" />
    <glyph glyph-name="germandbls.cap" horiz-adv-x="692" 
d="M330 757q157 0 261 -122l-129 -189q93 -31 139 -82.5t46 -136.5q0 -112 -69.5 -174t-192.5 -62q-49 0 -85 9l8 82q32 -8 68 -8q84 0 131 41t47 114q0 72 -51 113t-159 69l135 203q-58 61 -150 61q-65 0 -109 -39q-43 -37 -43 -100v-536h-92v535q0 99 70 160q71 62 175 62
z" />
    <glyph glyph-name="a.sups" horiz-adv-x="417" 
d="M210 756q66 0 104.5 -39t38.5 -105v-272h-71v43q-47 -50 -120 -50q-52 0 -83.5 29t-31.5 79q0 134 232 140v26q0 39 -22 63t-61 24q-56 0 -117 -39l-4 64q55 37 135 37zM280 444v81q-84 -3 -122 -20t-38 -55q0 -54 66 -54q52 0 94 48z" />
    <glyph glyph-name="a.alt.sups" horiz-adv-x="483" 
d="M224 756q72 0 116 -44v36h74v-408h-66l-2 42q-49 -49 -126 -49q-81 0 -131 55.5t-50 155.5q0 102 51 157t134 55zM235 694q-54 0 -87.5 -39.5t-33.5 -110.5t33.5 -110.5t88.5 -39.5q63 0 105 47v206q-45 47 -106 47z" />
    <glyph glyph-name="b.sups" horiz-adv-x="483" 
d="M68 962h74v-251q46 45 120 45q80 0 130.5 -56t50.5 -156q0 -101 -50.5 -156t-134.5 -55q-78 0 -119 50l-2 -43h-69v622zM248 694q-61 0 -105 -47v-206q44 -47 106 -47q54 0 87 39.5t33 110.5q0 73 -33 111.5t-88 38.5z" />
    <glyph glyph-name="c.sups" horiz-adv-x="383" 
d="M239 756q61 0 110 -31l-3 -65q-44 34 -100 34q-60 0 -96.5 -41t-36.5 -109q0 -67 37.5 -108.5t96.5 -41.5q58 0 101 34l4 -66q-49 -29 -112 -29q-86 0 -144 57t-58 154t57 154q58 58 144 58z" />
    <glyph glyph-name="d.sups" horiz-adv-x="483" 
d="M414 962v-622h-66l-2 42q-46 -49 -126 -49q-81 0 -131 55.5t-50 155.5q0 102 51 157t134 55q74 0 116 -44v250h74zM235 694q-54 0 -87.5 -39.5t-33.5 -110.5t33.5 -110.5t88.5 -39.5q63 0 105 47v206q-45 47 -106 47z" />
    <glyph glyph-name="e.sups" horiz-adv-x="427" 
d="M224 756q91 0 133 -61t28 -174h-271q2 -59 36 -93t92 -34q74 0 132 45l4 -65q-59 -41 -145 -41q-89 0 -141.5 54.5t-52.5 152.5q0 100 52 158t133 58zM221 694q-46 0 -74.5 -31.5t-32.5 -84.5h202q5 56 -19.5 86t-75.5 30z" />
    <glyph glyph-name="f.sups" horiz-adv-x="272" 
d="M234 966q35 0 49 -7l-4 -65q-15 6 -39 6q-35 0 -55 -22.5t-20 -65.5v-64h109v-62h-109v-346h-73v346h-79v62h79v65q0 75 36.5 114t105.5 39z" />
    <glyph glyph-name="g.sups" horiz-adv-x="496" 
d="M227 756q77 0 120 -49l1 41h69v-433q0 -84 -52 -135t-137 -51q-90 0 -159 42l16 69q59 -48 143 -48q55 0 85 30.5t30 87.5v67q-47 -44 -119 -44q-81 0 -131.5 55.5t-50.5 155.5q0 102 51 157t134 55zM237 694q-54 0 -87.5 -39.5t-33.5 -110.5t33.5 -110.5t88.5 -39.5
q63 0 105 47v206q-45 47 -106 47z" />
    <glyph glyph-name="h.sups" horiz-adv-x="477" 
d="M68 962h74v-261q49 55 125 55q65 0 104.5 -43t39.5 -115v-258h-73v244q0 45 -25 73t-66 28q-56 0 -105 -55v-290h-74v622z" />
    <glyph glyph-name="i.sups" horiz-adv-x="212" 
d="M105 939q20 0 34.5 -14t14.5 -34t-14.5 -34t-34.5 -14q-19 0 -33 14t-14 34q0 19 14 33.5t33 14.5zM143 748v-408h-74v408h74z" />
    <glyph glyph-name="j.sups" horiz-adv-x="212" 
d="M72 925q14 14 34 14t34 -15q14 -14 14 -33t-14 -34q-14 -14 -34 -14t-34 14t-14 34t14 34zM69 748h75v-468q0 -74 -37.5 -112.5t-102.5 -38.5q-51 0 -80 17l13 66q26 -18 64 -18q68 0 68 85v469z" />
    <glyph glyph-name="k.sups" horiz-adv-x="438" 
d="M142 962v-384l168 170h89l-170 -175l195 -233h-93l-154 178l-35 -35v-143h-74v622h74z" />
    <glyph glyph-name="l.sups" horiz-adv-x="211" 
d="M142 962v-622h-74v622h74z" />
    <glyph glyph-name="m.sups" horiz-adv-x="740" 
d="M530 756q64 0 104 -43t40 -115v-258h-73v244q0 45 -25 73t-66 28q-59 0 -104 -59q2 -24 2 -28v-258h-74v244q0 45 -24.5 73t-65.5 28q-25 0 -45 -10q-29 -13 -57 -45v-290h-74v408h71v-51q44 59 125 59q82 0 122 -67q52 67 144 67z" />
    <glyph glyph-name="n.sups" horiz-adv-x="477" 
d="M267 756q65 0 104.5 -43t39.5 -115v-258h-73v244q0 45 -25 73t-66 28q-56 0 -105 -55v-290h-74v408h71v-51q44 59 128 59z" />
    <glyph glyph-name="o.sups" horiz-adv-x="477" 
d="M437 544q0 -98 -54 -154.5t-144 -56.5q-91 0 -145.5 56.5t-54.5 154.5q0 99 55 155q55 57 145 57q89 0 143 -58q55 -56 55 -154zM239 394q56 0 90 40.5t34 109.5t-33.5 109.5t-90.5 40.5t-91 -40.5t-34 -109.5t34 -109.5t91 -40.5z" />
    <glyph glyph-name="p.sups" horiz-adv-x="483" 
d="M263 756q80 0 130 -56t50 -156q0 -101 -50.5 -156t-133.5 -55q-73 0 -117 44v-242h-74v613h66l2 -41q46 49 127 49zM248 694q-61 0 -105 -47v-206q44 -47 106 -47q54 0 87 39.5t33 110.5q0 73 -33 111.5t-88 38.5z" />
    <glyph glyph-name="q.sups" horiz-adv-x="483" 
d="M224 756q77 0 120 -49l1 41h69v-612h-74v241q-47 -44 -119 -44q-81 0 -131.5 55.5t-50.5 155.5q0 102 51 157t134 55zM235 694q-54 0 -87.5 -39.5t-33.5 -110.5t33.5 -110.5t88.5 -39.5q63 0 105 47v206q-45 47 -106 47z" />
    <glyph glyph-name="r.sups" horiz-adv-x="282" 
d="M266 750v-74q-68 0 -124 -55v-281h-74v408h74v-57q47 59 124 59z" />
    <glyph glyph-name="s.sups" horiz-adv-x="375" 
d="M193 756q59 0 120 -26l-6 -68q-49 31 -107 31q-81 0 -81 -58q0 -31 35 -45q6 -3 50 -14q75 -20 104 -44t29 -73q0 -60 -42.5 -93t-115.5 -33q-87 0 -143 32l5 70q59 -40 135 -40q41 0 64 16t23 45q0 28 -19 40t-73 25q-70 17 -97.5 40.5t-27.5 75.5q0 56 38 87.5
t109 31.5z" />
    <glyph glyph-name="t.sups" horiz-adv-x="300" 
d="M279 686h-103l-1 -208q0 -74 71 -74q22 0 33 3v-67q-24 -2 -42 -2q-65 0 -100.5 31.5t-35.5 93.5l1 223h-88v62h88l1 133h74l-1 -133h103v-62z" />
    <glyph glyph-name="u.sups" horiz-adv-x="468" 
d="M402 748v-408h-72v51q-42 -59 -124 -59q-63 0 -102 43.5t-39 114.5v258h74v-243q0 -45 24 -73t64 -28q55 0 101 54v290h74z" />
    <glyph glyph-name="v.sups" horiz-adv-x="423" 
d="M409 748l-157 -408h-82l-157 408h79l119 -317l119 317h79z" />
    <glyph glyph-name="w.sups" horiz-adv-x="653" 
d="M640 748l-140 -408h-71l-102 290l-103 -290h-70l-141 408h79l101 -313l106 313h56l106 -313l101 313h78z" />
    <glyph glyph-name="x.sups" horiz-adv-x="415" 
d="M390 748l-130 -199l136 -209h-82l-107 159l-106 -159h-83l137 209l-131 199h83l100 -150l101 150h82z" />
    <glyph glyph-name="y.sups" horiz-adv-x="423" 
d="M409 748l-242 -612h-77l83 209l-160 403h79l119 -314l119 314h79z" />
    <glyph glyph-name="z.sups" horiz-adv-x="361" 
d="M328 748v-47l-211 -301h221v-60h-314v48l210 300h-205v60h299z" />
    <glyph glyph-name="zero.onum" horiz-adv-x="645" 
d="M322 602q128 0 198 -82q72 -82 72 -225q0 -141 -72 -224q-72 -81 -198 -81t-197 81.5t-71 223.5q0 144 71 225.5t197 81.5zM146 295q0 -105 46 -163.5t130 -58.5t130 58.5t46 163.5q0 107 -46 166t-130 59t-130 -59t-46 -166z" />
    <glyph glyph-name="one.onum" horiz-adv-x="378" 
d="M287 590v-590h-91v486l-167 -94v91l185 107h73z" />
    <glyph glyph-name="two.onum" horiz-adv-x="531" 
d="M251 600q111 0 172.5 -52t61.5 -150q0 -92 -71 -165q-69 -69 -208 -150h287v-83h-451v77l82 44l73 42q42 24 67 43q72 54 95 86q34 50 34 98q0 62 -38.5 94.5t-108.5 32.5q-100 0 -182 -54l-6 87q89 50 193 50z" />
    <glyph glyph-name="three.onum" horiz-adv-x="517" 
d="M211 600q107 0 170.5 -55.5t63.5 -150.5q0 -57 -29 -98.5t-80 -62.5q63 -22 98 -68t35 -112q0 -103 -69 -161q-67 -60 -184 -60q-94 0 -183 39l3 88q80 -44 178 -44q75 0 119.5 37.5t44.5 102.5q0 63 -46 100t-121 37h-60v79h56q64 0 105.5 33.5t41.5 87.5q0 57 -40.5 91
t-106.5 34q-86 0 -160 -46l-3 89q81 40 167 40z" />
    <glyph glyph-name="four.onum" horiz-adv-x="600" 
d="M313 590l-193 -479h228v209h91v-209h139v-82h-139v-187h-91v187h-320v70l190 491h95z" />
    <glyph glyph-name="five.onum" horiz-adv-x="559" 
d="M268 302q106 0 175 -60q70 -60 70 -169q0 -111 -72 -175q-71 -66 -192 -66q-93 0 -171 30l3 90q67 -37 164 -37q81 0 128.5 42t47.5 114q0 69 -46.5 109.5t-122.5 40.5q-51 0 -84 -10q-36 -10 -78 -31v410h389v-82h-298v-220q40 14 87 14z" />
    <glyph glyph-name="six.onum" horiz-adv-x="588" 
d="M305 464q109 0 173.5 -62.5t64.5 -173.5q0 -109 -65 -174q-64 -64 -173 -64q-126 0 -190 85q-35 47 -48 104q-13 56 -13 165q0 199 72.5 306.5t209.5 107.5q88 0 165 -36l-6 -84q-70 37 -155 37q-188 0 -193 -276q62 65 158 65zM300 73q71 0 110.5 42t39.5 115
q0 72 -41 113t-110 41q-72 0 -116 -50t-34 -123l1 -5q7 -49 33 -82q41 -51 117 -51z" />
    <glyph glyph-name="seven.onum" horiz-adv-x="535" 
d="M516 590v-61l-371 -687h-100l360 666h-378v82h489z" />
    <glyph glyph-name="eight.onum" horiz-adv-x="599" 
d="M299 758q103 0 164 -57q61 -55 61 -143q0 -124 -102 -161q122 -47 122 -185q0 -101 -65 -161.5t-180 -60.5q-116 0 -181 62q-64 61 -64 160q0 138 122 185q-102 39 -102 161q0 88 61 143q61 57 164 57zM299 675q-60 0 -96.5 -33.5t-36.5 -86.5q0 -55 34 -88t99 -33
q63 0 98 33q35 35 35 88q0 54 -37 87t-96 33zM145 215q0 -66 40.5 -104t112.5 -38t113 38q41 39 41 104t-42 101q-40 37 -112 37q-71 0 -112 -37t-41 -101z" />
    <glyph glyph-name="nine.onum" horiz-adv-x="588" 
d="M477 515q33 -45 47 -105q14 -61 14 -164q0 -199 -72.5 -306.5t-209.5 -107.5q-88 0 -165 36l7 84q70 -37 154 -37q93 0 142 70t51 205q-61 -64 -157 -64q-109 0 -173.5 62.5t-64.5 173.5q0 109 64 173.5t173 64.5q127 0 190 -85zM294 206q72 0 115 49q46 50 35 124l-1 5
q-8 49 -34 82q-41 51 -117 51q-71 0 -110 -42t-39 -115q0 -72 41 -113t110 -41z" />
    <glyph glyph-name="zero.slash" horiz-adv-x="645" 
d="M591 374q0 -184 -73 -284q-72 -100 -195 -100q-125 0 -197 101t-72 283q0 183 73 283q74 101 196 101q123 0 195 -101q73 -100 73 -283zM322 675q-84 0 -130 -78.5t-46 -222.5q0 -125 36 -203l242 462q-42 42 -102 42zM322 73q82 0 129 78.5t47 222.5q0 122 -35 200
l-239 -463q41 -38 98 -38z" />
    <glyph glyph-name="zero.subs" horiz-adv-x="377" 
d="M345 133q0 -103 -41.5 -161t-113.5 -58t-115 58q-43 56 -43 161t43 161q43 58 115 58t113.5 -58.5t41.5 -160.5zM189 292q-42 0 -65.5 -40.5t-23.5 -118.5q0 -77 23.5 -118t65.5 -41q41 0 64.5 41t23.5 118t-23.5 118t-64.5 41z" />
    <glyph glyph-name="one.subs" horiz-adv-x="236" 
d="M187 346v-426h-67v351l-97 -55v68l107 62h57z" />
    <glyph glyph-name="two.subs" horiz-adv-x="317" 
d="M147 352q66 0 103.5 -32.5t37.5 -91.5q0 -55 -31 -109q-11 -21 -38 -49q-23 -26 -42 -43l-51 -47h166v-60h-264v42l17 14q91 81 133 131q44 53 44 110q0 36 -20.5 55.5t-56.5 19.5q-55 0 -105 -32l-3 64q50 28 110 28z" />
    <glyph glyph-name="three.subs" horiz-adv-x="314" 
d="M135 352q64 0 102.5 -31.5t38.5 -85.5q0 -66 -65 -93q76 -26 76 -102q0 -58 -40.5 -92t-109.5 -34q-59 0 -104 22l2 63q47 -26 96 -26q42 0 65 18.5t23 51.5t-23 51.5t-62 18.5h-34v56h33q34 0 55 16t21 45q0 30 -20.5 46.5t-57.5 16.5q-43 0 -90 -27l-2 63q44 23 96 23z
" />
    <glyph glyph-name="four.subs" horiz-adv-x="354" 
d="M194 346l-109 -274h121v122h67v-122h68v-55h-68v-97h-67v97h-187v54l106 275h69z" />
    <glyph glyph-name="five.subs" horiz-adv-x="327" 
d="M160 181q61 0 100.5 -35t39.5 -94q0 -62 -43 -100t-114 -38q-59 0 -100 16l2 60q43 -18 94 -18q44 0 68.5 20t24.5 57q0 36 -24.5 56.5t-66.5 20.5q-55 0 -95 -22v242h226v-60h-159v-110q25 5 47 5z" />
    <glyph glyph-name="six.subs" horiz-adv-x="343" 
d="M179 186q63 0 100.5 -36.5t37.5 -99.5t-37 -99.5t-102 -36.5q-69 0 -106 45q-41 49 -41 163q0 109 44.5 169.5t127.5 60.5q47 0 91 -18l-4 -59q-45 17 -81 17q-105 0 -110 -134q34 28 80 28zM175 -26q36 0 54.5 21t18.5 58q0 78 -74 78q-35 0 -57 -24t-18 -61
q5 -26 15 -42q19 -28 61 -30z" />
    <glyph glyph-name="seven.subs" horiz-adv-x="322" 
d="M309 346v-44l-200 -382h-75l193 366h-210v60h292z" />
    <glyph glyph-name="eight.subs" horiz-adv-x="351" 
d="M307 233q0 -60 -52 -87q64 -27 64 -101q0 -61 -38 -96t-106 -35t-106 35.5t-38 95.5q0 75 65 101q-53 26 -53 87q0 53 36 86t96 33t96 -33t36 -86zM175 293q-30 0 -49.5 -17.5t-19.5 -45.5t18.5 -44.5t50.5 -16.5t50.5 16.5t18.5 44.5q0 29 -19 46t-50 17zM99 43
q0 -31 21 -50t55 -19q36 0 56.5 19t20.5 50q0 33 -20.5 51.5t-56.5 18.5q-35 0 -55.5 -18.5t-20.5 -51.5z" />
    <glyph glyph-name="nine.subs" horiz-adv-x="343" 
d="M271 308q40 -49 40 -164q0 -109 -43.5 -169.5t-127.5 -60.5q-48 0 -91 18l4 59q45 -17 82 -17q103 0 110 135q-35 -29 -81 -29q-63 0 -100.5 36.5t-37.5 99.5t37 99.5t101 36.5q69 0 107 -44zM169 135q36 0 57 23.5t17 59.5v2q-1 22 -14 42q-22 30 -61 30q-36 0 -55 -21
t-19 -58t20 -57.5t55 -20.5z" />
    <glyph glyph-name="zero.sups" horiz-adv-x="377" 
d="M345 615q0 -103 -41.5 -161t-113.5 -58t-115 57q-43 58 -43 162q0 105 43 161q43 58 115 58t113.5 -58.5t41.5 -160.5zM189 774q-42 0 -65.5 -40.5t-23.5 -118.5q0 -77 23.5 -118t65.5 -41q41 0 64.5 41t23.5 118t-23.5 118t-64.5 41z" />
    <glyph glyph-name="one.sups" horiz-adv-x="236" 
d="M187 828v-426h-67v351l-97 -55v68l107 62h57z" />
    <glyph glyph-name="two.sups" horiz-adv-x="317" 
d="M147 834q66 0 103.5 -32.5t37.5 -91.5q0 -55 -31 -109q-11 -21 -38 -49q-23 -26 -42 -43l-51 -47h166v-60h-264v42l17 14q91 81 133 131q44 53 44 110q0 36 -20.5 55.5t-56.5 19.5q-55 0 -105 -32l-3 64q50 28 110 28z" />
    <glyph glyph-name="three.sups" horiz-adv-x="314" 
d="M135 834q64 0 102.5 -31.5t38.5 -85.5q0 -66 -65 -93q76 -26 76 -102q0 -58 -40.5 -92t-109.5 -34q-59 0 -104 22l2 63q47 -26 96 -26q42 0 65 18.5t23 51.5t-23 51.5t-62 18.5h-34v56h33q34 0 55 16t21 45q0 30 -20.5 46.5t-57.5 16.5q-43 0 -90 -27l-2 63q44 23 96 23z
" />
    <glyph glyph-name="four.sups" horiz-adv-x="354" 
d="M194 828l-109 -274h121v122h67v-122h68v-55h-68v-97h-67v97h-187v54l106 275h69z" />
    <glyph glyph-name="five.sups" horiz-adv-x="327" 
d="M160 663q61 0 100.5 -35t39.5 -94q0 -62 -43 -100t-114 -38q-59 0 -100 16l2 60q44 -18 94 -18q44 0 68.5 20t24.5 57q0 36 -24.5 56.5t-66.5 20.5q-55 0 -95 -22v242h226v-60h-159v-110q25 5 47 5z" />
    <glyph glyph-name="six.sups" horiz-adv-x="343" 
d="M179 668q63 0 100.5 -36.5t37.5 -99.5t-37 -99.5t-102 -36.5q-69 0 -106 45q-41 49 -41 163q0 109 44.5 169.5t127.5 60.5q47 0 91 -18l-4 -59q-45 17 -81 17q-105 0 -110 -134q34 28 80 28zM175 456q36 0 54.5 21t18.5 58q0 78 -74 78q-35 0 -57 -24t-18 -61
q5 -26 15 -42q19 -28 61 -30z" />
    <glyph glyph-name="seven.sups" horiz-adv-x="322" 
d="M309 828v-44l-200 -382h-75l193 366h-210v60h292z" />
    <glyph glyph-name="eight.sups" horiz-adv-x="351" 
d="M307 715q0 -60 -52 -87q64 -27 64 -101q0 -61 -38 -96t-106 -35t-106 35.5t-38 95.5q0 75 65 101q-53 26 -53 87q0 53 36 86t96 33t96 -33t36 -86zM175 775q-30 0 -49.5 -17.5t-19.5 -45.5t18.5 -44.5t50.5 -16.5t50.5 16.5t18.5 44.5q0 29 -19 46t-50 17zM99 525
q0 -31 21 -50t55 -19q36 0 56.5 19t20.5 50q0 33 -20.5 51.5t-56.5 18.5q-35 0 -55.5 -18.5t-20.5 -51.5z" />
    <glyph glyph-name="nine.sups" horiz-adv-x="343" 
d="M271 790q40 -49 40 -164q0 -109 -43.5 -169.5t-127.5 -60.5q-48 0 -91 18l4 59q45 -17 82 -17q103 0 110 135q-35 -29 -81 -29q-63 0 -100.5 36.5t-37.5 99.5t37 99.5t101 36.5q69 0 107 -44zM169 617q36 0 57 23.5t17 59.5v2q-1 22 -14 42q-22 30 -61 30q-36 0 -55 -21
t-19 -58t20 -57.5t55 -20.5z" />
    <glyph glyph-name="zero.tnum" horiz-adv-x="650" 
d="M594 374q0 -184 -73 -284q-72 -100 -195 -100q-125 0 -197 101t-72 283q0 183 73 283q74 101 196 101q123 0 195 -101q73 -100 73 -283zM326 675q-84 0 -130 -78.5t-46 -222.5t46 -222.5t130 -78.5q82 0 128.5 78.5t46.5 222.5t-46 222.5t-129 78.5z" />
    <glyph glyph-name="one.tnum" horiz-adv-x="650" 
d="M409 748v-667h160v-81h-425v81h174v564l-167 -93v89l184 107h74z" />
    <glyph glyph-name="two.tnum" horiz-adv-x="650" 
d="M301 758q110 0 172 -58t62 -161q0 -141 -121 -274q-55 -59 -186 -170l-1 -1l-1 -1h-1l-1 -1l-1 -1l-1 -1l-1 -1l-1 -1h-1l-1 -1l-1 -1l-1 -1l-1 -1l-1 -1h329v-83h-451v76q170 143 225 202q126 134 126 252q0 67 -39 106t-108 39q-100 0 -182 -54l-6 87q89 50 193 50z
" />
    <glyph glyph-name="three.tnum" horiz-adv-x="650" 
d="M279 758q107 0 170.5 -55.5t63.5 -150.5q0 -57 -29 -98.5t-80 -62.5q63 -22 98 -68t35 -112q0 -102 -69 -162q-68 -59 -184 -59q-94 0 -183 39l3 88q80 -44 178 -44q75 0 119.5 37.5t44.5 102.5q0 63 -46 100t-121 37h-60v79h56q64 0 105.5 33.5t41.5 87.5q0 57 -40.5 91
t-106.5 34q-86 0 -160 -46l-3 89q81 40 167 40z" />
    <glyph glyph-name="four.tnum" horiz-adv-x="650" 
d="M335 748l-192 -479h227v209h92v-209h139v-82h-139v-187h-92v187h-319v70l190 491h94z" />
    <glyph glyph-name="five.tnum" horiz-adv-x="650" 
d="M311 460q106 0 175 -60t69 -169q0 -110 -72 -176q-71 -65 -191 -65q-94 0 -172 30l3 90q68 -37 165 -37q81 0 128.5 42t47.5 114q0 69 -46.5 109.5t-122.5 40.5q-48 0 -81.5 -9t-80.5 -32v410h389v-82h-298v-220q40 14 87 14z" />
    <glyph glyph-name="six.tnum" horiz-adv-x="650" 
d="M332 464q109 0 173.5 -62.5t64.5 -173.5q0 -109 -64 -173.5t-173 -64.5q-127 0 -191 85q-35 47 -48 104q-13 56 -13 165q0 199 72.5 306.5t209.5 107.5q89 0 165 -36l-6 -84q-70 37 -155 37q-187 0 -192 -275q61 64 157 64zM327 73q71 0 110.5 42t39.5 115q0 72 -41 113
t-110 41q-72 0 -116 -50t-34 -123l1 -5q7 -46 33 -82q40 -51 117 -51z" />
    <glyph glyph-name="seven.tnum" horiz-adv-x="650" 
d="M567 748v-61l-371 -687h-100l360 666h-378v82h489z" />
    <glyph glyph-name="eight.tnum" horiz-adv-x="650" 
d="M325 758q103 0 164 -57q61 -55 61 -143q0 -124 -102 -161q122 -47 122 -185q0 -101 -65 -161.5t-180 -60.5q-116 0 -181 62q-64 61 -64 160q0 138 122 185q-102 39 -102 161q0 88 61 143q61 57 164 57zM325 675q-60 0 -96.5 -33.5t-36.5 -86.5q0 -55 34 -88t99 -33
q63 0 98 33q35 35 35 88q0 54 -37 87t-96 33zM171 215q0 -66 40.5 -104t112.5 -38t113 38q41 39 41 104t-42 101q-40 37 -112 37q-71 0 -112 -37t-41 -101z" />
    <glyph glyph-name="nine.tnum" horiz-adv-x="650" 
d="M508 673q33 -45 47 -105q14 -61 14 -164q0 -199 -72.5 -306.5t-209.5 -107.5q-89 0 -165 36l6 84q70 -37 155 -37q188 0 193 276q-62 -65 -158 -65q-109 0 -173.5 62.5t-64.5 173.5q0 110 64 174t174 64q126 0 190 -85zM324 364q73 0 116 49q44 51 34 124l-1 5
q-7 46 -33 82q-40 51 -117 51q-71 0 -110.5 -42t-39.5 -115q0 -72 41 -113t110 -41z" />
    <glyph glyph-name="zero.dnom" horiz-adv-x="377" 
d="M345 213q0 -103 -41.5 -161t-113.5 -58t-115 57q-43 58 -43 162q0 105 43 161q43 58 115 58t113.5 -58.5t41.5 -160.5zM189 372q-42 0 -65.5 -40.5t-23.5 -118.5q0 -77 23.5 -118t65.5 -41q41 0 64.5 41t23.5 118t-23.5 118t-64.5 41z" />
    <glyph glyph-name="one.dnom" horiz-adv-x="236" 
d="M187 426v-426h-67v351l-97 -55v68l107 62h57z" />
    <glyph glyph-name="two.dnom" horiz-adv-x="317" 
d="M147 432q66 0 103.5 -32.5t37.5 -91.5q0 -55 -31 -109q-11 -21 -38 -49q-23 -26 -42 -43l-51 -47h166v-60h-264v42l17 14q91 81 133 131q44 53 44 110q0 36 -20.5 55.5t-56.5 19.5q-55 0 -105 -32l-3 64q50 28 110 28z" />
    <glyph glyph-name="three.dnom" horiz-adv-x="314" 
d="M135 432q64 0 102.5 -31.5t38.5 -85.5q0 -66 -65 -93q76 -26 76 -102q0 -58 -40.5 -92t-109.5 -34q-59 0 -104 22l2 63q47 -26 96 -26q42 0 65 18.5t23 51.5t-23 51.5t-62 18.5h-34v56h33q34 0 55 16t21 45q0 30 -20.5 46.5t-57.5 16.5q-43 0 -90 -27l-2 63q44 23 96 23z
" />
    <glyph glyph-name="four.dnom" horiz-adv-x="354" 
d="M194 426l-109 -274h121v122h67v-122h68v-55h-68v-97h-67v97h-187v54l106 275h69z" />
    <glyph glyph-name="five.dnom" horiz-adv-x="327" 
d="M160 261q61 0 100.5 -35t39.5 -94q0 -62 -43 -100t-114 -38q-59 0 -100 16l2 60q43 -18 94 -18q44 0 68.5 20t24.5 57q0 36 -24.5 56.5t-66.5 20.5q-55 0 -95 -22v242h226v-60h-159v-110q25 5 47 5z" />
    <glyph glyph-name="six.dnom" horiz-adv-x="343" 
d="M179 266q63 0 100.5 -36.5t37.5 -99.5t-37 -99.5t-102 -36.5q-69 0 -106 45q-41 49 -41 163q0 109 44.5 169.5t127.5 60.5q47 0 91 -18l-4 -59q-45 17 -81 17q-105 0 -110 -134q34 28 80 28zM175 54q36 0 54.5 21t18.5 58q0 78 -74 78q-35 0 -57 -24t-18 -61
q5 -26 15 -42q19 -28 61 -30z" />
    <glyph glyph-name="seven.dnom" horiz-adv-x="322" 
d="M309 426v-44l-200 -382h-75l193 366h-210v60h292z" />
    <glyph glyph-name="eight.dnom" horiz-adv-x="351" 
d="M307 313q0 -60 -52 -87q64 -27 64 -101q0 -61 -38 -96t-106 -35t-106 35.5t-38 95.5q0 75 65 101q-53 26 -53 87q0 53 36 86t96 33t96 -33t36 -86zM175 373q-30 0 -49.5 -17.5t-19.5 -45.5t18.5 -44.5t50.5 -16.5t50.5 16.5t18.5 44.5q0 29 -19 46t-50 17zM99 123
q0 -31 21 -50t55 -19q36 0 56.5 19t20.5 50q0 33 -20.5 51.5t-56.5 18.5q-35 0 -55.5 -18.5t-20.5 -51.5z" />
    <glyph glyph-name="nine.dnom" horiz-adv-x="343" 
d="M271 388q40 -49 40 -164q0 -109 -43.5 -169.5t-127.5 -60.5q-48 0 -91 18l4 59q45 -17 82 -17q103 0 110 135q-35 -29 -81 -29q-63 0 -100.5 36.5t-37.5 99.5t37 99.5t101 36.5q69 0 107 -44zM169 215q36 0 57 23.5t17 59.5v2q-1 22 -14 42q-22 30 -61 30q-36 0 -55 -21
t-19 -58t20 -57.5t55 -20.5z" />
    <glyph glyph-name="zero.numr" horiz-adv-x="377" 
d="M345 534q0 -103 -41.5 -161t-113.5 -58t-115 57q-43 58 -43 162q0 105 43 161q43 58 115 58t113.5 -58.5t41.5 -160.5zM189 693q-42 0 -65.5 -40.5t-23.5 -118.5q0 -77 23.5 -118t65.5 -41q41 0 64.5 41t23.5 118t-23.5 118t-64.5 41z" />
    <glyph glyph-name="one.numr" horiz-adv-x="236" 
d="M187 748v-426h-67v351l-97 -55v68l107 62h57z" />
    <glyph glyph-name="two.numr" horiz-adv-x="317" 
d="M147 753q66 0 103.5 -32.5t37.5 -91.5q0 -55 -31 -109q-11 -21 -38 -49q-23 -26 -42 -43l-51 -47h166v-60h-264v42l17 14q91 81 133 131q44 53 44 110q0 36 -20.5 55.5t-56.5 19.5q-55 0 -105 -32l-3 64q50 28 110 28z" />
    <glyph glyph-name="three.numr" horiz-adv-x="314" 
d="M135 753q64 0 102.5 -31.5t38.5 -85.5q0 -66 -65 -93q76 -26 76 -102q0 -58 -40.5 -92t-109.5 -34q-59 0 -104 22l2 63q47 -26 96 -26q42 0 65 18.5t23 51.5t-23 51.5t-62 18.5h-34v56h33q34 0 55 16t21 45q0 30 -20.5 46.5t-57.5 16.5q-43 0 -90 -27l-2 63q44 23 96 23z
" />
    <glyph glyph-name="four.numr" horiz-adv-x="354" 
d="M194 747l-109 -274h121v122h67v-122h68v-55h-68v-97h-67v97h-187v54l106 275h69z" />
    <glyph glyph-name="five.numr" horiz-adv-x="327" 
d="M160 583q61 0 100.5 -35t39.5 -94q0 -62 -43 -100t-114 -38q-59 0 -100 16l2 60q44 -18 94 -18q44 0 68.5 20t24.5 57q0 36 -24.5 56.5t-66.5 20.5q-55 0 -95 -22v242h226v-60h-159v-110q25 5 47 5z" />
    <glyph glyph-name="six.numr" horiz-adv-x="343" 
d="M179 587q63 0 100.5 -36.5t37.5 -99.5t-37 -99.5t-102 -36.5q-69 0 -106 45q-41 49 -41 163q0 109 44.5 169.5t127.5 60.5q47 0 91 -18l-4 -59q-45 17 -81 17q-105 0 -110 -134q34 28 80 28zM175 375q36 0 54.5 21t18.5 58q0 78 -74 78q-35 0 -57 -24t-18 -61
q5 -25 15 -42q19 -28 61 -30z" />
    <glyph glyph-name="seven.numr" horiz-adv-x="322" 
d="M309 748v-44l-200 -382h-75l193 366h-210v60h292z" />
    <glyph glyph-name="eight.numr" horiz-adv-x="351" 
d="M307 634q0 -60 -52 -87q64 -27 64 -101q0 -61 -38 -96t-106 -35t-106 35.5t-38 95.5q0 75 65 101q-53 26 -53 87q0 53 36 86t96 33t96 -33t36 -86zM175 694q-30 0 -49.5 -17.5t-19.5 -45.5t18.5 -44.5t50.5 -16.5t50.5 16.5t18.5 44.5q0 29 -19 46t-50 17zM99 444
q0 -31 21 -50t55 -19q36 0 56.5 19t20.5 50q0 33 -20.5 51.5t-56.5 18.5q-35 0 -55.5 -18.5t-20.5 -51.5z" />
    <glyph glyph-name="nine.numr" horiz-adv-x="343" 
d="M271 709q40 -49 40 -164q0 -109 -43.5 -169.5t-127.5 -60.5q-48 0 -91 18l4 59q45 -17 82 -17q103 0 110 135q-35 -29 -81 -29q-63 0 -100.5 36.5t-37.5 99.5t37 99.5t101 36.5q69 0 107 -44zM169 536q36 0 57 23.5t17 59.5v2q-1 22 -14 42q-22 30 -61 30q-36 0 -55 -21
t-19 -58t20 -57.5t55 -20.5z" />
    <glyph glyph-name="exclamdown.cap" horiz-adv-x="279" 
d="M141 639q-25 0 -42.5 17.5t-17.5 42.5q0 24 17.5 41.5t42.5 17.5q24 0 41 -17.5t17 -41.5q0 -25 -17 -42.5t-41 -17.5zM90 0l5 545h91l5 -545h-101z" />
    <glyph glyph-name="periodcentered.cap" horiz-adv-x="217" 
d="M107 472q25 0 42.5 -17.5t17.5 -42.5q0 -24 -17.5 -41.5t-42.5 -17.5q-24 0 -41 17.5t-17 41.5q0 25 17 42.5t41 17.5z" />
    <glyph glyph-name="questiondown.cap" horiz-adv-x="475" 
d="M256 639q-25 0 -42.5 17.5t-17.5 42.5q0 24 17.5 41.5t42.5 17.5q24 0 41 -17.5t17 -41.5q0 -25 -17 -42.5t-41 -17.5zM262 -10q-108 0 -176 57q-66 57 -66 148q0 62 25 104t81 83q28 22 50 42q35 33 35 89q0 2 -2 32h90q2 -32 2 -35q-2 -58 -22 -89q-20 -29 -75 -74
q-48 -35 -69.5 -68t-21.5 -77q0 -60 41.5 -95t115.5 -35q91 0 170 55l6 -87q-83 -50 -184 -50z" />
    <glyph glyph-name="braceleft.cap" horiz-adv-x="251" 
d="M228 770v-73h-6q-50 0 -66 -38.5t0 -122.5q12 -67 7 -106q-6 -50 -54 -57q48 -11 54 -58q5 -39 -7 -106q-16 -85 0 -123t66 -38h6v-73h-6q-91 0 -132.5 59.5t-18.5 166.5q21 63 12 99t-55 36h-8v72h8q46 0 55 36.5t-12 98.5q-23 107 18.5 167t132.5 60h6z" />
    <glyph glyph-name="braceright.cap" horiz-adv-x="251" 
d="M23 697v73h6q92 0 133 -60t18 -167q-13 -56 -13 -83t12.5 -39.5t43.5 -12.5h8v-72h-8q-37 0 -51 -23q-6 -9 -6 -29q1 -25 14 -83q23 -107 -18 -166.5t-133 -59.5h-6v73h6q50 0 66 38t0 123q-12 67 -7 106q6 47 54 58q-48 7 -54 57q-5 39 7 106q16 84 0 122.5t-66 38.5h-6
z" />
    <glyph glyph-name="bracketleft.cap" horiz-adv-x="264" 
d="M242 770v-73h-98v-649h98v-73h-184v795h184z" />
    <glyph glyph-name="bracketright.cap" horiz-adv-x="271" 
d="M207 770v-795h-184v73h98v649h-98v73h184z" />
    <glyph glyph-name="parenleft.cap" horiz-adv-x="255" 
d="M161 770l75 -27q-110 -175 -110 -381q0 -205 110 -380l-75 -27q-121 181 -121 407q0 227 121 408z" />
    <glyph glyph-name="parenright.cap" horiz-adv-x="253" 
d="M20 743l75 27q121 -179 121 -408q0 -228 -121 -407l-75 27q110 175 110 380q0 206 -110 381z" />
    <glyph glyph-name="emdash.cap" horiz-adv-x="795" 
d="M750 417v-81h-705v81h705z" />
    <glyph glyph-name="endash.cap" horiz-adv-x="563" 
d="M518 417v-81h-473v81h473z" />
    <glyph glyph-name="hyphen.cap" horiz-adv-x="403" 
d="M358 417v-81h-313v81h313z" />
    <glyph glyph-name="guillemotleft.cap" horiz-adv-x="531" 
d="M194 602l68 -43l-149 -176l149 -176l-68 -44l-179 220zM443 602l67 -43l-149 -176l149 -176l-67 -44l-180 220z" />
    <glyph glyph-name="guillemotright.cap" horiz-adv-x="531" 
d="M88 602l180 -219l-180 -220l-68 44l150 176l-150 176zM336 602l179 -219l-179 -220l-68 44l149 176l-149 176z" />
    <glyph glyph-name="guilsinglleft.cap" horiz-adv-x="306" 
d="M225 601l62 -55l-167 -163l167 -163l-62 -55l-210 218z" />
    <glyph glyph-name="guilsinglright.cap" horiz-adv-x="306" 
d="M82 601l210 -218l-210 -218l-62 55l167 163l-167 163z" />
    <glyph glyph-name="emdash_guilsinglright" horiz-adv-x="852" 
d="M587 496l230 -236l-230 -235l-60 55l147 145h-629v72h627l-145 144z" />
    <glyph glyph-name="endash_guilsinglright" horiz-adv-x="591" 
d="M326 496l230 -236l-230 -235l-60 55l146 145h-367v72h366l-145 144z" />
    <glyph glyph-name="guilsinglleft_emdash" horiz-adv-x="852" 
d="M265 496l61 -55l-145 -144h626v-72h-629l148 -145l-61 -55l-230 235z" />
    <glyph glyph-name="guilsinglleft_endash" horiz-adv-x="591" 
d="M265 496l61 -55l-145 -144h365v-72h-368l148 -145l-61 -55l-230 235z" />
    <glyph glyph-name="at.cap" horiz-adv-x="802" 
d="M401 723q152 0 252 -100q100 -99 100 -250q0 -97 -39.5 -149.5t-107.5 -52.5q-65 0 -89 50q-56 -55 -133 -55t-128 53t-51 154q0 100 50 154t132 54q69 0 116 -48v40h69v-294q0 -51 48 -51q35 0 56 38t21 107q0 128 -85 213q-84 85 -211 85q-129 0 -213 -85
q-84 -86 -84 -213q0 -130 84 -214q86 -83 209 -83q108 0 189 45l14 -52q-86 -46 -203 -46q-148 0 -249 98q-99 99 -99 252q0 152 99 251q100 99 253 99zM397 523q-55 0 -88 -39.5t-33 -110.5q0 -72 33 -111t89 -39q62 0 104 49v202q-43 49 -105 49z" />
    <glyph glyph-name="acute.case" horiz-adv-x="306" 
d="M286 938l-187 -141h-81l148 141h120z" />
    <glyph glyph-name="breve.case" horiz-adv-x="353" 
d="M262 940h71q0 -63 -42 -98t-115 -35q-72 0 -114 35t-42 98h71q0 -34 23 -53.5t62 -19.5t62.5 19.5t23.5 53.5z" />
    <glyph glyph-name="caron.case" horiz-adv-x="356" 
d="M338 940l-119 -143h-82l-119 143h74l86 -90l85 90h75z" />
    <glyph glyph-name="circumflex.case" horiz-adv-x="356" 
d="M219 940l119 -143h-75l-85 90l-86 -90h-74l119 143h82z" />
    <glyph glyph-name="dieresis.case" horiz-adv-x="294" 
d="M73 922q21 0 36.5 -15t15.5 -37q0 -21 -15.5 -36t-36.5 -15q-22 0 -37 14.5t-15 36.5t15 37t37 15zM184 907q16 15 38 15t36 -15q15 -15 15 -37t-15 -37q-14 -14 -36 -14t-38 14q-15 15 -15 37t15 37z" />
    <glyph glyph-name="dotaccent.case" horiz-adv-x="155" 
d="M77 927q24 0 41 -17t17 -41q0 -39 -36 -53.5t-63 12.5q-28 25 -11.5 63t52.5 36z" />
    <glyph glyph-name="grave.case" horiz-adv-x="306" 
d="M140 938l148 -141h-82l-187 141h121z" />
    <glyph glyph-name="hungarumlaut.case" horiz-adv-x="346" 
d="M159 948l-74 -148h-68l60 148h82zM329 948l-74 -148h-68l60 148h82z" />
    <glyph glyph-name="macron.case" horiz-adv-x="294" 
d="M278 903v-66h-263v66h263z" />
    <glyph glyph-name="ring.case" horiz-adv-x="247" 
d="M51 962q30 27 73 27t73 -27t30 -69q0 -41 -30 -70q-30 -28 -73 -28t-73 28q-30 29 -30 70q0 42 30 69zM125 943q-23 0 -37.5 -13.5t-14.5 -36.5t14.5 -37t37.5 -14q22 0 35.5 14t13.5 37t-13.5 36.5t-35.5 13.5z" />
    <glyph glyph-name="tilde.case" horiz-adv-x="361" 
d="M111 938q33 0 73 -31t63 -31q48 0 49 55h50q3 -51 -22.5 -85.5t-67.5 -34.5q-34 0 -74 30q-40 31 -62 31q-48 0 -49 -54h-50q-3 51 22.5 85.5t67.5 34.5z" />
    <glyph glyph-name="anneau" horiz-adv-x="583" 
d="M292 759q111 0 185 -73q75 -74 75 -180t-75 -180q-75 -72 -185 -72q-112 0 -187 72q-75 74 -75 180q0 108 75 180q74 73 187 73zM452 664q-64 63 -161 63t-161 -63t-64 -158t64 -158q65 -62 161 -62t161 62q64 63 64 158t-64 158z" />
    <glyph glyph-name="_509" horiz-adv-x="600" 
 />
    </font>
</defs>
</svg>
