<?xml version="1.0" standalone="no"?>
<!DOCTYPE svg PUBLIC "-//W3C//DTD SVG 1.1//EN" "http://www.w3.org/Graphics/SVG/1.1/DTD/svg11.dtd" >
<svg>
<metadata>
Created by FontForge 20120731 at Fri Jul 10 13:22:10 2015
 By ,,,
Copyright (c) 2013 by Nico Inosanto. All rights reserved.
</metadata>
<defs>
<font id="Revisal-Italic" horiz-adv-x="602" >
  <font-face 
    font-family="Revisal-Italic"
    font-weight="400"
    font-style="italic"
    font-stretch="normal"
    units-per-em="1000"
    panose-1="0 0 5 0 0 0 0 0 0 0"
    ascent="747"
    descent="-253"
    x-height="510"
    cap-height="748"
    bbox="-246 -306 1234 1063"
    underline-thickness="50"
    underline-position="-50"
    slope="-8"
    unicode-range="U+000D-FB02"
  />
<missing-glyph horiz-adv-x="703" 
d="M692 748l-106 -748h-541l106 748h541zM569 686h-313l119 -256zM202 639l-76 -531l204 265zM611 634l-200 -261l124 -260zM363 317l-191 -254h311z" />
    <glyph glyph-name="fi" unicode="fi" horiz-adv-x="573" 
d="M375 786q93 0 152 -49l-32 -72q-44 44 -118 44q-110 0 -128 -121l-10 -78h282l-71 -510h-87l62 437h-197l-62 -437h-86l62 437h-100l11 73h99l12 86q25 190 211 190z" />
    <glyph glyph-name="f_j" unicode="fj" horiz-adv-x="573" 
d="M375 786q93 0 152 -49l-32 -72q-44 44 -118 44q-110 0 -128 -121l-10 -78h283l-84 -601q-12 -86 -59.5 -130t-121.5 -44q-54 0 -91 19l21 75q26 -17 67 -17q85 0 98 100l74 525h-198l-62 -437h-86l62 437h-100l11 73h99l12 86q25 190 211 190z" />
    <glyph glyph-name=".notdef" horiz-adv-x="703" 
d="M692 748l-106 -748h-541l106 748h541zM569 686h-313l119 -256zM202 639l-76 -531l204 265zM611 634l-200 -261l124 -260zM363 317l-191 -254h311z" />
    <glyph glyph-name=".null" horiz-adv-x="0" 
 />
    <glyph glyph-name="nonmarkingreturn" horiz-adv-x="333" 
 />
    <glyph glyph-name="CR" unicode="&#xd;" horiz-adv-x="600" 
 />
    <glyph glyph-name="space" unicode=" " horiz-adv-x="235" 
 />
    <glyph glyph-name="exclam" unicode="!" horiz-adv-x="279" 
d="M262 748l-82 -545h-91l73 545h100zM118 109q26 0 42 -19t12 -45q-3 -23 -21 -39t-41 -16q-26 0 -42 18.5t-13 44.5q3 24 21.5 40t41.5 16z" />
    <glyph glyph-name="quotedbl" unicode="&#x22;" horiz-adv-x="332" 
d="M202 742l-43 -230h-70l23 230h90zM353 742l-43 -230h-70l22 230h91z" />
    <glyph glyph-name="numbersign" unicode="#" horiz-adv-x="635" 
d="M625 748l-79 -207h122l-26 -69h-122l-75 -198h129l-27 -69h-129l-77 -205h-72l78 205h-153l-78 -205h-71l78 205h-122l26 69h122l74 198h-127l27 69h127l79 207h71l-78 -207h152l78 207h73zM447 472h-152l-75 -198h153z" />
    <glyph glyph-name="dollar" unicode="$" horiz-adv-x="655" 
d="M406 676q-171 0 -189 -119q-9 -59 23 -83q33 -24 118 -48l19 -5q121 -31 171 -80t37 -146q-11 -86 -78.5 -140t-174.5 -64l-14 -109h-73l15 108q-130 4 -220 55l19 88q89 -61 228 -61q88 0 142.5 31.5t63.5 92.5q10 65 -37 96q-26 16 -54 27q-31 11 -80 24
q-105 28 -156 69q-56 47 -42 150q12 84 74.5 135t168.5 59l15 109h73l-15 -108q100 -6 175 -43l-20 -84q-83 46 -189 46z" />
    <glyph glyph-name="percent" unicode="%" horiz-adv-x="840" 
d="M267 757q71 0 112 -51q41 -50 30 -130q-11 -81 -59.5 -128t-120.5 -47q-73 0 -112.5 49.5t-29.5 131.5q10 80 59.5 127.5t120.5 47.5zM796 748l-634 -748h-85l633 748h86zM150 577q-7 -53 16 -84t66 -31q45 0 75 32t38 88q7 54 -15.5 84.5t-66.5 30.5q-45 0 -75.5 -32
t-37.5 -88zM644 347q72 0 113 -51q41 -50 30 -130q-11 -81 -59.5 -128t-120.5 -47q-73 0 -112.5 50t-29.5 131q10 80 59 127.5t120 47.5zM528 168q-7 -53 16 -84.5t66 -31.5q45 0 75 32t38 88q7 54 -15.5 84.5t-66.5 30.5t-75 -32.5t-38 -86.5z" />
    <glyph glyph-name="ampersand" unicode="&#x26;" horiz-adv-x="679" 
d="M613 422l63 -53q-50 -117 -105 -195l86 -83l-14 -102l-124 121q-111 -118 -252 -118q-117 0 -175 61q-57 62 -44 158q11 67 49.5 115.5t112.5 94.5q-56 74 -44 152q12 88 74.5 136.5t158.5 48.5q78 0 141 -25l-9 -77q-61 24 -126 24q-62 0 -101.5 -30t-47.5 -85
q-3 -21 1 -39q8 -40 28 -65l22 -28l28 -30l27 -28l152 -146q52 75 99 193zM274 70q100 0 189 95l-161 157l-44 45q-104 -65 -117 -157q-9 -64 27 -102t106 -38z" />
    <glyph glyph-name="quotesingle" unicode="'" horiz-adv-x="181" 
d="M205 742l-43 -230h-70l22 230h91z" />
    <glyph glyph-name="parenleft" unicode="(" horiz-adv-x="255" 
d="M259 730l72 -31q-136 -176 -164 -384q-28 -204 55 -378l-75 -22q-97 180 -65 410q33 229 177 405z" />
    <glyph glyph-name="parenright" unicode=")" horiz-adv-x="255" 
d="M85 703l75 23q97 -182 64 -411q-31 -226 -176 -404l-72 30q136 176 164 384q28 204 -55 378z" />
    <glyph glyph-name="asterisk" unicode="*" horiz-adv-x="333" 
d="M261 757l-19 -124l122 40l10 -47l-124 -38l62 -98l-44 -30l-57 100l-86 -101l-37 31l86 98l-113 38l23 47l112 -40l16 124h49z" />
    <glyph glyph-name="plus" unicode="+" horiz-adv-x="546" 
d="M364 607l-27 -198h198l-11 -79h-199l-28 -203h-84l28 203h-198l11 79h199l28 198h83z" />
    <glyph glyph-name="comma" unicode="," horiz-adv-x="212" 
d="M81 108q28 0 41.5 -19.5t9.5 -51.5q-18 -123 -137 -186l1 40q58 39 75 101q-24 2 -38.5 19.5t-10.5 41.5q3 23 20 39t39 16z" />
    <glyph glyph-name="hyphen" unicode="-" horiz-adv-x="403" 
d="M364 302l-11 -81h-313l12 81h312z" />
    <glyph glyph-name="period" unicode="." horiz-adv-x="217" 
d="M87 109q26 0 42 -19t13 -45q-4 -23 -22 -39t-41 -16q-26 0 -42 18.5t-12 44.5q3 24 21 40t41 16z" />
    <glyph glyph-name="slash" unicode="/" horiz-adv-x="366" 
d="M426 748l-370 -815h-91l370 815h91z" />
    <glyph glyph-name="zero" unicode="0" horiz-adv-x="644" 
d="M414 757q126 0 184 -102q60 -103 35 -286q-25 -181 -111 -280t-206 -99q-127 0 -186.5 102.5t-33.5 286.5q26 181 111 279q85 99 207 99zM409 675q-84 0 -142 -79.5t-79 -226.5q-20 -142 14.5 -219t116.5 -77q84 0 142 79.5t79 226.5q21 141 -14 218.5t-117 77.5z" />
    <glyph glyph-name="one" unicode="1" horiz-adv-x="378" 
d="M357 748l-105 -748h-91l91 645l-180 -93l11 89l200 107h74z" />
    <glyph glyph-name="two" unicode="2" horiz-adv-x="540" 
d="M316 758q112 0 167.5 -59t40.5 -163q-4 -39 -20 -78q-31 -79 -82 -136q-17 -20 -55 -60q-23 -23 -70 -61q-63 -51 -73 -58l-81 -62l326 1l-12 -82h-451l9 76q182 138 256 205q146 134 162 253q9 66 -23.5 103.5t-99.5 37.5q-101 0 -193 -55l2 89q92 49 197 49z" />
    <glyph glyph-name="three" unicode="3" horiz-adv-x="517" 
d="M277 758q108 0 165 -57q58 -55 44 -153q-7 -55 -39.5 -96.5t-82.5 -63.5q53 -22 80.5 -69t18.5 -112q-15 -101 -90 -159t-189 -58q-101 0 -182 40l17 86q73 -43 164 -43q76 0 128 38t61 103t-30 100.5t-115 35.5h-62l12 78h54q65 0 110.5 33t54.5 88q7 59 -27 92.5
t-98 33.5q-86 0 -169 -47l5 90q86 40 170 40z" />
    <glyph glyph-name="four" unicode="4" horiz-adv-x="600" 
d="M383 748l-260 -479h226l30 208h91l-30 -208h139l-11 -82h-139l-26 -187h-91l26 187h-320l9 69l260 492h96z" />
    <glyph glyph-name="five" unicode="5" horiz-adv-x="559" 
d="M537 667h-298l-31 -219q39 12 85 12q107 0 168 -63q62 -63 47 -172q-13 -106 -94 -171q-79 -64 -198 -64q-99 0 -174 31l20 87q65 -35 153 -35q84 0 138.5 42t64.5 115q10 70 -29 109.5t-115 39.5q-84 0 -170 -39l55 408h390z" />
    <glyph glyph-name="six" unicode="6" horiz-adv-x="588" 
d="M408 675q-91 0 -150.5 -68.5t-82.5 -197.5q68 56 161 56q104 0 163 -65q60 -65 44 -176q-15 -107 -86 -171q-71 -63 -178 -63q-128 0 -180 88q-29 47 -35 103q-6 57 9 167q27 196 114 303t221 107q87 0 163 -35l-22 -81q-67 33 -141 33zM321 384q-71 0 -122 -51
q-50 -50 -50 -123q-1 -46 22 -85q31 -52 111 -52q72 0 116.5 42.5t53.5 118.5q9 69 -27 109.5t-104 40.5z" />
    <glyph glyph-name="seven" unicode="7" horiz-adv-x="535" 
d="M586 748l-8 -60l-464 -688h-106l452 667h-375l11 81h490z" />
    <glyph glyph-name="eight" unicode="8" horiz-adv-x="599" 
d="M377 758q103 0 158 -58t43 -145q-16 -121 -116 -162q49 -21 73 -69t15 -116q-15 -101 -84 -159.5t-182 -58.5q-118 0 -177 63q-57 63 -45 163q17 138 138 184q-85 40 -70 163q12 84 78 140q67 55 169 55zM369 675q-59 0 -100.5 -33t-48.5 -86q-8 -56 23 -89.5t94 -33.5
q62 0 102 33t48 88q7 55 -25.5 88t-92.5 33zM325 354q-71 0 -117 -37t-55 -101q-9 -66 27 -105t108 -39q71 0 116.5 38t54.5 104q10 64 -27 102t-107 38z" />
    <glyph glyph-name="nine" unicode="9" horiz-adv-x="588" 
d="M528 670q29 -47 35 -104q6 -56 -9 -166q-27 -196 -113.5 -303t-220.5 -107q-88 0 -164 35l22 82q65 -34 141 -34q91 0 151 68.5t82 197.5q-68 -56 -161 -56q-104 0 -164 64q-59 65 -43 177q15 107 86 171q71 63 178 63q128 0 180 -88zM306 364q70 0 122 50q51 51 51 124
q0 50 -23 85q-31 52 -111 52q-72 0 -116.5 -43t-52.5 -118q-10 -69 26 -109.5t104 -40.5z" />
    <glyph glyph-name="colon" unicode=":" horiz-adv-x="217" 
d="M126 519q26 0 42.5 -19t12.5 -45q-3 -23 -21 -38.5t-41 -15.5q-26 0 -42.5 18.5t-12.5 44.5q3 23 21 39t41 16zM68 109q27 0 43 -19t12 -45q-3 -23 -21 -39t-41 -16q-26 0 -42.5 18.5t-12.5 44.5q3 24 21 40t41 16z" />
    <glyph glyph-name="semicolon" unicode=";" horiz-adv-x="217" 
d="M122 519q26 0 42.5 -19t12.5 -45q-3 -23 -21 -38.5t-41 -15.5q-26 0 -42.5 18.5t-12.5 44.5q3 23 21 39t41 16zM63 108q28 0 41.5 -19.5t9.5 -51.5q-18 -123 -137 -186l1 40q57 39 75 101q-24 2 -38.5 19.5t-10.5 41.5q3 23 20 39t39 16z" />
    <glyph glyph-name="less" unicode="&#x3c;" horiz-adv-x="518" 
d="M533 601l-11 -98l-308 -134l269 -135l-14 -97l-425 232z" />
    <glyph glyph-name="equal" unicode="=" horiz-adv-x="546" 
d="M552 529l-11 -82h-481l12 82h480zM518 289l-11 -81h-481l11 81h481z" />
    <glyph glyph-name="greater" unicode="&#x3e;" horiz-adv-x="518" 
d="M83 601l424 -232l-488 -232l11 98l307 134l-268 135z" />
    <glyph glyph-name="question" unicode="?" horiz-adv-x="475" 
d="M280 758q111 0 170 -58q60 -59 47 -151q-9 -59 -39 -100t-90 -85q-49 -35 -57 -41q-42 -34 -49 -92q-3 -14 -3 -31l-90 5q0 2 4 37q7 55 31 86q25 31 85 76q105 63 115 147q8 58 -27.5 92.5t-106.5 34.5q-92 0 -182 -57l3 88q88 49 189 49zM196 109q26 0 42 -19t12 -45
q-3 -23 -21 -39t-41 -16q-26 0 -42.5 18.5t-12.5 44.5q3 24 21.5 40t41.5 16z" />
    <glyph glyph-name="at" unicode="@" horiz-adv-x="802" 
d="M465 596q156 0 242 -101t65 -253q-14 -97 -59 -147.5t-111 -50.5q-68 0 -82 48q-65 -53 -138 -53q-81 0 -125 56t-30 156q14 98 69 150.5t135 52.5q78 0 117 -48l6 40h66l-41 -298q-8 -47 41 -47q35 0 61.5 39.5t35.5 109.5q18 127 -53 210t-200 83q-132 0 -227 -85
q-96 -84 -114 -216q-17 -128 55 -210t194 -82q101 0 187 44l19 -52q-93 -46 -207 -46q-150 0 -237 100q-87 99 -66 254q23 153 133 249q112 97 264 97zM441 396q-56 0 -95 -39t-48 -114q-11 -70 17 -108.5t82 -38.5q64 0 114 49l29 205q-37 46 -99 46z" />
    <glyph glyph-name="A" unicode="A" horiz-adv-x="744" 
d="M490 748l198 -748h-95l-56 212h-334l-116 -212h-103l409 748h97zM428 628l-184 -337h272z" />
    <glyph glyph-name="B" unicode="B" horiz-adv-x="677" 
d="M54 0l106 748h254q110 0 167.5 -54t42.5 -150q-17 -113 -121 -156q60 -16 88 -62.5t17 -119.5q-14 -103 -87 -154.5t-195 -51.5h-272zM398 667h-158l-35 -243h161q150 0 166 123q7 60 -27 90t-107 30zM372 343h-179l-36 -261h170q82 0 131.5 34t58.5 99t-27.5 96.5
t-117.5 31.5z" />
    <glyph glyph-name="C" unicode="C" horiz-adv-x="659" 
d="M498 758q119 0 205 -56l-25 -83q-71 57 -175 57q-121 0 -210 -84q-87 -83 -107 -222q-19 -134 44 -217q64 -81 181 -81q116 0 207 61l-1 -90q-95 -53 -214 -53q-154 0 -244 105q-90 107 -65 284q25 175 139 277t265 102z" />
    <glyph glyph-name="D" unicode="D" horiz-adv-x="761" 
d="M54 0l106 748h246q168 0 255 -97q88 -95 61 -283q-26 -184 -137 -276q-112 -92 -279 -92h-252zM400 667h-160l-83 -585h156q125 0 211 74q87 74 106 222q21 144 -40 216.5t-190 72.5z" />
    <glyph glyph-name="E" unicode="E" horiz-adv-x="599" 
d="M628 748l-11 -81h-377l-35 -240h334l-11 -80h-334l-37 -265h378l-12 -82h-469l106 748h468z" />
    <glyph glyph-name="F" unicode="F" horiz-adv-x="589" 
d="M629 748l-12 -81h-377l-35 -245h316l-12 -82h-316l-48 -340h-91l106 748h469z" />
    <glyph glyph-name="G" unicode="G" horiz-adv-x="721" 
d="M503 758q120 0 207 -57l-24 -82q-72 57 -179 57q-122 0 -212 -84q-89 -83 -109 -222q-19 -136 42 -217q62 -81 175 -81q82 0 161 40l27 173h-182l11 80h268l-40 -309q-124 -66 -253 -66q-150 0 -238 105q-87 107 -62 284q24 175 139 277q116 102 269 102z" />
    <glyph glyph-name="H" unicode="H" horiz-adv-x="753" 
d="M732 748l-105 -748h-91l49 347h-391l-49 -347h-91l106 748h90l-44 -319h390l46 319h90z" />
    <glyph glyph-name="I" unicode="I" horiz-adv-x="271" 
d="M250 748l-105 -748h-91l106 748h90z" />
    <glyph glyph-name="J" unicode="J" horiz-adv-x="467" 
d="M361 748h91l-76 -537q-15 -107 -79.5 -164t-164.5 -57q-75 0 -137 32l14 83q53 -33 123 -33q59 0 102 40t52 105z" />
    <glyph glyph-name="K" unicode="K" horiz-adv-x="675" 
d="M697 748l-381 -370l307 -378h-113l-262 317l-65 -60l-38 -257h-91l106 748h90l-51 -362l373 362h125z" />
    <glyph glyph-name="L" unicode="L" horiz-adv-x="591" 
d="M250 748l-93 -666h375l-11 -82h-467l106 748h90z" />
    <glyph glyph-name="M" unicode="M" horiz-adv-x="990" 
d="M969 748l-106 -748h-90l79 558l-360 -558h-65l-202 559l-80 -559h-91l106 748h89l225 -617l401 617h94z" />
    <glyph glyph-name="N" unicode="N" horiz-adv-x="745" 
d="M724 748l-106 -748h-84l-306 583l-83 -583h-91l106 748h84l306 -582l83 582h91z" />
    <glyph glyph-name="O" unicode="O" horiz-adv-x="815" 
d="M498 758q160 0 246 -105q85 -105 60 -283q-24 -175 -136 -278q-111 -102 -268 -102q-160 0 -246 105q-85 106 -60 284q26 177 136 277q111 102 268 102zM494 676q-121 0 -204 -82q-84 -81 -104 -224q-20 -140 40 -219q61 -79 177 -79q121 0 205 81q84 83 105 227
q19 138 -42 217t-177 79z" />
    <glyph glyph-name="P" unicode="P" horiz-adv-x="649" 
d="M54 0l106 748h268q115 0 173.5 -60t42.5 -169q-15 -106 -88 -162.5t-187 -56.5h-181l-43 -300h-91zM416 667h-176l-41 -285h172q74 0 123 37.5t59 106.5t-26.5 105t-110.5 36z" />
    <glyph glyph-name="Q" unicode="Q" horiz-adv-x="815" 
d="M804 370q-27 -188 -151 -291l128 -199h-109l-96 149q-83 -39 -176 -39q-160 0 -246 105q-85 106 -60 284q26 177 136 277q111 102 268 102q160 0 246 -105q85 -105 60 -283zM531 100l-101 156l73 54l103 -159q88 86 107 229q19 138 -42 217t-177 79q-121 0 -204 -82
q-84 -81 -104 -224q-20 -140 40 -219q61 -79 177 -79q72 0 128 28z" />
    <glyph glyph-name="R" unicode="R" horiz-adv-x="679" 
d="M630 522q-23 -158 -166 -201l134 -321h-98l-128 305h-16h-168l-43 -305h-91l106 748h253q115 0 173.5 -59.5t43.5 -166.5zM538 527q10 68 -26.5 103.5t-109.5 35.5h-162l-40 -279h157q74 0 123 36.5t58 103.5z" />
    <glyph glyph-name="S" unicode="S" horiz-adv-x="655" 
d="M407 758q112 0 208 -44l-21 -84q-82 46 -188 46q-171 0 -189 -119q-7 -46 15 -76q12 -13 31 -23q27 -12 96 -32l18 -5q121 -31 171 -80t37 -146q-13 -96 -94 -151q-79 -55 -203 -55q-148 0 -248 56l19 88q88 -61 227 -61q89 0 143.5 31.5t63.5 92.5q9 63 -30 91
q-40 29 -142 56q-103 27 -155 69q-56 47 -42 150q12 91 86 143.5t197 52.5z" />
    <glyph glyph-name="T" unicode="T" horiz-adv-x="682" 
d="M735 748l-11 -81h-278l-95 -667h-91l94 667h-278l11 81h648z" />
    <glyph glyph-name="U" unicode="U" horiz-adv-x="766" 
d="M678 748h91l-66 -470q-20 -138 -109 -213t-227 -75q-141 0 -209.5 76.5t-49.5 216.5l66 465h91l-66 -469q-15 -101 30.5 -154t142.5 -53q101 0 163.5 55t77.5 158z" />
    <glyph glyph-name="V" unicode="V" horiz-adv-x="734" 
d="M784 748l-405 -748h-94l-195 748h97l161 -622l336 622h100z" />
    <glyph glyph-name="W" unicode="W" horiz-adv-x="1151" 
d="M1194 748l-370 -748h-93l-108 571l-272 -571h-93l-159 748h96l125 -624l288 624h74l110 -624l303 624h99z" />
    <glyph glyph-name="X" unicode="X" horiz-adv-x="691" 
d="M726 748l-297 -369l200 -379h-102l-170 318l-260 -318h-109l310 382l-190 366h102l160 -304l247 304h109z" />
    <glyph glyph-name="Y" unicode="Y" horiz-adv-x="692" 
d="M746 748l-346 -448l-44 -300h-90l42 301l-220 447h102l172 -357l275 357h109z" />
    <glyph glyph-name="Z" unicode="Z" horiz-adv-x="626" 
d="M652 748l-10 -72l-515 -594h442l-11 -82h-557l10 72l516 595h-418l11 81h532z" />
    <glyph glyph-name="bracketleft" unicode="[" horiz-adv-x="264" 
d="M307 718l-10 -73h-97l-92 -649h98l-10 -73h-184l111 795h184z" />
    <glyph glyph-name="backslash" unicode="\" horiz-adv-x="366" 
d="M169 748l140 -815h-89l-140 815h89z" />
    <glyph glyph-name="bracketright" unicode="]" horiz-adv-x="264" 
d="M273 718l-112 -795h-184l10 73h98l92 649h-98l9 73h185z" />
    <glyph glyph-name="asciicircum" unicode="^" horiz-adv-x="555" 
d="M346 762l194 -388h-96l-113 252l-185 -252h-100z" />
    <glyph glyph-name="underscore" unicode="_" horiz-adv-x="685" 
d="M604 0l-12 -81h-594l11 81h595z" />
    <glyph glyph-name="grave" unicode="`" horiz-adv-x="236" 
d="M191 786l76 -191h-67l-105 191h96z" />
    <glyph glyph-name="a" unicode="a" 
d="M331 518q93 0 143 -56l9 48h85l-71 -510h-77l5 50q-69 -60 -164 -60q-99 0 -154 69q-56 71 -38 200t90 193q73 66 172 66zM338 446q-71 0 -121 -50.5t-62 -144.5q-12 -90 23.5 -138.5t104.5 -48.5q83 0 145 61l38 262q-53 59 -128 59z" />
    <glyph glyph-name="b" unicode="b" horiz-adv-x="605" 
d="M161 777h86l-46 -313q67 54 156 54q99 0 155 -69q57 -67 39 -198q-18 -130 -91 -195q-74 -66 -172 -66q-97 0 -145 64l-12 -54h-80zM337 446q-83 0 -145 -62l-38 -262q53 -59 128 -59q71 0 121.5 51t62.5 145q11 90 -24.5 138.5t-104.5 48.5z" />
    <glyph glyph-name="c" unicode="c" horiz-adv-x="473" 
d="M344 518q82 0 140 -36l-18 -73q-52 37 -118 37q-78 0 -134 -54q-54 -53 -65 -143q-10 -84 29.5 -134.5t112.5 -50.5q70 0 135 41l-2 -79q-69 -36 -144 -36q-108 0 -171 72q-62 72 -47 193q13 121 94 192q82 71 188 71z" />
    <glyph glyph-name="d" unicode="d" 
d="M606 777l-109 -777h-77l5 50q-69 -60 -164 -60q-99 0 -154 69q-56 71 -38 200t90 193q73 66 172 66q91 0 144 -57l45 316h86zM338 446q-70 0 -120.5 -51.5t-62.5 -143.5q-12 -90 23.5 -138.5t104.5 -48.5q83 0 145 61l38 262q-53 59 -128 59z" />
    <glyph glyph-name="e" unicode="e" horiz-adv-x="525" 
d="M333 518q90 0 134 -43t40 -104q-6 -72 -71 -106q-85 -44 -288 -42q-8 -74 28 -116.5t109 -42.5q91 0 170 55v-79q-82 -50 -180 -50q-108 0 -167 71t-42 194q16 121 92 192t175 71zM419 375q2 33 -21.5 52t-68.5 19q-63 0 -110 -43.5t-61 -112.5q138 0 199 18.5t62 66.5z
" />
    <glyph glyph-name="f" unicode="f" horiz-adv-x="344" 
d="M359 783q40 0 62 -9l-12 -76q-16 8 -45 8q-46 0 -76.5 -30t-37.5 -86l-11 -80h135l-10 -73h-137l-61 -437h-86l61 437h-99l11 73h99l12 87q27 186 195 186z" />
    <glyph glyph-name="g" unicode="g" horiz-adv-x="605" 
d="M461 455l12 55h80l-76 -544q-15 -106 -86 -168t-175 -62q-110 0 -193 54l25 78q68 -58 169 -58q73 0 118 39.5t55 113.5l14 83q-70 -56 -156 -56q-98 0 -155 69q-57 70 -39 200q18 129 91 193q74 66 172 66q99 0 144 -63zM320 446q-71 0 -121 -50.5t-62 -144.5
q-12 -90 23.5 -138.5t104.5 -48.5q82 0 144 61l39 262q-53 59 -128 59z" />
    <glyph glyph-name="h" unicode="h" horiz-adv-x="595" 
d="M161 777h86l-48 -327q71 68 165 68q80 0 124 -56q45 -56 32 -149l-44 -313h-86l43 308q8 59 -15.5 93t-75.5 34q-84 0 -151 -70l-54 -365h-86z" />
    <glyph glyph-name="i" unicode="i" horiz-adv-x="261" 
d="M194 746q25 0 41.5 -18t13.5 -43q-4 -22 -21.5 -37.5t-39.5 -15.5q-25 0 -41 18t-12 43q3 22 20.5 37.5t38.5 15.5zM209 510l-72 -510h-86l72 510h86z" />
    <glyph glyph-name="j" unicode="j" horiz-adv-x="261" 
d="M194 746q25 0 41.5 -18t13.5 -43q-4 -22 -21.5 -37.5t-39.5 -15.5q-25 0 -41 18t-12 43q3 22 20 37.5t39 15.5zM124 510h86l-83 -595q-13 -89 -61.5 -134.5t-125.5 -45.5q-58 0 -98 23l23 74q29 -20 72 -20q89 0 104 106z" />
    <glyph glyph-name="k" unicode="k" horiz-adv-x="545" 
d="M247 777l-69 -480l244 213h115l-253 -224l204 -286h-101l-167 230l-56 -49l-27 -181h-86l110 777h86z" />
    <glyph glyph-name="l" unicode="l" horiz-adv-x="261" 
d="M247 777l-110 -777h-86l110 777h86z" />
    <glyph glyph-name="m" unicode="m" horiz-adv-x="924" 
d="M697 518q78 0 122 -56q44 -57 31 -149l-44 -313h-86l43 308q9 60 -13.5 93.5t-75.5 33.5q-82 0 -154 -78q0 -17 -3 -37l-46 -320h-86l43 308q8 60 -14.5 93.5t-74.5 33.5q-78 0 -148 -70l-54 -365h-86l72 510h81l-8 -64q64 72 165 72q51 0 89.5 -24.5t55.5 -67.5
q78 92 191 92z" />
    <glyph glyph-name="n" unicode="n" horiz-adv-x="595" 
d="M364 518q80 0 124 -56q45 -56 32 -149l-44 -313h-86l43 308q8 59 -16 93t-77 34q-82 0 -149 -70l-54 -365h-86l72 510h81l-9 -64q66 72 169 72z" />
    <glyph glyph-name="o" unicode="o" horiz-adv-x="595" 
d="M338 518q112 0 174 -74t47 -193q-15 -121 -90 -192q-73 -69 -183 -69q-113 0 -174 73q-62 74 -47 196q15 120 90 189q74 70 183 70zM335 446q-75 0 -124.5 -52.5t-58.5 -142.5q-10 -86 27 -136.5t110 -50.5q74 0 124 52.5t60 142.5q10 87 -27.5 137t-110.5 50z" />
    <glyph glyph-name="p" unicode="p" 
d="M359 519q98 0 154 -69t38 -199t-91 -195t-170 -65q-94 0 -144 57l-45 -304h-86l108 766h77l-5 -51q67 60 164 60zM337 446q-83 0 -145 -62l-38 -261q53 -59 128 -59q71 0 121.5 50.5t62.5 144.5q12 91 -23.5 139t-105.5 48z" />
    <glyph glyph-name="q" unicode="q" 
d="M332 518q100 0 145 -64l11 56h80l-107 -765h-86l43 300q-70 -55 -155 -55q-99 0 -156 69q-56 71 -38 200t91 193q74 66 172 66zM338 446q-71 0 -121 -51t-62 -145q-12 -90 22.5 -138t104.5 -48q84 0 145 61l39 262q-53 59 -128 59z" />
    <glyph glyph-name="r" unicode="r" horiz-adv-x="348" 
d="M365 512l-13 -87q-81 0 -162 -72l-53 -353h-86l72 510h86l-10 -69q71 71 166 71z" />
    <glyph glyph-name="s" unicode="s" horiz-adv-x="460" 
d="M269 518q79 0 143 -29l-16 -74q-58 31 -125 31q-108 0 -115 -70q-2 -21 2.5 -33.5t21.5 -21.5q14 -7 30 -13l47 -14q80 -22 114.5 -56.5t25.5 -94.5q-10 -72 -67.5 -112.5t-145.5 -40.5q-96 0 -167 38l21 79q65 -44 148 -44q51 0 85 20t40 57q6 40 -25 57q-25 14 -75 28
q-66 20 -107 47q-41 33 -34 103q8 66 61.5 104.5t137.5 38.5z" />
    <glyph glyph-name="t" unicode="t" horiz-adv-x="375" 
d="M371 437h-136l-39 -272q-13 -91 82 -91q5 0 41 4l-6 -79q-32 -2 -51 -2q-83 0 -124.5 40.5t-29.5 116.5l41 283h-105l11 73h105l24 166h86l-24 -166h135z" />
    <glyph glyph-name="u" unicode="u" horiz-adv-x="583" 
d="M549 510l-72 -510h-80l7 61q-57 -71 -158 -71q-80 0 -127 57q-45 58 -32 147l44 316h87l-44 -318q-8 -54 16 -86t75 -32q83 0 145 72l53 364h86z" />
    <glyph glyph-name="v" unicode="v" horiz-adv-x="525" 
d="M543 510l-268 -510h-96l-125 510h90l94 -404l210 404h95z" />
    <glyph glyph-name="w" unicode="w" horiz-adv-x="815" 
d="M834 510l-248 -510h-82l-79 373l-185 -373h-83l-104 510h90l73 -400l192 400h66l78 -400l187 400h95z" />
    <glyph glyph-name="x" unicode="x" horiz-adv-x="515" 
d="M520 510l-203 -253l138 -257h-93l-111 201l-165 -201h-100l216 265l-130 245h92l103 -190l156 190h97z" />
    <glyph glyph-name="y" unicode="y" horiz-adv-x="525" 
d="M543 510l-410 -765h-97l146 268l-128 497h90l95 -399l208 399h96z" />
    <glyph glyph-name="z" unicode="z" horiz-adv-x="453" 
d="M446 510l-7 -57l-323 -382h281l-10 -71h-391l7 56l321 382h-261l10 72h373z" />
    <glyph glyph-name="braceleft" unicode="{" horiz-adv-x="251" 
d="M299 718l-10 -73h-4q-99 0 -92 -165q3 -46 0.5 -75t-19.5 -54t-50 -31q43 -9 45 -59q1 -49 -21 -109q-28 -82 -18.5 -119t59.5 -37h8l-10 -73h-3q-94 0 -126.5 59t4.5 172q30 61 26.5 95.5t-48.5 34.5h-11l11 72h6q34 0 50 17t17 48t-2 74q-9 107 39.5 165t140.5 58h8z
" />
    <glyph glyph-name="bar" unicode="|" horiz-adv-x="254" 
d="M239 748l-115 -815h-86l115 815h86z" />
    <glyph glyph-name="braceright" unicode="}" horiz-adv-x="251" 
d="M79 645l9 73h4q93 0 125.5 -59t-3.5 -172l-15 -39q-13 -45 -12 -58q2 -17 12 -25.5t36 -8.5h11l-10 -72h-6q-34 0 -50 -17t-17 -47.5t2 -73.5q9 -107 -39.5 -165t-140.5 -58h-8l10 73h4q51 0 73.5 40t18.5 125q-3 46 -0.5 75t19.5 54t50 31q-44 9 -45 58t21 109
q28 82 18.5 119.5t-59.5 37.5h-8z" />
    <glyph glyph-name="asciitilde" unicode="~" horiz-adv-x="535" 
d="M499 442l36 -62q-40 -42 -77.5 -61.5t-83.5 -19.5q-51 0 -98 31t-81 31q-38 0 -65 -13.5t-60 -47.5l-36 62q40 42 75.5 61t78.5 19q41 0 90 -32q49 -31 90 -31q40 0 70 14.5t61 48.5z" />
    <glyph glyph-name="exclamdown" unicode="&#xa1;" horiz-adv-x="279" 
d="M164 391q-26 0 -42 19t-13 45q4 23 22 39t41 16q26 0 42 -18.5t12 -44.5q-3 -24 -21 -40t-41 -16zM20 -248l82 545h91l-73 -545h-100z" />
    <glyph glyph-name="cent" unicode="&#xa2;" horiz-adv-x="473" 
d="M345 446q-79 0 -134 -54q-54 -53 -65 -143q-10 -84 29.5 -134.5t112.5 -50.5q70 0 135 41l-2 -79q-61 -32 -126 -36l-15 -108h-73l16 114q-86 18 -131 87t-33 172q12 109 78 176q66 69 159 84l16 112h72l-15 -110q65 -5 112 -35l-18 -73q-52 37 -118 37z" />
    <glyph glyph-name="sterling" unicode="&#xa3;" horiz-adv-x="536" 
d="M401 677q-71 0 -114.5 -48.5t-46.5 -130.5l-4 -98h170l-10 -72h-162l-1 -15q-2 -85 -29 -139.5t-79 -93.5l366 1l-12 -81h-479l9 76q66 29 101 82t38 148l1 22h-111l10 72h103l4 97q4 121 69 191t174 70q88 0 152 -27l-15 -84q-58 30 -134 30z" />
    <glyph glyph-name="currency" unicode="&#xa4;" horiz-adv-x="588" 
d="M471 248q-9 -66 -43 -112l100 -116l-59 -54l-102 115q-43 -25 -96 -25q-57 0 -97 27l-132 -117l-49 54l135 120q-22 47 -13 117q9 63 45 113l-102 116l60 54l102 -116q43 25 96 25q56 0 97 -27l133 118l49 -54l-136 -121q21 -48 12 -117zM185 248q-8 -61 15.5 -95
t74.5 -34q50 0 84.5 37.5t42.5 100.5q8 62 -15.5 96t-74.5 34q-50 0 -84.5 -37.5t-42.5 -101.5z" />
    <glyph glyph-name="yen" unicode="&#xa5;" horiz-adv-x="692" 
d="M746 748l-308 -399h107l-7 -55h-139l-13 -91h138l-6 -55h-140l-22 -148h-90l21 148h-142l8 55h141l13 91h-142l8 55h111l-196 399h102l172 -357l275 357h109z" />
    <glyph glyph-name="brokenbar" unicode="&#xa6;" horiz-adv-x="254" 
d="M239 748l-45 -319h-86l45 319h86zM169 252l-45 -319h-86l45 319h86z" />
    <glyph glyph-name="section" unicode="&#xa7;" horiz-adv-x="516" 
d="M476 368q-10 -72 -87 -117q71 -36 59 -122q-10 -71 -81 -115q-71 -42 -167 -42q-88 0 -160 26l10 67q70 -32 147 -32q65 0 111.5 27t53.5 72q6 41 -19 60t-99 35q-88 18 -133 45q-51 30 -40 101q10 73 91 122q-52 35 -42 111q10 69 70.5 110.5t149.5 41.5q65 0 127 -20
l-11 -67q-46 25 -115 25q-54 0 -91.5 -25t-44.5 -69q-4 -38 16.5 -54.5t81.5 -32.5q96 -19 139 -50q43 -30 34 -97zM395 366q6 38 -21 56.5t-102 35.5q-30 6 -46 11q-65 -37 -76 -94q-5 -38 21.5 -55.5t103.5 -34.5q11 -2 47 -11q37 24 53 43t20 49z" />
    <glyph glyph-name="dieresis" unicode="&#xa8;" horiz-adv-x="294" 
d="M138 732q23 0 37.5 -16.5t10.5 -39.5q-2 -20 -17.5 -33t-35.5 -13q-24 0 -38 16t-11 39q3 20 18.5 33.5t35.5 13.5zM287 732q23 0 37.5 -16.5t10.5 -39.5q-2 -20 -17.5 -33t-35.5 -13q-24 0 -38 16t-11 39q3 20 18.5 33.5t35.5 13.5z" />
    <glyph glyph-name="copyright" unicode="&#xa9;" horiz-adv-x="583" 
d="M353 759q111 0 182 -74t61 -182q-10 -106 -90 -178q-80 -71 -188 -71q-113 0 -184 74q-69 74 -60 183q11 107 89 177q80 71 190 71zM353 728q-95 0 -165 -63q-70 -62 -77 -156q-9 -95 50 -160q60 -64 157 -64q95 0 164 63q70 63 78 156q8 95 -52 159q-59 65 -155 65z
M360 663q48 0 88 -24l-11 -43q-31 24 -73 24q-45 0 -78.5 -33t-39.5 -85q-6 -48 18.5 -78t67.5 -30t83 25l-2 -47q-37 -22 -87 -22q-63 0 -101 44t-28 117q10 69 55.5 110.5t107.5 41.5z" />
    <glyph glyph-name="ordfeminine" unicode="&#xaa;" horiz-adv-x="482" 
d="M305 756q75 0 116 -45l7 37h71l-57 -408h-67l4 40q-55 -47 -128 -47q-79 0 -124 55q-45 56 -30 161q14 99 70.5 153t137.5 54zM312 694q-55 0 -94.5 -40t-48.5 -113q-9 -70 19 -108.5t81 -38.5q61 0 113 48l29 205q-38 47 -99 47z" />
    <glyph glyph-name="guillemotleft" unicode="&#xab;" horiz-adv-x="531" 
d="M223 473l64 -49l-175 -175l124 -176l-71 -39l-150 220zM472 473l63 -49l-174 -175l124 -176l-72 -39l-150 220z" />
    <glyph glyph-name="logicalnot" unicode="&#xac;" horiz-adv-x="556" 
d="M532 414l-35 -249h-68l26 181h-405l9 68h473z" />
    <glyph glyph-name="registered" unicode="&#xae;" horiz-adv-x="583" 
d="M353 759q111 0 182 -74t61 -182q-10 -106 -90 -178q-80 -71 -188 -71q-113 0 -184 74q-69 74 -60 183q11 107 89 177q80 71 190 71zM560 504q8 95 -52 159q-59 65 -155 65q-95 0 -165 -63q-70 -62 -77 -156q-9 -95 50 -160q60 -64 157 -64q95 0 164 63q70 63 78 156z
M209 353l43 306h112q51 0 77 -25t19 -72q-9 -60 -61 -81l44 -128h-51l-41 119h-8h-68l-18 -119h-48zM411 567q7 52 -52 52h-64l-14 -107h61q62 0 69 55z" />
    <glyph glyph-name="overscore" unicode="&#xaf;" horiz-adv-x="294" 
d="M342 702l-10 -67h-263l9 67h264z" />
    <glyph glyph-name="degree" unicode="&#xb0;" horiz-adv-x="347" 
d="M246 757q66 0 102.5 -43t27.5 -111q-9 -69 -51.5 -108.5t-105.5 -39.5q-66 0 -102 42.5t-27 111.5q7 68 50 108t106 40zM243 703q-39 0 -64.5 -26.5t-30.5 -72.5q-4 -43 16 -68.5t57 -25.5q40 0 66 26.5t30 72.5q4 44 -16 69t-58 25z" />
    <glyph glyph-name="plusminus" unicode="&#xb1;" horiz-adv-x="546" 
d="M378 707l-28 -198h199l-11 -79h-198l-29 -203h-84l29 203h-199l11 79h198l28 198h84zM501 164l-12 -80h-481l12 80h481z" />
    <glyph glyph-name="acute" unicode="&#xb4;" horiz-adv-x="236" 
d="M294 786l-159 -191h-71l130 191h100z" />
    <glyph glyph-name="paragraph" unicode="&#xb6;" horiz-adv-x="666" 
d="M728 748l-10 -65h-69l-106 -750h-67l106 750h-131l-105 -750h-68l63 446h-50q-100 0 -151.5 49.5t-39.5 138.5q12 88 75 134.5t164 46.5h389z" />
    <glyph glyph-name="middot" unicode="&#xb7;" horiz-adv-x="217" 
d="M120 355q26 0 42 -19t13 -45q-3 -23 -21.5 -39t-41.5 -16q-26 0 -42 19t-12 44q3 24 21 40t41 16z" />
    <glyph glyph-name="cedilla" unicode="&#xb8;" horiz-adv-x="274" 
d="M56 8h45l-22 -64q52 -2 84 -28t26 -72q-6 -41 -42.5 -65t-86.5 -24q-61 0 -101 25l18 42q28 -18 67 -18q73 0 81 50q4 24 -18 39t-59 15q-17 0 -32 -4z" />
    <glyph glyph-name="ordmasculine" unicode="&#xba;" horiz-adv-x="477" 
d="M316 756q88 0 138 -60q50 -61 37 -155q-13 -98 -72.5 -153t-149.5 -55q-89 0 -138 58q-49 59 -36 156q14 98 73 153q62 56 148 56zM166 541q-9 -68 19 -107.5t85 -39.5q58 0 98 41.5t48 111.5q10 68 -19 107.5t-86 39.5t-96.5 -41t-48.5 -112z" />
    <glyph glyph-name="guillemotright" unicode="&#xbb;" horiz-adv-x="531" 
d="M119 473l150 -219l-209 -220l-63 49l174 176l-124 175zM366 473l150 -219l-209 -220l-63 49l175 176l-124 175z" />
    <glyph glyph-name="onequarter" unicode="&#xbc;" horiz-adv-x="750" 
d="M616 426l-148 -274h120l17 122h67l-17 -122h68l-8 -55h-67l-14 -97h-67l14 97h-187l6 54l145 275h71zM252 748l-60 -426h-67l49 351l-103 -55l8 68l115 62h58zM713 748l-633 -748h-90l632 748h91z" />
    <glyph glyph-name="onehalf" unicode="&#xbd;" horiz-adv-x="744" 
d="M252 748l-60 -426h-67l49 351l-103 -55l8 68l115 62h58zM604 432q64 0 95 -33.5t23 -93.5q-11 -72 -65 -129q-39 -39 -56 -54q-8 -7 -74 -61l166 -1l-9 -60h-264l8 51q1 1 3.5 2.5t6 4t6.5 4.5l102 78q39 32 71 73q32 42 38 80q5 37 -13 58t-56 21q-57 0 -108 -30l9 61
q60 29 117 29zM713 748l-633 -748h-90l632 748h91z" />
    <glyph glyph-name="threequarters" unicode="&#xbe;" horiz-adv-x="828" 
d="M694 426l-148 -274h120l17 122h67l-17 -122h68l-8 -55h-67l-14 -97h-67l14 97h-187l6 54l145 275h71zM191 753q66 0 101.5 -33t27.5 -89q-8 -60 -66 -90q62 -29 49 -105q-8 -57 -51.5 -89t-109.5 -32q-61 0 -109 23l16 60q41 -24 88 -24q42 0 69 19.5t32 52.5t-14.5 50.5
t-58.5 17.5h-36l8 56h29q34 0 58.5 17t28.5 44q4 30 -13.5 46.5t-50.5 16.5q-48 0 -97 -28l3 65q45 22 96 22zM791 748l-633 -748h-90l632 748h91z" />
    <glyph glyph-name="questiondown" unicode="&#xbf;" horiz-adv-x="475" 
d="M291 401q-26 0 -42 19t-12 45q3 23 21 38.5t41 15.5q26 0 42.5 -18.5t12.5 -43.5q-3 -24 -21.5 -40t-41.5 -16zM207 -248q-111 0 -170 58q-60 59 -47 151q9 59 39 100t90 85q49 35 57 41q42 34 49 92q3 13 3 31l90 -5q0 -2 -4 -37q-7 -55 -31 -86t-85 -76
q-105 -63 -115 -147q-8 -58 27.5 -92.5t106.5 -34.5q92 0 182 57l-3 -88q-88 -49 -189 -49z" />
    <glyph glyph-name="Agrave" unicode="&#xc0;" horiz-adv-x="744" 
d="M356 936l129 -141h-80l-167 141h118zM490 748l199 -748h-95l-56 212h-335l-115 -212h-103l409 748h96zM427 628l-183 -337h271z" />
    <glyph glyph-name="Aacute" unicode="&#xc1;" horiz-adv-x="744" 
d="M695 936l-206 -141h-84l168 141h122zM490 748l199 -748h-95l-56 212h-335l-115 -212h-103l409 748h96zM427 628l-183 -337h271z" />
    <glyph glyph-name="Acircumflex" unicode="&#xc2;" horiz-adv-x="744" 
d="M510 938l98 -143h-73l-71 90l-100 -90h-77l140 143h83zM490 748l199 -748h-95l-56 212h-335l-115 -212h-103l409 748h96zM427 628l-183 -337h271z" />
    <glyph glyph-name="Atilde" unicode="&#xc3;" horiz-adv-x="744" 
d="M391 936q35 0 69 -31q35 -31 57 -31q24 0 41 16t21 41l50 -5q-3 -49 -32 -83t-70 -34q-35 0 -71 30q-35 31 -56 31q-24 0 -41 -16t-22 -41l-49 6q3 49 32 83t71 34zM490 748l199 -748h-95l-56 212h-335l-115 -212h-103l409 748h96zM427 628l-183 -337h271z" />
    <glyph glyph-name="Adieresis" unicode="&#xc4;" horiz-adv-x="744" 
d="M387 920q24 0 38 -16.5t11 -39.5q-3 -20 -18.5 -33.5t-35.5 -13.5q-23 0 -37.5 16t-11.5 39q3 20 18.5 34t35.5 14zM536 920q24 0 38 -16.5t11 -39.5q-3 -20 -18.5 -33.5t-35.5 -13.5q-23 0 -37.5 16t-11.5 39q3 20 18.5 34t35.5 14zM490 748l199 -748h-95l-56 212h-335
l-115 -212h-103l409 748h96zM427 628l-183 -337h271z" />
    <glyph glyph-name="Aring" unicode="&#xc5;" horiz-adv-x="744" 
d="M471 987q46 0 73 -28.5t20 -72.5q-6 -41 -37.5 -67t-73.5 -26q-45 0 -72.5 29t-21.5 73q6 41 37.5 66.5t74.5 25.5zM468 941q-22 0 -38 -13.5t-19 -35.5q-4 -21 9.5 -36.5t34.5 -15.5q22 0 38.5 14t20.5 35q3 21 -11 36.5t-35 15.5zM490 748l199 -748h-95l-56 212h-335
l-115 -212h-103l409 748h96zM427 628l-183 -337h271z" />
    <glyph glyph-name="AE" unicode="&#xc6;" horiz-adv-x="1056" 
d="M1074 667h-378l-34 -240h334l-12 -80h-333l-37 -265h378l-12 -82h-469l30 213h-275l-172 -213h-115l612 748h494zM331 291h221l47 331z" />
    <glyph glyph-name="Ccedilla" unicode="&#xc7;" horiz-adv-x="659" 
d="M501 676q-121 0 -210 -84q-87 -83 -107 -222q-19 -134 44 -217q64 -81 181 -81t208 61l-1 -90q-98 -53 -215 -53l-20 1l-18 -52q52 -2 84 -28t26 -72q-6 -41 -42.5 -65t-86.5 -24q-61 0 -101 25l18 42q29 -18 67 -18q73 0 81 50q4 24 -18 39t-59 15q-17 0 -32 -4l37 96
q-128 23 -198 124q-69 101 -46 260q24 175 138 277q115 102 266 102q118 0 204 -56l-25 -83q-70 57 -175 57z" />
    <glyph glyph-name="Egrave" unicode="&#xc8;" horiz-adv-x="599" 
d="M318 936l129 -141h-80l-167 141h118zM628 748l-11 -81h-378l-34 -240h334l-12 -80h-333l-37 -265h378l-12 -82h-469l106 748h468z" />
    <glyph glyph-name="Eacute" unicode="&#xc9;" horiz-adv-x="599" 
d="M657 936l-206 -141h-84l168 141h122zM628 748l-11 -81h-378l-34 -240h334l-12 -80h-333l-37 -265h378l-12 -82h-469l106 748h468z" />
    <glyph glyph-name="Ecircumflex" unicode="&#xca;" horiz-adv-x="599" 
d="M471 938l98 -143h-73l-71 90l-100 -90h-77l140 143h83zM628 748l-11 -81h-378l-34 -240h334l-12 -80h-333l-37 -265h378l-12 -82h-469l106 748h468z" />
    <glyph glyph-name="Edieresis" unicode="&#xcb;" horiz-adv-x="599" 
d="M349 920q24 0 38 -16.5t11 -39.5q-3 -20 -18.5 -33.5t-35.5 -13.5q-23 0 -37.5 16t-11.5 39q3 20 18.5 34t35.5 14zM498 920q24 0 38 -16.5t11 -39.5q-3 -20 -18.5 -33.5t-35.5 -13.5q-23 0 -37.5 16t-11.5 39q3 20 18.5 34t35.5 14zM628 748l-11 -81h-378l-34 -240h334
l-12 -80h-333l-37 -265h378l-12 -82h-469l106 748h468z" />
    <glyph glyph-name="Igrave" unicode="&#xcc;" horiz-adv-x="271" 
d="M250 748l-105 -748h-91l106 748h90zM122 936l129 -141h-80l-167 141h118z" />
    <glyph glyph-name="Iacute" unicode="&#xcd;" horiz-adv-x="271" 
d="M250 748l-105 -748h-91l106 748h90zM462 936l-206 -141h-84l168 141h122z" />
    <glyph glyph-name="Icircumflex" unicode="&#xce;" horiz-adv-x="271" 
d="M250 748l-105 -748h-91l106 748h90zM276 938l98 -143h-73l-71 90l-100 -90h-77l140 143h83z" />
    <glyph glyph-name="Idieresis" unicode="&#xcf;" horiz-adv-x="271" 
d="M153 920q24 0 38 -16.5t11 -39.5q-3 -20 -18.5 -33.5t-35.5 -13.5q-23 0 -37.5 16t-11.5 39q3 20 18.5 34t35.5 14zM302 920q24 0 38 -16.5t11 -39.5q-3 -20 -18.5 -33.5t-35.5 -13.5q-23 0 -37.5 16t-11.5 39q3 20 18.5 34t35.5 14zM250 748l-105 -748h-91l106 748h90z
" />
    <glyph glyph-name="Eth" unicode="&#xd0;" horiz-adv-x="761" 
d="M112 409l48 339h246q168 0 255 -97q88 -95 61 -283q-26 -184 -137 -276q-113 -92 -279 -92h-252l48 338h-96l10 71h96zM630 378q21 144 -40 216.5t-190 72.5h-160l-37 -258h161l-10 -71h-161l-36 -256h156q125 0 211 74q87 74 106 222z" />
    <glyph glyph-name="Ntilde" unicode="&#xd1;" horiz-adv-x="745" 
d="M724 748l-106 -748h-84l-306 583l-83 -583h-91l106 748h84l306 -582l83 582h91zM393 936q35 0 69 -31q35 -31 57 -31q24 0 41 16t21 41l50 -5q-3 -49 -32 -83t-70 -34q-35 0 -71 30q-35 31 -56 31q-24 0 -41 -16t-22 -41l-49 6q3 49 32 83t71 34z" />
    <glyph glyph-name="Ograve" unicode="&#xd2;" horiz-adv-x="815" 
d="M498 758q160 0 246 -105q85 -105 60 -283q-24 -175 -136 -278q-111 -102 -268 -102q-160 0 -246 105q-85 106 -60 284q26 177 136 277q111 102 268 102zM494 676q-121 0 -204 -82q-84 -81 -104 -224q-20 -140 40 -219q61 -79 177 -79q121 0 205 81q84 83 105 227
q19 138 -42 217t-177 79zM409 936l129 -141h-80l-167 141h118z" />
    <glyph glyph-name="Oacute" unicode="&#xd3;" horiz-adv-x="815" 
d="M498 758q160 0 246 -105q85 -105 60 -283q-24 -175 -136 -278q-111 -102 -268 -102q-160 0 -246 105q-85 106 -60 284q26 177 136 277q111 102 268 102zM494 676q-121 0 -204 -82q-84 -81 -104 -224q-20 -140 40 -219q61 -79 177 -79q121 0 205 81q84 83 105 227
q19 138 -42 217t-177 79zM749 936l-206 -141h-84l168 141h122z" />
    <glyph glyph-name="Ocircumflex" unicode="&#xd4;" horiz-adv-x="815" 
d="M498 758q160 0 246 -105q85 -105 60 -283q-24 -175 -136 -278q-111 -102 -268 -102q-160 0 -246 105q-85 106 -60 284q26 177 136 277q111 102 268 102zM494 676q-121 0 -204 -82q-84 -81 -104 -224q-20 -140 40 -219q61 -79 177 -79q121 0 205 81q84 83 105 227
q19 138 -42 217t-177 79zM563 938l98 -143h-73l-71 90l-100 -90h-77l140 143h83z" />
    <glyph glyph-name="Otilde" unicode="&#xd5;" horiz-adv-x="815" 
d="M445 936q35 0 69 -31q35 -31 57 -31q24 0 41 16t21 41l50 -5q-3 -49 -32 -83t-70 -34q-35 0 -71 30q-35 31 -56 31q-24 0 -41 -16t-22 -41l-49 6q3 49 32 83t71 34zM498 758q160 0 246 -105q85 -105 60 -283q-24 -175 -136 -278q-111 -102 -268 -102q-160 0 -246 105
q-85 106 -60 284q26 177 136 277q111 102 268 102zM494 676q-121 0 -204 -82q-84 -81 -104 -224q-20 -140 40 -219q61 -79 177 -79q121 0 205 81q84 83 105 227q19 138 -42 217t-177 79z" />
    <glyph glyph-name="Odieresis" unicode="&#xd6;" horiz-adv-x="815" 
d="M440 920q24 0 38 -16.5t11 -39.5q-3 -20 -18.5 -33.5t-35.5 -13.5q-23 0 -37.5 16t-11.5 39q3 20 18.5 34t35.5 14zM589 920q24 0 38 -16.5t11 -39.5q-3 -20 -18.5 -33.5t-35.5 -13.5q-23 0 -37.5 16t-11.5 39q3 20 18.5 34t35.5 14zM498 758q160 0 246 -105
q85 -105 60 -283q-24 -175 -136 -278q-111 -102 -268 -102q-160 0 -246 105q-85 106 -60 284q26 177 136 277q111 102 268 102zM494 676q-121 0 -204 -82q-84 -81 -104 -224q-20 -140 40 -219q61 -79 177 -79q121 0 205 81q84 83 105 227q19 138 -42 217t-177 79z" />
    <glyph glyph-name="multiply" unicode="&#xd7;" horiz-adv-x="524" 
d="M458 578l50 -58l-171 -151l131 -153l-63 -58l-132 154l-177 -155l-51 58l177 155l-132 153l63 57l132 -154z" />
    <glyph glyph-name="Oslash" unicode="&#xd8;" horiz-adv-x="815" 
d="M748 785l53 -43l-81 -89q85 -106 60 -283q-24 -175 -136 -278q-111 -102 -268 -102q-121 0 -200 61l-78 -86l-52 43l82 90q-83 108 -58 281q26 177 136 277q111 102 268 102q120 0 197 -58zM162 370q-17 -123 29 -201l420 464q-56 43 -141 43q-121 0 -204 -82
q-84 -81 -104 -224zM689 380q18 124 -32 203l-421 -466q57 -45 143 -45q121 0 205 81q84 83 105 227z" />
    <glyph glyph-name="Ugrave" unicode="&#xd9;" horiz-adv-x="766" 
d="M385 936l129 -141h-80l-167 141h118zM678 748h91l-67 -470q-19 -139 -109 -214q-89 -74 -226 -74q-141 0 -209.5 76.5t-49.5 216.5l66 465h91l-66 -469q-15 -101 30.5 -154t142.5 -53q101 0 163.5 55t77.5 158z" />
    <glyph glyph-name="Uacute" unicode="&#xda;" horiz-adv-x="766" 
d="M725 936l-206 -141h-84l168 141h122zM678 748h91l-67 -470q-19 -139 -109 -214q-89 -74 -226 -74q-141 0 -209.5 76.5t-49.5 216.5l66 465h91l-66 -469q-15 -101 30.5 -154t142.5 -53q101 0 163.5 55t77.5 158z" />
    <glyph glyph-name="Ucircumflex" unicode="&#xdb;" horiz-adv-x="766" 
d="M539 938l98 -143h-73l-71 90l-100 -90h-77l140 143h83zM678 748h91l-67 -470q-19 -139 -109 -214q-89 -74 -226 -74q-141 0 -209.5 76.5t-49.5 216.5l66 465h91l-66 -469q-15 -101 30.5 -154t142.5 -53q101 0 163.5 55t77.5 158z" />
    <glyph glyph-name="Udieresis" unicode="&#xdc;" horiz-adv-x="766" 
d="M416 920q24 0 38 -16.5t11 -39.5q-3 -20 -18.5 -33.5t-35.5 -13.5q-23 0 -37.5 16t-11.5 39q3 20 18.5 34t35.5 14zM565 920q24 0 38 -16.5t11 -39.5q-3 -20 -18.5 -33.5t-35.5 -13.5q-23 0 -37.5 16t-11.5 39q3 20 18.5 34t35.5 14zM678 748h91l-67 -470
q-19 -139 -109 -214q-89 -74 -226 -74q-141 0 -209.5 76.5t-49.5 216.5l66 465h91l-66 -469q-15 -101 30.5 -154t142.5 -53q101 0 163.5 55t77.5 158z" />
    <glyph glyph-name="Yacute" unicode="&#xdd;" horiz-adv-x="692" 
d="M746 748l-346 -448l-44 -300h-90l42 301l-220 447h102l172 -357l275 357h109zM669 936l-206 -141h-84l168 141h122z" />
    <glyph glyph-name="Thorn" unicode="&#xde;" horiz-adv-x="606" 
d="M250 748l-13 -100h142q112 0 169 -56.5t42 -159.5q-15 -100 -85 -153.5t-181 -53.5h-147l-32 -225h-91l106 748h90zM367 566h-142l-36 -259h137q71 0 117 33.5t55 96.5q10 62 -25.5 95.5t-105.5 33.5z" />
    <glyph glyph-name="germandbls" unicode="&#xdf;" horiz-adv-x="630" 
d="M369 785q95 0 144.5 -43.5t39.5 -116.5q-7 -58 -59 -102q-50 -40 -57 -82q-4 -25 10 -47.5t36.5 -43t44.5 -43.5t34.5 -59.5t5.5 -80.5q-10 -79 -75 -127t-155 -48q-60 0 -102 13l14 73q35 -13 81 -13q63 0 105 30.5t49 84.5q7 62 -46 115l-17 17l-19 19t-15.5 16.5
t-16.5 20.5t-12 20q-27 59 12 111q18 24 37 37q52 39 57 80q5 45 -21.5 70.5t-79.5 25.5q-58 0 -98.5 -33.5t-47.5 -88.5l-84 -590h-86l85 597q12 84 77 136q64 52 159 52z" />
    <glyph glyph-name="agrave" unicode="&#xe0;" 
d="M320 786l76 -191h-67l-105 191h96zM331 518q93 0 144 -56l9 48h85l-71 -510h-78l6 50q-69 -60 -164 -60q-98 0 -155 69q-56 71 -38 200q18 125 89 192t173 67zM337 446q-71 0 -121 -50.5t-62 -144.5q-12 -90 23.5 -138.5t104.5 -48.5q83 0 145 61l38 262q-53 59 -128 59z
" />
    <glyph glyph-name="aacute" unicode="&#xe1;" 
d="M557 786l-159 -191h-71l130 191h100zM331 518q93 0 144 -56l9 48h85l-71 -510h-78l6 50q-69 -60 -164 -60q-98 0 -155 69q-56 71 -38 200q18 125 89 192t173 67zM337 446q-71 0 -121 -50.5t-62 -144.5q-12 -90 23.5 -138.5t104.5 -48.5q83 0 145 61l38 262
q-53 59 -128 59z" />
    <glyph glyph-name="acircumflex" unicode="&#xe2;" 
d="M428 765l96 -169h-72l-70 110l-103 -110h-76l143 169h82zM331 518q93 0 144 -56l9 48h85l-71 -510h-78l6 50q-69 -60 -164 -60q-98 0 -155 69q-56 71 -38 200q18 125 89 192t173 67zM337 446q-71 0 -121 -50.5t-62 -144.5q-12 -90 23.5 -138.5t104.5 -48.5q83 0 145 61
l38 262q-53 59 -128 59z" />
    <glyph glyph-name="atilde" unicode="&#xe3;" 
d="M306 736q32 0 71 -30.5t55 -30.5q24 0 41 16t21 40l49 -4q-2 -49 -31 -83.5t-70 -34.5q-38 0 -72 30q-34 31 -55 31q-24 0 -41 -15.5t-22 -40.5l-49 5q3 49 32 83t71 34zM331 518q93 0 144 -56l9 48h85l-71 -510h-78l6 50q-69 -60 -164 -60q-98 0 -155 69q-56 71 -38 200
q18 125 89 192t173 67zM337 446q-71 0 -121 -50.5t-62 -144.5q-12 -90 23.5 -138.5t104.5 -48.5q83 0 145 61l38 262q-53 59 -128 59z" />
    <glyph glyph-name="adieresis" unicode="&#xe4;" 
d="M302 732q23 0 37.5 -16.5t10.5 -39.5q-2 -20 -17.5 -33t-35.5 -13q-24 0 -38 16t-11 39q3 20 18.5 33.5t35.5 13.5zM451 732q23 0 37.5 -16.5t10.5 -39.5q-2 -20 -17.5 -33t-35.5 -13q-24 0 -38 16t-11 39q3 20 18.5 33.5t35.5 13.5zM331 518q93 0 144 -56l9 48h85
l-71 -510h-78l6 50q-69 -60 -164 -60q-98 0 -155 69q-56 71 -38 200q18 125 89 192t173 67zM337 446q-71 0 -121 -50.5t-62 -144.5q-12 -90 23.5 -138.5t104.5 -48.5q83 0 145 61l38 262q-53 59 -128 59z" />
    <glyph glyph-name="aring" unicode="&#xe5;" 
d="M388 798q49 0 79 -31.5t23 -79.5q-7 -44 -42 -72.5t-81 -28.5q-51 0 -80.5 31t-22.5 79q6 44 42 73t82 29zM385 748q-26 0 -44.5 -15.5t-22.5 -40.5q-4 -24 11.5 -40t41.5 -16q25 0 43 15t21 39q4 25 -11 41.5t-39 16.5zM331 518q93 0 144 -56l9 48h85l-71 -510h-78l6 50
q-69 -60 -164 -60q-98 0 -155 69q-56 71 -38 200q18 125 89 192t173 67zM337 446q-71 0 -121 -50.5t-62 -144.5q-12 -90 23.5 -138.5t104.5 -48.5q83 0 145 61l38 262q-53 59 -128 59z" />
    <glyph glyph-name="ae" unicode="&#xe6;" horiz-adv-x="824" 
d="M620 518q90 0 134 -43q46 -43 40 -104q-8 -90 -106 -121q-86 -27 -252 -27q-8 -74 28 -116.5t109 -42.5q91 0 170 55l-1 -79q-82 -50 -180 -50q-130 0 -184 96q-10 -13 -22 -25q-74 -71 -168 -71q-70 0 -110 37t-35 100q11 173 315 166l8 50q16 102 -77 102
q-83 0 -168 -49l1 78q80 44 184 44q106 0 137 -73q74 73 177 73zM707 375q1 34 -22 52.5t-68 18.5q-63 0 -110 -44t-61 -112q138 0 198.5 18.5t62.5 66.5zM207 59q52 0 90 31.5t46 87.5l8 52q-214 10 -221 -97q-2 -35 18.5 -54.5t58.5 -19.5z" />
    <glyph glyph-name="ccedilla" unicode="&#xe7;" horiz-adv-x="473" 
d="M346 446q-78 0 -134 -54q-54 -53 -65 -143q-10 -84 29.5 -134.5t112.5 -50.5q70 0 135 41l-2 -79q-69 -36 -143 -36h-4l-17 -50q52 -2 84 -28t26 -72q-6 -41 -42.5 -65t-86.5 -24q-61 0 -101 25l18 42q28 -18 67 -18q73 0 81 50q4 24 -18 39t-59 15q-17 0 -32 -4l36 94
q-88 15 -136 84q-48 71 -35 177q13 121 94 192q82 71 188 71q82 0 140 -36l-18 -73q-52 37 -118 37z" />
    <glyph glyph-name="egrave" unicode="&#xe8;" horiz-adv-x="525" 
d="M375 595h-67l-105 191h96zM334 518q90 0 134 -43q46 -43 40 -104q-8 -90 -106 -121q-86 -27 -252 -27q-8 -74 28 -116.5t109 -42.5q91 0 170 55v-79q-83 -50 -181 -50q-108 0 -167 71q-58 70 -41 194q16 120 91 192q76 71 175 71zM421 375q1 34 -22 52.5t-68 18.5
q-63 0 -110 -44t-61 -112q138 0 199 18.5t62 66.5z" />
    <glyph glyph-name="eacute" unicode="&#xe9;" horiz-adv-x="525" 
d="M536 786l-159 -191h-71l130 191h100zM334 518q90 0 134 -43q46 -43 40 -104q-8 -90 -106 -121q-86 -27 -252 -27q-8 -74 28 -116.5t109 -42.5q91 0 170 55v-79q-83 -50 -181 -50q-108 0 -167 71q-58 70 -41 194q16 120 91 192q76 71 175 71zM421 375q1 34 -22 52.5
t-68 18.5q-63 0 -110 -44t-61 -112q138 0 199 18.5t62 66.5z" />
    <glyph glyph-name="ecircumflex" unicode="&#xea;" horiz-adv-x="525" 
d="M361 706l-103 -110h-76l143 169h82l96 -169h-72zM334 518q90 0 134 -43q46 -43 40 -104q-8 -90 -106 -121q-86 -27 -252 -27q-8 -74 28 -116.5t109 -42.5q91 0 170 55v-79q-83 -50 -181 -50q-108 0 -167 71q-58 70 -41 194q16 120 91 192q76 71 175 71zM421 375
q1 34 -22 52.5t-68 18.5q-63 0 -110 -44t-61 -112q138 0 199 18.5t62 66.5z" />
    <glyph glyph-name="edieresis" unicode="&#xeb;" horiz-adv-x="525" 
d="M275 630q-24 0 -38 16t-11 39q3 20 18.5 33.5t35.5 13.5q23 0 37.5 -16.5t10.5 -39.5q-2 -20 -17.5 -33t-35.5 -13zM424 630q-24 0 -38 16t-11 39q3 20 18.5 33.5t35.5 13.5q23 0 37.5 -16.5t10.5 -39.5q-2 -20 -17.5 -33t-35.5 -13zM334 518q90 0 134 -43
q46 -43 40 -104q-8 -90 -106 -121q-86 -27 -252 -27q-8 -74 28 -116.5t109 -42.5q91 0 170 55v-79q-83 -50 -181 -50q-108 0 -167 71q-58 70 -41 194q16 120 91 192q76 71 175 71zM421 375q1 34 -22 52.5t-68 18.5q-63 0 -110 -44t-61 -112q138 0 199 18.5t62 66.5z" />
    <glyph glyph-name="igrave" unicode="&#xec;" horiz-adv-x="261" 
d="M209 510l-72 -510h-86l72 510h86zM134 786l76 -191h-67l-105 191h96z" />
    <glyph glyph-name="iacute" unicode="&#xed;" horiz-adv-x="261" 
d="M209 510l-72 -510h-86l72 510h86zM371 786l-159 -191h-71l130 191h100z" />
    <glyph glyph-name="icircumflex" unicode="&#xee;" horiz-adv-x="261" 
d="M209 510l-72 -510h-86l72 510h86zM242 765l96 -169h-72l-70 110l-103 -110h-76l143 169h82z" />
    <glyph glyph-name="idieresis" unicode="&#xef;" horiz-adv-x="261" 
d="M116 732q23 0 37.5 -16.5t10.5 -39.5q-2 -20 -17.5 -33t-35.5 -13q-24 0 -38 16t-11 39q3 20 18.5 33.5t35.5 13.5zM265 732q23 0 37.5 -16.5t10.5 -39.5q-2 -20 -17.5 -33t-35.5 -13q-24 0 -38 16t-11 39q3 20 18.5 33.5t35.5 13.5zM209 510l-72 -510h-86l72 510h86z
" />
    <glyph glyph-name="eth" unicode="&#xf0;" horiz-adv-x="600" 
d="M532 793l37 -38l-99 -70q123 -128 83 -417q-20 -134 -93 -206t-183 -72q-107 0 -167 68q-60 69 -45 181q15 107 89 174t175 67t150 -69q0 153 -72 229l-112 -80l-36 39l106 75q-63 39 -159 39l5 64q133 0 218 -57zM280 62q75 0 122.5 48t60.5 137q10 69 -28 115
q-38 45 -104 45q-69 0 -119 -48q-49 -48 -60 -128q-12 -78 23.5 -123.5t104.5 -45.5z" />
    <glyph glyph-name="ntilde" unicode="&#xf1;" horiz-adv-x="595" 
d="M284 736q32 0 71 -30.5t55 -30.5q24 0 41 16t21 40l49 -4q-2 -49 -31 -83.5t-70 -34.5q-38 0 -72 30q-34 31 -55 31q-24 0 -41 -15.5t-22 -40.5l-49 5q3 49 32 83t71 34zM364 518q80 0 124 -56q45 -56 32 -149l-44 -313h-86l43 308q8 59 -16 93t-77 34q-80 0 -150 -70
l-53 -365h-86l72 510h80l-8 -64q65 72 169 72z" />
    <glyph glyph-name="ograve" unicode="&#xf2;" horiz-adv-x="595" 
d="M316 786l76 -191h-67l-105 191h96zM338 518q112 0 174 -74t47 -193q-15 -121 -90 -192q-73 -69 -183 -69q-113 0 -174 73q-62 74 -47 196q15 120 90 189q74 70 183 70zM334 446q-74 0 -123.5 -52.5t-59.5 -142.5q-10 -86 27.5 -136.5t109.5 -50.5q75 0 125 52.5t60 142.5
q10 87 -28 137t-111 50z" />
    <glyph glyph-name="oacute" unicode="&#xf3;" horiz-adv-x="595" 
d="M553 786l-159 -191h-71l130 191h100zM338 518q112 0 174 -74t47 -193q-15 -121 -90 -192q-73 -69 -183 -69q-113 0 -174 73q-62 74 -47 196q15 120 90 189q74 70 183 70zM334 446q-74 0 -123.5 -52.5t-59.5 -142.5q-10 -86 27.5 -136.5t109.5 -50.5q75 0 125 52.5
t60 142.5q10 87 -28 137t-111 50z" />
    <glyph glyph-name="ocircumflex" unicode="&#xf4;" horiz-adv-x="595" 
d="M424 765l96 -169h-72l-70 110l-103 -110h-76l143 169h82zM338 518q112 0 174 -74t47 -193q-15 -121 -90 -192q-73 -69 -183 -69q-113 0 -174 73q-62 74 -47 196q15 120 90 189q74 70 183 70zM334 446q-74 0 -123.5 -52.5t-59.5 -142.5q-10 -86 27.5 -136.5t109.5 -50.5
q75 0 125 52.5t60 142.5q10 87 -28 137t-111 50z" />
    <glyph glyph-name="otilde" unicode="&#xf5;" horiz-adv-x="595" 
d="M303 736q32 0 71 -30.5t55 -30.5q24 0 41 16t21 40l49 -4q-2 -49 -31 -83.5t-70 -34.5q-37 0 -72 30q-34 31 -55 31q-24 0 -41 -15.5t-22 -40.5l-49 5q3 49 32 83t71 34zM338 518q112 0 174 -74t47 -193q-15 -121 -90 -192q-73 -69 -183 -69q-113 0 -174 73
q-62 74 -47 196q15 120 90 189q74 70 183 70zM334 446q-74 0 -123.5 -52.5t-59.5 -142.5q-10 -86 27.5 -136.5t109.5 -50.5q75 0 125 52.5t60 142.5q10 87 -28 137t-111 50z" />
    <glyph glyph-name="odieresis" unicode="&#xf6;" horiz-adv-x="595" 
d="M298 732q23 0 37.5 -16.5t10.5 -39.5q-2 -20 -17.5 -33t-35.5 -13q-24 0 -38 16t-11 39q3 20 18.5 33.5t35.5 13.5zM447 732q23 0 37.5 -16.5t10.5 -39.5q-2 -20 -17.5 -33t-35.5 -13q-24 0 -38 16t-11 39q3 20 18.5 33.5t35.5 13.5zM338 518q112 0 174 -74t47 -193
q-15 -121 -90 -192q-73 -69 -183 -69q-113 0 -174 73q-62 74 -47 196q15 120 90 189q74 70 183 70zM334 446q-74 0 -123.5 -52.5t-59.5 -142.5q-10 -86 27.5 -136.5t109.5 -50.5q75 0 125 52.5t60 142.5q10 87 -28 137t-111 50z" />
    <glyph glyph-name="divide" unicode="&#xf7;" horiz-adv-x="546" 
d="M322 642q27 0 43.5 -18.5t12.5 -44.5q-3 -23 -21.5 -38.5t-41.5 -15.5q-26 0 -42 18t-12 44q3 23 20.5 39t40.5 16zM535 411l-11 -81h-481l11 81h481zM262 217q27 0 43.5 -18.5t12.5 -44.5q-3 -24 -21.5 -40t-41.5 -16q-25 0 -41.5 19t-12.5 45q3 23 21 39t40 16z" />
    <glyph glyph-name="oslash" unicode="&#xf8;" horiz-adv-x="595" 
d="M512 539l44 -36l-56 -63q59 -74 44 -189q-15 -121 -90 -192q-74 -69 -183 -69q-82 0 -138 40l-55 -61l-45 36l59 65q-56 72 -42 189q15 120 90 189q74 70 183 70q79 0 135 -39zM136 251q-7 -70 15 -115l255 284q-35 26 -87 26q-74 0 -123.5 -52.5t-59.5 -142.5zM458 259
q7 69 -16 117l-255 -285q33 -27 86 -27q75 0 125 52.5t60 142.5z" />
    <glyph glyph-name="ugrave" unicode="&#xf9;" horiz-adv-x="583" 
d="M309 786l76 -191h-67l-105 191h96zM549 510l-72 -510h-80l7 61q-57 -71 -158 -71q-80 0 -127 57q-45 58 -32 147l44 316h87l-44 -318q-8 -54 16 -86t75 -32q83 0 145 72l53 364h86z" />
    <glyph glyph-name="uacute" unicode="&#xfa;" horiz-adv-x="583" 
d="M547 786l-159 -191h-71l130 191h100zM549 510l-72 -510h-80l7 61q-57 -71 -158 -71q-80 0 -127 57q-45 58 -32 147l44 316h87l-44 -318q-8 -54 16 -86t75 -32q83 0 145 72l53 364h86z" />
    <glyph glyph-name="ucircumflex" unicode="&#xfb;" horiz-adv-x="583" 
d="M417 765l96 -169h-72l-70 110l-103 -110h-76l143 169h82zM549 510l-72 -510h-80l7 61q-57 -71 -158 -71q-80 0 -127 57q-45 58 -32 147l44 316h87l-44 -318q-8 -54 16 -86t75 -32q83 0 145 72l53 364h86z" />
    <glyph glyph-name="udieresis" unicode="&#xfc;" horiz-adv-x="583" 
d="M291 732q23 0 37.5 -16.5t10.5 -39.5q-2 -20 -17.5 -33t-35.5 -13q-24 0 -38 16t-11 39q3 20 18.5 33.5t35.5 13.5zM440 732q23 0 37.5 -16.5t10.5 -39.5q-2 -20 -17.5 -33t-35.5 -13q-24 0 -38 16t-11 39q3 20 18.5 33.5t35.5 13.5zM549 510l-72 -510h-80l7 61
q-57 -71 -158 -71q-80 0 -127 57q-45 58 -32 147l44 316h87l-44 -318q-8 -54 16 -86t75 -32q83 0 145 72l53 364h86z" />
    <glyph glyph-name="yacute" unicode="&#xfd;" horiz-adv-x="525" 
d="M504 786l-159 -191h-71l130 191h100zM544 510l-411 -765h-97l147 268l-129 497h90l96 -399l207 399h97z" />
    <glyph glyph-name="thorn" unicode="&#xfe;" 
d="M161 777h86l-45 -315q67 56 156 56q99 0 155 -69q56 -68 38 -198t-91 -195q-72 -66 -171 -66q-91 0 -144 60l-44 -306h-86zM337 447q-82 0 -145 -63l-38 -263q52 -58 128 -58q72 0 122 51t62 145q12 90 -23.5 139t-105.5 49z" />
    <glyph glyph-name="ydieresis" unicode="&#xff;" horiz-adv-x="525" 
d="M249 732q23 0 37.5 -16.5t10.5 -39.5q-2 -20 -17.5 -33t-35.5 -13q-24 0 -38 16t-11 39q3 20 18.5 33.5t35.5 13.5zM398 732q23 0 37.5 -16.5t10.5 -39.5q-2 -20 -17.5 -33t-35.5 -13q-24 0 -38 16t-11 39q3 20 18.5 33.5t35.5 13.5zM544 510l-411 -765h-97l147 268
l-129 497h90l96 -399l207 399h97z" />
    <glyph glyph-name="Amacron" unicode="&#x100;" horiz-adv-x="744" 
d="M595 901l-10 -66h-263l9 66h264zM490 748l199 -748h-95l-56 212h-335l-115 -212h-103l409 748h96zM427 628l-183 -337h271z" />
    <glyph glyph-name="amacron" unicode="&#x101;" 
d="M510 702l-10 -67h-263l9 67h264zM331 518q93 0 144 -56l9 48h85l-71 -510h-78l6 50q-69 -60 -164 -60q-98 0 -155 69q-56 71 -38 200q18 125 89 192t173 67zM337 446q-71 0 -121 -50.5t-62 -144.5q-12 -90 23.5 -138.5t104.5 -48.5q83 0 145 61l38 262q-53 59 -128 59z
" />
    <glyph glyph-name="Abreve" unicode="&#x102;" horiz-adv-x="744" 
d="M555 938h71q-10 -65 -55 -99t-116 -34q-74 0 -112.5 35.5t-29.5 97.5h71q-5 -34 15 -53.5t59 -19.5t65.5 20t31.5 53zM490 748l199 -748h-95l-56 212h-335l-115 -212h-103l409 748h96zM427 628l-183 -337h271z" />
    <glyph glyph-name="abreve" unicode="&#x103;" 
d="M469 732h71q-10 -65 -54.5 -99t-116.5 -34q-73 0 -112 35.5t-30 97.5h71q-5 -35 15 -54t59 -19t65.5 20t31.5 53zM331 518q93 0 144 -56l9 48h85l-71 -510h-78l6 50q-69 -60 -164 -60q-98 0 -155 69q-56 71 -38 200q18 125 89 192t173 67zM337 446q-71 0 -121 -50.5
t-62 -144.5q-12 -90 23.5 -138.5t104.5 -48.5q83 0 145 61l38 262q-53 59 -128 59z" />
    <glyph glyph-name="Aogonek" unicode="&#x104;" horiz-adv-x="744" 
d="M541 -139q29 0 59 13l9 -47q-42 -15 -79 -15q-50 0 -78 23.5t-23 65.5q7 42 45.5 71t112.5 53l-49 187h-335l-115 -212h-103l409 748h96l199 -748h-85l1 -1q-57 -25 -82 -45.5t-29 -48.5q-2 -21 10.5 -32.5t36.5 -11.5zM244 291h271l-88 337z" />
    <glyph glyph-name="aogonek" unicode="&#x105;" 
d="M569 510l-71 -510h-7q-57 -25 -82 -45.5t-29 -48.5q-2 -21 10.5 -32.5t36.5 -11.5q29 0 59 13l9 -47q-42 -15 -79 -15q-50 0 -78 23.5t-23 65.5q10 64 106 105l5 43q-69 -60 -164 -60q-98 0 -155 69q-56 71 -38 200q18 125 89 192t173 67q93 0 144 -56l9 48h85zM282 64
q83 0 145 61l38 262q-53 59 -128 59q-71 0 -121 -50.5t-62 -144.5q-12 -90 23.5 -138.5t104.5 -48.5z" />
    <glyph glyph-name="Cacute" unicode="&#x106;" horiz-adv-x="659" 
d="M748 936l-206 -141h-84l168 141h122zM499 758q118 0 204 -56l-25 -83q-71 57 -175 57q-121 0 -210 -84q-87 -83 -107 -222q-19 -134 44 -217q64 -81 181 -81t208 61l-1 -90q-98 -53 -215 -53q-154 0 -244 105q-89 107 -64 284q24 175 138 277q115 102 266 102z" />
    <glyph glyph-name="cacute" unicode="&#x107;" horiz-adv-x="473" 
d="M537 786l-159 -191h-71l130 191h100zM344 518q82 0 140 -36l-18 -73q-52 37 -118 37q-78 0 -134 -54q-54 -53 -65 -143q-10 -84 29.5 -134.5t112.5 -50.5q70 0 135 41l-2 -79q-69 -36 -143 -36q-109 0 -172 72q-62 72 -47 193q13 121 94 192q82 71 188 71z" />
    <glyph glyph-name="Ccircumflex" unicode="&#x108;" horiz-adv-x="659" 
d="M563 938l98 -143h-73l-71 90l-100 -90h-77l140 143h83zM499 758q118 0 204 -56l-25 -83q-71 57 -175 57q-121 0 -210 -84q-87 -83 -107 -222q-19 -134 44 -217q64 -81 181 -81t208 61l-1 -90q-98 -53 -215 -53q-154 0 -244 105q-89 107 -64 284q24 175 138 277
q115 102 266 102z" />
    <glyph glyph-name="ccircumflex" unicode="&#x109;" horiz-adv-x="473" 
d="M407 765l96 -169h-72l-70 110l-103 -110h-76l143 169h82zM344 518q82 0 140 -36l-18 -73q-52 37 -118 37q-78 0 -134 -54q-54 -53 -65 -143q-10 -84 29.5 -134.5t112.5 -50.5q70 0 135 41l-2 -79q-69 -36 -143 -36q-109 0 -172 72q-62 72 -47 193q13 121 94 192
q82 71 188 71z" />
    <glyph glyph-name="Cdotaccent" unicode="&#x10a;" horiz-adv-x="659" 
d="M516 925q26 0 42 -19t12 -44q-3 -22 -20.5 -37.5t-40.5 -15.5q-26 0 -42 18t-12 43q3 23 21 39t40 16zM499 758q118 0 204 -56l-25 -83q-71 57 -175 57q-121 0 -210 -84q-87 -83 -107 -222q-19 -134 44 -217q64 -81 181 -81t208 61l-1 -90q-98 -53 -215 -53
q-154 0 -244 105q-89 107 -64 284q24 175 138 277q115 102 266 102z" />
    <glyph glyph-name="cdotaccent" unicode="&#x10b;" horiz-adv-x="473" 
d="M360 738q26 0 42 -18.5t12 -43.5q-3 -22 -20.5 -37.5t-40.5 -15.5q-26 0 -42 18.5t-12 43.5q3 22 21.5 37.5t39.5 15.5zM344 518q82 0 140 -36l-18 -73q-52 37 -118 37q-78 0 -134 -54q-54 -53 -65 -143q-10 -84 29.5 -134.5t112.5 -50.5q70 0 135 41l-2 -79
q-69 -36 -143 -36q-109 0 -172 72q-62 72 -47 193q13 121 94 192q82 71 188 71z" />
    <glyph glyph-name="Ccaron" unicode="&#x10c;" horiz-adv-x="659" 
d="M683 938l-140 -143h-81l-99 143h73l72 -90l99 90h76zM499 758q118 0 204 -56l-25 -83q-71 57 -175 57q-121 0 -210 -84q-87 -83 -107 -222q-19 -134 44 -217q64 -81 181 -81t208 61l-1 -90q-98 -53 -215 -53q-154 0 -244 105q-89 107 -64 284q24 175 138 277
q115 102 266 102z" />
    <glyph glyph-name="ccaron" unicode="&#x10d;" horiz-adv-x="473" 
d="M528 762l-143 -168h-82l-96 168h72l69 -110l104 110h76zM344 518q82 0 140 -36l-18 -73q-52 37 -118 37q-78 0 -134 -54q-54 -53 -65 -143q-10 -84 29.5 -134.5t112.5 -50.5q70 0 135 41l-2 -79q-69 -36 -143 -36q-109 0 -172 72q-62 72 -47 193q13 121 94 192
q82 71 188 71z" />
    <glyph glyph-name="Dcaron" unicode="&#x10e;" horiz-adv-x="761" 
d="M604 938l-140 -143h-81l-99 143h73l72 -90l99 90h76zM54 0l106 748h246q168 0 255 -97q88 -95 61 -283q-26 -184 -137 -276q-113 -92 -279 -92h-252zM400 667h-160l-83 -585h156q125 0 211 74q87 74 106 222q21 144 -40 216.5t-190 72.5z" />
    <glyph glyph-name="dcaron" unicode="&#x10f;" horiz-adv-x="740" 
d="M476 461l45 316h86l-109 -777h-78l6 50q-70 -60 -164 -60q-98 0 -155 69q-56 71 -38 200q18 125 89 192t173 67q93 0 145 -57zM740 750q28 0 41.5 -19.5t9.5 -51.5q-18 -123 -137 -186l1 40q58 39 75 101q-24 2 -38.5 19.5t-10.5 41.5q3 23 20 39t39 16zM428 125l38 262
q-54 59 -128 59q-70 0 -121 -51.5t-63 -143.5q-12 -91 23.5 -139t105.5 -48q83 0 145 61z" />
    <glyph glyph-name="Dcroat" unicode="&#x110;" horiz-adv-x="761" 
d="M112 409l48 339h246q168 0 255 -97q88 -95 61 -283q-26 -184 -137 -276q-113 -92 -279 -92h-252l48 338h-96l10 71h96zM630 378q21 144 -40 216.5t-190 72.5h-160l-37 -258h161l-10 -71h-161l-36 -256h156q125 0 211 74q87 74 106 222z" />
    <glyph glyph-name="dslash" unicode="&#x111;" 
d="M671 679l-10 -67h-77l-86 -612h-78l6 50q-70 -60 -164 -60q-98 0 -155 69q-56 71 -38 200q18 125 89 192t173 67q93 0 145 -57l22 151h-100l10 67h99l14 98h86l-14 -98h78zM428 125l38 262q-54 59 -128 59q-70 0 -121 -51.5t-63 -143.5q-12 -91 23.5 -139t105.5 -48
q83 0 145 61z" />
    <glyph glyph-name="Emacron" unicode="&#x112;" horiz-adv-x="599" 
d="M557 901l-10 -66h-263l9 66h264zM628 748l-11 -81h-378l-34 -240h334l-12 -80h-333l-37 -265h378l-12 -82h-469l106 748h468z" />
    <glyph glyph-name="emacron" unicode="&#x113;" horiz-adv-x="525" 
d="M489 702l-10 -67h-263l9 67h264zM334 518q90 0 134 -43q46 -43 40 -104q-8 -90 -106 -121q-86 -27 -252 -27q-8 -74 28 -116.5t109 -42.5q91 0 170 55v-79q-83 -50 -181 -50q-108 0 -167 71q-58 70 -41 194q16 120 91 192q76 71 175 71zM421 375q1 34 -22 52.5t-68 18.5
q-63 0 -110 -44t-61 -112q138 0 199 18.5t62 66.5z" />
    <glyph glyph-name="Ebreve" unicode="&#x114;" horiz-adv-x="599" 
d="M517 938h71q-10 -65 -55 -99t-116 -34q-74 0 -112.5 35.5t-29.5 97.5h71q-5 -34 15 -53.5t59 -19.5t65.5 20t31.5 53zM628 748l-11 -81h-378l-34 -240h334l-12 -80h-333l-37 -265h378l-12 -82h-469l106 748h468z" />
    <glyph glyph-name="ebreve" unicode="&#x115;" horiz-adv-x="525" 
d="M348 599q-73 0 -112 35.5t-30 97.5h71q-5 -35 15 -54t59 -19t65.5 20t31.5 53h71q-10 -65 -54.5 -99t-116.5 -34zM334 518q90 0 134 -43q46 -43 40 -104q-8 -90 -106 -121q-86 -27 -252 -27q-8 -74 28 -116.5t109 -42.5q91 0 170 55v-79q-83 -50 -181 -50q-108 0 -167 71
q-58 70 -41 194q16 120 91 192q76 71 175 71zM421 375q1 34 -22 52.5t-68 18.5q-63 0 -110 -44t-61 -112q138 0 199 18.5t62 66.5z" />
    <glyph glyph-name="Edotaccent" unicode="&#x116;" horiz-adv-x="599" 
d="M424 925q26 0 42 -19t12 -44q-3 -22 -20.5 -37.5t-40.5 -15.5q-26 0 -42 18t-12 43q3 23 21 39t40 16zM628 748l-11 -81h-378l-34 -240h334l-12 -80h-333l-37 -265h378l-12 -82h-469l106 748h468z" />
    <glyph glyph-name="edotaccent" unicode="&#x117;" horiz-adv-x="525" 
d="M352 623q-26 0 -42 18.5t-12 43.5q3 22 21.5 37.5t39.5 15.5q26 0 42 -18.5t12 -43.5q-3 -22 -20.5 -37.5t-40.5 -15.5zM334 518q90 0 134 -43q46 -43 40 -104q-8 -90 -106 -121q-86 -27 -252 -27q-8 -74 28 -116.5t109 -42.5q91 0 170 55v-79q-83 -50 -181 -50
q-108 0 -167 71q-58 70 -41 194q16 120 91 192q76 71 175 71zM421 375q1 34 -22 52.5t-68 18.5q-63 0 -110 -44t-61 -112q138 0 199 18.5t62 66.5z" />
    <glyph glyph-name="Eogonek" unicode="&#x118;" horiz-adv-x="599" 
d="M617 667h-378l-34 -240h334l-12 -80h-333l-37 -265h378l-12 -82h-10l1 -1q-57 -25 -82 -45.5t-29 -48.5q-2 -21 10.5 -32.5t36.5 -11.5q29 0 59 13l9 -47q-42 -15 -79 -15q-50 0 -78 23.5t-23 65.5q9 59 93 99h-377l106 748h468z" />
    <glyph glyph-name="eogonek" unicode="&#x119;" horiz-adv-x="525" 
d="M332 518q90 0 134 -43q46 -43 40 -104q-8 -90 -106 -121q-86 -27 -252 -27q-8 -74 28 -116.5t109 -42.5q91 0 170 55v-79q-58 -36 -125 -46q-56 -24 -80.5 -44.5t-28.5 -48.5q-2 -21 10.5 -32.5t36.5 -11.5q29 0 59 13l9 -47q-42 -15 -79 -15q-50 0 -78 23.5t-23 65.5
q11 58 85 95q-95 11 -142.5 81t-32.5 182q16 120 91 192q76 71 175 71zM419 375q1 34 -22 52.5t-68 18.5q-63 0 -110 -44t-61 -112q138 0 199 18.5t62 66.5z" />
    <glyph glyph-name="Ecaron" unicode="&#x11a;" horiz-adv-x="599" 
d="M591 938l-140 -143h-81l-99 143h73l72 -90l99 90h76zM628 748l-11 -81h-378l-34 -240h334l-12 -80h-333l-37 -265h378l-12 -82h-469l106 748h468z" />
    <glyph glyph-name="ecaron" unicode="&#x11b;" horiz-adv-x="525" 
d="M385 594h-82l-96 168h72l69 -110l104 110h76zM334 518q90 0 134 -43q46 -43 40 -104q-8 -90 -106 -121q-86 -27 -252 -27q-8 -74 28 -116.5t109 -42.5q91 0 170 55v-79q-83 -50 -181 -50q-108 0 -167 71q-58 70 -41 194q16 120 91 192q76 71 175 71zM421 375
q1 34 -22 52.5t-68 18.5q-63 0 -110 -44t-61 -112q138 0 199 18.5t62 66.5z" />
    <glyph glyph-name="Gcircumflex" unicode="&#x11c;" horiz-adv-x="721" 
d="M557 938l98 -143h-73l-71 90l-100 -90h-77l140 143h83zM503 758q121 0 207 -57l-24 -82q-72 57 -179 57q-122 0 -212 -84q-89 -83 -109 -222q-19 -136 42 -217q62 -81 175 -81q83 0 162 40l26 173h-182l11 80h269l-41 -309q-124 -66 -253 -66q-150 0 -238 105
q-87 107 -62 284q24 175 139 277q116 102 269 102z" />
    <glyph glyph-name="gcircumflex" unicode="&#x11d;" horiz-adv-x="605" 
d="M406 765l96 -169h-72l-70 110l-103 -110h-76l143 169h82zM461 455l12 55h81l-76 -544q-16 -106 -87 -168t-175 -62q-110 0 -193 54l26 78q67 -58 168 -58q73 0 118 39.5t56 113.5l13 83q-68 -56 -156 -56q-98 0 -155 69q-57 70 -39 200q18 129 91 193q74 66 172 66
q99 0 144 -63zM319 446q-71 0 -121 -50.5t-62 -144.5q-12 -90 23.5 -138.5t104.5 -48.5q83 0 145 61l38 262q-53 59 -128 59z" />
    <glyph glyph-name="Gbreve" unicode="&#x11e;" horiz-adv-x="721" 
d="M602 938h71q-10 -65 -55 -99t-116 -34q-74 0 -112.5 35.5t-29.5 97.5h71q-5 -34 15 -53.5t59 -19.5t65.5 20t31.5 53zM503 758q121 0 207 -57l-24 -82q-72 57 -179 57q-122 0 -212 -84q-89 -83 -109 -222q-19 -136 42 -217q62 -81 175 -81q83 0 162 40l26 173h-182l11 80
h269l-41 -309q-124 -66 -253 -66q-150 0 -238 105q-87 107 -62 284q24 175 139 277q116 102 269 102z" />
    <glyph glyph-name="gbreve" unicode="&#x11f;" horiz-adv-x="605" 
d="M447 732h71q-10 -65 -54.5 -99t-116.5 -34q-73 0 -112 35.5t-30 97.5h71q-5 -35 15 -54t59 -19t65.5 20t31.5 53zM461 455l12 55h81l-76 -544q-16 -106 -87 -168t-175 -62q-110 0 -193 54l26 78q67 -58 168 -58q73 0 118 39.5t56 113.5l13 83q-68 -56 -156 -56
q-98 0 -155 69q-57 70 -39 200q18 129 91 193q74 66 172 66q99 0 144 -63zM319 446q-71 0 -121 -50.5t-62 -144.5q-12 -90 23.5 -138.5t104.5 -48.5q83 0 145 61l38 262q-53 59 -128 59z" />
    <glyph glyph-name="Gdotaccent" unicode="&#x120;" horiz-adv-x="721" 
d="M509 925q26 0 42 -19t12 -44q-3 -22 -20.5 -37.5t-40.5 -15.5q-26 0 -42 18t-12 43q3 23 21 39t40 16zM503 758q121 0 207 -57l-24 -82q-72 57 -179 57q-122 0 -212 -84q-89 -83 -109 -222q-19 -136 42 -217q62 -81 175 -81q83 0 162 40l26 173h-182l11 80h269l-41 -309
q-124 -66 -253 -66q-150 0 -238 105q-87 107 -62 284q24 175 139 277q116 102 269 102z" />
    <glyph glyph-name="gdotaccent" unicode="&#x121;" horiz-adv-x="605" 
d="M359 738q26 0 42 -18.5t12 -43.5q-3 -22 -20.5 -37.5t-40.5 -15.5q-26 0 -42 18.5t-12 43.5q3 22 21.5 37.5t39.5 15.5zM461 455l12 55h81l-76 -544q-16 -106 -87 -168t-175 -62q-110 0 -193 54l26 78q67 -58 168 -58q73 0 118 39.5t56 113.5l13 83q-68 -56 -156 -56
q-98 0 -155 69q-57 70 -39 200q18 129 91 193q74 66 172 66q99 0 144 -63zM319 446q-71 0 -121 -50.5t-62 -144.5q-12 -90 23.5 -138.5t104.5 -48.5q83 0 145 61l38 262q-53 59 -128 59z" />
    <glyph glyph-name="Gcommaaccent" unicode="&#x122;" horiz-adv-x="721" 
d="M409 285l11 80h269l-41 -309q-124 -66 -253 -66q-150 0 -238 105q-87 107 -62 284q24 175 139 277q116 102 269 102q121 0 207 -57l-24 -82q-72 57 -179 57q-122 0 -212 -84q-89 -83 -109 -222q-19 -136 42 -217q62 -81 175 -81q83 0 162 40l26 173h-182zM374 -44
q28 0 41.5 -19.5t9.5 -51.5q-18 -123 -137 -186l1 40q58 39 75 101q-24 2 -38.5 19.5t-10.5 41.5q3 23 20 39t39 16z" />
    <glyph glyph-name="gcommaaccent" unicode="&#x123;" horiz-adv-x="605" 
d="M449 767q-18 -123 -137 -186l1 40q58 39 75 101q-24 2 -38.5 19.5t-10.5 41.5q3 23 20 39t39 16q28 0 41.5 -19.5t9.5 -51.5zM473 510h81l-76 -544q-16 -106 -87 -168t-175 -62q-110 0 -193 54l26 78q67 -58 168 -58q73 0 118 39.5t56 113.5l13 83q-68 -56 -156 -56
q-98 0 -155 69q-57 70 -39 200q18 129 91 193q74 66 172 66q99 0 144 -63zM409 125l38 262q-53 59 -128 59q-71 0 -121 -50.5t-62 -144.5q-12 -90 23.5 -138.5t104.5 -48.5q83 0 145 61z" />
    <glyph glyph-name="Hcircumflex" unicode="&#x124;" horiz-adv-x="753" 
d="M515 938l98 -143h-73l-71 90l-100 -90h-77l140 143h83zM732 748l-105 -748h-92l50 347h-391l-49 -347h-91l106 748h90l-44 -319h390l45 319h91z" />
    <glyph glyph-name="hcircumflex" unicode="&#x125;" horiz-adv-x="595" 
d="M270 940l99 -142h-73l-71 90l-100 -90h-77l139 142h83zM161 777h86l-48 -327q71 68 165 68q80 0 124 -56q45 -56 32 -149l-44 -313h-86l43 308q8 59 -16 93t-76 34q-81 0 -151 -70l-53 -365h-86z" />
    <glyph glyph-name="Hbar" unicode="&#x126;" horiz-adv-x="753" 
d="M801 620l-9 -70h-88l-77 -550h-92l50 347h-391l-49 -347h-91l78 550h-88l10 70h88l18 128h90l-18 -128h391l18 128h91l-18 -128h87zM596 429l17 121h-390l-17 -121h390z" />
    <glyph glyph-name="hbar" unicode="&#x127;" horiz-adv-x="595" 
d="M364 518q80 0 124 -56q45 -56 32 -149l-44 -313h-86l43 308q8 59 -16 93t-76 34q-81 0 -151 -70l-53 -365h-86l87 612h-76l9 67h76l14 98h86l-14 -98h102l-11 -67h-101l-24 -162q71 68 165 68z" />
    <glyph glyph-name="Itilde" unicode="&#x128;" horiz-adv-x="271" 
d="M158 936q35 0 69 -31q35 -31 57 -31q24 0 41 16t21 41l50 -5q-3 -49 -32 -83t-70 -34q-35 0 -71 30q-35 31 -56 31q-24 0 -41 -16t-22 -41l-49 6q3 49 32 83t71 34zM250 748l-105 -748h-91l106 748h90z" />
    <glyph glyph-name="itilde" unicode="&#x129;" horiz-adv-x="261" 
d="M121 736q32 0 71 -30.5t55 -30.5q24 0 41 16t21 40l49 -4q-2 -49 -31 -83.5t-70 -34.5q-37 0 -72 30q-34 31 -55 31q-24 0 -41 -15.5t-22 -40.5l-49 5q3 49 32 83t71 34zM209 510l-72 -510h-86l72 510h86z" />
    <glyph glyph-name="Imacron" unicode="&#x12a;" horiz-adv-x="271" 
d="M250 748l-105 -748h-91l106 748h90zM362 901l-10 -66h-263l9 66h264z" />
    <glyph glyph-name="imacron" unicode="&#x12b;" horiz-adv-x="261" 
d="M209 510l-72 -510h-86l72 510h86zM325 702l-10 -67h-263l9 67h264z" />
    <glyph glyph-name="Ibreve" unicode="&#x12c;" horiz-adv-x="271" 
d="M321 938h71q-10 -65 -55 -99t-116 -34q-74 0 -112.5 35.5t-29.5 97.5h71q-5 -34 15 -53.5t59 -19.5t65.5 20t31.5 53zM250 748l-105 -748h-91l106 748h90z" />
    <glyph glyph-name="ibreve" unicode="&#x12d;" horiz-adv-x="261" 
d="M292 732h71q-10 -65 -54.5 -99t-116.5 -34q-73 0 -112 35.5t-30 97.5h71q-5 -35 15 -54t59 -19t65.5 20t31.5 53zM218 510l-72 -510h-86l72 510h86z" />
    <glyph glyph-name="Iogonek" unicode="&#x12e;" horiz-adv-x="271" 
d="M255 748l-105 -748h-31q-57 -25 -82 -45.5t-29 -48.5q-2 -21 10.5 -32.5t36.5 -11.5q29 0 59 13l9 -47q-42 -15 -79 -15q-50 0 -78 23.5t-23 65.5q10 66 118 110l104 736h90z" />
    <glyph glyph-name="iogonek" unicode="&#x12f;" horiz-adv-x="261" 
d="M199 738q26 0 42 -18.5t12 -43.5q-3 -22 -20.5 -37.5t-40.5 -15.5q-26 0 -42 18.5t-12 43.5q3 22 21.5 37.5t39.5 15.5zM59 21l69 489h86l-72 -510h-49q-57 -25 -82 -45.5t-29 -48.5q-2 -21 10.5 -32.5t36.5 -11.5q29 0 59 13l9 -47q-42 -15 -79 -15q-50 0 -78 23.5
t-23 65.5q6 39 40.5 67t101.5 52z" />
    <glyph glyph-name="Idot" unicode="&#x130;" horiz-adv-x="271" 
d="M250 748l-105 -748h-91l106 748h90zM229 925q26 0 42 -19t12 -44q-3 -22 -20.5 -37.5t-40.5 -15.5q-26 0 -42 18t-12 43q3 23 21 39t40 16z" />
    <glyph glyph-name="dotlessi" unicode="&#x131;" horiz-adv-x="261" 
d="M209 510l-72 -510h-86l72 510h86z" />
    <glyph glyph-name="Jcircumflex" unicode="&#x134;" horiz-adv-x="467" 
d="M478 938l98 -143h-73l-71 90l-100 -90h-77l140 143h83zM361 748h91l-75 -537q-15 -107 -80 -164t-165 -57q-75 0 -137 32l15 83q49 -33 122 -33q59 0 102 39.5t53 105.5z" />
    <glyph glyph-name="jcircumflex" unicode="&#x135;" horiz-adv-x="261" 
d="M242 765l96 -169h-72l-70 110l-103 -110h-76l143 169h82zM125 510h86l-83 -594q-12 -91 -59.5 -136t-122.5 -45q-41 0 -79 13l23 76q20 -12 48 -12q89 0 103 104z" />
    <glyph glyph-name="Kcommaaccent" unicode="&#x136;" horiz-adv-x="675" 
d="M697 748l-381 -370l306 -378h-112l-262 317l-65 -60l-38 -257h-91l106 748h90l-51 -362l373 362h125zM299 -41q28 0 41.5 -19.5t9.5 -51.5q-18 -123 -137 -186l1 40q58 39 75 101q-24 2 -38.5 19.5t-10.5 41.5q3 23 20 39t39 16z" />
    <glyph glyph-name="kcommaaccent" unicode="&#x137;" horiz-adv-x="545" 
d="M537 510l-253 -224l204 -286h-101l-167 230l-57 -49l-26 -181h-86l110 777h86l-69 -480l244 213h115zM240 -41q28 0 41.5 -19.5t9.5 -51.5q-18 -123 -137 -186l1 40q58 39 75 101q-24 2 -38.5 19.5t-10.5 41.5q3 23 20 39t39 16z" />
    <glyph glyph-name="Lacute" unicode="&#x139;" horiz-adv-x="591" 
d="M250 748l-93 -666h375l-11 -82h-467l106 748h90zM463 936l-206 -141h-84l168 141h122z" />
    <glyph glyph-name="lacute" unicode="&#x13a;" horiz-adv-x="261" 
d="M438 950l-207 -141h-83l168 141h122zM228 777l-109 -777h-86l109 777h86z" />
    <glyph glyph-name="Lcommaaccent" unicode="&#x13b;" horiz-adv-x="591" 
d="M157 82h375l-11 -82h-467l106 748h90zM281 -41q28 0 41.5 -19.5t9.5 -51.5q-18 -123 -137 -186l1 40q58 39 75 101q-24 2 -38.5 19.5t-10.5 41.5q3 23 20 39t39 16z" />
    <glyph glyph-name="lcommaaccent" unicode="&#x13c;" horiz-adv-x="261" 
d="M161 777h86l-110 -777h-86zM82 -41q28 0 41.5 -19.5t9.5 -51.5q-18 -123 -137 -186l1 40q58 39 75 101q-24 2 -38.5 19.5t-10.5 41.5q3 23 20 39t39 16z" />
    <glyph glyph-name="Lcaron" unicode="&#x13d;" horiz-adv-x="591" 
d="M250 748l-93 -666h375l-11 -82h-467l106 748h90zM554 750q28 0 41.5 -19.5t9.5 -51.5q-18 -123 -137 -186l1 40q58 39 75 101q-24 2 -38.5 19.5t-10.5 41.5q3 23 20 39t39 16z" />
    <glyph glyph-name="lcaron" unicode="&#x13e;" horiz-adv-x="378" 
d="M51 0l110 777h86l-110 -777h-86zM376 750q28 0 41.5 -19.5t9.5 -51.5q-18 -123 -137 -186l1 40q58 39 75 101q-24 2 -38.5 19.5t-10.5 41.5q3 23 20 39t39 16z" />
    <glyph glyph-name="Ldot" unicode="&#x13f;" horiz-adv-x="591" 
d="M250 748l-93 -666h375l-11 -82h-467l106 748h90zM431 445q26 0 42 -19t13 -45q-4 -23 -22 -39t-41 -16q-26 0 -42 18.5t-12 44.5q3 24 21 40t41 16z" />
    <glyph glyph-name="ldot" unicode="&#x140;" horiz-adv-x="390" 
d="M247 777l-110 -777h-86l110 777h86zM340 355q26 0 42 -19t13 -45q-4 -23 -22 -39t-41 -16q-26 0 -42 18.5t-12 44.5q3 24 21 40t41 16z" />
    <glyph glyph-name="Lslash" unicode="&#x141;" horiz-adv-x="591" 
d="M157 82h375l-11 -82h-467l37 260l-86 -29l-7 69l103 35l59 413h90l-53 -380l122 41l7 -68l-140 -48z" />
    <glyph glyph-name="lslash" unicode="&#x142;" horiz-adv-x="261" 
d="M298 317l-122 -42l-39 -275h-86l35 244l-98 -33l-7 68l115 40l65 458h86l-60 -427l105 36z" />
    <glyph glyph-name="Nacute" unicode="&#x143;" horiz-adv-x="745" 
d="M724 748l-106 -748h-84l-306 583l-83 -583h-91l106 748h84l306 -582l83 582h91zM696 936l-206 -141h-84l168 141h122z" />
    <glyph glyph-name="nacute" unicode="&#x144;" horiz-adv-x="595" 
d="M535 786l-159 -191h-71l130 191h100zM364 518q80 0 124 -56q45 -56 32 -149l-44 -313h-86l43 308q8 59 -16 93t-77 34q-80 0 -150 -70l-53 -365h-86l72 510h80l-8 -64q65 72 169 72z" />
    <glyph glyph-name="Ncommaaccent" unicode="&#x145;" horiz-adv-x="745" 
d="M633 748h91l-106 -748h-84l-306 583l-83 -583h-91l106 748h84l306 -582zM333 -41q28 0 41.5 -19.5t9.5 -51.5q-18 -123 -137 -186l1 40q58 39 75 101q-24 2 -38.5 19.5t-10.5 41.5q3 23 20 39t39 16z" />
    <glyph glyph-name="ncommaaccent" unicode="&#x146;" horiz-adv-x="595" 
d="M364 518q80 0 124 -56q45 -56 32 -149l-44 -313h-86l43 308q8 59 -16 93t-77 34q-80 0 -150 -70l-53 -365h-86l72 510h80l-8 -64q65 72 169 72zM252 -41q28 0 41.5 -19.5t9.5 -51.5q-18 -123 -137 -186l1 40q58 39 75 101q-24 2 -38.5 19.5t-10.5 41.5q3 23 20 39t39 16z
" />
    <glyph glyph-name="Ncaron" unicode="&#x147;" horiz-adv-x="745" 
d="M724 748l-106 -748h-84l-306 583l-83 -583h-91l106 748h84l306 -582l83 582h91zM631 938l-140 -143h-81l-99 143h73l72 -90l99 90h76z" />
    <glyph glyph-name="ncaron" unicode="&#x148;" horiz-adv-x="595" 
d="M527 762l-143 -168h-82l-96 168h72l69 -110l104 110h76zM364 518q80 0 124 -56q45 -56 32 -149l-44 -313h-86l43 308q8 59 -16 93t-77 34q-80 0 -150 -70l-53 -365h-86l72 510h80l-8 -64q65 72 169 72z" />
    <glyph glyph-name="Eng" unicode="&#x14a;" horiz-adv-x="745" 
d="M724 748l-34 -246l-72 -512q-16 -116 -86 -180.5t-179 -64.5l7 81q68 0 112.5 43.5t55.5 122.5l2 15l-302 576l-83 -583h-91l106 748h84l306 -582l83 582h91z" />
    <glyph glyph-name="eng" unicode="&#x14b;" horiz-adv-x="595" 
d="M364 518q80 0 124 -56q45 -56 32 -149l-44 -313l-11 -77q-27 -188 -199 -188l6 77q90 0 107 111l16 115l38 270q8 59 -16 93t-77 34q-80 0 -150 -70l-53 -365h-86l72 510h80l-8 -64q65 72 169 72z" />
    <glyph glyph-name="Omacron" unicode="&#x14c;" horiz-adv-x="815" 
d="M498 758q160 0 246 -105q85 -105 60 -283q-24 -175 -136 -278q-111 -102 -268 -102q-160 0 -246 105q-85 106 -60 284q26 177 136 277q111 102 268 102zM494 676q-121 0 -204 -82q-84 -81 -104 -224q-20 -140 40 -219q61 -79 177 -79q121 0 205 81q84 83 105 227
q19 138 -42 217t-177 79zM649 901l-10 -66h-263l9 66h264z" />
    <glyph glyph-name="omacron" unicode="&#x14d;" horiz-adv-x="595" 
d="M507 702l-10 -67h-263l9 67h264zM338 518q112 0 174 -74t47 -193q-15 -121 -90 -192q-73 -69 -183 -69q-113 0 -174 73q-62 74 -47 196q15 120 90 189q74 70 183 70zM334 446q-74 0 -123.5 -52.5t-59.5 -142.5q-10 -86 27.5 -136.5t109.5 -50.5q75 0 125 52.5t60 142.5
q10 87 -28 137t-111 50z" />
    <glyph glyph-name="Obreve" unicode="&#x14e;" horiz-adv-x="815" 
d="M608 938h71q-10 -65 -55 -99t-116 -34q-74 0 -112.5 35.5t-29.5 97.5h71q-5 -34 15 -53.5t59 -19.5t65.5 20t31.5 53zM498 758q160 0 246 -105q85 -105 60 -283q-24 -175 -136 -278q-111 -102 -268 -102q-160 0 -246 105q-85 106 -60 284q26 177 136 277q111 102 268 102
zM494 676q-121 0 -204 -82q-84 -81 -104 -224q-20 -140 40 -219q61 -79 177 -79q121 0 205 81q84 83 105 227q19 138 -42 217t-177 79z" />
    <glyph glyph-name="obreve" unicode="&#x14f;" horiz-adv-x="595" 
d="M465 732h71q-10 -65 -54.5 -99t-116.5 -34q-73 0 -112 35.5t-30 97.5h71q-5 -35 15 -54t59 -19t65.5 20t31.5 53zM338 518q112 0 174 -74t47 -193q-15 -121 -90 -192q-73 -69 -183 -69q-113 0 -174 73q-62 74 -47 196q15 120 90 189q74 70 183 70zM334 446
q-74 0 -123.5 -52.5t-59.5 -142.5q-10 -86 27.5 -136.5t109.5 -50.5q75 0 125 52.5t60 142.5q10 87 -28 137t-111 50z" />
    <glyph glyph-name="Ohungarumlaut" unicode="&#x150;" horiz-adv-x="815" 
d="M498 758q160 0 246 -105q85 -105 60 -283q-24 -175 -136 -278q-111 -102 -268 -102q-160 0 -246 105q-85 106 -60 284q26 177 136 277q111 102 268 102zM494 676q-121 0 -204 -82q-84 -81 -104 -224q-20 -140 40 -219q61 -79 177 -79q121 0 205 81q84 83 105 227
q19 138 -42 217t-177 79zM541 946l-95 -148h-69l80 148h84zM711 946l-95 -148h-69l80 148h84z" />
    <glyph glyph-name="ohungarumlaut" unicode="&#x151;" horiz-adv-x="595" 
d="M406 763l-99 -158h-69l85 158h83zM576 763l-98 -158h-70l85 158h83zM338 518q112 0 174 -74t47 -193q-15 -121 -90 -192q-73 -69 -183 -69q-113 0 -174 73q-62 74 -47 196q15 120 90 189q74 70 183 70zM334 446q-74 0 -123.5 -52.5t-59.5 -142.5q-10 -86 27.5 -136.5
t109.5 -50.5q75 0 125 52.5t60 142.5q10 87 -28 137t-111 50z" />
    <glyph glyph-name="OE" unicode="&#x152;" horiz-adv-x="1180" 
d="M1223 667h-377l-35 -240h334l-11 -80h-334l-1 -7l-36 -258h378l-12 -82h-468l14 99q-112 -109 -275 -109q-160 0 -246 105q-85 106 -60 284q26 177 136 277q111 102 268 102q170 0 253 -114l15 104h468zM402 72q120 0 205 82q87 84 106 225q19 138 -41 218
q-60 79 -176 79q-120 0 -205 -82q-86 -83 -105 -224q-20 -140 40 -219t176 -79z" />
    <glyph glyph-name="oe" unicode="&#x153;" horiz-adv-x="915" 
d="M721 518q90 0 134 -43t40 -104q-6 -72 -71 -106q-85 -44 -288 -42q-8 -74 28 -116.5t109 -42.5q91 0 170 55v-79q-82 -50 -180 -50q-132 0 -186 99q-77 -99 -211 -99q-112 0 -173 73q-62 74 -48 196q17 121 91 189q74 70 183 70q67 0 118 -28t78 -78q78 106 206 106z
M269 64q75 0 125 52.5t60 142.5q10 87 -28 137t-111 50q-74 0 -123.5 -52.5t-59.5 -142.5q-10 -86 27.5 -136.5t109.5 -50.5zM807 375q2 33 -21.5 52t-68.5 19q-63 0 -110 -43.5t-61 -112.5q138 0 199 18.5t62 66.5z" />
    <glyph glyph-name="Racute" unicode="&#x154;" horiz-adv-x="679" 
d="M634 936l-206 -141h-84l168 141h122zM54 0l106 748h253q115 0 173.5 -58.5t43.5 -167.5q-22 -154 -165 -201l133 -321h-98l-128 305h-16h-168l-43 -305h-91zM538 527q10 68 -26.5 103.5t-109.5 35.5h-163l-39 -279h157q74 0 123 36.5t58 103.5z" />
    <glyph glyph-name="racute" unicode="&#x155;" horiz-adv-x="348" 
d="M435 786l-159 -191h-71l130 191h100zM365 512l-13 -87q-80 0 -163 -72l-52 -353h-86l72 510h86l-10 -69q71 71 166 71z" />
    <glyph glyph-name="Rcommaaccent" unicode="&#x156;" horiz-adv-x="679" 
d="M630 522q-22 -154 -165 -201l133 -321h-98l-128 305h-16h-168l-43 -305h-91l106 748h253q115 0 173.5 -58.5t43.5 -167.5zM538 527q10 68 -26.5 103.5t-109.5 35.5h-163l-39 -279h157q74 0 123 36.5t58 103.5zM301 -41q28 0 41.5 -19.5t9.5 -51.5q-18 -123 -137 -186
l1 40q58 39 75 101q-24 2 -38.5 19.5t-10.5 41.5q3 23 20 39t39 16z" />
    <glyph glyph-name="rcommaaccent" unicode="&#x157;" horiz-adv-x="348" 
d="M123 510h86l-10 -69q71 71 166 71l-13 -87q-80 0 -163 -72l-52 -353h-86zM84 -41q28 0 41.5 -19.5t9.5 -51.5q-18 -123 -137 -186l1 40q58 39 75 101q-24 2 -38.5 19.5t-10.5 41.5q3 23 20 39t39 16z" />
    <glyph glyph-name="Rcaron" unicode="&#x158;" horiz-adv-x="679" 
d="M428 795h-81l-99 143h73l72 -90l99 90h76zM630 522q-22 -154 -165 -201l133 -321h-98l-128 305h-16h-168l-43 -305h-91l106 748h253q115 0 173.5 -58.5t43.5 -167.5zM538 527q10 68 -26.5 103.5t-109.5 35.5h-163l-39 -279h157q74 0 123 36.5t58 103.5z" />
    <glyph glyph-name="rcaron" unicode="&#x159;" horiz-adv-x="348" 
d="M427 762l-143 -168h-82l-96 168h72l69 -110l104 110h76zM365 512l-13 -87q-80 0 -163 -72l-52 -353h-86l72 510h86l-10 -69q71 71 166 71z" />
    <glyph glyph-name="Sacute" unicode="&#x15a;" horiz-adv-x="655" 
d="M667 936l-206 -141h-84l168 141h122zM407 758q114 0 208 -44l-20 -84q-83 46 -189 46q-171 0 -189 -119q-9 -59 23 -83q33 -24 118 -48l19 -5q121 -31 171 -80t37 -146q-13 -96 -94 -151q-79 -55 -203 -55q-148 0 -248 56l19 88q89 -61 228 -61q88 0 142.5 31.5
t63.5 92.5q10 65 -37 96q-26 16 -54 27q-31 11 -80 24q-105 28 -156 69q-56 47 -42 150q12 91 86 143.5t197 52.5z" />
    <glyph glyph-name="sacute" unicode="&#x15b;" horiz-adv-x="460" 
d="M464 786l-159 -191h-71l130 191h100zM269 518q77 0 143 -29l-16 -74q-58 31 -125 31q-106 0 -116 -70q-1 -29 13 -47q5 -6 23 -14q12 -5 27 -10l39 -11q80 -22 114.5 -56.5t25.5 -94.5q-10 -72 -67.5 -112.5t-145.5 -40.5q-97 0 -168 38l21 79q68 -44 148 -44
q51 0 85.5 20t40.5 57q6 40 -25 57q-25 14 -75 28q-80 23 -114 53q-35 31 -28 97q8 66 61.5 104.5t138.5 38.5z" />
    <glyph glyph-name="Scircumflex" unicode="&#x15c;" horiz-adv-x="655" 
d="M481 938l98 -143h-73l-71 90l-100 -90h-77l140 143h83zM407 758q114 0 208 -44l-20 -84q-83 46 -189 46q-171 0 -189 -119q-9 -59 23 -83q33 -24 118 -48l19 -5q121 -31 171 -80t37 -146q-13 -96 -94 -151q-79 -55 -203 -55q-148 0 -248 56l19 88q89 -61 228 -61
q88 0 142.5 31.5t63.5 92.5q10 65 -37 96q-26 16 -54 27q-31 11 -80 24q-105 28 -156 69q-56 47 -42 150q12 91 86 143.5t197 52.5z" />
    <glyph glyph-name="scircumflex" unicode="&#x15d;" horiz-adv-x="460" 
d="M335 765l96 -169h-72l-70 110l-103 -110h-76l143 169h82zM269 518q77 0 143 -29l-16 -74q-58 31 -125 31q-106 0 -116 -70q-1 -29 13 -47q5 -6 23 -14q12 -5 27 -10l39 -11q80 -22 114.5 -56.5t25.5 -94.5q-10 -72 -67.5 -112.5t-145.5 -40.5q-97 0 -168 38l21 79
q68 -44 148 -44q51 0 85.5 20t40.5 57q6 40 -25 57q-25 14 -75 28q-80 23 -114 53q-35 31 -28 97q8 66 61.5 104.5t138.5 38.5z" />
    <glyph glyph-name="Scedilla" unicode="&#x15e;" horiz-adv-x="655" 
d="M406 676q-171 0 -189 -119q-9 -59 23 -83q33 -24 118 -48l19 -5q121 -31 171 -80t37 -146q-12 -90 -86.5 -145.5t-189.5 -60.5l-17 -50q52 -2 84 -28t26 -72q-6 -41 -42.5 -65t-86.5 -24q-61 0 -101 25l18 42q29 -18 67 -18q73 0 81 50q4 24 -18 39t-59 15q-17 0 -32 -4
l35 90q-133 4 -224 56l19 88q89 -61 228 -61q88 0 142.5 31.5t63.5 92.5q10 65 -37 96q-26 16 -54 27q-31 11 -80 24q-105 28 -156 69q-56 47 -42 150q12 91 86 143.5t197 52.5q114 0 208 -44l-20 -84q-83 46 -189 46z" />
    <glyph glyph-name="scedilla" unicode="&#x15f;" horiz-adv-x="460" 
d="M218 305l39 -11q80 -22 114.5 -56.5t25.5 -94.5q-10 -69 -63.5 -109.5t-135.5 -43.5l-18 -51q52 -2 84 -28t26 -72q-6 -41 -42.5 -65t-86.5 -24q-61 0 -101 25l18 42q28 -18 67 -18q73 0 81 50q4 24 -18 39t-59 15q-17 0 -32 -4l35 92q-75 5 -136 37l21 79
q68 -44 148 -44q51 0 85.5 20t40.5 57q6 40 -25 57q-25 14 -75 28q-80 23 -114 53q-35 31 -28 97q8 66 61.5 104.5t138.5 38.5q77 0 143 -29l-16 -74q-58 31 -125 31q-106 0 -116 -70q-1 -29 13 -47q5 -6 23 -14q12 -5 27 -10z" />
    <glyph glyph-name="Scaron" unicode="&#x160;" horiz-adv-x="655" 
d="M601 938l-140 -143h-81l-99 143h73l72 -90l99 90h76zM407 758q114 0 208 -44l-20 -84q-83 46 -189 46q-171 0 -189 -119q-9 -59 23 -83q33 -24 118 -48l19 -5q121 -31 171 -80t37 -146q-13 -96 -94 -151q-79 -55 -203 -55q-148 0 -248 56l19 88q89 -61 228 -61
q88 0 142.5 31.5t63.5 92.5q10 65 -37 96q-26 16 -54 27q-31 11 -80 24q-105 28 -156 69q-56 47 -42 150q12 91 86 143.5t197 52.5z" />
    <glyph glyph-name="scaron" unicode="&#x161;" horiz-adv-x="460" 
d="M456 762l-143 -168h-82l-96 168h72l69 -110l104 110h76zM269 518q77 0 143 -29l-16 -74q-58 31 -125 31q-106 0 -116 -70q-1 -29 13 -47q5 -6 23 -14q12 -5 27 -10l39 -11q80 -22 114.5 -56.5t25.5 -94.5q-10 -72 -67.5 -112.5t-145.5 -40.5q-97 0 -168 38l21 79
q68 -44 148 -44q51 0 85.5 20t40.5 57q6 40 -25 57q-25 14 -75 28q-80 23 -114 53q-35 31 -28 97q8 66 61.5 104.5t138.5 38.5z" />
    <glyph glyph-name="Tcaron" unicode="&#x164;" horiz-adv-x="682" 
d="M735 748l-11 -81h-278l-95 -667h-91l94 667h-278l11 81h648zM600 938l-140 -143h-81l-99 143h73l72 -90l99 90h76z" />
    <glyph glyph-name="tcaron" unicode="&#x165;" horiz-adv-x="517" 
d="M503 750q28 0 41.5 -19.5t9.5 -51.5q-18 -123 -137 -186l1 40q58 39 75 101q-24 2 -38.5 19.5t-10.5 41.5q3 23 20 39t39 16zM270 676l-24 -166h135l-9 -73h-137l-39 -272q-13 -91 82 -91q8 0 23 2t18 2l-7 -79q-30 -2 -50 -2q-83 0 -124.5 40.5t-29.5 116.5l41 283h-105
l11 73h105l24 166h86z" />
    <glyph glyph-name="Tbar" unicode="&#x166;" horiz-adv-x="682" 
d="M724 667h-278l-36 -256h140l-10 -71h-141l-48 -340h-91l48 340h-141l10 71h141l36 256h-278l11 81h648z" />
    <glyph glyph-name="tbar" unicode="&#x167;" horiz-adv-x="375" 
d="M372 437h-137l-19 -136h130l-9 -63h-130l-11 -73q-13 -91 82 -91q8 0 23 2t18 2l-7 -79q-30 -2 -50 -2q-83 0 -124.5 40.5t-29.5 116.5l12 84h-103l9 63h103l20 136h-105l11 73h105l24 166h86l-24 -166h135z" />
    <glyph glyph-name="Utilde" unicode="&#x168;" horiz-adv-x="766" 
d="M421 936q35 0 69 -31q35 -31 57 -31q24 0 41 16t21 41l50 -5q-3 -49 -32 -83t-70 -34q-35 0 -71 30q-35 31 -56 31q-24 0 -41 -16t-22 -41l-49 6q3 49 32 83t71 34zM678 748h91l-67 -470q-19 -139 -109 -214q-89 -74 -226 -74q-141 0 -209.5 76.5t-49.5 216.5l66 465h91
l-66 -469q-15 -101 30.5 -154t142.5 -53q101 0 163.5 55t77.5 158z" />
    <glyph glyph-name="utilde" unicode="&#x169;" horiz-adv-x="583" 
d="M296 736q32 0 71 -30.5t55 -30.5q24 0 41 16t21 40l49 -4q-2 -49 -31 -83.5t-70 -34.5q-38 0 -72 30q-34 31 -55 31q-24 0 -41 -15.5t-22 -40.5l-49 5q3 49 32 83t71 34zM549 510l-72 -510h-80l7 61q-57 -71 -158 -71q-80 0 -127 57q-45 58 -32 147l44 316h87l-44 -318
q-8 -54 16 -86t75 -32q83 0 145 72l53 364h86z" />
    <glyph glyph-name="Umacron" unicode="&#x16a;" horiz-adv-x="766" 
d="M625 901l-10 -66h-263l9 66h264zM678 748h91l-67 -470q-19 -139 -109 -214q-89 -74 -226 -74q-141 0 -209.5 76.5t-49.5 216.5l66 465h91l-66 -469q-15 -101 30.5 -154t142.5 -53q101 0 163.5 55t77.5 158z" />
    <glyph glyph-name="umacron" unicode="&#x16b;" horiz-adv-x="583" 
d="M500 702l-10 -67h-263l9 67h264zM549 510l-72 -510h-80l7 61q-57 -71 -158 -71q-80 0 -127 57q-45 58 -32 147l44 316h87l-44 -318q-8 -54 16 -86t75 -32q83 0 145 72l53 364h86z" />
    <glyph glyph-name="Ubreve" unicode="&#x16c;" horiz-adv-x="766" 
d="M584 938h71q-10 -65 -55 -99t-116 -34q-74 0 -112.5 35.5t-29.5 97.5h71q-5 -34 15 -53.5t59 -19.5t65.5 20t31.5 53zM678 748h91l-67 -470q-19 -139 -109 -214q-89 -74 -226 -74q-141 0 -209.5 76.5t-49.5 216.5l66 465h91l-66 -469q-15 -101 30.5 -154t142.5 -53
q101 0 163.5 55t77.5 158z" />
    <glyph glyph-name="ubreve" unicode="&#x16d;" horiz-adv-x="583" 
d="M458 732h71q-10 -65 -54.5 -99t-116.5 -34q-73 0 -112 35.5t-30 97.5h71q-5 -35 15 -54t59 -19t65.5 20t31.5 53zM549 510l-72 -510h-80l7 61q-57 -71 -158 -71q-80 0 -127 57q-45 58 -32 147l44 316h87l-44 -318q-8 -54 16 -86t75 -32q83 0 145 72l53 364h86z" />
    <glyph glyph-name="Uring" unicode="&#x16e;" horiz-adv-x="766" 
d="M501 987q46 0 73 -28.5t20 -72.5q-6 -41 -37.5 -67t-73.5 -26q-45 0 -72.5 29t-21.5 73q6 41 37.5 66.5t74.5 25.5zM498 941q-22 0 -38 -13.5t-19 -35.5q-4 -21 9.5 -36.5t34.5 -15.5q22 0 38.5 14t20.5 35q3 21 -11 36.5t-35 15.5zM678 748h91l-67 -470
q-19 -139 -109 -214q-89 -74 -226 -74q-141 0 -209.5 76.5t-49.5 216.5l66 465h91l-66 -469q-15 -101 30.5 -154t142.5 -53q101 0 163.5 55t77.5 158z" />
    <glyph glyph-name="uring" unicode="&#x16f;" horiz-adv-x="583" 
d="M377 798q49 0 79 -31.5t23 -79.5q-7 -44 -42 -72.5t-81 -28.5q-51 0 -80.5 31t-22.5 79q6 44 42 73t82 29zM374 748q-26 0 -44.5 -15.5t-22.5 -40.5q-4 -24 11.5 -40t41.5 -16q25 0 43 15t21 39q4 25 -11 41.5t-39 16.5zM549 510l-72 -510h-80l7 61q-57 -71 -158 -71
q-80 0 -127 57q-45 58 -32 147l44 316h87l-44 -318q-8 -54 16 -86t75 -32q83 0 145 72l53 364h86z" />
    <glyph glyph-name="Uhungarumlaut" unicode="&#x170;" horiz-adv-x="766" 
d="M517 946l-95 -148h-69l80 148h84zM687 946l-95 -148h-69l80 148h84zM678 748h91l-67 -470q-19 -139 -109 -214q-89 -74 -226 -74q-141 0 -209.5 76.5t-49.5 216.5l66 465h91l-66 -469q-15 -101 30.5 -154t142.5 -53q101 0 163.5 55t77.5 158z" />
    <glyph glyph-name="uhungarumlaut" unicode="&#x171;" horiz-adv-x="583" 
d="M399 763l-99 -158h-69l85 158h83zM569 763l-98 -158h-70l85 158h83zM549 510l-72 -510h-80l7 61q-57 -71 -158 -71q-80 0 -127 57q-45 58 -32 147l44 316h87l-44 -318q-8 -54 16 -86t75 -32q83 0 145 72l53 364h86z" />
    <glyph glyph-name="Uogonek" unicode="&#x172;" horiz-adv-x="766" 
d="M678 748h91l-67 -470q-15 -112 -77.5 -183t-162.5 -95q-57 -25 -82 -45.5t-29 -48.5q-2 -21 10.5 -32.5t36.5 -11.5q29 0 59 13l9 -47q-42 -15 -79 -15q-50 0 -78 23.5t-23 65.5q7 50 72 88q-136 2 -202.5 79t-47.5 214l66 465h91l-66 -469q-15 -101 30.5 -154t142.5 -53
q101 0 163.5 55t77.5 158z" />
    <glyph glyph-name="uogonek" unicode="&#x173;" horiz-adv-x="583" 
d="M411 -134q29 0 59 13l9 -47q-42 -15 -79 -15q-50 0 -78 23.5t-23 65.5q11 62 99 102l6 53q-57 -71 -158 -71q-80 0 -127 57q-45 58 -32 147l44 316h87l-44 -318q-8 -54 16 -86t75 -32q83 0 145 72l53 364h86l-72 -510h-11q-51 -23 -74.5 -43t-27.5 -47q-2 -21 10.5 -32.5
t36.5 -11.5z" />
    <glyph glyph-name="Wcircumflex" unicode="&#x174;" horiz-adv-x="1151" 
d="M713 938l98 -143h-73l-71 90l-100 -90h-77l140 143h83zM1194 748l-370 -748h-94l-107 571l-273 -571h-92l-159 748h96l125 -624l288 624h74l110 -624l303 624h99z" />
    <glyph glyph-name="wcircumflex" unicode="&#x175;" horiz-adv-x="815" 
d="M520 765l96 -169h-72l-70 110l-103 -110h-76l143 169h82zM834 510l-248 -510h-82l-79 373l-185 -373h-83l-104 510h90l72 -400l192 400h67l78 -400l187 400h95z" />
    <glyph glyph-name="Ycircumflex" unicode="&#x176;" horiz-adv-x="692" 
d="M746 748l-346 -448l-44 -300h-90l42 301l-220 447h102l172 -357l275 357h109zM484 938l98 -143h-73l-71 90l-100 -90h-77l140 143h83z" />
    <glyph glyph-name="ycircumflex" unicode="&#x177;" horiz-adv-x="525" 
d="M375 765l96 -169h-72l-70 110l-103 -110h-76l143 169h82zM544 510l-411 -765h-97l147 268l-129 497h90l96 -399l207 399h97z" />
    <glyph glyph-name="Ydieresis" unicode="&#x178;" horiz-adv-x="692" 
d="M746 748l-346 -448l-44 -300h-90l42 301l-220 447h102l172 -357l275 357h109zM361 920q24 0 38 -16.5t11 -39.5q-3 -20 -18.5 -33.5t-35.5 -13.5q-23 0 -37.5 16t-11.5 39q3 20 18.5 34t35.5 14zM510 920q24 0 38 -16.5t11 -39.5q-3 -20 -18.5 -33.5t-35.5 -13.5
q-23 0 -37.5 16t-11.5 39q3 20 18.5 34t35.5 14z" />
    <glyph glyph-name="Zacute" unicode="&#x179;" horiz-adv-x="626" 
d="M635 936l-206 -141h-84l168 141h122zM651 748l-9 -72l-515 -594h442l-12 -82h-556l9 72l516 595h-418l12 81h531z" />
    <glyph glyph-name="zacute" unicode="&#x17a;" horiz-adv-x="453" 
d="M446 510l-7 -57l-323 -382h281l-10 -71h-391l7 56l321 382h-261l10 72h373zM470 786l-159 -191h-71l130 191h100z" />
    <glyph glyph-name="Zdotaccent" unicode="&#x17b;" horiz-adv-x="626" 
d="M402 925q26 0 42 -19t12 -44q-3 -22 -20.5 -37.5t-40.5 -15.5q-26 0 -42 18t-12 43q3 23 21 39t40 16zM651 748l-9 -72l-515 -594h442l-12 -82h-556l9 72l516 595h-418l12 81h531z" />
    <glyph glyph-name="zdotaccent" unicode="&#x17c;" horiz-adv-x="453" 
d="M446 510l-7 -57l-323 -382h281l-10 -71h-391l7 56l321 382h-261l10 72h373zM293 738q26 0 42 -18.5t12 -43.5q-3 -22 -20.5 -37.5t-40.5 -15.5q-26 0 -42 18.5t-12 43.5q3 22 21.5 37.5t39.5 15.5z" />
    <glyph glyph-name="Zcaron" unicode="&#x17d;" horiz-adv-x="626" 
d="M569 938l-140 -143h-81l-99 143h73l72 -90l99 90h76zM651 748l-9 -72l-515 -594h442l-12 -82h-556l9 72l516 595h-418l12 81h531z" />
    <glyph glyph-name="zcaron" unicode="&#x17e;" horiz-adv-x="453" 
d="M446 510l-7 -57l-323 -382h281l-10 -71h-391l7 56l321 382h-261l10 72h373zM461 762l-143 -168h-82l-96 168h72l69 -110l104 110h76z" />
    <glyph glyph-name="florin" unicode="&#x192;" horiz-adv-x="432" 
d="M409 786q79 0 131 -45l-43 -68q-31 36 -81 36q-80 0 -108 -93l-34 -106h150l-10 -73h-163l-184 -579h-89l183 579h-108l11 73h120l40 125q48 151 185 151z" />
    <glyph glyph-name="Aringacute" unicode="&#x1fa;" horiz-adv-x="744" 
d="M446 772q-46 0 -73.5 29t-20.5 73q7 55 59 80l145 109h112l-168 -103q30 -10 45.5 -35t11.5 -60q-6 -41 -37.5 -67t-73.5 -26zM506 868q4 21 -10 36.5t-35 15.5q-23 0 -39 -13.5t-19 -35.5q-3 -21 10 -36.5t34 -15.5q23 0 39.5 14t19.5 35zM490 748l199 -748h-95l-56 212
h-335l-115 -212h-103l409 748h96zM244 291h271l-88 337z" />
    <glyph glyph-name="aringacute" unicode="&#x1fb;" 
d="M385 583q-46 0 -73.5 29t-20.5 73q6 50 52 77l150 111h112l-167 -102q31 -10 46.5 -35.5t11.5 -60.5q-7 -41 -38 -66.5t-73 -25.5zM445 679q4 21 -10 36t-35 15q-22 0 -38.5 -13.5t-19.5 -34.5q-3 -23 10 -37.5t34 -14.5q23 0 39 14t20 35zM475 462l9 48h85l-71 -510h-78
l6 50q-69 -60 -164 -60q-98 0 -155 69q-56 71 -38 200q18 125 89 192t173 67q93 0 144 -56zM427 125l38 262q-53 59 -128 59q-71 0 -121 -50.5t-62 -144.5q-12 -90 23.5 -138.5t104.5 -48.5q83 0 145 61z" />
    <glyph glyph-name="AEacute" unicode="&#x1fc;" horiz-adv-x="1056" 
d="M1074 667h-378l-34 -240h334l-12 -80h-333l-37 -265h378l-12 -82h-469l30 213h-275l-172 -213h-115l612 748h494zM331 291h221l47 331zM1010 936l-206 -141h-84l168 141h122z" />
    <glyph glyph-name="aeacute" unicode="&#x1fd;" horiz-adv-x="824" 
d="M620 518q90 0 134 -43q46 -43 40 -104q-8 -90 -106 -121q-86 -27 -252 -27q-8 -74 28 -116.5t109 -42.5q91 0 170 55l-1 -79q-82 -50 -180 -50q-130 0 -184 96q-10 -13 -22 -25q-74 -71 -168 -71q-70 0 -110 37t-35 100q11 173 315 166l8 50q16 102 -77 102
q-83 0 -168 -49l1 78q80 44 184 44q106 0 137 -73q74 73 177 73zM707 375q1 34 -22 52.5t-68 18.5q-63 0 -110 -44t-61 -112q138 0 198.5 18.5t62.5 66.5zM207 59q52 0 90 31.5t46 87.5l8 52q-214 10 -221 -97q-2 -35 18.5 -54.5t58.5 -19.5zM655 786l-159 -191h-71l130 191
h100z" />
    <glyph glyph-name="Oslashacute" unicode="&#x1fe;" horiz-adv-x="815" 
d="M748 785l53 -43l-81 -89q85 -106 60 -283q-24 -175 -136 -278q-111 -102 -268 -102q-121 0 -200 61l-78 -86l-52 43l82 90q-83 108 -58 281q26 177 136 277q111 102 268 102q120 0 197 -58zM162 370q-17 -123 29 -201l420 464q-56 43 -141 43q-121 0 -204 -82
q-84 -81 -104 -224zM689 380q18 124 -32 203l-421 -466q57 -45 143 -45q121 0 205 81q84 83 105 227zM725 936l-206 -141h-84l168 141h122z" />
    <glyph glyph-name="oslashacute" unicode="&#x1ff;" horiz-adv-x="595" 
d="M512 539l44 -36l-56 -63q59 -74 44 -189q-15 -121 -90 -192q-74 -69 -183 -69q-82 0 -138 40l-55 -61l-45 36l59 65q-56 72 -42 189q15 120 90 189q74 70 183 70q79 0 135 -39zM136 251q-7 -70 15 -115l255 284q-35 26 -87 26q-74 0 -123.5 -52.5t-59.5 -142.5zM458 259
q7 69 -16 117l-255 -285q33 -27 86 -27q75 0 125 52.5t60 142.5zM538 786l-159 -191h-71l130 191h100z" />
    <glyph glyph-name="Scommaaccent" unicode="&#x218;" horiz-adv-x="655" 
d="M406 676q-171 0 -189 -119q-9 -59 23 -83q33 -24 118 -48l19 -5q121 -31 171 -80t37 -146q-13 -96 -94 -151q-79 -55 -203 -55q-148 0 -248 56l19 88q89 -61 228 -61q88 0 142.5 31.5t63.5 92.5q10 65 -37 96q-26 16 -54 27q-31 11 -80 24q-105 28 -156 69
q-56 47 -42 150q12 91 86 143.5t197 52.5q114 0 208 -44l-20 -84q-83 46 -189 46zM289 -46q28 0 41.5 -19.5t9.5 -51.5q-18 -123 -137 -186l1 40q58 39 75 101q-24 2 -38.5 19.5t-10.5 41.5q3 23 20 39t39 16z" />
    <glyph glyph-name="scommaaccent" unicode="&#x219;" horiz-adv-x="460" 
d="M218 305l39 -11q80 -22 114.5 -56.5t25.5 -94.5q-10 -72 -67.5 -112.5t-145.5 -40.5q-97 0 -168 38l21 79q68 -44 148 -44q51 0 85.5 20t40.5 57q6 40 -25 57q-25 14 -75 28q-80 23 -114 53q-35 31 -28 97q8 66 61.5 104.5t138.5 38.5q77 0 143 -29l-16 -74
q-58 31 -125 31q-106 0 -116 -70q-1 -29 13 -47q5 -6 23 -14q12 -5 27 -10zM177 -46q28 0 41.5 -19.5t9.5 -51.5q-18 -123 -137 -186l1 40q58 39 75 101q-24 2 -38.5 19.5t-10.5 41.5q3 23 20 39t39 16z" />
    <glyph glyph-name="uni021A" unicode="&#x21a;" horiz-adv-x="682" 
d="M87 748h648l-11 -81h-278l-95 -667h-91l94 667h-278zM294 -41q28 0 41.5 -19.5t9.5 -51.5q-18 -123 -137 -186l1 40q58 39 75 101q-24 2 -38.5 19.5t-10.5 41.5q3 23 20 39t39 16z" />
    <glyph glyph-name="uni021B" unicode="&#x21b;" horiz-adv-x="375" 
d="M372 437h-137l-39 -272q-13 -91 82 -91q8 0 23 2t18 2l-7 -79q-30 -2 -50 -2q-83 0 -124.5 40.5t-29.5 116.5l41 283h-105l11 73h105l24 166h86l-24 -166h135zM178 -49q28 0 41.5 -19.5t9.5 -51.5q-18 -123 -137 -186l1 40q58 39 75 101q-24 2 -38.5 19.5t-10.5 41.5
q3 23 20 39t39 16z" />
    <glyph glyph-name="dotlessj" unicode="&#x237;" horiz-adv-x="261" 
d="M124 510h87l-84 -594q-25 -181 -182 -181q-42 0 -78 13l22 76q19 -12 49 -12q88 0 103 104z" />
    <glyph glyph-name="circumflex" unicode="&#x2c6;" horiz-adv-x="354" 
d="M289 765l96 -169h-72l-70 110l-103 -110h-76l143 169h82z" />
    <glyph glyph-name="caron" unicode="&#x2c7;" horiz-adv-x="354" 
d="M410 762l-143 -168h-82l-96 168h72l69 -110l104 110h76z" />
    <glyph glyph-name="breve" unicode="&#x2d8;" horiz-adv-x="353" 
d="M338 732h71q-10 -65 -54.5 -99t-116.5 -34q-73 0 -112 35.5t-30 97.5h71q-5 -35 15 -54t59 -19t65.5 20t31.5 53z" />
    <glyph glyph-name="dotaccent" unicode="&#x2d9;" horiz-adv-x="155" 
d="M145 738q26 0 42 -18.5t12 -43.5q-3 -22 -20.5 -37.5t-40.5 -15.5q-26 0 -42 18.5t-12 43.5q3 22 21.5 37.5t39.5 15.5z" />
    <glyph glyph-name="ring" unicode="&#x2da;" horiz-adv-x="265" 
d="M212 798q49 0 79 -31.5t23 -79.5q-7 -44 -42 -72.5t-81 -28.5q-51 0 -80.5 31t-22.5 79q6 44 42 73t82 29zM209 748q-26 0 -44.5 -15.5t-22.5 -40.5q-4 -24 11.5 -40t41.5 -16q25 0 43 15t21 39q4 25 -11 41.5t-39 16.5z" />
    <glyph glyph-name="ogonek" unicode="&#x2db;" horiz-adv-x="232" 
d="M143 29l16 -27q-57 -25 -82 -45.5t-29 -48.5q-2 -21 10.5 -32.5t36.5 -11.5q29 0 59 13l9 -47q-42 -15 -79 -15q-50 0 -78 23.5t-23 65.5q7 41 46 70.5t114 54.5z" />
    <glyph glyph-name="tilde" unicode="&#x2dc;" horiz-adv-x="361" 
d="M172 736q32 0 71 -30.5t55 -30.5q24 0 41 16t21 40l49 -4q-2 -49 -31 -83.5t-70 -34.5q-38 0 -72 30q-34 31 -55 31q-24 0 -41 -15.5t-22 -40.5l-49 5q3 49 32 83t71 34z" />
    <glyph glyph-name="hungarumlaut" unicode="&#x2dd;" horiz-adv-x="349" 
d="M235 763l-99 -158h-69l85 158h83zM405 763l-98 -158h-70l85 158h83z" />
    <glyph glyph-name="commaaccentcomb" unicode="&#x326;" horiz-adv-x="0" 
d="M59 -41q28 0 41.5 -19.5t9.5 -51.5q-18 -123 -137 -186l1 40q57 39 75 101q-24 2 -38.5 19.5t-10.5 41.5q3 23 20 39t39 16z" />
    <glyph glyph-name="Omega" unicode="&#x3a9;" horiz-adv-x="784" 
d="M453 719q153 0 226 -99q75 -98 54 -250q-13 -91 -68 -175q-54 -81 -114 -129l183 1l-9 -67h-279l7 62q68 44 131 131q62 86 76 183q17 123 -38 198q-54 77 -169 77q-120 0 -199 -79t-97 -205q-13 -93 24 -178t92 -128l-7 -61h-279l9 67l188 2q-47 49 -80 131
q-32 83 -18 178q21 149 119 245q99 96 248 96z" />
    <glyph glyph-name="mu" unicode="&#x3bc;" horiz-adv-x="600" 
d="M455 510h86l-72 -510h-80l7 61q-57 -71 -158 -71q-54 0 -98 30l-38 -275h-86l69 495l38 270h87l-44 -318q-8 -54 16 -86t75 -32q83 0 145 72z" />
    <glyph glyph-name="pi" unicode="&#x3c0;" horiz-adv-x="660" 
d="M601 526l64 -43q-59 -102 -154 -102h-23l-69 -263q-16 -53 25 -53q30 0 59 24l36 -55q-51 -42 -108 -42q-56 0 -77 34t-5 93l69 262h-124l-58 -221q-24 -88 -69 -162l-83 4q55 85 82 178l54 201h-34q-52 0 -102 -45l-35 62q69 60 160 60h267q81 0 125 68z" />
    <glyph glyph-name="Wgrave" unicode="&#x1e80;" horiz-adv-x="1151" 
d="M560 936l129 -141h-80l-167 141h118zM1194 748l-370 -748h-94l-107 571l-273 -571h-92l-159 748h96l125 -624l288 624h74l110 -624l303 624h99z" />
    <glyph glyph-name="wgrave" unicode="&#x1e81;" horiz-adv-x="815" 
d="M412 786l76 -191h-67l-105 191h96zM834 510l-248 -510h-82l-79 373l-185 -373h-83l-104 510h90l72 -400l192 400h67l78 -400l187 400h95z" />
    <glyph glyph-name="Wacute" unicode="&#x1e82;" horiz-adv-x="1151" 
d="M899 936l-206 -141h-84l168 141h122zM1194 748l-370 -748h-94l-107 571l-273 -571h-92l-159 748h96l125 -624l288 624h74l110 -624l303 624h99z" />
    <glyph glyph-name="wacute" unicode="&#x1e83;" horiz-adv-x="815" 
d="M649 786l-159 -191h-71l130 191h100zM834 510l-248 -510h-82l-79 373l-185 -373h-83l-104 510h90l72 -400l192 400h67l78 -400l187 400h95z" />
    <glyph glyph-name="Wdieresis" unicode="&#x1e84;" horiz-adv-x="1151" 
d="M591 920q24 0 38 -16.5t11 -39.5q-3 -20 -18.5 -33.5t-35.5 -13.5q-23 0 -37.5 16t-11.5 39q3 20 18.5 34t35.5 14zM740 920q24 0 38 -16.5t11 -39.5q-3 -20 -18.5 -33.5t-35.5 -13.5q-23 0 -37.5 16t-11.5 39q3 20 18.5 34t35.5 14zM1194 748l-370 -748h-94l-107 571
l-273 -571h-92l-159 748h96l125 -624l288 624h74l110 -624l303 624h99z" />
    <glyph glyph-name="wdieresis" unicode="&#x1e85;" horiz-adv-x="815" 
d="M393 732q23 0 37.5 -16.5t10.5 -39.5q-2 -20 -17.5 -33t-35.5 -13q-24 0 -38 16t-11 39q3 20 18.5 33.5t35.5 13.5zM542 732q23 0 37.5 -16.5t10.5 -39.5q-2 -20 -17.5 -33t-35.5 -13q-24 0 -38 16t-11 39q3 20 18.5 33.5t35.5 13.5zM834 510l-248 -510h-82l-79 373
l-185 -373h-83l-104 510h90l72 -400l192 400h67l78 -400l187 400h95z" />
    <glyph glyph-name="Ygrave" unicode="&#x1ef2;" horiz-adv-x="692" 
d="M746 748l-346 -448l-44 -300h-90l42 301l-220 447h102l172 -357l275 357h109zM330 936l129 -141h-80l-167 141h118z" />
    <glyph glyph-name="ygrave" unicode="&#x1ef3;" horiz-adv-x="525" 
d="M267 786l76 -191h-67l-105 191h96zM544 510l-411 -765h-97l147 268l-129 497h90l96 -399l207 399h97z" />
    <glyph glyph-name="endash" unicode="&#x2013;" horiz-adv-x="563" 
d="M524 302l-11 -81h-473l12 81h472z" />
    <glyph glyph-name="emdash" unicode="&#x2014;" horiz-adv-x="795" 
d="M756 302l-11 -81h-705l12 81h704z" />
    <glyph glyph-name="quoteleft" unicode="&#x2018;" horiz-adv-x="192" 
d="M227 750l-1 -40q-58 -39 -75 -101q23 -2 37.5 -19.5t11.5 -41.5q-3 -23 -20 -39t-39 -16q-28 0 -41.5 19.5t-9.5 51.5q18 123 137 186z" />
    <glyph glyph-name="quoteright" unicode="&#x2019;" horiz-adv-x="192" 
d="M158 750q28 0 41.5 -19.5t9.5 -51.5q-18 -123 -137 -186l2 40q57 39 74 101q-24 2 -38 19.5t-10 41.5q2 23 19 39t39 16z" />
    <glyph glyph-name="quotesinglbase" unicode="&#x201a;" horiz-adv-x="192" 
d="M70 108q28 0 41.5 -19.5t9.5 -51.5q-18 -123 -137 -186l1 40q58 39 75 101q-24 2 -38.5 19.5t-10.5 41.5q3 23 20 39t39 16z" />
    <glyph glyph-name="quotedblleft" unicode="&#x201c;" horiz-adv-x="359" 
d="M90 564q18 123 137 186l-1 -40q-58 -39 -75 -101q23 -2 37.5 -19.5t11.5 -41.5q-3 -23 -20 -39t-39 -16q-28 0 -41.5 19.5t-9.5 51.5zM394 750l-1 -40q-58 -39 -75 -101q23 -2 37.5 -19.5t11.5 -41.5q-3 -23 -20 -39t-39 -16q-28 0 -41.5 19.5t-9.5 51.5q18 123 137 186z
" />
    <glyph glyph-name="quotedblright" unicode="&#x201d;" horiz-adv-x="359" 
d="M159 750q28 0 41.5 -19.5t9.5 -51.5q-18 -123 -137 -186l2 40q57 39 74 101q-24 2 -38 19.5t-10 41.5q2 23 19 39t39 16zM326 750q28 0 41.5 -19.5t9.5 -51.5q-18 -123 -137 -186l2 40q57 39 74 101q-24 2 -38 19.5t-10 41.5q2 23 19 39t39 16z" />
    <glyph glyph-name="quotedblbase" unicode="&#x201e;" horiz-adv-x="359" 
d="M69 108q28 0 41.5 -19.5t9.5 -51.5q-18 -123 -137 -186l1 40q57 39 75 101q-24 2 -38.5 19.5t-10.5 41.5q3 23 20 39t39 16zM236 108q28 0 41.5 -19.5t9.5 -51.5q-18 -123 -137 -186l2 40q57 39 74 101q-24 2 -38 19.5t-10 41.5q2 23 19 39t39 16z" />
    <glyph glyph-name="dagger" unicode="&#x2020;" horiz-adv-x="493" 
d="M359 748l-29 -206h183l-10 -78h-184l-75 -531h-86l75 531h-183l11 78h183l29 206h86z" />
    <glyph glyph-name="daggerdbl" unicode="&#x2021;" horiz-adv-x="493" 
d="M359 748l-29 -206h183l-11 -78h-183l-35 -246h183l-11 -79h-183l-29 -206h-87l30 206h-183l11 79h183l35 246h-184l12 78h182l29 206h87z" />
    <glyph glyph-name="bullet" unicode="&#x2022;" horiz-adv-x="349" 
d="M193 375q53 0 84 -37q32 -37 25 -88q-7 -49 -46 -83q-39 -33 -86 -33q-53 0 -84 37t-24 89q8 48 45 81q37 34 86 34z" />
    <glyph glyph-name="ellipsis" unicode="&#x2026;" horiz-adv-x="624" 
d="M68 109q27 0 43 -19t12 -45q-3 -23 -21 -39t-41 -16q-26 0 -42.5 18.5t-12.5 44.5q3 24 21 40t41 16zM272 109q26 0 42 -19t13 -45q-3 -23 -21.5 -39t-41.5 -16q-26 0 -42 19t-12 44q3 24 21 40t41 16zM476 109q27 0 43 -19t12 -45q-3 -23 -21 -39t-41 -16
q-26 0 -42.5 18.5t-12.5 44.5q3 24 21 40t41 16z" />
    <glyph glyph-name="perthousand" unicode="&#x2030;" horiz-adv-x="1226" 
d="M267 757q71 0 112 -51q41 -50 30 -130q-11 -81 -59.5 -128t-120.5 -47q-73 0 -112.5 49.5t-29.5 131.5q10 80 59.5 127.5t120.5 47.5zM796 748l-634 -748h-85l633 748h86zM150 577q-7 -53 16 -84t66 -31q45 0 75 32t38 88q7 54 -15.5 84.5t-66.5 30.5q-45 0 -75.5 -32
t-37.5 -88zM644 347q72 0 113 -51q41 -50 30 -130q-11 -81 -59.5 -128t-120.5 -47q-73 0 -112.5 50t-29.5 131q10 80 59 127.5t120 47.5zM1031 347q71 0 112 -51q41 -50 30 -130q-11 -82 -59.5 -128.5t-120.5 -46.5t-112 50t-30 131q11 80 60.5 127.5t119.5 47.5zM528 168
q-7 -53 16 -84.5t66 -31.5q45 0 75 32t38 88q7 54 -15.5 84.5t-66.5 30.5t-75 -32.5t-38 -86.5zM915 168q-7 -54 15.5 -85t66.5 -31t74.5 32.5t37.5 87.5q7 54 -15.5 84.5t-66.5 30.5t-74.5 -32t-37.5 -87z" />
    <glyph glyph-name="guilsinglleft" unicode="&#x2039;" horiz-adv-x="306" 
d="M254 472l54 -60l-188 -163l143 -163l-67 -50l-181 218z" />
    <glyph glyph-name="guilsinglright" unicode="&#x203a;" horiz-adv-x="306" 
d="M112 472l180 -218l-238 -218l-55 60l189 163l-143 162z" />
    <glyph glyph-name="fraction" unicode="&#x2044;" horiz-adv-x="197" 
d="M477 748l-633 -748h-90l632 748h91z" />
    <glyph glyph-name="Euro" unicode="&#x20ac;" horiz-adv-x="686" 
d="M490 676q-84 0 -147.5 -50t-97.5 -140h333l-29 -54h-322q-7 -30 -12 -63q-4 -24 -5 -55h273l-28 -54h-244q8 -90 55.5 -139t128.5 -49q107 0 186 63l32 -78q-100 -67 -225 -67q-119 0 -190 71.5t-80 198.5h-111l29 54h81q2 32 6 65q7 42 10 53h-101l29 54h87
q41 129 130 200.5t210 71.5q122 0 199 -66l-36 -73q-59 57 -161 57z" />
    <glyph glyph-name="trademark" unicode="&#x2122;" horiz-adv-x="886" 
d="M427 748l-10 -70h-132l-40 -289h-65l41 289h-130l10 70h326zM893 748l-51 -359h-64l36 251l-161 -251h-32l-91 251l-36 -251h-64l51 359h69l98 -263l173 263h72z" />
    <glyph glyph-name="estimated" unicode="&#x212e;" horiz-adv-x="614" 
d="M321 538q107 0 178 -69q71 -68 71 -187h-412v-174q0 -39 26 -53q54 -45 137 -45q70 0 129 34.5t97 93.5l18 -11q-91 -138 -244 -138q-118 0 -197 76t-79 196q0 123 79 199q79 78 197 78zM321 516q-81 0 -137 -44q-26 -14 -26 -50v-119h307v122q0 25 -5.5 36.5t-23.5 21.5
q-45 33 -115 33z" />
    <glyph glyph-name="partialdiff" unicode="&#x2202;" horiz-adv-x="613" 
d="M370 758q277 0 210 -481q-20 -137 -101 -212q-82 -76 -196 -76t-175 70q-62 71 -46 185q15 109 93 173q79 65 185 65q107 0 166 -74q25 268 -135 268q-103 0 -203 -74l-6 89q100 67 208 67zM291 71q72 0 127 47q56 46 66 123l1 4q11 74 -30 119q-39 46 -108 46
q-73 0 -128 -49q-54 -48 -65 -125q-10 -75 28 -120t109 -45z" />
    <glyph glyph-name="product" unicode="&#x220f;" horiz-adv-x="643" 
d="M687 748l-10 -81h-104l-117 -831h-78l117 831h-230l-117 -831h-79l118 831h-103l11 81h592z" />
    <glyph glyph-name="summation" unicode="&#x2211;" horiz-adv-x="600" 
d="M623 748l-12 -81h-399l180 -293l-260 -293h397l-11 -81h-505l9 67l275 307l-187 307l9 67h504z" />
    <glyph glyph-name="minus" unicode="&#x2212;" horiz-adv-x="546" 
d="M535 411l-11 -81h-481l11 81h481z" />
    <glyph glyph-name="radical" unicode="&#x221a;" horiz-adv-x="633" 
d="M593 694l67 -29l-376 -742l-97 341l-123 -73l-34 68l204 120l70 -275z" />
    <glyph glyph-name="infinity" unicode="&#x221e;" horiz-adv-x="788" 
d="M617 495q81 0 124 -57q44 -56 32 -137q-10 -78 -67 -133q-56 -53 -132 -53q-101 0 -170 103l-18 28l-26 -27q-85 -88 -170 -88q-74 0 -113 51q-37 52 -27 127q10 71 60 121q49 49 120 49q48 0 82 -21t68 -67l18 -29l21 23q55 58 99.5 84t98.5 26zM616 422
q-39 0 -74.5 -22.5t-81.5 -71.5l-25 -27l17 -27q58 -85 122 -85q48 0 84.5 35t43.5 86q6 48 -18 80t-68 32zM231 408q-44 0 -76 -31t-37 -77q-6 -43 14 -71t59 -28q62 0 134 75l27 28l-17 27q-45 77 -104 77z" />
    <glyph glyph-name="integral" unicode="&#x222b;" horiz-adv-x="339" 
d="M322 758q36 0 86 -14l-19 -65q-27 8 -50 8q-37 0 -55.5 -21t-25.5 -69l-86 -610q-12 -84 -45 -121t-97 -37q-42 0 -87 14l19 64q27 -8 48 -8q40 0 60.5 22t28.5 72l85 611q11 81 43.5 117.5t94.5 36.5z" />
    <glyph glyph-name="approxequal" unicode="&#x2248;" horiz-adv-x="535" 
d="M515 559l37 -61q-76 -82 -161 -82q-50 0 -99 31q-47 31 -80 31q-38 0 -65.5 -13.5t-60.5 -46.5l-35 61q40 42 75.5 61t78.5 19q41 0 90 -31t90 -31q40 0 69.5 14.5t60.5 47.5zM483 324l35 -61q-39 -42 -76 -61.5t-83 -19.5q-51 0 -100 31q-47 31 -80 31q-38 0 -65.5 -14
t-59.5 -47l-36 62q75 80 153 80q41 0 91 -32q49 -31 90 -31q40 0 68.5 14t62.5 48z" />
    <glyph glyph-name="notequal" unicode="&#x2260;" horiz-adv-x="546" 
d="M541 447h-179l-77 -158h233l-11 -81h-261l-63 -131l-73 18l55 113h-139l11 81h167l77 158h-221l11 82h249l63 129l72 -18l-54 -111h151z" />
    <glyph glyph-name="lessequal" unicode="&#x2264;" horiz-adv-x="518" 
d="M541 664l-10 -88l-302 -125l265 -125l-12 -88l-428 213zM476 180l-12 -81h-458l12 81h458z" />
    <glyph glyph-name="greaterequal" unicode="&#x2265;" horiz-adv-x="518" 
d="M91 664l427 -213l-486 -213l10 89l302 124l-266 125zM481 180l-11 -81h-458l11 81h458z" />
    <glyph glyph-name="lozenge" unicode="&#x25ca;" horiz-adv-x="536" 
d="M364 748l149 -402l-260 -401h-54l-151 401l262 402h54zM325 623l-188 -282l101 -271l187 282z" />
    <glyph glyph-name="fl" unicode="&#xfb02;" horiz-adv-x="605" 
d="M360 783q36 0 62 -9l-12 -76q-16 8 -45 8q-46 0 -76.5 -30t-38.5 -86l-11 -80h135l-10 -73h-136l-61 -437h-86l61 437h-100l11 73h99l13 87q13 92 63 139t132 47zM591 777l-110 -777h-86l110 777h86z" />
    <glyph glyph-name="NULL" horiz-adv-x="0" 
 />
    <glyph glyph-name="CR.001" horiz-adv-x="333" 
 />
    <glyph glyph-name="a.alt" 
d="M331 518q93 0 143 -56l9 48h85l-71 -510h-77l5 50q-69 -60 -164 -60q-99 0 -154 69q-56 71 -38 200t90 193q73 66 172 66zM338 447q-71 0 -121 -51t-62 -145q-12 -90 23.5 -139t104.5 -49q83 0 145 61l38 263q-51 60 -128 60z" />
    <glyph glyph-name="aacute.alt" 
d="M554 786l-159 -191h-71l130 191h100zM331 518q93 0 144 -56l9 48h85l-71 -510h-78l6 50q-69 -60 -164 -60q-98 0 -155 69q-56 71 -38 200q18 125 89 192t173 67zM337 447q-71 0 -121 -51t-62 -145q-12 -91 23.5 -139.5t104.5 -48.5q83 0 145 61l38 263q-51 60 -128 60z
" />
    <glyph glyph-name="abreve.alt" 
d="M465 732h71q-10 -65 -54.5 -99t-116.5 -34q-73 0 -112 35.5t-30 97.5h71q-5 -35 15 -54t59 -19t65.5 20t31.5 53zM331 518q93 0 144 -56l9 48h85l-71 -510h-78l6 50q-69 -60 -164 -60q-98 0 -155 69q-56 71 -38 200q18 125 89 192t173 67zM337 447q-71 0 -121 -51
t-62 -145q-12 -91 23.5 -139.5t104.5 -48.5q83 0 145 61l38 263q-51 60 -128 60z" />
    <glyph glyph-name="acircumflex.alt" 
d="M424 765l96 -169h-72l-70 110l-103 -110h-76l143 169h82zM331 518q93 0 144 -56l9 48h85l-71 -510h-78l6 50q-69 -60 -164 -60q-98 0 -155 69q-56 71 -38 200q18 125 89 192t173 67zM337 447q-71 0 -121 -51t-62 -145q-12 -91 23.5 -139.5t104.5 -48.5q83 0 145 61
l38 263q-51 60 -128 60z" />
    <glyph glyph-name="adieresis.alt" 
d="M298 732q23 0 37.5 -16.5t10.5 -39.5q-2 -20 -17.5 -33t-35.5 -13q-24 0 -38 16t-11 39q3 20 18.5 33.5t35.5 13.5zM447 732q23 0 37.5 -16.5t10.5 -39.5q-2 -20 -17.5 -33t-35.5 -13q-24 0 -38 16t-11 39q3 20 18.5 33.5t35.5 13.5zM331 518q93 0 144 -56l9 48h85
l-71 -510h-78l6 50q-69 -60 -164 -60q-98 0 -155 69q-56 71 -38 200q18 125 89 192t173 67zM337 447q-71 0 -121 -51t-62 -145q-12 -91 23.5 -139.5t104.5 -48.5q83 0 145 61l38 263q-51 60 -128 60z" />
    <glyph glyph-name="agrave.alt" 
d="M316 786l76 -191h-67l-105 191h96zM331 518q93 0 144 -56l9 48h85l-71 -510h-78l6 50q-69 -60 -164 -60q-98 0 -155 69q-56 71 -38 200q18 125 89 192t173 67zM337 447q-71 0 -121 -51t-62 -145q-12 -91 23.5 -139.5t104.5 -48.5q83 0 145 61l38 263q-51 60 -128 60z" />
    <glyph glyph-name="amacron.alt" 
d="M507 702l-10 -67h-263l9 67h264zM331 518q93 0 144 -56l9 48h85l-71 -510h-78l6 50q-69 -60 -164 -60q-98 0 -155 69q-56 71 -38 200q18 125 89 192t173 67zM337 447q-71 0 -121 -51t-62 -145q-12 -91 23.5 -139.5t104.5 -48.5q83 0 145 61l38 263q-51 60 -128 60z" />
    <glyph glyph-name="aogonek.alt" 
d="M441 -139q29 0 59 13l9 -47q-42 -15 -79 -15q-50 0 -78 23.5t-23 65.5q9 59 93 99h-2l6 50q-69 -60 -164 -60q-98 0 -155 69q-56 71 -38 200q18 125 89 192t173 67q93 0 144 -56l9 48h85l-70 -501l6 -10q-57 -25 -82 -45.5t-29 -48.5q-2 -21 10.5 -32.5t36.5 -11.5z
M282 63q83 0 145 61l38 263q-51 60 -128 60q-71 0 -121 -51t-62 -145q-12 -91 23.5 -139.5t104.5 -48.5z" />
    <glyph glyph-name="aring.alt" 
d="M384 798q49 0 79 -31.5t23 -79.5q-7 -44 -42 -72.5t-81 -28.5q-51 0 -80.5 31t-22.5 79q6 44 42 73t82 29zM381 748q-26 0 -44.5 -15.5t-22.5 -40.5q-4 -24 11.5 -40t41.5 -16q25 0 43 15t21 39q4 25 -11 41.5t-39 16.5zM331 518q93 0 144 -56l9 48h85l-71 -510h-78l6 50
q-69 -60 -164 -60q-98 0 -155 69q-56 71 -38 200q18 125 89 192t173 67zM337 447q-71 0 -121 -51t-62 -145q-12 -91 23.5 -139.5t104.5 -48.5q83 0 145 61l38 263q-51 60 -128 60z" />
    <glyph glyph-name="aringacute.alt" 
d="M382 583q-46 0 -73 29t-21 73q8 53 55 78l148 110h112l-167 -102q30 -10 46 -36.5t11 -59.5q-6 -41 -37.5 -66.5t-73.5 -25.5zM443 679q3 21 -11 36t-35 15q-22 0 -38 -13.5t-20 -34.5q-3 -23 10 -37.5t35 -14.5t38.5 14t20.5 35zM475 462l9 48h85l-71 -510h-78l6 50
q-69 -60 -164 -60q-98 0 -155 69q-56 71 -38 200q18 125 89 192t173 67q93 0 144 -56zM427 124l38 263q-51 60 -128 60q-71 0 -121 -51t-62 -145q-12 -91 23.5 -139.5t104.5 -48.5q83 0 145 61z" />
    <glyph glyph-name="atilde.alt" 
d="M303 736q32 0 71 -30.5t55 -30.5q24 0 41 16t21 40l49 -4q-2 -49 -31 -83.5t-70 -34.5q-37 0 -72 30q-34 31 -55 31q-24 0 -41 -15.5t-22 -40.5l-49 5q3 49 32 83t71 34zM331 518q93 0 144 -56l9 48h85l-71 -510h-78l6 50q-69 -60 -164 -60q-98 0 -155 69q-56 71 -38 200
q18 125 89 192t173 67zM337 447q-71 0 -121 -51t-62 -145q-12 -91 23.5 -139.5t104.5 -48.5q83 0 145 61l38 263q-51 60 -128 60z" />
    <glyph glyph-name="germandbls.cap" horiz-adv-x="692" 
d="M396 756q150 0 244 -126l-151 -184q175 -66 151 -233q-14 -104 -91 -162.5t-197 -58.5q-45 0 -85 9l15 80q22 -7 64 -7q84 0 138.5 42t65.5 114q11 75 -33 115.5t-152 66.5l162 207q-51 56 -139 56q-66 0 -115 -40q-49 -39 -58 -102l-75 -533h-91l76 537q15 101 90 159
q76 60 181 60z" />
    <glyph glyph-name="a.sups" horiz-adv-x="482" 
d="M304 756q76 0 116 -45l6 37h72l-57 -408h-67l4 40q-56 -47 -128 -47q-81 0 -125 57t-30 159q14 99 71 153t138 54zM311 694q-56 0 -95 -39.5t-48 -113.5q-9 -70 19 -108.5t81 -38.5q60 0 113 48l29 205q-41 47 -99 47z" />
    <glyph glyph-name="a.alt.sups" horiz-adv-x="483" 
d="M304 756q72 0 113 -45l7 37h74l-57 -408h-67l4 40q-56 -47 -128 -47q-83 0 -126 57t-29 159q14 99 71 153t138 54zM311 694q-56 0 -95 -39.5t-48 -113.5q-9 -70 19 -108.5t81 -38.5q60 0 113 48l29 205q-41 47 -99 47z" />
    <glyph glyph-name="b.sups" horiz-adv-x="483" 
d="M168 962h74l-35 -249q52 43 121 43q81 0 125.5 -57.5t30.5 -158.5q-14 -100 -70.5 -153.5t-139.5 -53.5q-74 0 -115 51l-9 -44h-69zM312 694q-66 0 -115 -49l-29 -205q40 -46 100 -46q55 0 94 39.5t48 113.5q9 71 -18 109t-80 38z" />
    <glyph glyph-name="c.sups" horiz-adv-x="390" 
d="M318 756q63 0 110 -31l-15 -64q-38 33 -94 33q-58 0 -100.5 -41.5t-52.5 -109.5q-10 -66 21.5 -107.5t89.5 -41.5q59 0 109 35l-3 -68q-49 -28 -114 -28q-87 0 -139 58q-52 59 -38 157q13 96 78 152t148 56z" />
    <glyph glyph-name="d.sups" horiz-adv-x="483" 
d="M528 962l-87 -622h-66l5 40q-56 -47 -130 -47q-81 0 -125 57t-30 159q14 99 71 153t138 54q72 0 115 -45l34 251h75zM311 694q-56 0 -95 -39.5t-48 -113.5q-9 -70 19 -108.5t81 -38.5q60 0 113 48l29 205q-41 47 -99 47z" />
    <glyph glyph-name="e.sups" horiz-adv-x="426" 
d="M311 756q70 0 106.5 -34.5t31.5 -89.5q-6 -63 -75 -88t-210 -25q-7 -58 21 -91.5t85 -33.5q72 0 140 44v-66q-64 -39 -148 -39q-88 0 -135 56q-47 57 -33 155q14 100 73 155q61 57 144 57zM373 639q3 55 -66 55q-51 0 -87.5 -32.5t-47.5 -86.5q103 1 151.5 15.5
t49.5 48.5z" />
    <glyph glyph-name="f.sups" horiz-adv-x="272" 
d="M330 966q32 0 50 -7l-9 -65q-12 6 -36 6q-37 0 -61 -23t-31 -67l-8 -62h108l-9 -62h-108l-48 -346h-74l49 346h-79l9 62h78l10 67q21 151 159 151z" />
    <glyph glyph-name="g.sups" horiz-adv-x="496" 
d="M293 756q77 0 115 -50l9 42h69l-61 -435q-13 -86 -69.5 -135t-141.5 -49q-91 0 -155 43l21 66q52 -46 134 -46q58 0 93.5 30.5t44.5 89.5l10 64q-53 -43 -123 -43q-81 0 -125 57t-30 159q14 99 71 153t138 54zM297 694q-56 0 -95 -39.5t-48 -113.5q-9 -70 19 -108.5
t81 -38.5q60 0 113 48l29 205q-41 47 -99 47z" />
    <glyph glyph-name="h.sups" horiz-adv-x="477" 
d="M168 962h74l-37 -260q54 54 128 54q67 0 102.5 -44.5t25.5 -115.5l-37 -256h-73l34 246q6 46 -12 72.5t-59 26.5q-62 0 -118 -56l-41 -289h-74z" />
    <glyph glyph-name="i.sups" horiz-adv-x="212" 
d="M197 939q21 0 35 -15.5t11 -36.5q-3 -19 -18 -31.5t-33 -12.5q-22 0 -34.5 15.5t-9.5 36.5q2 18 16.5 31t32.5 13zM212 748l-57 -408h-74l58 408h73z" />
    <glyph glyph-name="j.sups" horiz-adv-x="212" 
d="M197 939q21 0 35 -15.5t11 -36.5q-3 -19 -18 -31.5t-32 -12.5q-22 0 -35 15.5t-10 36.5q2 18 16 31t33 13zM140 748h73l-66 -471q-22 -148 -156 -148q-51 0 -80 18l19 64q23 -17 57 -17q73 0 87 87z" />
    <glyph glyph-name="k.sups" horiz-adv-x="438" 
d="M242 962l-54 -379l190 165h95l-197 -178l161 -230h-87l-130 182l-44 -38l-21 -144h-74l87 622h74z" />
    <glyph glyph-name="l.sups" horiz-adv-x="211" 
d="M242 962l-87 -622h-74l87 622h74z" />
    <glyph glyph-name="m.sups" horiz-adv-x="740" 
d="M594 756q66 0 102.5 -44t26.5 -116l-36 -256h-74l34 247q6 45 -13 71.5t-60 26.5q-60 0 -115 -61q0 -2 -2 -28l-36 -256h-74l35 247q6 45 -12.5 71.5t-57.5 26.5q-60 0 -116 -55l-41 -290h-74l58 408h68l-6 -48q50 56 129 56q87 0 117 -69q61 69 147 69z" />
    <glyph glyph-name="n.sups" horiz-adv-x="477" 
d="M333 756q67 0 102.5 -44.5t25.5 -115.5l-37 -256h-73l34 246q6 46 -13 72.5t-60 26.5q-56 0 -115 -56l-42 -289h-74l58 408h68l-6 -49q49 57 132 57z" />
    <glyph glyph-name="o.sups" horiz-adv-x="477" 
d="M316 756q88 0 138 -60q50 -61 37 -155q-13 -98 -72.5 -153t-149.5 -55q-89 0 -138 58q-49 59 -36 156q14 98 73 153q62 56 148 56zM166 541q-9 -68 19.5 -107.5t85.5 -39.5q58 0 97.5 41.5t48.5 111.5q9 68 -19.5 107.5t-85.5 39.5t-96.5 -41t-49.5 -112z" />
    <glyph glyph-name="p.sups" horiz-adv-x="483" 
d="M330 756q79 0 124 -56t30 -160q-14 -100 -71 -153.5t-138 -53.5q-71 0 -115 45l-34 -243h-74l87 613h66l-4 -39q59 47 129 47zM311 694q-65 0 -114 -48l-28 -206q39 -46 99 -46q55 0 94 40t48 113q9 70 -18.5 108.5t-80.5 38.5z" />
    <glyph glyph-name="q.sups" horiz-adv-x="483" 
d="M304 756q77 0 115 -50l10 42h69l-86 -612h-74l34 239q-52 -42 -121 -42q-82 0 -126 57t-30 159q14 99 71 153t138 54zM310 694q-55 0 -94 -39.5t-48 -113.5q-9 -70 18 -108.5t80 -38.5q65 0 115 49l29 205q-40 46 -100 46z" />
    <glyph glyph-name="r.sups" horiz-adv-x="282" 
d="M336 750l-10 -74q-66 0 -130 -56l-41 -280h-74l58 408h71l-8 -58q54 60 134 60z" />
    <glyph glyph-name="s.sups" horiz-adv-x="375" 
d="M259 756q63 0 118 -27l-9 -64q-44 29 -100 29q-85 0 -96 -56q-4 -27 12 -39t63 -24q70 -19 97.5 -45t20.5 -75q-7 -57 -52.5 -89.5t-117.5 -32.5q-85 0 -141 32l12 69q51 -39 126 -39q40 0 67 16t31 43q6 32 -19 44q-17 11 -61 23q-67 20 -92.5 45t-17.5 75
q18 115 159 115z" />
    <glyph glyph-name="t.sups" horiz-adv-x="300" 
d="M340 686h-104l-30 -211q-11 -71 57 -71q12 0 36 3l-5 -67q-12 -2 -41 -2q-65 0 -98 32.5t-24 94.5l32 221h-88l9 62h88l19 133h73l-19 -133h103z" />
    <glyph glyph-name="u.sups" horiz-adv-x="468" 
d="M481 748l-57 -408h-68l6 50q-49 -58 -130 -58q-65 0 -99 44.5t-24 115.5l36 256h73l-35 -247q-6 -45 13 -71.5t58 -26.5q55 0 111 56l42 289h74z" />
    <glyph glyph-name="v.sups" horiz-adv-x="423" 
d="M480 748l-213 -408h-83l-100 408h78l74 -317l163 317h81z" />
    <glyph glyph-name="w.sups" horiz-adv-x="653" 
d="M710 748l-197 -408h-71l-61 290l-144 -290h-71l-83 408h78l56 -315l151 315h55l62 -315l146 315h79z" />
    <glyph glyph-name="x.sups" horiz-adv-x="415" 
d="M462 748l-161 -199l107 -209h-80l-84 159l-128 -159h-88l170 209l-101 199h78l78 -150l122 150h87z" />
    <glyph glyph-name="y.sups" horiz-adv-x="423" 
d="M480 748l-327 -612h-83l116 212l-102 400h78l74 -314l163 314h81z" />
    <glyph glyph-name="z.sups" horiz-adv-x="361" 
d="M398 748l-7 -47l-252 -301h219l-8 -60h-314l6 48l251 300h-204l9 60h300z" />
    <glyph glyph-name="zero.onum" horiz-adv-x="645" 
d="M381 601q129 0 191 -84t43 -226q-19 -141 -100 -221t-205 -80q-128 0 -190 83q-61 83 -43 227q20 142 100 221.5t204 79.5zM375 520q-84 0 -137.5 -60t-67.5 -169q-14 -105 24 -161.5t123 -56.5q84 0 137.5 59.5t67.5 167.5q14 105 -24 162.5t-123 57.5z" />
    <glyph glyph-name="one.onum" horiz-adv-x="378" 
d="M335 590l-83 -590h-91l69 487l-180 -93l11 89l199 107h75z" />
    <glyph glyph-name="two.onum" horiz-adv-x="531" 
d="M295 600q113 0 168 -53.5t41 -151.5q-14 -94 -94 -165q-80 -73 -230 -149l289 1l-12 -82h-452l11 78q200 100 267 147q117 81 129 168q9 60 -23.5 92t-101.5 32q-98 0 -193 -55l3 89q92 49 198 49z" />
    <glyph glyph-name="three.onum" horiz-adv-x="517" 
d="M255 600q108 0 165 -57q58 -55 44 -153q-7 -55 -39.5 -96.5t-82.5 -63.5q53 -22 80.5 -69t18.5 -112q-15 -101 -90 -159t-189 -58q-101 0 -182 40l17 86q70 -43 164 -43q76 0 128 38t61 103t-30 100.5t-115 35.5h-62l12 78h54q65 0 110.5 33t54.5 88q7 59 -27 92.5
t-98 33.5q-86 0 -169 -47l5 90q86 40 170 40z" />
    <glyph glyph-name="four.onum" horiz-adv-x="600" 
d="M360 590l-260 -479h226l30 208h91l-30 -208h139l-11 -82h-139l-26 -187h-91l26 187h-320l9 69l260 492h96z" />
    <glyph glyph-name="five.onum" horiz-adv-x="559" 
d="M515 509h-298l-31 -219q39 12 85 12q107 0 168 -63q62 -63 47 -172q-13 -106 -94 -171q-79 -64 -198 -64q-97 0 -174 31l20 87q65 -35 153 -35q84 0 138.5 42t64.5 115q10 70 -29 109.5t-115 39.5q-84 0 -170 -39l55 408h390z" />
    <glyph glyph-name="six.onum" horiz-adv-x="588" 
d="M409 675q-92 0 -151.5 -68t-82.5 -198q68 56 161 56q105 0 163 -64q60 -65 45 -177q-16 -108 -87 -171t-178 -63q-126 0 -180 88q-27 46 -35 103q-6 56 9 167q27 196 114 303t221 107q86 0 164 -35l-22 -81q-69 33 -141 33zM321 384q-71 0 -122 -51q-50 -50 -50 -123
q0 -51 22 -85q31 -52 111 -52q72 0 116.5 42.5t53.5 118.5q9 69 -27 109.5t-104 40.5z" />
    <glyph glyph-name="seven.onum" horiz-adv-x="535" 
d="M559 590l-8 -60l-464 -688h-106l452 667h-375l11 81h490z" />
    <glyph glyph-name="eight.onum" horiz-adv-x="599" 
d="M377 758q103 0 158 -58t43 -145q-18 -121 -116 -162q49 -21 73 -69t15 -116q-15 -101 -84 -159.5t-182 -58.5q-118 0 -177 63q-57 63 -45 163q17 138 138 184q-86 41 -69 163q10 84 77 140q67 55 169 55zM368 675q-59 0 -100.5 -33t-48.5 -86q-8 -57 22.5 -90t95.5 -33
q62 0 102 33.5t47 87.5q8 55 -24.5 88t-93.5 33zM325 354q-71 0 -117 -37t-55 -101q-9 -66 27 -105t108 -39q71 0 116.5 38t54.5 104q10 64 -27 102t-107 38z" />
    <glyph glyph-name="nine.onum" horiz-adv-x="588" 
d="M502 512q29 -47 35 -104q6 -56 -9 -166q-27 -196 -113.5 -303t-220.5 -107q-88 0 -164 35l22 81q68 -33 141 -33q91 0 151 68.5t82 197.5q-68 -56 -161 -56q-104 0 -164 64q-59 65 -43 177q15 107 86 171q70 63 178 63q128 0 180 -88zM280 206q70 0 122 50q51 51 51 124
q0 50 -23 85q-31 52 -111 52q-72 0 -116.5 -43t-52.5 -118q-10 -69 26 -109.5t104 -40.5z" />
    <glyph glyph-name="zero.slash" horiz-adv-x="645" 
d="M414 757q126 0 184 -102q59 -103 34 -286q-26 -182 -111 -281q-84 -98 -205 -98q-127 0 -186.5 102.5t-33.5 286.5q26 181 111 279q85 99 207 99zM188 369q-17 -123 8 -199l306 465q-34 40 -93 40q-84 0 -142 -79.5t-79 -226.5zM540 379q18 120 -5 195l-306 -464
q34 -37 90 -37q84 0 142.5 80t78.5 226z" />
    <glyph glyph-name="zero.subs" horiz-adv-x="377" 
d="M210 352q74 0 109.5 -60t20.5 -164q-14 -101 -62.5 -157.5t-118.5 -56.5q-75 0 -110 59.5t-20 164.5q14 101 62.5 157.5t118.5 56.5zM207 292q-42 0 -71 -41.5t-40 -118.5q-20 -158 67 -158q42 0 71 41.5t39 117.5q19 159 -66 159z" />
    <glyph glyph-name="one.subs" horiz-adv-x="236" 
d="M198 346l-60 -426h-67l49 351l-103 -55l8 68l115 62h58z" />
    <glyph glyph-name="two.subs" horiz-adv-x="317" 
d="M164 352q64 0 95 -33.5t23 -93.5q-11 -72 -65 -129q-39 -39 -56 -54q-8 -7 -74 -61l166 -1l-9 -60h-264l8 51q1 1 3.5 2.5t6 4t6.5 4.5l102 78q39 32 71 73q32 42 38 80q5 37 -13 58t-56 21q-57 0 -108 -30l9 61q60 29 117 29z" />
    <glyph glyph-name="three.subs" horiz-adv-x="314" 
d="M138 352q66 0 101.5 -33t27.5 -89q-7 -60 -66 -90q62 -29 49 -105q-8 -57 -51.5 -89t-109.5 -32q-61 0 -109 23l16 60q40 -24 88 -24q42 0 69 19.5t32 52.5t-14.5 50.5t-58.5 17.5h-36l8 56h29q34 0 58.5 17t28.5 44q4 30 -13.5 46.5t-50.5 16.5q-48 0 -97 -28l3 65
q45 22 96 22z" />
    <glyph glyph-name="four.subs" horiz-adv-x="354" 
d="M207 346l-148 -274h120l17 122h67l-17 -122h68l-8 -55h-67l-14 -97h-67l14 97h-187l6 54l145 275h71z" />
    <glyph glyph-name="five.subs" horiz-adv-x="327" 
d="M279 286h-163l-15 -109q15 4 41 4q63 0 99 -36.5t27 -98.5q-8 -61 -54 -96.5t-116 -35.5q-60 0 -105 17l15 57q33 -16 84 -16q45 0 75 20t35 56q5 38 -15 58t-62 20q-51 0 -100 -23l32 243h230z" />
    <glyph glyph-name="six.subs" horiz-adv-x="343" 
d="M215 293q-101 0 -126 -130q35 23 81 23q63 0 96.5 -37t24.5 -103q-8 -62 -48 -97.5t-104 -35.5q-74 0 -104 49q-18 28 -22 62t4 98q13 111 62.5 170.5t130.5 59.5q57 0 96 -18l-10 -58q-42 17 -81 17zM159 131q-36 0 -60.5 -25t-23.5 -62q-2 -24 8 -42q16 -26 57 -28
q74 0 84 82q4 36 -13.5 55.5t-51.5 19.5z" />
    <glyph glyph-name="seven.subs" horiz-adv-x="322" 
d="M320 346l-5 -44l-254 -382h-77l245 366h-209l8 60h292z" />
    <glyph glyph-name="eight.subs" horiz-adv-x="351" 
d="M311 236q-7 -67 -67 -93q61 -27 50 -105q-8 -56 -49.5 -90t-106.5 -34q-67 0 -102 36t-28 92q9 77 78 107q-46 26 -38 92q6 49 45 80t98 31t93 -33.5t27 -82.5zM183 293q-29 0 -50.5 -18t-25.5 -46q-4 -30 12 -48t48 -18t53.5 18.5t24.5 46.5q4 29 -13.5 47t-48.5 18z
M160 118q-34 0 -57.5 -19.5t-27.5 -52.5q-5 -32 13 -52t54 -20q35 0 58.5 19.5t28.5 52.5q4 34 -15 53t-54 19z" />
    <glyph glyph-name="nine.subs" horiz-adv-x="343" 
d="M276 303q18 -28 22 -62.5t-4 -98.5q-13 -111 -62.5 -170t-130.5 -59q-55 0 -97 17l11 59q42 -17 81 -17q102 0 126 131q-35 -23 -81 -23q-64 0 -97.5 37t-24.5 101q7 63 47.5 98.5t104.5 35.5q74 0 105 -49zM236 220q1 25 -9 43q-17 29 -56 29q-73 0 -84 -83
q-4 -35 13 -54.5t52 -19.5t60 25t24 60z" />
    <glyph glyph-name="zero.sups" horiz-adv-x="377" 
d="M277 834q74 0 109.5 -60t20.5 -164q-14 -101 -62.5 -157.5t-118.5 -56.5q-75 0 -110 59.5t-20 164.5q14 101 62.5 157.5t118.5 56.5zM274 774q-42 0 -71 -41.5t-40 -118.5q-20 -158 67 -158q42 0 71 41.5t39 117.5q20 159 -66 159z" />
    <glyph glyph-name="one.sups" horiz-adv-x="236" 
d="M265 828l-60 -426h-67l49 351l-103 -55l8 68l115 62h58z" />
    <glyph glyph-name="two.sups" horiz-adv-x="317" 
d="M231 834q64 0 95 -33.5t23 -93.5q-11 -72 -65 -129q-39 -39 -56 -54q-8 -7 -74 -61l166 -1l-9 -60h-264l8 51q1 1 3.5 2.5t6 4t6.5 4.5l102 78q39 32 71 73q32 42 38 80q5 37 -13 58t-56 21q-57 0 -108 -30l9 61q60 29 117 29z" />
    <glyph glyph-name="three.sups" horiz-adv-x="314" 
d="M204 834q66 0 101.5 -33t27.5 -89q-7 -60 -66 -90q62 -29 49 -105q-8 -57 -51.5 -89t-109.5 -32q-61 0 -109 23l16 60q40 -24 88 -24q42 0 69 19.5t32 52.5t-14.5 50.5t-58.5 17.5h-36l8 56h29q34 0 58.5 17t28.5 44q4 30 -13.5 46.5t-50.5 16.5q-48 0 -97 -28l3 65
q45 22 96 22z" />
    <glyph glyph-name="four.sups" horiz-adv-x="354" 
d="M274 828l-148 -274h120l17 122h67l-17 -122h68l-8 -55h-67l-14 -97h-67l14 97h-187l6 54l145 275h71z" />
    <glyph glyph-name="five.sups" horiz-adv-x="327" 
d="M346 768h-163l-15 -109q15 4 41 4q63 0 99 -36.5t27 -98.5q-8 -61 -54 -96.5t-116 -35.5q-60 0 -105 17l15 57q33 -16 84 -16q45 0 75 20t35 56q5 38 -15 58t-62 20q-51 0 -100 -23l32 243h230z" />
    <glyph glyph-name="six.sups" horiz-adv-x="343" 
d="M282 775q-101 0 -126 -130q35 23 81 23q63 0 96.5 -37t24.5 -103q-8 -62 -48 -97.5t-104 -35.5q-74 0 -104 49q-18 28 -22 62t4 98q13 111 62.5 170.5t130.5 59.5q57 0 96 -18l-10 -58q-42 17 -81 17zM226 613q-36 0 -60.5 -25t-23.5 -62q-2 -24 8 -42q16 -26 57 -28
q74 0 84 82q4 36 -13.5 55.5t-51.5 19.5z" />
    <glyph glyph-name="seven.sups" horiz-adv-x="322" 
d="M387 828l-5 -44l-254 -382h-77l245 366h-209l8 60h292z" />
    <glyph glyph-name="eight.sups" horiz-adv-x="351" 
d="M378 718q-7 -67 -67 -93q61 -27 50 -105q-8 -56 -49.5 -90t-106.5 -34q-67 0 -102 36t-28 92q9 77 78 107q-46 26 -38 92q6 49 45 80t98 31t93 -33.5t27 -82.5zM250 775q-29 0 -50.5 -18t-25.5 -46q-4 -30 12 -48t48 -18t53.5 18.5t24.5 46.5q4 29 -13.5 47t-48.5 18z
M227 600q-34 0 -57.5 -19.5t-27.5 -52.5q-5 -32 13 -52t54 -20q35 0 58.5 19.5t28.5 52.5q4 34 -15 53t-54 19z" />
    <glyph glyph-name="nine.sups" horiz-adv-x="343" 
d="M343 785q18 -28 22 -62.5t-4 -98.5q-13 -111 -62.5 -170t-130.5 -59q-55 0 -97 17l11 59q42 -17 81 -17q102 0 126 131q-35 -23 -81 -23q-64 0 -97.5 37t-24.5 101q7 63 47.5 98.5t104.5 35.5q74 0 105 -49zM303 702q1 25 -9 43q-17 29 -56 29q-73 0 -84 -83
q-4 -35 13 -54.5t52 -19.5t60 25t24 60z" />
    <glyph glyph-name="zero.tnum" horiz-adv-x="650" 
d="M416 757q126 0 184 -102q59 -103 34 -286q-26 -182 -111 -281q-84 -98 -205 -98q-127 0 -186.5 102.5t-33.5 286.5q26 181 111 279q85 99 207 99zM411 675q-84 0 -142 -79.5t-80 -226.5q-20 -142 15 -219t117 -77q84 0 142 79.5t79 226.5q20 141 -15 218.5t-116 77.5z
" />
    <glyph glyph-name="one.tnum" horiz-adv-x="650" 
d="M470 748l-94 -667h160l-11 -81h-426l12 81h174l80 564l-181 -93l12 89l200 107h74z" />
    <glyph glyph-name="two.tnum" horiz-adv-x="650" 
d="M371 758q112 0 167.5 -59t40.5 -163q-4 -39 -20 -78q-31 -79 -82 -136q-17 -20 -55 -60q-24 -23 -70 -61q-63 -51 -73 -58l-81 -62l326 1l-12 -82h-451l9 76q182 138 256 205q146 134 162 253q9 66 -23.5 103.5t-99.5 37.5q-99 0 -193 -55l2 89q92 49 197 49z" />
    <glyph glyph-name="three.tnum" horiz-adv-x="650" 
d="M347 758q108 0 165 -57q58 -55 44 -153q-7 -55 -39.5 -96.5t-82.5 -63.5q53 -22 80.5 -69t18.5 -112q-15 -101 -90 -159t-189 -58q-101 0 -182 40l17 86q73 -43 164 -43q76 0 128 38t61 103t-30 100.5t-115 35.5h-62l12 78h54q65 0 110.5 33t54.5 88q7 59 -27 92.5
t-98 33.5q-86 0 -169 -47l5 90q86 40 170 40z" />
    <glyph glyph-name="four.tnum" horiz-adv-x="650" 
d="M404 748l-260 -479h226l30 208h91l-29 -208h138l-11 -82h-139l-26 -187h-91l26 187h-320l9 69l260 492h96z" />
    <glyph glyph-name="five.tnum" horiz-adv-x="650" 
d="M573 667h-298l-31 -219q39 12 86 12q106 0 168 -63q61 -62 46 -172q-13 -106 -94 -171q-79 -64 -198 -64q-97 0 -174 31l20 87q68 -35 153 -35q84 0 138.5 42t64.5 115q10 70 -29 109.5t-115 39.5q-84 0 -170 -39l55 408h390z" />
    <glyph glyph-name="six.tnum" horiz-adv-x="650" 
d="M433 675q-92 0 -151.5 -68.5t-81.5 -197.5q68 56 161 56q104 0 163 -65q60 -65 44 -176q-15 -107 -86 -171q-70 -63 -178 -63q-128 0 -180 88q-29 47 -35 103q-6 57 9 167q27 196 113.5 303t220.5 107q88 0 164 -35l-22 -81q-68 33 -141 33zM346 384q-71 0 -122 -51
q-51 -49 -51 -123q0 -51 22 -85q34 -52 112 -52q72 0 116.5 43t52.5 118q10 69 -26 109.5t-104 40.5z" />
    <glyph glyph-name="seven.tnum" horiz-adv-x="650" 
d="M639 748l-7 -60l-465 -688h-106l452 666h-375l11 82h490z" />
    <glyph glyph-name="eight.tnum" horiz-adv-x="650" 
d="M402 758q103 0 158 -58t43 -145q-16 -121 -116 -162q49 -21 73 -69t15 -116q-14 -101 -84 -159.5t-182 -58.5q-119 0 -177 63q-58 62 -46 163q18 138 139 184q-85 40 -70 163q12 84 78 140q67 55 169 55zM394 675q-59 0 -100.5 -33t-48.5 -86q-8 -56 23 -89.5t94 -33.5
q62 0 102 33.5t47 87.5q8 54 -24.5 87.5t-92.5 33.5zM349 354q-70 0 -116 -37t-55 -101q-9 -66 27 -105t108 -39q71 0 116.5 38t54.5 104q9 64 -27.5 102t-107.5 38z" />
    <glyph glyph-name="nine.tnum" horiz-adv-x="650" 
d="M563 670q28 -47 34 -104q7 -53 -8 -166q-27 -196 -114 -303t-221 -107q-86 0 -164 35l23 82q65 -34 140 -34q92 0 151.5 68t82.5 198q-68 -56 -161 -56q-104 0 -164 64q-59 65 -44 177q16 108 87 171t178 63q128 0 180 -88zM341 364q71 0 121 50q51 51 51 124
q1 46 -22 85q-31 52 -111 52q-72 0 -116.5 -42.5t-53.5 -118.5q-9 -69 27 -109.5t104 -40.5z" />
    <glyph glyph-name="zero.dnom" horiz-adv-x="377" 
d="M223 432q74 0 109.5 -60t20.5 -164q-14 -101 -62.5 -157.5t-118.5 -56.5q-75 0 -110 59.5t-20 164.5q14 101 62.5 157.5t118.5 56.5zM220 372q-42 0 -71 -41.5t-40 -118.5q-20 -158 67 -158q42 0 71 41.5t39 117.5q20 159 -66 159z" />
    <glyph glyph-name="one.dnom" horiz-adv-x="236" 
d="M211 426l-60 -426h-67l49 351l-103 -55l8 68l115 62h58z" />
    <glyph glyph-name="two.dnom" horiz-adv-x="317" 
d="M177 432q64 0 95 -33.5t23 -93.5q-11 -72 -65 -129q-39 -39 -56 -54q-8 -7 -74 -61l166 -1l-9 -60h-264l8 51q1 1 3.5 2.5t6 4t6.5 4.5l102 78q39 32 71 73q32 42 38 80q5 37 -13 58t-56 21q-57 0 -108 -30l9 61q60 29 117 29z" />
    <glyph glyph-name="three.dnom" horiz-adv-x="314" 
d="M150 432q66 0 101.5 -33t27.5 -89q-7 -60 -66 -90q62 -29 49 -105q-8 -57 -51.5 -89t-109.5 -32q-61 0 -109 23l16 60q40 -24 88 -24q42 0 69 19.5t32 52.5t-14.5 50.5t-58.5 17.5h-36l8 56h29q34 0 58.5 17t28.5 44q4 30 -13.5 46.5t-50.5 16.5q-48 0 -97 -28l3 65
q45 22 96 22z" />
    <glyph glyph-name="four.dnom" horiz-adv-x="354" 
d="M220 426l-148 -274h120l17 122h67l-17 -122h68l-8 -55h-67l-14 -97h-67l14 97h-187l6 54l145 275h71z" />
    <glyph glyph-name="five.dnom" horiz-adv-x="327" 
d="M292 366h-163l-15 -109q15 4 41 4q63 0 99 -36.5t27 -98.5q-8 -61 -54 -96.5t-116 -35.5q-60 0 -105 17l15 57q33 -16 84 -16q45 0 75 20t35 56q5 38 -15 58t-62 20q-51 0 -100 -23l32 243h230z" />
    <glyph glyph-name="six.dnom" horiz-adv-x="343" 
d="M228 373q-101 0 -126 -130q35 23 81 23q63 0 96.5 -37t24.5 -103q-8 -62 -48 -97.5t-104 -35.5q-74 0 -104 49q-18 28 -22 62t4 98q13 111 62.5 170.5t130.5 59.5q57 0 96 -18l-10 -58q-42 17 -81 17zM172 211q-36 0 -60.5 -25t-23.5 -62q-2 -24 8 -42q16 -26 57 -28
q74 0 84 82q4 36 -13.5 55.5t-51.5 19.5z" />
    <glyph glyph-name="seven.dnom" horiz-adv-x="322" 
d="M333 426l-5 -44l-254 -382h-77l245 366h-209l8 60h292z" />
    <glyph glyph-name="eight.dnom" horiz-adv-x="351" 
d="M324 316q-7 -67 -67 -93q61 -27 50 -105q-8 -56 -49.5 -90t-106.5 -34q-67 0 -102 36t-28 92q9 77 78 107q-46 26 -38 92q6 49 45 80t98 31t93 -33.5t27 -82.5zM196 373q-29 0 -50.5 -18t-25.5 -46q-4 -30 12 -48t48 -18t53.5 18.5t24.5 46.5q4 29 -13.5 47t-48.5 18z
M173 198q-34 0 -57.5 -19.5t-27.5 -52.5q-5 -32 13 -52t54 -20q35 0 58.5 19.5t28.5 52.5q4 34 -15 53t-54 19z" />
    <glyph glyph-name="nine.dnom" horiz-adv-x="343" 
d="M289 383q18 -28 22 -62.5t-4 -98.5q-13 -111 -62.5 -170t-130.5 -59q-55 0 -97 17l11 59q42 -17 81 -17q102 0 126 131q-35 -23 -81 -23q-64 0 -97.5 37t-24.5 101q7 63 47.5 98.5t104.5 35.5q74 0 105 -49zM249 300q1 25 -9 43q-17 29 -56 29q-73 0 -84 -83
q-4 -35 13 -54.5t52 -19.5t60 25t24 60z" />
    <glyph glyph-name="zero.numr" horiz-adv-x="377" 
d="M264 753q74 0 109.5 -60t20.5 -164q-14 -101 -62.5 -157.5t-118.5 -56.5q-75 0 -110 59.5t-20 164.5q14 101 62.5 157.5t118.5 56.5zM261 693q-42 0 -71 -41.5t-40 -118.5q-20 -158 67 -158q42 0 71 41.5t39 117.5q19 159 -66 159z" />
    <glyph glyph-name="one.numr" horiz-adv-x="236" 
d="M252 748l-60 -426h-67l49 351l-103 -55l8 68l115 62h58z" />
    <glyph glyph-name="two.numr" horiz-adv-x="317" 
d="M218 753q64 0 95 -33.5t23 -93.5q-11 -72 -65 -129q-39 -39 -56 -54q-8 -7 -74 -61l166 -1l-9 -60h-264l8 51q1 1 3.5 2.5t6 4t6.5 4.5l102 78q39 32 71 73q32 42 38 80q5 37 -13 58t-56 21q-57 0 -108 -30l9 61q60 29 117 29z" />
    <glyph glyph-name="three.numr" horiz-adv-x="314" 
d="M191 753q66 0 101.5 -33t27.5 -89q-8 -60 -66 -90q62 -29 49 -105q-8 -57 -51.5 -89t-109.5 -32q-61 0 -109 23l16 60q41 -24 88 -24q42 0 69 19.5t32 52.5t-14.5 50.5t-58.5 17.5h-36l8 56h29q34 0 58.5 17t28.5 44q4 30 -13.5 46.5t-50.5 16.5q-48 0 -97 -28l3 65
q45 22 96 22z" />
    <glyph glyph-name="four.numr" horiz-adv-x="354" 
d="M263 747l-148 -274h120l17 122h67l-17 -122h68l-8 -55h-67l-14 -97h-67l14 97h-187l6 54l145 275h71z" />
    <glyph glyph-name="five.numr" horiz-adv-x="327" 
d="M333 688h-163l-15 -109q15 4 41 4q63 0 99 -36.5t27 -98.5q-8 -61 -54 -96.5t-116 -35.5q-60 0 -105 17l15 57q33 -16 84 -16q45 0 75 20t35 56q5 38 -15 58t-62 20q-51 0 -100 -23l32 243h230z" />
    <glyph glyph-name="six.numr" horiz-adv-x="343" 
d="M271 694q-101 0 -126 -130q35 23 81 23q63 0 96.5 -37t24.5 -103q-8 -62 -48 -97.5t-104 -35.5q-74 0 -104 49q-18 28 -22 62t4 98q13 111 62.5 170.5t130.5 59.5q57 0 96 -18l-10 -58q-42 17 -81 17zM215 532q-36 0 -60.5 -25t-23.5 -62q-2 -24 8 -42q16 -26 57 -28
q74 0 84 82q4 36 -13.5 55.5t-51.5 19.5z" />
    <glyph glyph-name="seven.numr" horiz-adv-x="322" 
d="M376 748l-5 -44l-254 -382h-77l245 366h-209l8 60h292z" />
    <glyph glyph-name="eight.numr" horiz-adv-x="351" 
d="M367 637q-7 -67 -67 -93q61 -27 50 -105q-8 -56 -49.5 -90t-106.5 -34q-67 0 -102 36t-28 92q9 77 78 107q-46 26 -38 92q6 49 45 80t98 31t93 -33.5t27 -82.5zM239 694q-29 0 -50.5 -18t-25.5 -46q-4 -30 12 -48t48 -18t53.5 18.5t24.5 46.5q4 29 -13.5 47t-48.5 18z
M216 519q-34 0 -57.5 -19.5t-27.5 -52.5q-5 -32 13 -52t54 -20q35 0 58.5 19.5t28.5 52.5q4 34 -15 53t-54 19z" />
    <glyph glyph-name="nine.numr" horiz-adv-x="343" 
d="M330 704q18 -28 22 -62.5t-4 -98.5q-13 -111 -62.5 -170t-130.5 -59q-55 0 -97 17l11 59q42 -17 81 -17q102 0 126 131q-35 -23 -81 -23q-64 0 -97.5 37t-24.5 101q7 63 47.5 98.5t104.5 35.5q74 0 105 -49zM290 621q1 25 -9 43q-17 29 -56 29q-73 0 -84 -83
q-4 -35 13 -54.5t52 -19.5t60 25t24 60z" />
    <glyph glyph-name="exclamdown.cap" horiz-adv-x="279" 
d="M201 639q-26 0 -42 19t-13 45q4 23 22 39t41 16q26 0 42 -18.5t12 -44.5q-3 -24 -21 -40t-41 -16zM57 0l82 545h91l-73 -545h-100z" />
    <glyph glyph-name="periodcentered.cap" horiz-adv-x="217" 
d="M138 472q26 0 42 -19t13 -45q-3 -23 -21.5 -39t-41.5 -16q-26 0 -42 19t-12 44q3 24 21 40t41 16z" />
    <glyph glyph-name="questiondown.cap" horiz-adv-x="475" 
d="M327 639q-26 0 -42.5 19t-12.5 45q3 23 21 39t41 16q26 0 42.5 -18.5t12.5 -44.5q-3 -24 -21 -40t-41 -16zM243 -10q-112 0 -171 58t-46 151q9 60 38.5 100.5t89.5 84.5q44 29 57 40q42 35 49 93q3 19 4 31l90 -5q0 -2 -4 -37q-7 -53 -32 -86q-23 -30 -84 -76
q-54 -32 -81.5 -66t-33.5 -81q-9 -58 26.5 -92.5t107.5 -34.5q91 0 181 57l-3 -88q-86 -49 -188 -49z" />
    <glyph glyph-name="braceleft.cap" horiz-adv-x="251" 
d="M304 770l-10 -73h-4q-100 0 -92 -165q3 -46 0.5 -75t-19.5 -54t-50 -31q43 -9 45 -59q1 -49 -21 -109q-28 -82 -18.5 -119t59.5 -37h8l-9 -73h-4q-93 0 -125.5 59t3.5 172l14 38q15 39 13 58q-3 34 -49 34h-10l10 72h6q49 0 60 32.5t6 106.5q-10 106 38.5 164.5
t140.5 58.5h8z" />
    <glyph glyph-name="braceright.cap" horiz-adv-x="251" 
d="M83 697l10 73h3q93 0 126 -59t-3 -172q-31 -81 -26 -105q7 -25 47 -26h10l-10 -72h-6q-34 0 -50 -17t-17 -47.5t2 -73.5q9 -107 -39 -165t-140 -58h-9l10 73h4q51 0 73.5 40t18.5 125q-3 46 -0.5 75t19.5 54t50 31q-74 15 -23 167q27 82 18 119.5t-59 37.5h-9z" />
    <glyph glyph-name="bracketleft.cap" horiz-adv-x="264" 
d="M312 770l-10 -73h-98l-92 -649h99l-11 -73h-184l112 795h184z" />
    <glyph glyph-name="bracketright.cap" horiz-adv-x="271" 
d="M277 770l-111 -795h-184l10 73h97l92 649h-97l9 73h184z" />
    <glyph glyph-name="parenleft.cap" horiz-adv-x="255" 
d="M260 772l72 -31q-136 -176 -164 -384q-28 -201 55 -378l-75 -22q-97 180 -65 410q33 229 177 405z" />
    <glyph glyph-name="parenright.cap" horiz-adv-x="253" 
d="M92 745l76 23q96 -181 64 -411q-32 -226 -176 -404l-72 30q135 176 163 384q28 204 -55 378z" />
    <glyph glyph-name="emdash.cap" horiz-adv-x="795" 
d="M772 417l-11 -81h-705l12 81h704z" />
    <glyph glyph-name="endash.cap" horiz-adv-x="563" 
d="M540 417l-11 -81h-473l12 81h472z" />
    <glyph glyph-name="hyphen.cap" horiz-adv-x="403" 
d="M370 417l-11 -81h-313l11 81h313z" />
    <glyph glyph-name="guillemotleft.cap" horiz-adv-x="531" 
d="M237 602l64 -49l-175 -175l124 -176l-72 -39l-149 220zM486 602l63 -49l-175 -175l124 -176l-71 -39l-150 220z" />
    <glyph glyph-name="guillemotright.cap" horiz-adv-x="531" 
d="M133 602l149 -219l-208 -220l-64 49l175 176l-124 175zM380 602l150 -219l-209 -220l-63 49l174 176l-124 175z" />
    <glyph glyph-name="guilsinglleft.cap" horiz-adv-x="306" 
d="M268 601l54 -60l-189 -163l144 -163l-68 -50l-180 218z" />
    <glyph glyph-name="guilsinglright.cap" horiz-adv-x="306" 
d="M126 601l180 -218l-239 -218l-54 60l189 163l-143 162z" />
    <glyph glyph-name="emdash_guilsinglright" horiz-adv-x="852" 
d="M619 496l199 -236l-261 -235l-55 56l166 144h-627l10 72h628l-126 145z" />
    <glyph glyph-name="endash_guilsinglright" horiz-adv-x="591" 
d="M359 496l198 -236l-262 -235l-55 56l167 144h-366l10 72h367l-125 145z" />
    <glyph glyph-name="guilsinglleft_emdash" horiz-adv-x="852" 
d="M298 496l54 -56l-165 -143h626l-9 -72h-632l129 -146l-66 -54l-199 235z" />
    <glyph glyph-name="guilsinglleft_endash" horiz-adv-x="591" 
d="M298 496l54 -56l-164 -143h364l-10 -72h-369l128 -146l-66 -54l-199 235z" />
    <glyph glyph-name="at.cap" horiz-adv-x="802" 
d="M481 723q156 0 242 -101t65 -253q-14 -97 -59 -147.5t-111 -50.5q-68 0 -82 48q-65 -53 -138 -53q-81 0 -125 56t-30 156q14 98 69 150.5t135 52.5q78 0 117 -48l6 40h66l-41 -298q-8 -47 41 -47q35 0 61.5 39.5t35.5 109.5q18 127 -53 210t-200 83q-132 0 -227 -85
q-96 -84 -114 -216q-17 -128 55 -210t194 -82q101 0 187 44l19 -52q-93 -46 -207 -46q-150 0 -237 99q-87 100 -66 255q23 153 133 249q112 97 264 97zM457 523q-56 0 -95 -39t-48 -114q-11 -70 17 -108.5t82 -38.5q64 0 114 49l29 205q-37 46 -99 46z" />
    <glyph glyph-name="acute.case" horiz-adv-x="306" 
d="M382 938l-206 -141h-84l168 141h122z" />
    <glyph glyph-name="breve.case" horiz-adv-x="353" 
d="M368 940h71q-10 -65 -55 -99t-116 -34q-74 0 -112.5 35.5t-29.5 97.5h71q-5 -34 15 -53.5t59 -19.5t65.5 20t31.5 53z" />
    <glyph glyph-name="caron.case" horiz-adv-x="356" 
d="M435 940l-140 -143h-81l-99 143h73l72 -90l99 90h76z" />
    <glyph glyph-name="circumflex.case" horiz-adv-x="356" 
d="M315 940l98 -143h-73l-71 90l-100 -90h-77l140 143h83z" />
    <glyph glyph-name="dieresis.case" horiz-adv-x="294" 
d="M164 922q24 0 38 -16.5t11 -39.5q-3 -20 -18.5 -33.5t-35.5 -13.5q-23 0 -37.5 16t-11.5 39q3 20 18.5 34t35.5 14zM313 922q24 0 38 -16.5t11 -39.5q-3 -20 -18.5 -33.5t-35.5 -13.5q-23 0 -37.5 16t-11.5 39q3 20 18.5 34t35.5 14z" />
    <glyph glyph-name="dotaccent.case" horiz-adv-x="155" 
d="M171 927q26 0 42 -19t12 -44q-3 -22 -20.5 -37.5t-40.5 -15.5q-26 0 -42 18t-12 43q3 23 21 39t40 16z" />
    <glyph glyph-name="grave.case" horiz-adv-x="306" 
d="M234 938l129 -141h-80l-167 141h118z" />
    <glyph glyph-name="hungarumlaut.case" horiz-adv-x="346" 
d="M257 948l-95 -148h-69l80 148h84zM427 948l-95 -148h-69l80 148h84z" />
    <glyph glyph-name="macron.case" horiz-adv-x="294" 
d="M371 903l-10 -66h-263l9 66h264z" />
    <glyph glyph-name="ring.case" horiz-adv-x="247" 
d="M229 989q46 0 73 -28.5t20 -72.5q-6 -41 -37.5 -67t-73.5 -26q-45 0 -72.5 29t-21.5 73q6 41 37.5 66.5t74.5 25.5zM226 943q-22 0 -38 -13.5t-19 -35.5q-4 -21 9.5 -36.5t34.5 -15.5q22 0 38.5 14t20.5 35q3 21 -11 36.5t-35 15.5z" />
    <glyph glyph-name="tilde.case" horiz-adv-x="361" 
d="M200 938q35 0 69 -31q35 -31 57 -31q24 0 41 16t21 41l50 -5q-3 -49 -32 -83t-70 -34q-35 0 -71 30q-35 31 -56 31q-24 0 -41 -16t-22 -41l-49 6q3 49 32 83t71 34z" />
    <glyph glyph-name="anneau" horiz-adv-x="583" 
d="M353 759q111 0 182 -74t61 -182q-9 -105 -89 -178q-80 -71 -189 -71q-113 0 -184 74q-69 74 -60 183q10 107 90 177q80 71 189 71zM353 728q-95 0 -165 -63q-70 -62 -77 -156q-9 -95 51 -160q60 -64 157 -64q93 0 164 63t78 156q8 95 -52 159q-59 65 -156 65z" />
    <glyph glyph-name="_509" horiz-adv-x="600" 
 />
    </font>
</defs>
</svg>
